%TF.GenerationSoftware,KiCad,Pcbnew,5.1.6*%
%TF.CreationDate,2020-07-01T22:40:06-03:00*%
%TF.ProjectId,audioamp,61756469-6f61-46d7-902e-6b696361645f,2*%
%TF.SameCoordinates,Original*%
%TF.FileFunction,Copper,L1,Top*%
%TF.FilePolarity,Positive*%
%FSLAX46Y46*%
G04 Gerber Fmt 4.6, Leading zero omitted, Abs format (unit mm)*
G04 Created by KiCad (PCBNEW 5.1.6) date 2020-07-01 22:40:06*
%MOMM*%
%LPD*%
G01*
G04 APERTURE LIST*
%TA.AperFunction,ComponentPad*%
%ADD10R,2.000000X1.800000*%
%TD*%
%TA.AperFunction,ComponentPad*%
%ADD11O,2.000000X1.800000*%
%TD*%
%TA.AperFunction,ComponentPad*%
%ADD12O,1.600000X1.600000*%
%TD*%
%TA.AperFunction,ComponentPad*%
%ADD13C,1.600000*%
%TD*%
%TA.AperFunction,ComponentPad*%
%ADD14R,3.000000X3.000000*%
%TD*%
%TA.AperFunction,ComponentPad*%
%ADD15C,3.000000*%
%TD*%
%TA.AperFunction,ComponentPad*%
%ADD16R,2.000000X2.000000*%
%TD*%
%TA.AperFunction,ComponentPad*%
%ADD17R,1.600000X1.600000*%
%TD*%
%TA.AperFunction,ComponentPad*%
%ADD18R,2.200000X2.200000*%
%TD*%
%TA.AperFunction,ComponentPad*%
%ADD19O,2.200000X2.200000*%
%TD*%
%TA.AperFunction,ComponentPad*%
%ADD20R,2.400000X1.600000*%
%TD*%
%TA.AperFunction,ComponentPad*%
%ADD21O,2.400000X1.600000*%
%TD*%
%TA.AperFunction,Conductor*%
%ADD22C,0.800000*%
%TD*%
G04 APERTURE END LIST*
D10*
%TO.P,U1,1*%
%TO.N,/T1+*%
X107696000Y-63500000D03*
D11*
%TO.P,U1,2*%
%TO.N,/T2+*%
X109396000Y-59800000D03*
%TO.P,U1,3*%
%TO.N,-VDC*%
X111096000Y-63500000D03*
%TO.P,U1,4*%
%TO.N,/OUT+*%
X112796000Y-59800000D03*
%TO.P,U1,5*%
%TO.N,+VDC*%
X114496000Y-63500000D03*
%TD*%
D12*
%TO.P,R1,2*%
%TO.N,GND*%
X93408500Y-95504000D03*
D13*
%TO.P,R1,1*%
%TO.N,/T1+*%
X101028500Y-95504000D03*
%TD*%
D14*
%TO.P,LS1,1*%
%TO.N,/OUT+*%
X155956000Y-77216000D03*
D15*
%TO.P,LS1,2*%
%TO.N,/OUT-*%
X155956000Y-82296000D03*
%TD*%
D12*
%TO.P,R6,2*%
%TO.N,/T2-*%
X143256000Y-99695000D03*
D13*
%TO.P,R6,1*%
%TO.N,/OUT-*%
X143256000Y-92075000D03*
%TD*%
D14*
%TO.P,J1,1*%
%TO.N,+VDC*%
X52324000Y-79946500D03*
D15*
%TO.P,J1,2*%
%TO.N,GND*%
X52324000Y-74866500D03*
%TO.P,J1,3*%
%TO.N,-VDC*%
X52324000Y-69786500D03*
%TD*%
D16*
%TO.P,JPR1,1*%
%TO.N,GND*%
X110744000Y-98044000D03*
%TD*%
%TO.P,JPR1,1*%
%TO.N,GND*%
X110744000Y-105156000D03*
%TD*%
D17*
%TO.P,C3,1*%
%TO.N,-VDC*%
X111252000Y-67564000D03*
D13*
%TO.P,C3,2*%
%TO.N,GND*%
X111252000Y-70064000D03*
%TD*%
D12*
%TO.P,R5,2*%
%TO.N,GND*%
X125476000Y-82296000D03*
D13*
%TO.P,R5,1*%
%TO.N,Net-(C7-Pad2)*%
X138176000Y-82296000D03*
%TD*%
D17*
%TO.P,C6,1*%
%TO.N,+VDC*%
X122936000Y-68072000D03*
D13*
%TO.P,C6,2*%
%TO.N,GND*%
X125436000Y-68072000D03*
%TD*%
D18*
%TO.P,D2,1*%
%TO.N,/OUT+*%
X128524000Y-73152000D03*
D19*
%TO.P,D2,2*%
%TO.N,-VDC*%
X118364000Y-73152000D03*
%TD*%
D13*
%TO.P,C1,2*%
%TO.N,/T1+*%
X107108000Y-83820000D03*
D17*
%TO.P,C1,1*%
%TO.N,/+SIG_F*%
X102108000Y-83820000D03*
%TD*%
D12*
%TO.P,R4,2*%
%TO.N,GND*%
X150876000Y-67564000D03*
D13*
%TO.P,R4,1*%
%TO.N,Net-(C5-Pad2)*%
X138176000Y-67564000D03*
%TD*%
D12*
%TO.P,R13,2*%
%TO.N,Net-(C10-Pad2)*%
X77724000Y-67564000D03*
D13*
%TO.P,R13,1*%
%TO.N,Net-(R13-Pad1)*%
X85344000Y-67564000D03*
%TD*%
%TO.P,R12,1*%
%TO.N,Net-(C11-Pad2)*%
X68580000Y-95504000D03*
D12*
%TO.P,R12,2*%
%TO.N,/+SIG*%
X60960000Y-95504000D03*
%TD*%
D13*
%TO.P,R14,1*%
%TO.N,Net-(R14-Pad1)*%
X79756000Y-98552000D03*
D12*
%TO.P,R14,2*%
%TO.N,Net-(C11-Pad1)*%
X72136000Y-98552000D03*
%TD*%
D13*
%TO.P,C16,2*%
%TO.N,GND*%
X96520000Y-86788000D03*
%TO.P,C16,1*%
%TO.N,-VDC*%
X96520000Y-81788000D03*
%TD*%
%TO.P,C15,2*%
%TO.N,GND*%
X90932000Y-85582888D03*
D17*
%TO.P,C15,1*%
%TO.N,-VDC*%
X90932000Y-83082888D03*
%TD*%
D13*
%TO.P,C14,2*%
%TO.N,GND*%
X72644000Y-85582888D03*
D17*
%TO.P,C14,1*%
%TO.N,+VDC*%
X72644000Y-83082888D03*
%TD*%
D13*
%TO.P,C13,2*%
%TO.N,GND*%
X67056000Y-86788000D03*
%TO.P,C13,1*%
%TO.N,+VDC*%
X67056000Y-81788000D03*
%TD*%
D17*
%TO.P,C2,1*%
%TO.N,/T2+*%
X132080000Y-56896000D03*
D13*
%TO.P,C2,2*%
%TO.N,Net-(C2-Pad2)*%
X134580000Y-56896000D03*
%TD*%
%TO.P,C4,1*%
%TO.N,+VDC*%
X119380000Y-98044000D03*
%TO.P,C4,2*%
%TO.N,GND*%
X119380000Y-93044000D03*
%TD*%
%TO.P,C5,2*%
%TO.N,Net-(C5-Pad2)*%
X134580000Y-67564000D03*
D17*
%TO.P,C5,1*%
%TO.N,/OUT+*%
X132080000Y-67564000D03*
%TD*%
D13*
%TO.P,C7,2*%
%TO.N,Net-(C7-Pad2)*%
X138256000Y-86233000D03*
%TO.P,C7,1*%
%TO.N,/OUT-*%
X143256000Y-86233000D03*
%TD*%
%TO.P,C8,1*%
%TO.N,-VDC*%
X123444000Y-98044000D03*
%TO.P,C8,2*%
%TO.N,GND*%
X123444000Y-93044000D03*
%TD*%
%TO.P,C9,2*%
%TO.N,Net-(C9-Pad2)*%
X148082000Y-97195000D03*
D17*
%TO.P,C9,1*%
%TO.N,/T2-*%
X148082000Y-99695000D03*
%TD*%
D13*
%TO.P,C10,1*%
%TO.N,/Filtro Passa-Baixas/Vo1*%
X73152000Y-72644000D03*
%TO.P,C10,2*%
%TO.N,Net-(C10-Pad2)*%
X73152000Y-67644000D03*
%TD*%
%TO.P,C11,2*%
%TO.N,Net-(C11-Pad2)*%
X72644000Y-89996000D03*
%TO.P,C11,1*%
%TO.N,Net-(C11-Pad1)*%
X72644000Y-94996000D03*
%TD*%
%TO.P,C12,1*%
%TO.N,/+SIG_F*%
X89916000Y-68580000D03*
%TO.P,C12,2*%
%TO.N,Net-(C12-Pad2)*%
X89916000Y-63580000D03*
%TD*%
D19*
%TO.P,D1,2*%
%TO.N,/OUT+*%
X128524000Y-77724000D03*
D18*
%TO.P,D1,1*%
%TO.N,+VDC*%
X118364000Y-77724000D03*
%TD*%
%TO.P,D3,1*%
%TO.N,/OUT-*%
X133096000Y-108162499D03*
D19*
%TO.P,D3,2*%
%TO.N,-VDC*%
X133096000Y-98002499D03*
%TD*%
%TO.P,D4,2*%
%TO.N,/OUT-*%
X137160000Y-108204000D03*
D18*
%TO.P,D4,1*%
%TO.N,+VDC*%
X137160000Y-98044000D03*
%TD*%
D14*
%TO.P,J2,1*%
%TO.N,GND*%
X52324000Y-94488000D03*
D15*
%TO.P,J2,2*%
%TO.N,/+SIG*%
X52324000Y-89408000D03*
%TD*%
D12*
%TO.P,R2,2*%
%TO.N,GND*%
X145796000Y-56896000D03*
D13*
%TO.P,R2,1*%
%TO.N,Net-(C2-Pad2)*%
X138176000Y-56896000D03*
%TD*%
%TO.P,R3,1*%
%TO.N,/OUT+*%
X139700000Y-62484000D03*
D12*
%TO.P,R3,2*%
%TO.N,/T2+*%
X132080000Y-62484000D03*
%TD*%
%TO.P,R7,2*%
%TO.N,/OUT+*%
X146685000Y-77343000D03*
D13*
%TO.P,R7,1*%
%TO.N,Net-(C9-Pad2)*%
X139065000Y-77343000D03*
%TD*%
%TO.P,R8,1*%
%TO.N,Net-(C9-Pad2)*%
X139065000Y-72771000D03*
D12*
%TO.P,R8,2*%
%TO.N,GND*%
X146685000Y-72771000D03*
%TD*%
D13*
%TO.P,R9,1*%
%TO.N,/T1-*%
X139065000Y-92456000D03*
D12*
%TO.P,R9,2*%
%TO.N,GND*%
X131445000Y-92456000D03*
%TD*%
D13*
%TO.P,R10,1*%
%TO.N,/Filtro Passa-Baixas/Vo1*%
X60960000Y-77724000D03*
D12*
%TO.P,R10,2*%
%TO.N,Net-(C10-Pad2)*%
X68580000Y-77724000D03*
%TD*%
%TO.P,R11,2*%
%TO.N,/Filtro Passa-Baixas/Vo1*%
X60960000Y-90424000D03*
D13*
%TO.P,R11,1*%
%TO.N,Net-(C11-Pad2)*%
X68580000Y-90424000D03*
%TD*%
D12*
%TO.P,R15,2*%
%TO.N,Net-(R14-Pad1)*%
X101092000Y-90424000D03*
D13*
%TO.P,R15,1*%
%TO.N,Net-(R13-Pad1)*%
X93472000Y-90424000D03*
%TD*%
D12*
%TO.P,R16,2*%
%TO.N,/Filtro Passa-Baixas/Vo1*%
X77724000Y-63500000D03*
D13*
%TO.P,R16,1*%
%TO.N,Net-(C12-Pad2)*%
X85344000Y-63500000D03*
%TD*%
D12*
%TO.P,R17,2*%
%TO.N,Net-(C12-Pad2)*%
X93472000Y-78232000D03*
D13*
%TO.P,R17,1*%
%TO.N,/+SIG_F*%
X101092000Y-78232000D03*
%TD*%
D11*
%TO.P,U2,5*%
%TO.N,+VDC*%
X119888000Y-101600000D03*
%TO.P,U2,4*%
%TO.N,/OUT-*%
X121588000Y-105300000D03*
%TO.P,U2,3*%
%TO.N,-VDC*%
X123288000Y-101600000D03*
%TO.P,U2,2*%
%TO.N,/T2-*%
X124988000Y-105300000D03*
D10*
%TO.P,U2,1*%
%TO.N,/T1-*%
X126688000Y-101600000D03*
%TD*%
D20*
%TO.P,U3,1*%
%TO.N,/Filtro Passa-Baixas/Vo1*%
X77914500Y-75374500D03*
D21*
%TO.P,U3,8*%
%TO.N,Net-(R13-Pad1)*%
X85534500Y-90614500D03*
%TO.P,U3,2*%
%TO.N,Net-(C10-Pad2)*%
X77914500Y-77914500D03*
%TO.P,U3,9*%
%TO.N,Net-(R14-Pad1)*%
X85534500Y-88074500D03*
%TO.P,U3,3*%
%TO.N,GND*%
X77914500Y-80454500D03*
%TO.P,U3,10*%
X85534500Y-85534500D03*
%TO.P,U3,4*%
%TO.N,+VDC*%
X77914500Y-82994500D03*
%TO.P,U3,11*%
%TO.N,-VDC*%
X85534500Y-82994500D03*
%TO.P,U3,5*%
%TO.N,GND*%
X77914500Y-85534500D03*
%TO.P,U3,12*%
X85534500Y-80454500D03*
%TO.P,U3,6*%
%TO.N,Net-(C11-Pad2)*%
X77914500Y-88074500D03*
%TO.P,U3,13*%
%TO.N,Net-(C12-Pad2)*%
X85534500Y-77914500D03*
%TO.P,U3,7*%
%TO.N,Net-(C11-Pad1)*%
X77914500Y-90614500D03*
%TO.P,U3,14*%
%TO.N,/+SIG_F*%
X85534500Y-75374500D03*
%TD*%
D22*
%TO.N,GND*%
X110744000Y-105156000D02*
X110744000Y-98044000D01*
%TD*%
M02*
