%TF.GenerationSoftware,KiCad,Pcbnew,5.1.6*%
%TF.CreationDate,2020-07-01T22:40:06-03:00*%
%TF.ProjectId,audioamp,61756469-6f61-46d7-902e-6b696361645f,2*%
%TF.SameCoordinates,Original*%
%TF.FileFunction,Copper,L2,Bot*%
%TF.FilePolarity,Positive*%
%FSLAX46Y46*%
G04 Gerber Fmt 4.6, Leading zero omitted, Abs format (unit mm)*
G04 Created by KiCad (PCBNEW 5.1.6) date 2020-07-01 22:40:06*
%MOMM*%
%LPD*%
G01*
G04 APERTURE LIST*
%TA.AperFunction,ComponentPad*%
%ADD10R,2.000000X1.800000*%
%TD*%
%TA.AperFunction,ComponentPad*%
%ADD11O,2.000000X1.800000*%
%TD*%
%TA.AperFunction,ComponentPad*%
%ADD12O,1.600000X1.600000*%
%TD*%
%TA.AperFunction,ComponentPad*%
%ADD13C,1.600000*%
%TD*%
%TA.AperFunction,ComponentPad*%
%ADD14R,3.000000X3.000000*%
%TD*%
%TA.AperFunction,ComponentPad*%
%ADD15C,3.000000*%
%TD*%
%TA.AperFunction,ComponentPad*%
%ADD16R,2.000000X2.000000*%
%TD*%
%TA.AperFunction,ComponentPad*%
%ADD17R,1.600000X1.600000*%
%TD*%
%TA.AperFunction,ComponentPad*%
%ADD18R,2.200000X2.200000*%
%TD*%
%TA.AperFunction,ComponentPad*%
%ADD19O,2.200000X2.200000*%
%TD*%
%TA.AperFunction,ComponentPad*%
%ADD20R,2.400000X1.600000*%
%TD*%
%TA.AperFunction,ComponentPad*%
%ADD21O,2.400000X1.600000*%
%TD*%
%TA.AperFunction,Conductor*%
%ADD22C,0.800000*%
%TD*%
%TA.AperFunction,Conductor*%
%ADD23C,1.000000*%
%TD*%
%TA.AperFunction,Conductor*%
%ADD24C,2.000000*%
%TD*%
%TA.AperFunction,Conductor*%
%ADD25C,3.000000*%
%TD*%
%TA.AperFunction,Conductor*%
%ADD26C,0.254000*%
%TD*%
G04 APERTURE END LIST*
D10*
%TO.P,U1,1*%
%TO.N,/T1+*%
X107696000Y-63500000D03*
D11*
%TO.P,U1,2*%
%TO.N,/T2+*%
X109396000Y-59800000D03*
%TO.P,U1,3*%
%TO.N,-VDC*%
X111096000Y-63500000D03*
%TO.P,U1,4*%
%TO.N,/OUT+*%
X112796000Y-59800000D03*
%TO.P,U1,5*%
%TO.N,+VDC*%
X114496000Y-63500000D03*
%TD*%
D12*
%TO.P,R1,2*%
%TO.N,GND*%
X93408500Y-95504000D03*
D13*
%TO.P,R1,1*%
%TO.N,/T1+*%
X101028500Y-95504000D03*
%TD*%
D14*
%TO.P,LS1,1*%
%TO.N,/OUT+*%
X155956000Y-77216000D03*
D15*
%TO.P,LS1,2*%
%TO.N,/OUT-*%
X155956000Y-82296000D03*
%TD*%
D12*
%TO.P,R6,2*%
%TO.N,/T2-*%
X143256000Y-99695000D03*
D13*
%TO.P,R6,1*%
%TO.N,/OUT-*%
X143256000Y-92075000D03*
%TD*%
D14*
%TO.P,J1,1*%
%TO.N,+VDC*%
X52324000Y-79946500D03*
D15*
%TO.P,J1,2*%
%TO.N,GND*%
X52324000Y-74866500D03*
%TO.P,J1,3*%
%TO.N,-VDC*%
X52324000Y-69786500D03*
%TD*%
D16*
%TO.P,JPR1,1*%
%TO.N,GND*%
X110744000Y-98044000D03*
%TD*%
%TO.P,JPR1,1*%
%TO.N,GND*%
X110744000Y-105156000D03*
%TD*%
D17*
%TO.P,C3,1*%
%TO.N,-VDC*%
X111252000Y-67564000D03*
D13*
%TO.P,C3,2*%
%TO.N,GND*%
X111252000Y-70064000D03*
%TD*%
D12*
%TO.P,R5,2*%
%TO.N,GND*%
X125476000Y-82296000D03*
D13*
%TO.P,R5,1*%
%TO.N,Net-(C7-Pad2)*%
X138176000Y-82296000D03*
%TD*%
D17*
%TO.P,C6,1*%
%TO.N,+VDC*%
X122936000Y-68072000D03*
D13*
%TO.P,C6,2*%
%TO.N,GND*%
X125436000Y-68072000D03*
%TD*%
D18*
%TO.P,D2,1*%
%TO.N,/OUT+*%
X128524000Y-73152000D03*
D19*
%TO.P,D2,2*%
%TO.N,-VDC*%
X118364000Y-73152000D03*
%TD*%
D13*
%TO.P,C1,2*%
%TO.N,/T1+*%
X107108000Y-83820000D03*
D17*
%TO.P,C1,1*%
%TO.N,/+SIG_F*%
X102108000Y-83820000D03*
%TD*%
D12*
%TO.P,R4,2*%
%TO.N,GND*%
X150876000Y-67564000D03*
D13*
%TO.P,R4,1*%
%TO.N,Net-(C5-Pad2)*%
X138176000Y-67564000D03*
%TD*%
D12*
%TO.P,R13,2*%
%TO.N,Net-(C10-Pad2)*%
X77724000Y-67564000D03*
D13*
%TO.P,R13,1*%
%TO.N,Net-(R13-Pad1)*%
X85344000Y-67564000D03*
%TD*%
%TO.P,R12,1*%
%TO.N,Net-(C11-Pad2)*%
X68580000Y-95504000D03*
D12*
%TO.P,R12,2*%
%TO.N,/+SIG*%
X60960000Y-95504000D03*
%TD*%
D13*
%TO.P,R14,1*%
%TO.N,Net-(R14-Pad1)*%
X79756000Y-98552000D03*
D12*
%TO.P,R14,2*%
%TO.N,Net-(C11-Pad1)*%
X72136000Y-98552000D03*
%TD*%
D13*
%TO.P,C16,2*%
%TO.N,GND*%
X96520000Y-86788000D03*
%TO.P,C16,1*%
%TO.N,-VDC*%
X96520000Y-81788000D03*
%TD*%
%TO.P,C15,2*%
%TO.N,GND*%
X90932000Y-85582888D03*
D17*
%TO.P,C15,1*%
%TO.N,-VDC*%
X90932000Y-83082888D03*
%TD*%
D13*
%TO.P,C14,2*%
%TO.N,GND*%
X72644000Y-85582888D03*
D17*
%TO.P,C14,1*%
%TO.N,+VDC*%
X72644000Y-83082888D03*
%TD*%
D13*
%TO.P,C13,2*%
%TO.N,GND*%
X67056000Y-86788000D03*
%TO.P,C13,1*%
%TO.N,+VDC*%
X67056000Y-81788000D03*
%TD*%
D17*
%TO.P,C2,1*%
%TO.N,/T2+*%
X132080000Y-56896000D03*
D13*
%TO.P,C2,2*%
%TO.N,Net-(C2-Pad2)*%
X134580000Y-56896000D03*
%TD*%
%TO.P,C4,1*%
%TO.N,+VDC*%
X119380000Y-98044000D03*
%TO.P,C4,2*%
%TO.N,GND*%
X119380000Y-93044000D03*
%TD*%
%TO.P,C5,2*%
%TO.N,Net-(C5-Pad2)*%
X134580000Y-67564000D03*
D17*
%TO.P,C5,1*%
%TO.N,/OUT+*%
X132080000Y-67564000D03*
%TD*%
D13*
%TO.P,C7,2*%
%TO.N,Net-(C7-Pad2)*%
X138256000Y-86233000D03*
%TO.P,C7,1*%
%TO.N,/OUT-*%
X143256000Y-86233000D03*
%TD*%
%TO.P,C8,1*%
%TO.N,-VDC*%
X123444000Y-98044000D03*
%TO.P,C8,2*%
%TO.N,GND*%
X123444000Y-93044000D03*
%TD*%
%TO.P,C9,2*%
%TO.N,Net-(C9-Pad2)*%
X148082000Y-97195000D03*
D17*
%TO.P,C9,1*%
%TO.N,/T2-*%
X148082000Y-99695000D03*
%TD*%
D13*
%TO.P,C10,1*%
%TO.N,/Filtro Passa-Baixas/Vo1*%
X73152000Y-72644000D03*
%TO.P,C10,2*%
%TO.N,Net-(C10-Pad2)*%
X73152000Y-67644000D03*
%TD*%
%TO.P,C11,2*%
%TO.N,Net-(C11-Pad2)*%
X72644000Y-89996000D03*
%TO.P,C11,1*%
%TO.N,Net-(C11-Pad1)*%
X72644000Y-94996000D03*
%TD*%
%TO.P,C12,1*%
%TO.N,/+SIG_F*%
X89916000Y-68580000D03*
%TO.P,C12,2*%
%TO.N,Net-(C12-Pad2)*%
X89916000Y-63580000D03*
%TD*%
D19*
%TO.P,D1,2*%
%TO.N,/OUT+*%
X128524000Y-77724000D03*
D18*
%TO.P,D1,1*%
%TO.N,+VDC*%
X118364000Y-77724000D03*
%TD*%
%TO.P,D3,1*%
%TO.N,/OUT-*%
X133096000Y-108162499D03*
D19*
%TO.P,D3,2*%
%TO.N,-VDC*%
X133096000Y-98002499D03*
%TD*%
%TO.P,D4,2*%
%TO.N,/OUT-*%
X137160000Y-108204000D03*
D18*
%TO.P,D4,1*%
%TO.N,+VDC*%
X137160000Y-98044000D03*
%TD*%
D14*
%TO.P,J2,1*%
%TO.N,GND*%
X52324000Y-94488000D03*
D15*
%TO.P,J2,2*%
%TO.N,/+SIG*%
X52324000Y-89408000D03*
%TD*%
D12*
%TO.P,R2,2*%
%TO.N,GND*%
X145796000Y-56896000D03*
D13*
%TO.P,R2,1*%
%TO.N,Net-(C2-Pad2)*%
X138176000Y-56896000D03*
%TD*%
%TO.P,R3,1*%
%TO.N,/OUT+*%
X139700000Y-62484000D03*
D12*
%TO.P,R3,2*%
%TO.N,/T2+*%
X132080000Y-62484000D03*
%TD*%
%TO.P,R7,2*%
%TO.N,/OUT+*%
X146685000Y-77343000D03*
D13*
%TO.P,R7,1*%
%TO.N,Net-(C9-Pad2)*%
X139065000Y-77343000D03*
%TD*%
%TO.P,R8,1*%
%TO.N,Net-(C9-Pad2)*%
X139065000Y-72771000D03*
D12*
%TO.P,R8,2*%
%TO.N,GND*%
X146685000Y-72771000D03*
%TD*%
D13*
%TO.P,R9,1*%
%TO.N,/T1-*%
X139065000Y-92456000D03*
D12*
%TO.P,R9,2*%
%TO.N,GND*%
X131445000Y-92456000D03*
%TD*%
D13*
%TO.P,R10,1*%
%TO.N,/Filtro Passa-Baixas/Vo1*%
X60960000Y-77724000D03*
D12*
%TO.P,R10,2*%
%TO.N,Net-(C10-Pad2)*%
X68580000Y-77724000D03*
%TD*%
%TO.P,R11,2*%
%TO.N,/Filtro Passa-Baixas/Vo1*%
X60960000Y-90424000D03*
D13*
%TO.P,R11,1*%
%TO.N,Net-(C11-Pad2)*%
X68580000Y-90424000D03*
%TD*%
D12*
%TO.P,R15,2*%
%TO.N,Net-(R14-Pad1)*%
X101092000Y-90424000D03*
D13*
%TO.P,R15,1*%
%TO.N,Net-(R13-Pad1)*%
X93472000Y-90424000D03*
%TD*%
D12*
%TO.P,R16,2*%
%TO.N,/Filtro Passa-Baixas/Vo1*%
X77724000Y-63500000D03*
D13*
%TO.P,R16,1*%
%TO.N,Net-(C12-Pad2)*%
X85344000Y-63500000D03*
%TD*%
D12*
%TO.P,R17,2*%
%TO.N,Net-(C12-Pad2)*%
X93472000Y-78232000D03*
D13*
%TO.P,R17,1*%
%TO.N,/+SIG_F*%
X101092000Y-78232000D03*
%TD*%
D11*
%TO.P,U2,5*%
%TO.N,+VDC*%
X119888000Y-101600000D03*
%TO.P,U2,4*%
%TO.N,/OUT-*%
X121588000Y-105300000D03*
%TO.P,U2,3*%
%TO.N,-VDC*%
X123288000Y-101600000D03*
%TO.P,U2,2*%
%TO.N,/T2-*%
X124988000Y-105300000D03*
D10*
%TO.P,U2,1*%
%TO.N,/T1-*%
X126688000Y-101600000D03*
%TD*%
D20*
%TO.P,U3,1*%
%TO.N,/Filtro Passa-Baixas/Vo1*%
X77914500Y-75374500D03*
D21*
%TO.P,U3,8*%
%TO.N,Net-(R13-Pad1)*%
X85534500Y-90614500D03*
%TO.P,U3,2*%
%TO.N,Net-(C10-Pad2)*%
X77914500Y-77914500D03*
%TO.P,U3,9*%
%TO.N,Net-(R14-Pad1)*%
X85534500Y-88074500D03*
%TO.P,U3,3*%
%TO.N,GND*%
X77914500Y-80454500D03*
%TO.P,U3,10*%
X85534500Y-85534500D03*
%TO.P,U3,4*%
%TO.N,+VDC*%
X77914500Y-82994500D03*
%TO.P,U3,11*%
%TO.N,-VDC*%
X85534500Y-82994500D03*
%TO.P,U3,5*%
%TO.N,GND*%
X77914500Y-85534500D03*
%TO.P,U3,12*%
X85534500Y-80454500D03*
%TO.P,U3,6*%
%TO.N,Net-(C11-Pad2)*%
X77914500Y-88074500D03*
%TO.P,U3,13*%
%TO.N,Net-(C12-Pad2)*%
X85534500Y-77914500D03*
%TO.P,U3,7*%
%TO.N,Net-(C11-Pad1)*%
X77914500Y-90614500D03*
%TO.P,U3,14*%
%TO.N,/+SIG_F*%
X85534500Y-75374500D03*
%TD*%
D22*
%TO.N,/+SIG_F*%
X89916000Y-70993000D02*
X85534500Y-75374500D01*
X102108000Y-83820000D02*
X101092000Y-82804000D01*
X101092000Y-82804000D02*
X101092000Y-78232000D01*
X89916000Y-69596000D02*
X90932000Y-68580000D01*
X90932000Y-68580000D02*
X89916000Y-68580000D01*
X89916000Y-68580000D02*
X89916000Y-69596000D01*
X89916000Y-69596000D02*
X89916000Y-70993000D01*
X92456000Y-68580000D02*
X90932000Y-68580000D01*
X101092000Y-77216000D02*
X92456000Y-68580000D01*
X101092000Y-78232000D02*
X101092000Y-77216000D01*
%TO.N,/T1+*%
X107108000Y-83820000D02*
X107108000Y-92028000D01*
X103505000Y-95631000D02*
X101028500Y-95631000D01*
X107108000Y-92028000D02*
X103505000Y-95631000D01*
X107108000Y-82376000D02*
X107108000Y-83820000D01*
X105664000Y-65532000D02*
X105664000Y-80932000D01*
X105664000Y-80932000D02*
X107108000Y-82376000D01*
X105664000Y-65532000D02*
X107696000Y-63500000D01*
%TO.N,Net-(C2-Pad2)*%
X138176000Y-56896000D02*
X134580000Y-56896000D01*
%TO.N,/T2+*%
X109396000Y-58752000D02*
X109396000Y-59800000D01*
X111252000Y-56896000D02*
X109396000Y-58752000D01*
X130937000Y-56896000D02*
X132080000Y-58039000D01*
X132080000Y-62484000D02*
X132080000Y-58039000D01*
X132080000Y-58039000D02*
X132080000Y-56896000D01*
X132080000Y-56896000D02*
X130937000Y-56896000D01*
X130937000Y-56896000D02*
X111252000Y-56896000D01*
D23*
%TO.N,-VDC*%
X85622888Y-83082888D02*
X85534500Y-82994500D01*
X90932000Y-83082888D02*
X85622888Y-83082888D01*
X95225112Y-83082888D02*
X96520000Y-81788000D01*
X90932000Y-83082888D02*
X95225112Y-83082888D01*
X123288000Y-98200000D02*
X123444000Y-98044000D01*
X123485501Y-98002499D02*
X123444000Y-98044000D01*
D24*
X114808000Y-101600000D02*
X112268000Y-101600000D01*
D23*
X123600000Y-98904000D02*
X124501501Y-98002499D01*
X123288000Y-98904000D02*
X123600000Y-98904000D01*
X124501501Y-98002499D02*
X123485501Y-98002499D01*
X133096000Y-98002499D02*
X124501501Y-98002499D01*
X123288000Y-101600000D02*
X123288000Y-98904000D01*
X123288000Y-98904000D02*
X123288000Y-98200000D01*
X116608001Y-103400001D02*
X114808000Y-101600000D01*
D24*
X118364000Y-73152000D02*
X118364000Y-72644000D01*
X114808000Y-99568000D02*
X114808000Y-101600000D01*
D23*
X114300000Y-99568000D02*
X112268000Y-101600000D01*
X114808000Y-99568000D02*
X114300000Y-99568000D01*
D24*
X114808000Y-76708000D02*
X114808000Y-88900000D01*
X114808000Y-88900000D02*
X114808000Y-99568000D01*
X118364000Y-73152000D02*
X114808000Y-76708000D01*
X118364000Y-72644000D02*
X118364000Y-71120000D01*
D23*
X111096000Y-67408000D02*
X111252000Y-67564000D01*
X112776000Y-67564000D02*
X112776000Y-67056000D01*
D24*
X114808000Y-67564000D02*
X112776000Y-67564000D01*
X118364000Y-71120000D02*
X114808000Y-67564000D01*
D23*
X121487999Y-103400001D02*
X116608001Y-103400001D01*
X123288000Y-101600000D02*
X121487999Y-103400001D01*
D24*
X97028000Y-101600000D02*
X95504000Y-103124000D01*
X112268000Y-101600000D02*
X97028000Y-101600000D01*
X51117500Y-69786500D02*
X48768000Y-72136000D01*
X48768000Y-72136000D02*
X48768000Y-97028000D01*
X48768000Y-97028000D02*
X56388000Y-104648000D01*
X52324000Y-69786500D02*
X51117500Y-69786500D01*
D25*
X93980000Y-104648000D02*
X95504000Y-103124000D01*
D23*
X75946000Y-104394000D02*
X75692000Y-104648000D01*
X81280000Y-91948000D02*
X75946000Y-97282000D01*
X81280000Y-84836000D02*
X81280000Y-91948000D01*
X85534500Y-82994500D02*
X83121500Y-82994500D01*
X83121500Y-82994500D02*
X81280000Y-84836000D01*
X75946000Y-102362000D02*
X78232000Y-104648000D01*
D25*
X78232000Y-104648000D02*
X93980000Y-104648000D01*
X75692000Y-104648000D02*
X78232000Y-104648000D01*
D23*
X75946000Y-101346000D02*
X75946000Y-104394000D01*
X75946000Y-97282000D02*
X75946000Y-101346000D01*
X75946000Y-102362000D02*
X73660000Y-104648000D01*
X75946000Y-101346000D02*
X75946000Y-102362000D01*
D25*
X73660000Y-104648000D02*
X75692000Y-104648000D01*
X56388000Y-104648000D02*
X73660000Y-104648000D01*
D23*
X111252000Y-63656000D02*
X111096000Y-63500000D01*
X111252000Y-67564000D02*
X111252000Y-63656000D01*
X112776000Y-67564000D02*
X111252000Y-67564000D01*
D24*
X114808000Y-67564000D02*
X111252000Y-67564000D01*
D23*
%TO.N,+VDC*%
X72732388Y-82994500D02*
X72644000Y-83082888D01*
X77914500Y-82994500D02*
X72732388Y-82994500D01*
X64008000Y-83312000D02*
X65532000Y-81788000D01*
X64008000Y-91440000D02*
X64008000Y-83312000D01*
X62484000Y-92964000D02*
X64008000Y-91440000D01*
X65532000Y-81788000D02*
X67056000Y-81788000D01*
D24*
X118364000Y-63500000D02*
X122936000Y-68072000D01*
X114496000Y-63500000D02*
X118364000Y-63500000D01*
D23*
X122936000Y-73152000D02*
X118364000Y-77724000D01*
X122936000Y-68072000D02*
X122936000Y-73152000D01*
X119888000Y-98552000D02*
X119380000Y-98044000D01*
X119888000Y-101600000D02*
X119888000Y-98552000D01*
X117348000Y-89408000D02*
X117348000Y-96012000D01*
X118364000Y-88392000D02*
X117348000Y-89408000D01*
D24*
X118364000Y-77724000D02*
X118364000Y-88392000D01*
D23*
X135636000Y-95504000D02*
X121920000Y-95504000D01*
X137160000Y-97028000D02*
X135636000Y-95504000D01*
X137160000Y-98044000D02*
X137160000Y-97028000D01*
X118618000Y-97282000D02*
X119380000Y-98044000D01*
X121920000Y-95504000D02*
X120142000Y-97282000D01*
X120142000Y-97282000D02*
X118618000Y-97282000D01*
X117348000Y-96012000D02*
X118618000Y-97282000D01*
X120142000Y-97282000D02*
X119380000Y-98044000D01*
X68580000Y-81788000D02*
X67056000Y-81788000D01*
X69874888Y-83082888D02*
X68580000Y-81788000D01*
X72644000Y-83082888D02*
X69874888Y-83082888D01*
X62484000Y-92964000D02*
X59436000Y-92964000D01*
X59436000Y-92964000D02*
X56388000Y-89916000D01*
X56388000Y-89916000D02*
X56388000Y-84010500D01*
D24*
X54673500Y-79946500D02*
X52324000Y-79946500D01*
X57404000Y-77216000D02*
X54673500Y-79946500D01*
D25*
X69596000Y-56896000D02*
X57404000Y-69088000D01*
D24*
X57404000Y-69088000D02*
X57404000Y-77216000D01*
D23*
X54260750Y-81883250D02*
X52324000Y-79946500D01*
X54768750Y-80041750D02*
X54673500Y-79946500D01*
X54768750Y-82391250D02*
X54768750Y-80041750D01*
X56388000Y-84010500D02*
X54768750Y-82391250D01*
X54768750Y-82391250D02*
X54260750Y-81883250D01*
X54260750Y-80359250D02*
X54673500Y-79946500D01*
X54260750Y-81883250D02*
X54260750Y-80359250D01*
X120142000Y-101346000D02*
X119888000Y-101600000D01*
X120142000Y-97282000D02*
X120142000Y-101346000D01*
D25*
X103124000Y-56896000D02*
X69596000Y-56896000D01*
D23*
X112695999Y-61699999D02*
X114496000Y-63500000D01*
X107927999Y-61699999D02*
X112695999Y-61699999D01*
X103124000Y-56896000D02*
X107927999Y-61699999D01*
D22*
%TO.N,/OUT+*%
X132080000Y-67564000D02*
X132080000Y-67056000D01*
X136652000Y-62484000D02*
X139700000Y-62484000D01*
X128524000Y-73152000D02*
X128524000Y-71120000D01*
X128524000Y-77724000D02*
X128524000Y-73152000D01*
D24*
X112796000Y-59800000D02*
X124316000Y-59800000D01*
D22*
X132588000Y-66548000D02*
X132842000Y-66294000D01*
X131064000Y-66548000D02*
X132588000Y-66548000D01*
X132080000Y-67056000D02*
X132842000Y-66294000D01*
D24*
X131064000Y-66548000D02*
X132080000Y-67564000D01*
D22*
X133096000Y-66040000D02*
X133350000Y-65786000D01*
X130556000Y-66040000D02*
X133096000Y-66040000D01*
X133350000Y-65786000D02*
X136652000Y-62484000D01*
X132842000Y-66294000D02*
X133350000Y-65786000D01*
D24*
X124316000Y-59800000D02*
X130556000Y-66040000D01*
X130556000Y-66040000D02*
X131064000Y-66548000D01*
D22*
X130556000Y-69088000D02*
X130302000Y-69342000D01*
X130556000Y-66040000D02*
X130556000Y-69088000D01*
X128524000Y-71120000D02*
X130302000Y-69342000D01*
X131064000Y-66548000D02*
X131064000Y-68580000D01*
X131064000Y-68580000D02*
X132080000Y-67564000D01*
X130302000Y-69342000D02*
X131064000Y-68580000D01*
D24*
X152908000Y-62484000D02*
X155956000Y-65532000D01*
X139700000Y-62484000D02*
X152908000Y-62484000D01*
D22*
X155829000Y-77343000D02*
X155956000Y-77216000D01*
D24*
X155956000Y-75438000D02*
X155956000Y-77216000D01*
X155956000Y-65532000D02*
X155956000Y-75438000D01*
D22*
X154051000Y-77343000D02*
X155829000Y-77343000D01*
X154051000Y-77343000D02*
X155956000Y-75438000D01*
X153289000Y-77343000D02*
X154051000Y-77343000D01*
X146685000Y-77343000D02*
X153289000Y-77343000D01*
%TO.N,Net-(C5-Pad2)*%
X134580000Y-67564000D02*
X138176000Y-67564000D01*
%TO.N,/OUT-*%
X133137501Y-108204000D02*
X133096000Y-108162499D01*
X133054499Y-108204000D02*
X133096000Y-108162499D01*
X137118499Y-108162499D02*
X137160000Y-108204000D01*
D24*
X133096000Y-108162499D02*
X137118499Y-108162499D01*
D22*
X143256000Y-86233000D02*
X143256000Y-92075000D01*
X153035000Y-92075000D02*
X153289000Y-92075000D01*
X153035000Y-92075000D02*
X153543000Y-92075000D01*
X153035000Y-92075000D02*
X153492200Y-92075000D01*
X152323800Y-92075000D02*
X153555700Y-92075000D01*
X143256000Y-92075000D02*
X152323800Y-92075000D01*
X152323800Y-92075000D02*
X153035000Y-92075000D01*
D24*
X123444000Y-108204000D02*
X133054499Y-108204000D01*
X121588000Y-106348000D02*
X123444000Y-108204000D01*
X121588000Y-105300000D02*
X121588000Y-106348000D01*
X137668000Y-107696000D02*
X137160000Y-108204000D01*
X146812000Y-107696000D02*
X137668000Y-107696000D01*
D25*
X154940000Y-99568000D02*
X146812000Y-107696000D01*
X154940000Y-83312000D02*
X155956000Y-82296000D01*
D22*
X153035000Y-91821000D02*
X154940000Y-89916000D01*
X153035000Y-92075000D02*
X153035000Y-91821000D01*
D25*
X154940000Y-89916000D02*
X154940000Y-83312000D01*
D22*
X152323800Y-92075000D02*
X152527000Y-92075000D01*
X152527000Y-92075000D02*
X154940000Y-94488000D01*
D25*
X154940000Y-94488000D02*
X154940000Y-89916000D01*
X154940000Y-99568000D02*
X154940000Y-94488000D01*
D22*
%TO.N,Net-(C7-Pad2)*%
X138176000Y-82376000D02*
X138176000Y-82296000D01*
X138176000Y-86153000D02*
X138256000Y-86233000D01*
X138176000Y-82296000D02*
X138176000Y-86153000D01*
%TO.N,/T2-*%
X137651000Y-105300000D02*
X124988000Y-105300000D01*
X143256000Y-99695000D02*
X137651000Y-105300000D01*
X143256000Y-99695000D02*
X148082000Y-99695000D01*
%TO.N,Net-(C9-Pad2)*%
X139065000Y-72771000D02*
X139065000Y-77343000D01*
X148082000Y-97195000D02*
X145074000Y-97195000D01*
X145074000Y-97195000D02*
X141097000Y-93218000D01*
X141097000Y-79375000D02*
X139065000Y-77343000D01*
X141097000Y-93218000D02*
X141097000Y-79375000D01*
%TO.N,/Filtro Passa-Baixas/Vo1*%
X75882500Y-75374500D02*
X73152000Y-72644000D01*
X77914500Y-75374500D02*
X75882500Y-75374500D01*
X60960000Y-90424000D02*
X60960000Y-77724000D01*
X77724000Y-63500000D02*
X79248000Y-65024000D01*
X79248000Y-65024000D02*
X79248000Y-74041000D01*
X79248000Y-74041000D02*
X77914500Y-75374500D01*
X60960000Y-77724000D02*
X60960000Y-75184000D01*
X63500000Y-72644000D02*
X73152000Y-72644000D01*
X60960000Y-75184000D02*
X63500000Y-72644000D01*
%TO.N,Net-(C10-Pad2)*%
X77724000Y-77724000D02*
X77914500Y-77914500D01*
X68580000Y-77724000D02*
X77724000Y-77724000D01*
X79914500Y-77914500D02*
X77914500Y-77914500D01*
X81280000Y-76549000D02*
X79914500Y-77914500D01*
X79248000Y-61468000D02*
X81280000Y-63500000D01*
X76200000Y-61468000D02*
X79248000Y-61468000D01*
X81280000Y-63500000D02*
X81280000Y-76549000D01*
X73152000Y-64516000D02*
X76200000Y-61468000D01*
X77644000Y-67644000D02*
X77724000Y-67564000D01*
X73152000Y-66708000D02*
X74088000Y-67644000D01*
X74088000Y-67644000D02*
X77644000Y-67644000D01*
X73152000Y-67644000D02*
X74088000Y-67644000D01*
X73152000Y-67644000D02*
X73152000Y-66548000D01*
X73152000Y-66548000D02*
X73152000Y-66708000D01*
X73152000Y-66548000D02*
X73152000Y-64516000D01*
%TO.N,Net-(C11-Pad2)*%
X72216000Y-90424000D02*
X72644000Y-89996000D01*
X74565500Y-88074500D02*
X77914500Y-88074500D01*
X72644000Y-89996000D02*
X74565500Y-88074500D01*
X68580000Y-91440000D02*
X69596000Y-90424000D01*
X69596000Y-90424000D02*
X72216000Y-90424000D01*
X68580000Y-90424000D02*
X69596000Y-90424000D01*
X68580000Y-95504000D02*
X68580000Y-91440000D01*
X68580000Y-91440000D02*
X68580000Y-90424000D01*
%TO.N,Net-(C11-Pad1)*%
X73533000Y-94996000D02*
X77914500Y-90614500D01*
X72644000Y-94996000D02*
X73533000Y-94996000D01*
X72136000Y-95504000D02*
X72644000Y-94996000D01*
X72136000Y-98552000D02*
X72136000Y-95504000D01*
%TO.N,Net-(C12-Pad2)*%
X85424000Y-63580000D02*
X85344000Y-63500000D01*
X89916000Y-63580000D02*
X85424000Y-63580000D01*
X82804000Y-76200000D02*
X84518500Y-77914500D01*
X84518500Y-77914500D02*
X85534500Y-77914500D01*
X82804000Y-66040000D02*
X82804000Y-76200000D01*
X85344000Y-63500000D02*
X82804000Y-66040000D01*
X85852000Y-78232000D02*
X85534500Y-77914500D01*
X93472000Y-78232000D02*
X85852000Y-78232000D01*
%TO.N,/+SIG*%
X58420000Y-95504000D02*
X60960000Y-95504000D01*
X52324000Y-89408000D02*
X58420000Y-95504000D01*
%TO.N,/T1-*%
X140335000Y-95504000D02*
X139573000Y-94742000D01*
X139573000Y-94742000D02*
X139573000Y-92964000D01*
X140335000Y-99695000D02*
X140335000Y-95504000D01*
X138430000Y-101600000D02*
X140335000Y-99695000D01*
X139573000Y-92964000D02*
X139065000Y-92456000D01*
X126688000Y-101600000D02*
X138430000Y-101600000D01*
%TO.N,Net-(R13-Pad1)*%
X85725000Y-90424000D02*
X85534500Y-90614500D01*
X93472000Y-90424000D02*
X85725000Y-90424000D01*
X85344000Y-67564000D02*
X85828001Y-67079999D01*
X96520000Y-93472000D02*
X93472000Y-90424000D01*
X104140000Y-90979000D02*
X101647000Y-93472000D01*
X104140000Y-75692000D02*
X104140000Y-90979000D01*
X94234000Y-65786000D02*
X104140000Y-75692000D01*
X87122000Y-65786000D02*
X94234000Y-65786000D01*
X101647000Y-93472000D02*
X96520000Y-93472000D01*
X85344000Y-67564000D02*
X87122000Y-65786000D01*
%TO.N,Net-(R14-Pad1)*%
X85848001Y-88388001D02*
X99056001Y-88388001D01*
X99056001Y-88388001D02*
X101092000Y-90424000D01*
X85534500Y-88074500D02*
X85848001Y-88388001D01*
X84645500Y-88074500D02*
X85534500Y-88074500D01*
X83312000Y-89408000D02*
X84645500Y-88074500D01*
X83312000Y-94996000D02*
X83312000Y-89408000D01*
X79756000Y-98552000D02*
X83312000Y-94996000D01*
%TD*%
D26*
%TO.N,GND*%
G36*
X160584000Y-111308000D02*
G01*
X46680000Y-111308000D01*
X46680000Y-106470509D01*
X49181000Y-106470509D01*
X49181000Y-106889491D01*
X49262739Y-107300423D01*
X49423077Y-107687512D01*
X49655851Y-108035884D01*
X49952116Y-108332149D01*
X50300488Y-108564923D01*
X50687577Y-108725261D01*
X51098509Y-108807000D01*
X51517491Y-108807000D01*
X51928423Y-108725261D01*
X52315512Y-108564923D01*
X52663884Y-108332149D01*
X52960149Y-108035884D01*
X53192923Y-107687512D01*
X53353261Y-107300423D01*
X53435000Y-106889491D01*
X53435000Y-106470509D01*
X53353261Y-106059577D01*
X53192923Y-105672488D01*
X52960149Y-105324116D01*
X52663884Y-105027851D01*
X52315512Y-104795077D01*
X51928423Y-104634739D01*
X51517491Y-104553000D01*
X51098509Y-104553000D01*
X50687577Y-104634739D01*
X50300488Y-104795077D01*
X49952116Y-105027851D01*
X49655851Y-105324116D01*
X49423077Y-105672488D01*
X49262739Y-106059577D01*
X49181000Y-106470509D01*
X46680000Y-106470509D01*
X46680000Y-72136000D01*
X47233613Y-72136000D01*
X47241000Y-72211001D01*
X47241001Y-96952989D01*
X47233613Y-97028000D01*
X47241001Y-97103011D01*
X47263096Y-97327344D01*
X47350411Y-97615185D01*
X47492204Y-97880460D01*
X47683025Y-98112976D01*
X47741289Y-98160792D01*
X54364598Y-104784102D01*
X54390330Y-105045361D01*
X54506236Y-105427452D01*
X54694457Y-105779589D01*
X54947760Y-106088240D01*
X55256411Y-106341543D01*
X55608548Y-106529764D01*
X55990639Y-106645670D01*
X56288429Y-106675000D01*
X93880439Y-106675000D01*
X93980000Y-106684806D01*
X94079561Y-106675000D01*
X94079571Y-106675000D01*
X94377361Y-106645670D01*
X94759452Y-106529764D01*
X95111589Y-106341543D01*
X95337674Y-106156000D01*
X109105928Y-106156000D01*
X109118188Y-106280482D01*
X109154498Y-106400180D01*
X109213463Y-106510494D01*
X109292815Y-106607185D01*
X109389506Y-106686537D01*
X109499820Y-106745502D01*
X109619518Y-106781812D01*
X109744000Y-106794072D01*
X110458250Y-106791000D01*
X110617000Y-106632250D01*
X110617000Y-105283000D01*
X110871000Y-105283000D01*
X110871000Y-106632250D01*
X111029750Y-106791000D01*
X111744000Y-106794072D01*
X111868482Y-106781812D01*
X111988180Y-106745502D01*
X112098494Y-106686537D01*
X112195185Y-106607185D01*
X112274537Y-106510494D01*
X112333502Y-106400180D01*
X112369812Y-106280482D01*
X112382072Y-106156000D01*
X112379000Y-105441750D01*
X112220250Y-105283000D01*
X110871000Y-105283000D01*
X110617000Y-105283000D01*
X109267750Y-105283000D01*
X109109000Y-105441750D01*
X109105928Y-106156000D01*
X95337674Y-106156000D01*
X95420240Y-106088240D01*
X95483716Y-106010894D01*
X97007712Y-104486899D01*
X97197542Y-104255590D01*
X97250773Y-104156000D01*
X109105928Y-104156000D01*
X109109000Y-104870250D01*
X109267750Y-105029000D01*
X110617000Y-105029000D01*
X110617000Y-103679750D01*
X110871000Y-103679750D01*
X110871000Y-105029000D01*
X112220250Y-105029000D01*
X112379000Y-104870250D01*
X112382072Y-104156000D01*
X112369812Y-104031518D01*
X112333502Y-103911820D01*
X112274537Y-103801506D01*
X112195185Y-103704815D01*
X112098494Y-103625463D01*
X111988180Y-103566498D01*
X111868482Y-103530188D01*
X111744000Y-103517928D01*
X111029750Y-103521000D01*
X110871000Y-103679750D01*
X110617000Y-103679750D01*
X110458250Y-103521000D01*
X109744000Y-103517928D01*
X109619518Y-103530188D01*
X109499820Y-103566498D01*
X109389506Y-103625463D01*
X109292815Y-103704815D01*
X109213463Y-103801506D01*
X109154498Y-103911820D01*
X109118188Y-104031518D01*
X109105928Y-104156000D01*
X97250773Y-104156000D01*
X97385763Y-103903453D01*
X97501669Y-103521362D01*
X97527401Y-103260103D01*
X97660504Y-103127000D01*
X114732989Y-103127000D01*
X114808000Y-103134388D01*
X114882640Y-103127037D01*
X115846133Y-104090531D01*
X115878289Y-104129713D01*
X115917471Y-104161869D01*
X115917476Y-104161874D01*
X115982240Y-104215024D01*
X116034670Y-104258052D01*
X116213084Y-104353416D01*
X116346875Y-104394001D01*
X116406673Y-104412141D01*
X116424832Y-104413929D01*
X116557550Y-104427001D01*
X116557557Y-104427001D01*
X116608001Y-104431969D01*
X116658444Y-104427001D01*
X120329060Y-104427001D01*
X120312203Y-104447541D01*
X120170410Y-104712816D01*
X120083095Y-105000657D01*
X120061000Y-105224990D01*
X120061000Y-105229902D01*
X120054096Y-105300000D01*
X120061000Y-105370098D01*
X120061000Y-106272999D01*
X120053613Y-106348000D01*
X120061000Y-106423001D01*
X120061000Y-106423011D01*
X120083095Y-106647344D01*
X120170410Y-106935185D01*
X120312203Y-107200460D01*
X120503025Y-107432976D01*
X120561289Y-107480792D01*
X122311208Y-109230711D01*
X122359024Y-109288976D01*
X122591540Y-109479797D01*
X122856815Y-109621590D01*
X123144656Y-109708905D01*
X123368989Y-109731000D01*
X123368998Y-109731000D01*
X123443999Y-109738387D01*
X123519000Y-109731000D01*
X131754551Y-109731000D01*
X131793350Y-109751738D01*
X131892690Y-109781873D01*
X131996000Y-109792048D01*
X134196000Y-109792048D01*
X134299310Y-109781873D01*
X134398650Y-109751738D01*
X134490202Y-109702803D01*
X134506413Y-109689499D01*
X136494758Y-109689499D01*
X136685422Y-109768475D01*
X136999755Y-109831000D01*
X137320245Y-109831000D01*
X137634578Y-109768475D01*
X137930673Y-109645828D01*
X138197152Y-109467773D01*
X138423773Y-109241152D01*
X138435902Y-109223000D01*
X145477478Y-109223000D01*
X145680411Y-109389542D01*
X146032548Y-109577763D01*
X146414639Y-109693669D01*
X146812000Y-109732806D01*
X147209361Y-109693669D01*
X147591452Y-109577763D01*
X147943589Y-109389542D01*
X148174898Y-109199712D01*
X150904101Y-106470509D01*
X153829000Y-106470509D01*
X153829000Y-106889491D01*
X153910739Y-107300423D01*
X154071077Y-107687512D01*
X154303851Y-108035884D01*
X154600116Y-108332149D01*
X154948488Y-108564923D01*
X155335577Y-108725261D01*
X155746509Y-108807000D01*
X156165491Y-108807000D01*
X156576423Y-108725261D01*
X156963512Y-108564923D01*
X157311884Y-108332149D01*
X157608149Y-108035884D01*
X157840923Y-107687512D01*
X158001261Y-107300423D01*
X158083000Y-106889491D01*
X158083000Y-106470509D01*
X158001261Y-106059577D01*
X157840923Y-105672488D01*
X157608149Y-105324116D01*
X157311884Y-105027851D01*
X156963512Y-104795077D01*
X156576423Y-104634739D01*
X156165491Y-104553000D01*
X155746509Y-104553000D01*
X155335577Y-104634739D01*
X154948488Y-104795077D01*
X154600116Y-105027851D01*
X154303851Y-105324116D01*
X154071077Y-105672488D01*
X153910739Y-106059577D01*
X153829000Y-106470509D01*
X150904101Y-106470509D01*
X156302893Y-101071717D01*
X156380240Y-101008240D01*
X156633543Y-100699589D01*
X156821764Y-100347452D01*
X156937670Y-99965361D01*
X156957695Y-99762051D01*
X156976807Y-99568000D01*
X156967000Y-99468429D01*
X156967000Y-84151610D01*
X157248134Y-83870476D01*
X157248137Y-83870474D01*
X157530474Y-83588137D01*
X157586076Y-83504923D01*
X157649542Y-83427589D01*
X157696701Y-83339360D01*
X157752304Y-83256145D01*
X157790603Y-83163682D01*
X157837763Y-83075453D01*
X157866804Y-82979717D01*
X157905104Y-82887254D01*
X157924628Y-82789100D01*
X157953670Y-82693362D01*
X157963476Y-82593795D01*
X157983000Y-82495642D01*
X157983000Y-82395564D01*
X157992806Y-82296000D01*
X157983000Y-82196436D01*
X157983000Y-82096358D01*
X157963476Y-81998205D01*
X157953670Y-81898639D01*
X157924628Y-81802903D01*
X157905104Y-81704746D01*
X157866803Y-81612280D01*
X157837763Y-81516548D01*
X157790605Y-81428321D01*
X157752304Y-81335855D01*
X157696701Y-81252639D01*
X157649542Y-81164411D01*
X157586075Y-81087076D01*
X157530474Y-81003863D01*
X157459711Y-80933100D01*
X157396240Y-80855760D01*
X157318899Y-80792288D01*
X157248137Y-80721526D01*
X157164924Y-80665925D01*
X157087589Y-80602458D01*
X156999361Y-80555299D01*
X156916145Y-80499696D01*
X156823679Y-80461395D01*
X156735452Y-80414237D01*
X156639720Y-80385197D01*
X156547254Y-80346896D01*
X156449097Y-80327372D01*
X156353361Y-80298330D01*
X156253795Y-80288524D01*
X156155642Y-80269000D01*
X156055564Y-80269000D01*
X155956000Y-80259194D01*
X155856436Y-80269000D01*
X155756358Y-80269000D01*
X155658205Y-80288524D01*
X155558638Y-80298330D01*
X155462900Y-80327372D01*
X155364746Y-80346896D01*
X155272283Y-80385196D01*
X155176547Y-80414237D01*
X155088318Y-80461397D01*
X154995855Y-80499696D01*
X154912640Y-80555299D01*
X154824411Y-80602458D01*
X154747077Y-80665924D01*
X154663863Y-80721526D01*
X154381526Y-81003863D01*
X154381524Y-81003866D01*
X153577102Y-81808288D01*
X153499761Y-81871760D01*
X153436289Y-81949101D01*
X153436288Y-81949102D01*
X153246458Y-82180411D01*
X153058237Y-82532548D01*
X152942331Y-82914639D01*
X152903194Y-83312000D01*
X152913001Y-83411571D01*
X152913000Y-90015570D01*
X152913001Y-90015580D01*
X152913001Y-90632024D01*
X152411712Y-91133313D01*
X152393816Y-91148000D01*
X144205661Y-91148000D01*
X144183000Y-91125339D01*
X144183000Y-87182661D01*
X144286748Y-87078913D01*
X144431972Y-86861570D01*
X144532004Y-86620072D01*
X144583000Y-86363698D01*
X144583000Y-86102302D01*
X144532004Y-85845928D01*
X144431972Y-85604430D01*
X144286748Y-85387087D01*
X144101913Y-85202252D01*
X143884570Y-85057028D01*
X143643072Y-84956996D01*
X143386698Y-84906000D01*
X143125302Y-84906000D01*
X142868928Y-84956996D01*
X142627430Y-85057028D01*
X142410087Y-85202252D01*
X142225252Y-85387087D01*
X142080028Y-85604430D01*
X142024000Y-85739693D01*
X142024000Y-79420527D01*
X142028484Y-79375000D01*
X142024000Y-79329473D01*
X142024000Y-79329462D01*
X142010587Y-79193276D01*
X141957580Y-79018536D01*
X141912587Y-78934360D01*
X141871501Y-78857494D01*
X141784688Y-78751712D01*
X141784684Y-78751708D01*
X141755659Y-78716341D01*
X141720292Y-78687316D01*
X140392000Y-77359025D01*
X140392000Y-77212302D01*
X140341004Y-76955928D01*
X140240972Y-76714430D01*
X140095748Y-76497087D01*
X139992000Y-76393339D01*
X139992000Y-73720661D01*
X140095748Y-73616913D01*
X140240972Y-73399570D01*
X140341004Y-73158072D01*
X140348569Y-73120039D01*
X145293096Y-73120039D01*
X145333754Y-73254087D01*
X145453963Y-73508420D01*
X145621481Y-73734414D01*
X145829869Y-73923385D01*
X146071119Y-74068070D01*
X146335960Y-74162909D01*
X146558000Y-74041624D01*
X146558000Y-72898000D01*
X146812000Y-72898000D01*
X146812000Y-74041624D01*
X147034040Y-74162909D01*
X147298881Y-74068070D01*
X147540131Y-73923385D01*
X147748519Y-73734414D01*
X147916037Y-73508420D01*
X148036246Y-73254087D01*
X148076904Y-73120039D01*
X147954915Y-72898000D01*
X146812000Y-72898000D01*
X146558000Y-72898000D01*
X145415085Y-72898000D01*
X145293096Y-73120039D01*
X140348569Y-73120039D01*
X140392000Y-72901698D01*
X140392000Y-72640302D01*
X140348570Y-72421961D01*
X145293096Y-72421961D01*
X145415085Y-72644000D01*
X146558000Y-72644000D01*
X146558000Y-71500376D01*
X146812000Y-71500376D01*
X146812000Y-72644000D01*
X147954915Y-72644000D01*
X148076904Y-72421961D01*
X148036246Y-72287913D01*
X147916037Y-72033580D01*
X147748519Y-71807586D01*
X147540131Y-71618615D01*
X147298881Y-71473930D01*
X147034040Y-71379091D01*
X146812000Y-71500376D01*
X146558000Y-71500376D01*
X146335960Y-71379091D01*
X146071119Y-71473930D01*
X145829869Y-71618615D01*
X145621481Y-71807586D01*
X145453963Y-72033580D01*
X145333754Y-72287913D01*
X145293096Y-72421961D01*
X140348570Y-72421961D01*
X140341004Y-72383928D01*
X140240972Y-72142430D01*
X140095748Y-71925087D01*
X139910913Y-71740252D01*
X139693570Y-71595028D01*
X139452072Y-71494996D01*
X139195698Y-71444000D01*
X138934302Y-71444000D01*
X138677928Y-71494996D01*
X138436430Y-71595028D01*
X138219087Y-71740252D01*
X138034252Y-71925087D01*
X137889028Y-72142430D01*
X137788996Y-72383928D01*
X137738000Y-72640302D01*
X137738000Y-72901698D01*
X137788996Y-73158072D01*
X137889028Y-73399570D01*
X138034252Y-73616913D01*
X138138000Y-73720661D01*
X138138001Y-76393338D01*
X138034252Y-76497087D01*
X137889028Y-76714430D01*
X137788996Y-76955928D01*
X137738000Y-77212302D01*
X137738000Y-77473698D01*
X137788996Y-77730072D01*
X137889028Y-77971570D01*
X138034252Y-78188913D01*
X138219087Y-78373748D01*
X138436430Y-78518972D01*
X138677928Y-78619004D01*
X138934302Y-78670000D01*
X139081025Y-78670000D01*
X140170001Y-79758977D01*
X140170000Y-91721213D01*
X140095748Y-91610087D01*
X139910913Y-91425252D01*
X139693570Y-91280028D01*
X139452072Y-91179996D01*
X139195698Y-91129000D01*
X138934302Y-91129000D01*
X138677928Y-91179996D01*
X138436430Y-91280028D01*
X138219087Y-91425252D01*
X138034252Y-91610087D01*
X137889028Y-91827430D01*
X137788996Y-92068928D01*
X137738000Y-92325302D01*
X137738000Y-92586698D01*
X137788996Y-92843072D01*
X137889028Y-93084570D01*
X138034252Y-93301913D01*
X138219087Y-93486748D01*
X138436430Y-93631972D01*
X138646001Y-93718779D01*
X138646000Y-94696472D01*
X138641516Y-94742000D01*
X138646000Y-94787527D01*
X138646000Y-94787537D01*
X138659413Y-94923723D01*
X138712420Y-95098463D01*
X138798499Y-95259505D01*
X138885312Y-95365287D01*
X138914341Y-95400659D01*
X138949713Y-95429688D01*
X139408001Y-95887977D01*
X139408000Y-99311024D01*
X138046025Y-100673000D01*
X128214890Y-100673000D01*
X128207374Y-100596690D01*
X128177239Y-100497350D01*
X128128304Y-100405798D01*
X128062448Y-100325552D01*
X127982202Y-100259696D01*
X127890650Y-100210761D01*
X127791310Y-100180626D01*
X127688000Y-100170451D01*
X125688000Y-100170451D01*
X125584690Y-100180626D01*
X125485350Y-100210761D01*
X125393798Y-100259696D01*
X125313552Y-100325552D01*
X125247696Y-100405798D01*
X125198761Y-100497350D01*
X125168626Y-100596690D01*
X125158451Y-100700000D01*
X125158451Y-102500000D01*
X125168626Y-102603310D01*
X125198761Y-102702650D01*
X125247696Y-102794202D01*
X125313552Y-102874448D01*
X125393798Y-102940304D01*
X125485350Y-102989239D01*
X125584690Y-103019374D01*
X125688000Y-103029549D01*
X127688000Y-103029549D01*
X127791310Y-103019374D01*
X127890650Y-102989239D01*
X127982202Y-102940304D01*
X128062448Y-102874448D01*
X128128304Y-102794202D01*
X128177239Y-102702650D01*
X128207374Y-102603310D01*
X128214890Y-102527000D01*
X138384473Y-102527000D01*
X138430000Y-102531484D01*
X138475527Y-102527000D01*
X138475538Y-102527000D01*
X138611724Y-102513587D01*
X138786464Y-102460580D01*
X138947505Y-102374501D01*
X139088659Y-102258659D01*
X139117688Y-102223287D01*
X140958293Y-100382683D01*
X140993659Y-100353659D01*
X141022684Y-100318292D01*
X141022688Y-100318288D01*
X141109501Y-100212506D01*
X141195580Y-100051464D01*
X141195580Y-100051463D01*
X141248587Y-99876724D01*
X141262000Y-99740538D01*
X141262000Y-99740527D01*
X141266484Y-99695000D01*
X141262000Y-99649473D01*
X141262000Y-95549527D01*
X141266484Y-95504000D01*
X141262000Y-95458473D01*
X141262000Y-95458462D01*
X141248587Y-95322276D01*
X141195580Y-95147536D01*
X141177385Y-95113495D01*
X141109502Y-94986494D01*
X141022688Y-94880712D01*
X141022684Y-94880708D01*
X140993659Y-94845341D01*
X140958292Y-94816316D01*
X140500000Y-94358025D01*
X140500000Y-93931975D01*
X144386312Y-97818287D01*
X144415341Y-97853659D01*
X144450712Y-97882687D01*
X144556494Y-97969501D01*
X144578782Y-97981414D01*
X144717536Y-98055580D01*
X144892276Y-98108587D01*
X145028462Y-98122000D01*
X145028474Y-98122000D01*
X145073999Y-98126484D01*
X145119524Y-98122000D01*
X147132339Y-98122000D01*
X147236087Y-98225748D01*
X147445167Y-98365451D01*
X147282000Y-98365451D01*
X147178690Y-98375626D01*
X147079350Y-98405761D01*
X146987798Y-98454696D01*
X146907552Y-98520552D01*
X146841696Y-98600798D01*
X146792761Y-98692350D01*
X146769812Y-98768000D01*
X144205661Y-98768000D01*
X144101913Y-98664252D01*
X143884570Y-98519028D01*
X143643072Y-98418996D01*
X143386698Y-98368000D01*
X143125302Y-98368000D01*
X142868928Y-98418996D01*
X142627430Y-98519028D01*
X142410087Y-98664252D01*
X142225252Y-98849087D01*
X142080028Y-99066430D01*
X141979996Y-99307928D01*
X141929000Y-99564302D01*
X141929000Y-99711024D01*
X137267025Y-104373000D01*
X126173259Y-104373000D01*
X126101923Y-104286077D01*
X125884634Y-104107752D01*
X125636731Y-103975245D01*
X125367741Y-103893648D01*
X125158098Y-103873000D01*
X124817902Y-103873000D01*
X124608259Y-103893648D01*
X124339269Y-103975245D01*
X124091366Y-104107752D01*
X123874077Y-104286077D01*
X123695752Y-104503366D01*
X123563245Y-104751269D01*
X123481648Y-105020259D01*
X123454096Y-105300000D01*
X123481648Y-105579741D01*
X123563245Y-105848731D01*
X123695752Y-106096634D01*
X123874077Y-106313923D01*
X124091366Y-106492248D01*
X124339269Y-106624755D01*
X124511498Y-106677000D01*
X124076504Y-106677000D01*
X123115000Y-105715497D01*
X123115000Y-105370098D01*
X123121904Y-105300000D01*
X123115000Y-105229902D01*
X123115000Y-105224989D01*
X123092905Y-105000656D01*
X123005590Y-104712815D01*
X122863797Y-104447540D01*
X122672976Y-104215024D01*
X122440459Y-104024203D01*
X122359478Y-103980918D01*
X123313397Y-103027000D01*
X123458098Y-103027000D01*
X123667741Y-103006352D01*
X123936731Y-102924755D01*
X124184634Y-102792248D01*
X124401923Y-102613923D01*
X124580248Y-102396634D01*
X124712755Y-102148731D01*
X124794352Y-101879741D01*
X124821904Y-101600000D01*
X124794352Y-101320259D01*
X124712755Y-101051269D01*
X124580248Y-100803366D01*
X124401923Y-100586077D01*
X124315000Y-100514741D01*
X124315000Y-99645786D01*
X124329712Y-99633712D01*
X124361877Y-99594520D01*
X124926898Y-99029499D01*
X131825444Y-99029499D01*
X131832227Y-99039651D01*
X132058848Y-99266272D01*
X132325327Y-99444327D01*
X132621422Y-99566974D01*
X132935755Y-99629499D01*
X133256245Y-99629499D01*
X133570578Y-99566974D01*
X133866673Y-99444327D01*
X134133152Y-99266272D01*
X134359773Y-99039651D01*
X134537828Y-98773172D01*
X134660475Y-98477077D01*
X134723000Y-98162744D01*
X134723000Y-97842254D01*
X134660475Y-97527921D01*
X134537828Y-97231826D01*
X134359773Y-96965347D01*
X134133152Y-96738726D01*
X133866673Y-96560671D01*
X133795041Y-96531000D01*
X135210604Y-96531000D01*
X135538803Y-96859199D01*
X135530451Y-96944000D01*
X135530451Y-99144000D01*
X135540626Y-99247310D01*
X135570761Y-99346650D01*
X135619696Y-99438202D01*
X135685552Y-99518448D01*
X135765798Y-99584304D01*
X135857350Y-99633239D01*
X135956690Y-99663374D01*
X136060000Y-99673549D01*
X138260000Y-99673549D01*
X138363310Y-99663374D01*
X138462650Y-99633239D01*
X138554202Y-99584304D01*
X138634448Y-99518448D01*
X138700304Y-99438202D01*
X138749239Y-99346650D01*
X138779374Y-99247310D01*
X138789549Y-99144000D01*
X138789549Y-96944000D01*
X138779374Y-96840690D01*
X138749239Y-96741350D01*
X138700304Y-96649798D01*
X138634448Y-96569552D01*
X138554202Y-96503696D01*
X138462650Y-96454761D01*
X138363310Y-96424626D01*
X138260000Y-96414451D01*
X137985045Y-96414451D01*
X137889712Y-96298288D01*
X137850524Y-96266128D01*
X136397877Y-94813481D01*
X136365712Y-94774288D01*
X136209331Y-94645949D01*
X136030917Y-94550585D01*
X135837327Y-94491860D01*
X135686451Y-94477000D01*
X135686441Y-94477000D01*
X135636000Y-94472032D01*
X135585559Y-94477000D01*
X123563221Y-94477000D01*
X123794130Y-94442787D01*
X124060292Y-94347603D01*
X124185514Y-94280671D01*
X124257097Y-94036702D01*
X123444000Y-93223605D01*
X122630903Y-94036702D01*
X122702486Y-94280671D01*
X122957996Y-94401571D01*
X123232184Y-94470300D01*
X123368104Y-94477000D01*
X121970443Y-94477000D01*
X121920000Y-94472032D01*
X121869556Y-94477000D01*
X121869549Y-94477000D01*
X121736831Y-94490072D01*
X121718672Y-94491860D01*
X121659947Y-94509674D01*
X121525083Y-94550585D01*
X121346669Y-94645949D01*
X121346667Y-94645950D01*
X121346668Y-94645950D01*
X121229475Y-94742127D01*
X121229470Y-94742132D01*
X121190288Y-94774288D01*
X121158132Y-94813470D01*
X119716604Y-96255000D01*
X119043397Y-96255000D01*
X118375000Y-95586604D01*
X118375000Y-94077347D01*
X118450630Y-94152977D01*
X118566903Y-94036704D01*
X118638486Y-94280671D01*
X118893996Y-94401571D01*
X119168184Y-94470300D01*
X119450512Y-94484217D01*
X119730130Y-94442787D01*
X119996292Y-94347603D01*
X120121514Y-94280671D01*
X120193097Y-94036702D01*
X119380000Y-93223605D01*
X119365858Y-93237748D01*
X119186253Y-93058143D01*
X119200395Y-93044000D01*
X119559605Y-93044000D01*
X120372702Y-93857097D01*
X120616671Y-93785514D01*
X120737571Y-93530004D01*
X120806300Y-93255816D01*
X120813265Y-93114512D01*
X122003783Y-93114512D01*
X122045213Y-93394130D01*
X122140397Y-93660292D01*
X122207329Y-93785514D01*
X122451298Y-93857097D01*
X123264395Y-93044000D01*
X123623605Y-93044000D01*
X124436702Y-93857097D01*
X124680671Y-93785514D01*
X124801571Y-93530004D01*
X124870300Y-93255816D01*
X124884217Y-92973488D01*
X124859259Y-92805039D01*
X130053096Y-92805039D01*
X130093754Y-92939087D01*
X130213963Y-93193420D01*
X130381481Y-93419414D01*
X130589869Y-93608385D01*
X130831119Y-93753070D01*
X131095960Y-93847909D01*
X131318000Y-93726624D01*
X131318000Y-92583000D01*
X131572000Y-92583000D01*
X131572000Y-93726624D01*
X131794040Y-93847909D01*
X132058881Y-93753070D01*
X132300131Y-93608385D01*
X132508519Y-93419414D01*
X132676037Y-93193420D01*
X132796246Y-92939087D01*
X132836904Y-92805039D01*
X132714915Y-92583000D01*
X131572000Y-92583000D01*
X131318000Y-92583000D01*
X130175085Y-92583000D01*
X130053096Y-92805039D01*
X124859259Y-92805039D01*
X124842787Y-92693870D01*
X124747603Y-92427708D01*
X124680671Y-92302486D01*
X124436702Y-92230903D01*
X123623605Y-93044000D01*
X123264395Y-93044000D01*
X122451298Y-92230903D01*
X122207329Y-92302486D01*
X122086429Y-92557996D01*
X122017700Y-92832184D01*
X122003783Y-93114512D01*
X120813265Y-93114512D01*
X120820217Y-92973488D01*
X120778787Y-92693870D01*
X120683603Y-92427708D01*
X120616671Y-92302486D01*
X120372702Y-92230903D01*
X119559605Y-93044000D01*
X119200395Y-93044000D01*
X119186253Y-93029858D01*
X119365858Y-92850253D01*
X119380000Y-92864395D01*
X120193097Y-92051298D01*
X122630903Y-92051298D01*
X123444000Y-92864395D01*
X124201434Y-92106961D01*
X130053096Y-92106961D01*
X130175085Y-92329000D01*
X131318000Y-92329000D01*
X131318000Y-91185376D01*
X131572000Y-91185376D01*
X131572000Y-92329000D01*
X132714915Y-92329000D01*
X132836904Y-92106961D01*
X132796246Y-91972913D01*
X132676037Y-91718580D01*
X132508519Y-91492586D01*
X132300131Y-91303615D01*
X132058881Y-91158930D01*
X131794040Y-91064091D01*
X131572000Y-91185376D01*
X131318000Y-91185376D01*
X131095960Y-91064091D01*
X130831119Y-91158930D01*
X130589869Y-91303615D01*
X130381481Y-91492586D01*
X130213963Y-91718580D01*
X130093754Y-91972913D01*
X130053096Y-92106961D01*
X124201434Y-92106961D01*
X124257097Y-92051298D01*
X124185514Y-91807329D01*
X123930004Y-91686429D01*
X123655816Y-91617700D01*
X123373488Y-91603783D01*
X123093870Y-91645213D01*
X122827708Y-91740397D01*
X122702486Y-91807329D01*
X122630903Y-92051298D01*
X120193097Y-92051298D01*
X120121514Y-91807329D01*
X119866004Y-91686429D01*
X119591816Y-91617700D01*
X119309488Y-91603783D01*
X119029870Y-91645213D01*
X118763708Y-91740397D01*
X118638486Y-91807329D01*
X118566903Y-92051296D01*
X118450630Y-91935023D01*
X118375000Y-92010653D01*
X118375000Y-89925305D01*
X118663344Y-89896905D01*
X118951185Y-89809590D01*
X119216460Y-89667797D01*
X119448976Y-89476976D01*
X119639797Y-89244460D01*
X119781590Y-88979185D01*
X119868905Y-88691344D01*
X119891000Y-88467011D01*
X119891000Y-82645039D01*
X124084096Y-82645039D01*
X124124754Y-82779087D01*
X124244963Y-83033420D01*
X124412481Y-83259414D01*
X124620869Y-83448385D01*
X124862119Y-83593070D01*
X125126960Y-83687909D01*
X125349000Y-83566624D01*
X125349000Y-82423000D01*
X125603000Y-82423000D01*
X125603000Y-83566624D01*
X125825040Y-83687909D01*
X126089881Y-83593070D01*
X126331131Y-83448385D01*
X126539519Y-83259414D01*
X126707037Y-83033420D01*
X126827246Y-82779087D01*
X126867904Y-82645039D01*
X126745915Y-82423000D01*
X125603000Y-82423000D01*
X125349000Y-82423000D01*
X124206085Y-82423000D01*
X124084096Y-82645039D01*
X119891000Y-82645039D01*
X119891000Y-81946961D01*
X124084096Y-81946961D01*
X124206085Y-82169000D01*
X125349000Y-82169000D01*
X125349000Y-81025376D01*
X125603000Y-81025376D01*
X125603000Y-82169000D01*
X126745915Y-82169000D01*
X126747946Y-82165302D01*
X136849000Y-82165302D01*
X136849000Y-82426698D01*
X136899996Y-82683072D01*
X137000028Y-82924570D01*
X137145252Y-83141913D01*
X137249000Y-83245661D01*
X137249001Y-85363338D01*
X137225252Y-85387087D01*
X137080028Y-85604430D01*
X136979996Y-85845928D01*
X136929000Y-86102302D01*
X136929000Y-86363698D01*
X136979996Y-86620072D01*
X137080028Y-86861570D01*
X137225252Y-87078913D01*
X137410087Y-87263748D01*
X137627430Y-87408972D01*
X137868928Y-87509004D01*
X138125302Y-87560000D01*
X138386698Y-87560000D01*
X138643072Y-87509004D01*
X138884570Y-87408972D01*
X139101913Y-87263748D01*
X139286748Y-87078913D01*
X139431972Y-86861570D01*
X139532004Y-86620072D01*
X139583000Y-86363698D01*
X139583000Y-86102302D01*
X139532004Y-85845928D01*
X139431972Y-85604430D01*
X139286748Y-85387087D01*
X139103000Y-85203339D01*
X139103000Y-83245661D01*
X139206748Y-83141913D01*
X139351972Y-82924570D01*
X139452004Y-82683072D01*
X139503000Y-82426698D01*
X139503000Y-82165302D01*
X139452004Y-81908928D01*
X139351972Y-81667430D01*
X139206748Y-81450087D01*
X139021913Y-81265252D01*
X138804570Y-81120028D01*
X138563072Y-81019996D01*
X138306698Y-80969000D01*
X138045302Y-80969000D01*
X137788928Y-81019996D01*
X137547430Y-81120028D01*
X137330087Y-81265252D01*
X137145252Y-81450087D01*
X137000028Y-81667430D01*
X136899996Y-81908928D01*
X136849000Y-82165302D01*
X126747946Y-82165302D01*
X126867904Y-81946961D01*
X126827246Y-81812913D01*
X126707037Y-81558580D01*
X126539519Y-81332586D01*
X126331131Y-81143615D01*
X126089881Y-80998930D01*
X125825040Y-80904091D01*
X125603000Y-81025376D01*
X125349000Y-81025376D01*
X125126960Y-80904091D01*
X124862119Y-80998930D01*
X124620869Y-81143615D01*
X124412481Y-81332586D01*
X124244963Y-81558580D01*
X124124754Y-81812913D01*
X124084096Y-81946961D01*
X119891000Y-81946961D01*
X119891000Y-79134413D01*
X119904304Y-79118202D01*
X119953239Y-79026650D01*
X119983374Y-78927310D01*
X119993549Y-78824000D01*
X119993549Y-77546847D01*
X123626525Y-73913872D01*
X123665712Y-73881712D01*
X123794051Y-73725331D01*
X123883712Y-73557587D01*
X123889414Y-73546919D01*
X123896520Y-73523495D01*
X123948140Y-73353327D01*
X123963000Y-73202451D01*
X123963000Y-73202442D01*
X123967968Y-73152001D01*
X123963000Y-73101560D01*
X123963000Y-69348224D01*
X124030202Y-69312304D01*
X124110448Y-69246448D01*
X124176304Y-69166202D01*
X124225239Y-69074650D01*
X124228256Y-69064702D01*
X124622903Y-69064702D01*
X124694486Y-69308671D01*
X124949996Y-69429571D01*
X125224184Y-69498300D01*
X125506512Y-69512217D01*
X125786130Y-69470787D01*
X126052292Y-69375603D01*
X126177514Y-69308671D01*
X126249097Y-69064702D01*
X125436000Y-68251605D01*
X124622903Y-69064702D01*
X124228256Y-69064702D01*
X124255374Y-68975310D01*
X124265549Y-68872000D01*
X124265549Y-68832944D01*
X124443298Y-68885097D01*
X125256395Y-68072000D01*
X125615605Y-68072000D01*
X126428702Y-68885097D01*
X126672671Y-68813514D01*
X126793571Y-68558004D01*
X126862300Y-68283816D01*
X126876217Y-68001488D01*
X126834787Y-67721870D01*
X126739603Y-67455708D01*
X126672671Y-67330486D01*
X126428702Y-67258903D01*
X125615605Y-68072000D01*
X125256395Y-68072000D01*
X124443298Y-67258903D01*
X124265549Y-67311056D01*
X124265549Y-67272000D01*
X124255374Y-67168690D01*
X124228257Y-67079298D01*
X124622903Y-67079298D01*
X125436000Y-67892395D01*
X126249097Y-67079298D01*
X126177514Y-66835329D01*
X125922004Y-66714429D01*
X125647816Y-66645700D01*
X125365488Y-66631783D01*
X125085870Y-66673213D01*
X124819708Y-66768397D01*
X124694486Y-66835329D01*
X124622903Y-67079298D01*
X124228257Y-67079298D01*
X124225239Y-67069350D01*
X124176304Y-66977798D01*
X124110448Y-66897552D01*
X124030202Y-66831696D01*
X123938650Y-66782761D01*
X123839310Y-66752626D01*
X123769228Y-66745724D01*
X119496797Y-62473294D01*
X119448976Y-62415024D01*
X119216460Y-62224203D01*
X118951185Y-62082410D01*
X118663344Y-61995095D01*
X118439011Y-61973000D01*
X118439001Y-61973000D01*
X118364000Y-61965613D01*
X118288999Y-61973000D01*
X114421397Y-61973000D01*
X113775396Y-61327000D01*
X123683497Y-61327000D01*
X129529288Y-67172793D01*
X129529299Y-67172802D01*
X129629000Y-67272503D01*
X129629001Y-68704023D01*
X127900708Y-70432317D01*
X127865342Y-70461341D01*
X127836317Y-70496708D01*
X127836312Y-70496713D01*
X127749499Y-70602495D01*
X127663420Y-70763537D01*
X127610414Y-70938277D01*
X127592516Y-71120000D01*
X127597001Y-71165537D01*
X127597001Y-71522451D01*
X127424000Y-71522451D01*
X127320690Y-71532626D01*
X127221350Y-71562761D01*
X127129798Y-71611696D01*
X127049552Y-71677552D01*
X126983696Y-71757798D01*
X126934761Y-71849350D01*
X126904626Y-71948690D01*
X126894451Y-72052000D01*
X126894451Y-74252000D01*
X126904626Y-74355310D01*
X126934761Y-74454650D01*
X126983696Y-74546202D01*
X127049552Y-74626448D01*
X127129798Y-74692304D01*
X127221350Y-74741239D01*
X127320690Y-74771374D01*
X127424000Y-74781549D01*
X127597001Y-74781549D01*
X127597000Y-76386626D01*
X127486848Y-76460227D01*
X127260227Y-76686848D01*
X127082172Y-76953327D01*
X126959525Y-77249422D01*
X126897000Y-77563755D01*
X126897000Y-77884245D01*
X126959525Y-78198578D01*
X127082172Y-78494673D01*
X127260227Y-78761152D01*
X127486848Y-78987773D01*
X127753327Y-79165828D01*
X128049422Y-79288475D01*
X128363755Y-79351000D01*
X128684245Y-79351000D01*
X128998578Y-79288475D01*
X129294673Y-79165828D01*
X129561152Y-78987773D01*
X129787773Y-78761152D01*
X129965828Y-78494673D01*
X130088475Y-78198578D01*
X130151000Y-77884245D01*
X130151000Y-77563755D01*
X130088475Y-77249422D01*
X129965828Y-76953327D01*
X129787773Y-76686848D01*
X129561152Y-76460227D01*
X129451000Y-76386626D01*
X129451000Y-74781549D01*
X129624000Y-74781549D01*
X129727310Y-74771374D01*
X129826650Y-74741239D01*
X129918202Y-74692304D01*
X129998448Y-74626448D01*
X130064304Y-74546202D01*
X130113239Y-74454650D01*
X130143374Y-74355310D01*
X130153549Y-74252000D01*
X130153549Y-72052000D01*
X130143374Y-71948690D01*
X130113239Y-71849350D01*
X130064304Y-71757798D01*
X129998448Y-71677552D01*
X129918202Y-71611696D01*
X129826650Y-71562761D01*
X129727310Y-71532626D01*
X129624000Y-71522451D01*
X129451000Y-71522451D01*
X129451000Y-71503975D01*
X130989688Y-69965288D01*
X130989693Y-69965282D01*
X131179287Y-69775688D01*
X131214659Y-69746659D01*
X131243688Y-69711287D01*
X131687292Y-69267684D01*
X131722659Y-69238659D01*
X131751684Y-69203292D01*
X131751688Y-69203288D01*
X131751692Y-69203283D01*
X131876619Y-69078356D01*
X132080000Y-69098387D01*
X132379344Y-69068904D01*
X132667185Y-68981590D01*
X132831896Y-68893549D01*
X132880000Y-68893549D01*
X132983310Y-68883374D01*
X133082650Y-68853239D01*
X133174202Y-68804304D01*
X133254448Y-68738448D01*
X133320304Y-68658202D01*
X133369239Y-68566650D01*
X133399374Y-68467310D01*
X133409549Y-68364000D01*
X133409549Y-68315896D01*
X133443718Y-68251971D01*
X133549252Y-68409913D01*
X133734087Y-68594748D01*
X133951430Y-68739972D01*
X134192928Y-68840004D01*
X134449302Y-68891000D01*
X134710698Y-68891000D01*
X134967072Y-68840004D01*
X135208570Y-68739972D01*
X135425913Y-68594748D01*
X135529661Y-68491000D01*
X137226339Y-68491000D01*
X137330087Y-68594748D01*
X137547430Y-68739972D01*
X137788928Y-68840004D01*
X138045302Y-68891000D01*
X138306698Y-68891000D01*
X138563072Y-68840004D01*
X138804570Y-68739972D01*
X139021913Y-68594748D01*
X139206748Y-68409913D01*
X139351972Y-68192570D01*
X139452004Y-67951072D01*
X139459569Y-67913039D01*
X149484096Y-67913039D01*
X149524754Y-68047087D01*
X149644963Y-68301420D01*
X149812481Y-68527414D01*
X150020869Y-68716385D01*
X150262119Y-68861070D01*
X150526960Y-68955909D01*
X150749000Y-68834624D01*
X150749000Y-67691000D01*
X151003000Y-67691000D01*
X151003000Y-68834624D01*
X151225040Y-68955909D01*
X151489881Y-68861070D01*
X151731131Y-68716385D01*
X151939519Y-68527414D01*
X152107037Y-68301420D01*
X152227246Y-68047087D01*
X152267904Y-67913039D01*
X152145915Y-67691000D01*
X151003000Y-67691000D01*
X150749000Y-67691000D01*
X149606085Y-67691000D01*
X149484096Y-67913039D01*
X139459569Y-67913039D01*
X139503000Y-67694698D01*
X139503000Y-67433302D01*
X139459570Y-67214961D01*
X149484096Y-67214961D01*
X149606085Y-67437000D01*
X150749000Y-67437000D01*
X150749000Y-66293376D01*
X151003000Y-66293376D01*
X151003000Y-67437000D01*
X152145915Y-67437000D01*
X152267904Y-67214961D01*
X152227246Y-67080913D01*
X152107037Y-66826580D01*
X151939519Y-66600586D01*
X151731131Y-66411615D01*
X151489881Y-66266930D01*
X151225040Y-66172091D01*
X151003000Y-66293376D01*
X150749000Y-66293376D01*
X150526960Y-66172091D01*
X150262119Y-66266930D01*
X150020869Y-66411615D01*
X149812481Y-66600586D01*
X149644963Y-66826580D01*
X149524754Y-67080913D01*
X149484096Y-67214961D01*
X139459570Y-67214961D01*
X139452004Y-67176928D01*
X139351972Y-66935430D01*
X139206748Y-66718087D01*
X139021913Y-66533252D01*
X138804570Y-66388028D01*
X138563072Y-66287996D01*
X138306698Y-66237000D01*
X138045302Y-66237000D01*
X137788928Y-66287996D01*
X137547430Y-66388028D01*
X137330087Y-66533252D01*
X137226339Y-66637000D01*
X135529661Y-66637000D01*
X135425913Y-66533252D01*
X135208570Y-66388028D01*
X134967072Y-66287996D01*
X134710698Y-66237000D01*
X134449302Y-66237000D01*
X134192928Y-66287996D01*
X134134973Y-66312002D01*
X137035976Y-63411000D01*
X138485376Y-63411000D01*
X138615024Y-63568976D01*
X138847540Y-63759797D01*
X139112815Y-63901590D01*
X139400656Y-63988905D01*
X139624989Y-64011000D01*
X152275497Y-64011000D01*
X154429000Y-66164504D01*
X154429001Y-75189110D01*
X154352690Y-75196626D01*
X154253350Y-75226761D01*
X154161798Y-75275696D01*
X154081552Y-75341552D01*
X154015696Y-75421798D01*
X153966761Y-75513350D01*
X153936626Y-75612690D01*
X153926451Y-75716000D01*
X153926451Y-76156574D01*
X153667025Y-76416000D01*
X147634661Y-76416000D01*
X147530913Y-76312252D01*
X147313570Y-76167028D01*
X147072072Y-76066996D01*
X146815698Y-76016000D01*
X146554302Y-76016000D01*
X146297928Y-76066996D01*
X146056430Y-76167028D01*
X145839087Y-76312252D01*
X145654252Y-76497087D01*
X145509028Y-76714430D01*
X145408996Y-76955928D01*
X145358000Y-77212302D01*
X145358000Y-77473698D01*
X145408996Y-77730072D01*
X145509028Y-77971570D01*
X145654252Y-78188913D01*
X145839087Y-78373748D01*
X146056430Y-78518972D01*
X146297928Y-78619004D01*
X146554302Y-78670000D01*
X146815698Y-78670000D01*
X147072072Y-78619004D01*
X147313570Y-78518972D01*
X147530913Y-78373748D01*
X147634661Y-78270000D01*
X153926451Y-78270000D01*
X153926451Y-78716000D01*
X153936626Y-78819310D01*
X153966761Y-78918650D01*
X154015696Y-79010202D01*
X154081552Y-79090448D01*
X154161798Y-79156304D01*
X154253350Y-79205239D01*
X154352690Y-79235374D01*
X154456000Y-79245549D01*
X157456000Y-79245549D01*
X157559310Y-79235374D01*
X157658650Y-79205239D01*
X157750202Y-79156304D01*
X157830448Y-79090448D01*
X157896304Y-79010202D01*
X157945239Y-78918650D01*
X157975374Y-78819310D01*
X157985549Y-78716000D01*
X157985549Y-75716000D01*
X157975374Y-75612690D01*
X157945239Y-75513350D01*
X157896304Y-75421798D01*
X157830448Y-75341552D01*
X157750202Y-75275696D01*
X157658650Y-75226761D01*
X157559310Y-75196626D01*
X157483000Y-75189110D01*
X157483000Y-65607004D01*
X157490387Y-65532000D01*
X157483000Y-65456996D01*
X157483000Y-65456989D01*
X157460905Y-65232656D01*
X157447220Y-65187540D01*
X157373590Y-64944815D01*
X157354293Y-64908713D01*
X157231797Y-64679540D01*
X157040976Y-64447024D01*
X156982713Y-64399209D01*
X154040797Y-61457294D01*
X153992976Y-61399024D01*
X153760460Y-61208203D01*
X153495185Y-61066410D01*
X153207344Y-60979095D01*
X152983011Y-60957000D01*
X152983001Y-60957000D01*
X152908000Y-60949613D01*
X152832999Y-60957000D01*
X139624989Y-60957000D01*
X139400656Y-60979095D01*
X139112815Y-61066410D01*
X138847540Y-61208203D01*
X138615024Y-61399024D01*
X138485376Y-61557000D01*
X136697526Y-61557000D01*
X136651999Y-61552516D01*
X136606472Y-61557000D01*
X136606462Y-61557000D01*
X136470276Y-61570413D01*
X136295536Y-61623420D01*
X136190590Y-61679516D01*
X136134494Y-61709499D01*
X136028712Y-61796312D01*
X136028708Y-61796316D01*
X135993341Y-61825341D01*
X135964316Y-61860708D01*
X132726713Y-65098312D01*
X132712025Y-65113000D01*
X131788503Y-65113000D01*
X131688802Y-65013299D01*
X131688793Y-65013288D01*
X125448797Y-58773294D01*
X125400976Y-58715024D01*
X125168460Y-58524203D01*
X124903185Y-58382410D01*
X124615344Y-58295095D01*
X124391011Y-58273000D01*
X124391001Y-58273000D01*
X124316000Y-58265613D01*
X124240999Y-58273000D01*
X112720989Y-58273000D01*
X112496656Y-58295095D01*
X112208815Y-58382410D01*
X111943540Y-58524203D01*
X111711024Y-58715024D01*
X111520203Y-58947540D01*
X111378410Y-59212815D01*
X111291095Y-59500656D01*
X111261612Y-59800000D01*
X111291095Y-60099344D01*
X111378410Y-60387185D01*
X111520203Y-60652460D01*
X111537059Y-60672999D01*
X110625577Y-60672999D01*
X110688248Y-60596634D01*
X110820755Y-60348731D01*
X110902352Y-60079741D01*
X110929904Y-59800000D01*
X110902352Y-59520259D01*
X110820755Y-59251269D01*
X110688248Y-59003366D01*
X110583385Y-58875590D01*
X111635976Y-57823000D01*
X130553025Y-57823000D01*
X131153001Y-58422977D01*
X131153000Y-61534339D01*
X131049252Y-61638087D01*
X130904028Y-61855430D01*
X130803996Y-62096928D01*
X130753000Y-62353302D01*
X130753000Y-62614698D01*
X130803996Y-62871072D01*
X130904028Y-63112570D01*
X131049252Y-63329913D01*
X131234087Y-63514748D01*
X131451430Y-63659972D01*
X131692928Y-63760004D01*
X131949302Y-63811000D01*
X132210698Y-63811000D01*
X132467072Y-63760004D01*
X132708570Y-63659972D01*
X132925913Y-63514748D01*
X133110748Y-63329913D01*
X133255972Y-63112570D01*
X133356004Y-62871072D01*
X133407000Y-62614698D01*
X133407000Y-62353302D01*
X133356004Y-62096928D01*
X133255972Y-61855430D01*
X133110748Y-61638087D01*
X133007000Y-61534339D01*
X133007000Y-58208188D01*
X133082650Y-58185239D01*
X133174202Y-58136304D01*
X133254448Y-58070448D01*
X133320304Y-57990202D01*
X133369239Y-57898650D01*
X133399374Y-57799310D01*
X133409549Y-57696000D01*
X133409549Y-57532833D01*
X133549252Y-57741913D01*
X133734087Y-57926748D01*
X133951430Y-58071972D01*
X134192928Y-58172004D01*
X134449302Y-58223000D01*
X134710698Y-58223000D01*
X134967072Y-58172004D01*
X135208570Y-58071972D01*
X135425913Y-57926748D01*
X135529661Y-57823000D01*
X137226339Y-57823000D01*
X137330087Y-57926748D01*
X137547430Y-58071972D01*
X137788928Y-58172004D01*
X138045302Y-58223000D01*
X138306698Y-58223000D01*
X138563072Y-58172004D01*
X138804570Y-58071972D01*
X139021913Y-57926748D01*
X139206748Y-57741913D01*
X139351972Y-57524570D01*
X139452004Y-57283072D01*
X139459569Y-57245039D01*
X144404096Y-57245039D01*
X144444754Y-57379087D01*
X144564963Y-57633420D01*
X144732481Y-57859414D01*
X144940869Y-58048385D01*
X145182119Y-58193070D01*
X145446960Y-58287909D01*
X145669000Y-58166624D01*
X145669000Y-57023000D01*
X145923000Y-57023000D01*
X145923000Y-58166624D01*
X146145040Y-58287909D01*
X146409881Y-58193070D01*
X146651131Y-58048385D01*
X146859519Y-57859414D01*
X147027037Y-57633420D01*
X147147246Y-57379087D01*
X147187904Y-57245039D01*
X147065915Y-57023000D01*
X145923000Y-57023000D01*
X145669000Y-57023000D01*
X144526085Y-57023000D01*
X144404096Y-57245039D01*
X139459569Y-57245039D01*
X139503000Y-57026698D01*
X139503000Y-56765302D01*
X139459570Y-56546961D01*
X144404096Y-56546961D01*
X144526085Y-56769000D01*
X145669000Y-56769000D01*
X145669000Y-55625376D01*
X145923000Y-55625376D01*
X145923000Y-56769000D01*
X147065915Y-56769000D01*
X147111235Y-56686509D01*
X153829000Y-56686509D01*
X153829000Y-57105491D01*
X153910739Y-57516423D01*
X154071077Y-57903512D01*
X154303851Y-58251884D01*
X154600116Y-58548149D01*
X154948488Y-58780923D01*
X155335577Y-58941261D01*
X155746509Y-59023000D01*
X156165491Y-59023000D01*
X156576423Y-58941261D01*
X156963512Y-58780923D01*
X157311884Y-58548149D01*
X157608149Y-58251884D01*
X157840923Y-57903512D01*
X158001261Y-57516423D01*
X158083000Y-57105491D01*
X158083000Y-56686509D01*
X158001261Y-56275577D01*
X157840923Y-55888488D01*
X157608149Y-55540116D01*
X157311884Y-55243851D01*
X156963512Y-55011077D01*
X156576423Y-54850739D01*
X156165491Y-54769000D01*
X155746509Y-54769000D01*
X155335577Y-54850739D01*
X154948488Y-55011077D01*
X154600116Y-55243851D01*
X154303851Y-55540116D01*
X154071077Y-55888488D01*
X153910739Y-56275577D01*
X153829000Y-56686509D01*
X147111235Y-56686509D01*
X147187904Y-56546961D01*
X147147246Y-56412913D01*
X147027037Y-56158580D01*
X146859519Y-55932586D01*
X146651131Y-55743615D01*
X146409881Y-55598930D01*
X146145040Y-55504091D01*
X145923000Y-55625376D01*
X145669000Y-55625376D01*
X145446960Y-55504091D01*
X145182119Y-55598930D01*
X144940869Y-55743615D01*
X144732481Y-55932586D01*
X144564963Y-56158580D01*
X144444754Y-56412913D01*
X144404096Y-56546961D01*
X139459570Y-56546961D01*
X139452004Y-56508928D01*
X139351972Y-56267430D01*
X139206748Y-56050087D01*
X139021913Y-55865252D01*
X138804570Y-55720028D01*
X138563072Y-55619996D01*
X138306698Y-55569000D01*
X138045302Y-55569000D01*
X137788928Y-55619996D01*
X137547430Y-55720028D01*
X137330087Y-55865252D01*
X137226339Y-55969000D01*
X135529661Y-55969000D01*
X135425913Y-55865252D01*
X135208570Y-55720028D01*
X134967072Y-55619996D01*
X134710698Y-55569000D01*
X134449302Y-55569000D01*
X134192928Y-55619996D01*
X133951430Y-55720028D01*
X133734087Y-55865252D01*
X133549252Y-56050087D01*
X133409549Y-56259167D01*
X133409549Y-56096000D01*
X133399374Y-55992690D01*
X133369239Y-55893350D01*
X133320304Y-55801798D01*
X133254448Y-55721552D01*
X133174202Y-55655696D01*
X133082650Y-55606761D01*
X132983310Y-55576626D01*
X132880000Y-55566451D01*
X131280000Y-55566451D01*
X131176690Y-55576626D01*
X131077350Y-55606761D01*
X130985798Y-55655696D01*
X130905552Y-55721552D01*
X130839696Y-55801798D01*
X130790761Y-55893350D01*
X130767812Y-55969000D01*
X111297524Y-55969000D01*
X111251999Y-55964516D01*
X111206474Y-55969000D01*
X111206462Y-55969000D01*
X111070276Y-55982413D01*
X110895536Y-56035420D01*
X110820573Y-56075489D01*
X110734494Y-56121499D01*
X110628711Y-56208313D01*
X110628708Y-56208316D01*
X110593341Y-56237341D01*
X110564316Y-56272708D01*
X108772713Y-58064312D01*
X108737341Y-58093341D01*
X108708313Y-58128712D01*
X108708312Y-58128713D01*
X108621499Y-58234495D01*
X108604866Y-58265613D01*
X108535420Y-58395537D01*
X108482413Y-58570277D01*
X108476907Y-58626184D01*
X108282077Y-58786077D01*
X108103752Y-59003366D01*
X107971245Y-59251269D01*
X107889648Y-59520259D01*
X107862096Y-59800000D01*
X107889648Y-60079741D01*
X107946041Y-60265643D01*
X105087244Y-57406848D01*
X105121670Y-57293361D01*
X105160807Y-56896000D01*
X105121670Y-56498639D01*
X105005764Y-56116548D01*
X104817543Y-55764411D01*
X104564240Y-55455760D01*
X104255589Y-55202457D01*
X103903452Y-55014236D01*
X103521361Y-54898330D01*
X103223571Y-54869000D01*
X69695571Y-54869000D01*
X69596000Y-54859193D01*
X69198638Y-54898330D01*
X68816547Y-55014236D01*
X68628326Y-55114843D01*
X68464411Y-55202457D01*
X68155760Y-55455760D01*
X68092283Y-55533107D01*
X55900288Y-67725102D01*
X55710458Y-67956411D01*
X55522237Y-68308548D01*
X55406331Y-68690639D01*
X55367194Y-69088000D01*
X55406331Y-69485361D01*
X55522237Y-69867452D01*
X55710458Y-70219589D01*
X55877000Y-70422522D01*
X55877001Y-76583495D01*
X54279594Y-78180903D01*
X54264304Y-78152298D01*
X54198448Y-78072052D01*
X54118202Y-78006196D01*
X54026650Y-77957261D01*
X53927310Y-77927126D01*
X53824000Y-77916951D01*
X50824000Y-77916951D01*
X50720690Y-77927126D01*
X50621350Y-77957261D01*
X50529798Y-78006196D01*
X50449552Y-78072052D01*
X50383696Y-78152298D01*
X50334761Y-78243850D01*
X50304626Y-78343190D01*
X50295000Y-78440926D01*
X50295000Y-76358153D01*
X51011952Y-76358153D01*
X51167962Y-76673714D01*
X51542745Y-76864520D01*
X51947551Y-76978544D01*
X52366824Y-77011402D01*
X52784451Y-76961834D01*
X53184383Y-76831743D01*
X53480038Y-76673714D01*
X53636048Y-76358153D01*
X52324000Y-75046105D01*
X51011952Y-76358153D01*
X50295000Y-76358153D01*
X50295000Y-75530878D01*
X50358757Y-75726883D01*
X50516786Y-76022538D01*
X50832347Y-76178548D01*
X52144395Y-74866500D01*
X52503605Y-74866500D01*
X53815653Y-76178548D01*
X54131214Y-76022538D01*
X54322020Y-75647755D01*
X54436044Y-75242949D01*
X54468902Y-74823676D01*
X54419334Y-74406049D01*
X54289243Y-74006117D01*
X54131214Y-73710462D01*
X53815653Y-73554452D01*
X52503605Y-74866500D01*
X52144395Y-74866500D01*
X50832347Y-73554452D01*
X50516786Y-73710462D01*
X50325980Y-74085245D01*
X50295000Y-74195230D01*
X50295000Y-73374847D01*
X51011952Y-73374847D01*
X52324000Y-74686895D01*
X53636048Y-73374847D01*
X53480038Y-73059286D01*
X53105255Y-72868480D01*
X52700449Y-72754456D01*
X52281176Y-72721598D01*
X51863549Y-72771166D01*
X51463617Y-72901257D01*
X51167962Y-73059286D01*
X51011952Y-73374847D01*
X50295000Y-73374847D01*
X50295000Y-72768503D01*
X51446477Y-71617027D01*
X51732746Y-71735604D01*
X52124358Y-71813500D01*
X52523642Y-71813500D01*
X52915254Y-71735604D01*
X53284145Y-71582804D01*
X53616137Y-71360974D01*
X53898474Y-71078637D01*
X54120304Y-70746645D01*
X54273104Y-70377754D01*
X54351000Y-69986142D01*
X54351000Y-69586858D01*
X54273104Y-69195246D01*
X54120304Y-68826355D01*
X53898474Y-68494363D01*
X53616137Y-68212026D01*
X53284145Y-67990196D01*
X52915254Y-67837396D01*
X52523642Y-67759500D01*
X52124358Y-67759500D01*
X51732746Y-67837396D01*
X51363855Y-67990196D01*
X51031863Y-68212026D01*
X50978041Y-68265848D01*
X50845455Y-68278906D01*
X50818155Y-68281595D01*
X50546501Y-68364000D01*
X50530315Y-68368910D01*
X50265040Y-68510703D01*
X50244678Y-68527414D01*
X50090788Y-68653707D01*
X50090783Y-68653712D01*
X50032524Y-68701524D01*
X49984712Y-68759783D01*
X47741293Y-71003204D01*
X47683024Y-71051024D01*
X47492203Y-71283541D01*
X47350410Y-71548816D01*
X47263095Y-71836657D01*
X47241000Y-72060990D01*
X47241000Y-72060999D01*
X47233613Y-72136000D01*
X46680000Y-72136000D01*
X46680000Y-56686509D01*
X49181000Y-56686509D01*
X49181000Y-57105491D01*
X49262739Y-57516423D01*
X49423077Y-57903512D01*
X49655851Y-58251884D01*
X49952116Y-58548149D01*
X50300488Y-58780923D01*
X50687577Y-58941261D01*
X51098509Y-59023000D01*
X51517491Y-59023000D01*
X51928423Y-58941261D01*
X52315512Y-58780923D01*
X52663884Y-58548149D01*
X52960149Y-58251884D01*
X53192923Y-57903512D01*
X53353261Y-57516423D01*
X53435000Y-57105491D01*
X53435000Y-56686509D01*
X53353261Y-56275577D01*
X53192923Y-55888488D01*
X52960149Y-55540116D01*
X52663884Y-55243851D01*
X52315512Y-55011077D01*
X51928423Y-54850739D01*
X51517491Y-54769000D01*
X51098509Y-54769000D01*
X50687577Y-54850739D01*
X50300488Y-55011077D01*
X49952116Y-55243851D01*
X49655851Y-55540116D01*
X49423077Y-55888488D01*
X49262739Y-56275577D01*
X49181000Y-56686509D01*
X46680000Y-56686509D01*
X46680000Y-52268000D01*
X160584001Y-52268000D01*
X160584000Y-111308000D01*
G37*
X160584000Y-111308000D02*
X46680000Y-111308000D01*
X46680000Y-106470509D01*
X49181000Y-106470509D01*
X49181000Y-106889491D01*
X49262739Y-107300423D01*
X49423077Y-107687512D01*
X49655851Y-108035884D01*
X49952116Y-108332149D01*
X50300488Y-108564923D01*
X50687577Y-108725261D01*
X51098509Y-108807000D01*
X51517491Y-108807000D01*
X51928423Y-108725261D01*
X52315512Y-108564923D01*
X52663884Y-108332149D01*
X52960149Y-108035884D01*
X53192923Y-107687512D01*
X53353261Y-107300423D01*
X53435000Y-106889491D01*
X53435000Y-106470509D01*
X53353261Y-106059577D01*
X53192923Y-105672488D01*
X52960149Y-105324116D01*
X52663884Y-105027851D01*
X52315512Y-104795077D01*
X51928423Y-104634739D01*
X51517491Y-104553000D01*
X51098509Y-104553000D01*
X50687577Y-104634739D01*
X50300488Y-104795077D01*
X49952116Y-105027851D01*
X49655851Y-105324116D01*
X49423077Y-105672488D01*
X49262739Y-106059577D01*
X49181000Y-106470509D01*
X46680000Y-106470509D01*
X46680000Y-72136000D01*
X47233613Y-72136000D01*
X47241000Y-72211001D01*
X47241001Y-96952989D01*
X47233613Y-97028000D01*
X47241001Y-97103011D01*
X47263096Y-97327344D01*
X47350411Y-97615185D01*
X47492204Y-97880460D01*
X47683025Y-98112976D01*
X47741289Y-98160792D01*
X54364598Y-104784102D01*
X54390330Y-105045361D01*
X54506236Y-105427452D01*
X54694457Y-105779589D01*
X54947760Y-106088240D01*
X55256411Y-106341543D01*
X55608548Y-106529764D01*
X55990639Y-106645670D01*
X56288429Y-106675000D01*
X93880439Y-106675000D01*
X93980000Y-106684806D01*
X94079561Y-106675000D01*
X94079571Y-106675000D01*
X94377361Y-106645670D01*
X94759452Y-106529764D01*
X95111589Y-106341543D01*
X95337674Y-106156000D01*
X109105928Y-106156000D01*
X109118188Y-106280482D01*
X109154498Y-106400180D01*
X109213463Y-106510494D01*
X109292815Y-106607185D01*
X109389506Y-106686537D01*
X109499820Y-106745502D01*
X109619518Y-106781812D01*
X109744000Y-106794072D01*
X110458250Y-106791000D01*
X110617000Y-106632250D01*
X110617000Y-105283000D01*
X110871000Y-105283000D01*
X110871000Y-106632250D01*
X111029750Y-106791000D01*
X111744000Y-106794072D01*
X111868482Y-106781812D01*
X111988180Y-106745502D01*
X112098494Y-106686537D01*
X112195185Y-106607185D01*
X112274537Y-106510494D01*
X112333502Y-106400180D01*
X112369812Y-106280482D01*
X112382072Y-106156000D01*
X112379000Y-105441750D01*
X112220250Y-105283000D01*
X110871000Y-105283000D01*
X110617000Y-105283000D01*
X109267750Y-105283000D01*
X109109000Y-105441750D01*
X109105928Y-106156000D01*
X95337674Y-106156000D01*
X95420240Y-106088240D01*
X95483716Y-106010894D01*
X97007712Y-104486899D01*
X97197542Y-104255590D01*
X97250773Y-104156000D01*
X109105928Y-104156000D01*
X109109000Y-104870250D01*
X109267750Y-105029000D01*
X110617000Y-105029000D01*
X110617000Y-103679750D01*
X110871000Y-103679750D01*
X110871000Y-105029000D01*
X112220250Y-105029000D01*
X112379000Y-104870250D01*
X112382072Y-104156000D01*
X112369812Y-104031518D01*
X112333502Y-103911820D01*
X112274537Y-103801506D01*
X112195185Y-103704815D01*
X112098494Y-103625463D01*
X111988180Y-103566498D01*
X111868482Y-103530188D01*
X111744000Y-103517928D01*
X111029750Y-103521000D01*
X110871000Y-103679750D01*
X110617000Y-103679750D01*
X110458250Y-103521000D01*
X109744000Y-103517928D01*
X109619518Y-103530188D01*
X109499820Y-103566498D01*
X109389506Y-103625463D01*
X109292815Y-103704815D01*
X109213463Y-103801506D01*
X109154498Y-103911820D01*
X109118188Y-104031518D01*
X109105928Y-104156000D01*
X97250773Y-104156000D01*
X97385763Y-103903453D01*
X97501669Y-103521362D01*
X97527401Y-103260103D01*
X97660504Y-103127000D01*
X114732989Y-103127000D01*
X114808000Y-103134388D01*
X114882640Y-103127037D01*
X115846133Y-104090531D01*
X115878289Y-104129713D01*
X115917471Y-104161869D01*
X115917476Y-104161874D01*
X115982240Y-104215024D01*
X116034670Y-104258052D01*
X116213084Y-104353416D01*
X116346875Y-104394001D01*
X116406673Y-104412141D01*
X116424832Y-104413929D01*
X116557550Y-104427001D01*
X116557557Y-104427001D01*
X116608001Y-104431969D01*
X116658444Y-104427001D01*
X120329060Y-104427001D01*
X120312203Y-104447541D01*
X120170410Y-104712816D01*
X120083095Y-105000657D01*
X120061000Y-105224990D01*
X120061000Y-105229902D01*
X120054096Y-105300000D01*
X120061000Y-105370098D01*
X120061000Y-106272999D01*
X120053613Y-106348000D01*
X120061000Y-106423001D01*
X120061000Y-106423011D01*
X120083095Y-106647344D01*
X120170410Y-106935185D01*
X120312203Y-107200460D01*
X120503025Y-107432976D01*
X120561289Y-107480792D01*
X122311208Y-109230711D01*
X122359024Y-109288976D01*
X122591540Y-109479797D01*
X122856815Y-109621590D01*
X123144656Y-109708905D01*
X123368989Y-109731000D01*
X123368998Y-109731000D01*
X123443999Y-109738387D01*
X123519000Y-109731000D01*
X131754551Y-109731000D01*
X131793350Y-109751738D01*
X131892690Y-109781873D01*
X131996000Y-109792048D01*
X134196000Y-109792048D01*
X134299310Y-109781873D01*
X134398650Y-109751738D01*
X134490202Y-109702803D01*
X134506413Y-109689499D01*
X136494758Y-109689499D01*
X136685422Y-109768475D01*
X136999755Y-109831000D01*
X137320245Y-109831000D01*
X137634578Y-109768475D01*
X137930673Y-109645828D01*
X138197152Y-109467773D01*
X138423773Y-109241152D01*
X138435902Y-109223000D01*
X145477478Y-109223000D01*
X145680411Y-109389542D01*
X146032548Y-109577763D01*
X146414639Y-109693669D01*
X146812000Y-109732806D01*
X147209361Y-109693669D01*
X147591452Y-109577763D01*
X147943589Y-109389542D01*
X148174898Y-109199712D01*
X150904101Y-106470509D01*
X153829000Y-106470509D01*
X153829000Y-106889491D01*
X153910739Y-107300423D01*
X154071077Y-107687512D01*
X154303851Y-108035884D01*
X154600116Y-108332149D01*
X154948488Y-108564923D01*
X155335577Y-108725261D01*
X155746509Y-108807000D01*
X156165491Y-108807000D01*
X156576423Y-108725261D01*
X156963512Y-108564923D01*
X157311884Y-108332149D01*
X157608149Y-108035884D01*
X157840923Y-107687512D01*
X158001261Y-107300423D01*
X158083000Y-106889491D01*
X158083000Y-106470509D01*
X158001261Y-106059577D01*
X157840923Y-105672488D01*
X157608149Y-105324116D01*
X157311884Y-105027851D01*
X156963512Y-104795077D01*
X156576423Y-104634739D01*
X156165491Y-104553000D01*
X155746509Y-104553000D01*
X155335577Y-104634739D01*
X154948488Y-104795077D01*
X154600116Y-105027851D01*
X154303851Y-105324116D01*
X154071077Y-105672488D01*
X153910739Y-106059577D01*
X153829000Y-106470509D01*
X150904101Y-106470509D01*
X156302893Y-101071717D01*
X156380240Y-101008240D01*
X156633543Y-100699589D01*
X156821764Y-100347452D01*
X156937670Y-99965361D01*
X156957695Y-99762051D01*
X156976807Y-99568000D01*
X156967000Y-99468429D01*
X156967000Y-84151610D01*
X157248134Y-83870476D01*
X157248137Y-83870474D01*
X157530474Y-83588137D01*
X157586076Y-83504923D01*
X157649542Y-83427589D01*
X157696701Y-83339360D01*
X157752304Y-83256145D01*
X157790603Y-83163682D01*
X157837763Y-83075453D01*
X157866804Y-82979717D01*
X157905104Y-82887254D01*
X157924628Y-82789100D01*
X157953670Y-82693362D01*
X157963476Y-82593795D01*
X157983000Y-82495642D01*
X157983000Y-82395564D01*
X157992806Y-82296000D01*
X157983000Y-82196436D01*
X157983000Y-82096358D01*
X157963476Y-81998205D01*
X157953670Y-81898639D01*
X157924628Y-81802903D01*
X157905104Y-81704746D01*
X157866803Y-81612280D01*
X157837763Y-81516548D01*
X157790605Y-81428321D01*
X157752304Y-81335855D01*
X157696701Y-81252639D01*
X157649542Y-81164411D01*
X157586075Y-81087076D01*
X157530474Y-81003863D01*
X157459711Y-80933100D01*
X157396240Y-80855760D01*
X157318899Y-80792288D01*
X157248137Y-80721526D01*
X157164924Y-80665925D01*
X157087589Y-80602458D01*
X156999361Y-80555299D01*
X156916145Y-80499696D01*
X156823679Y-80461395D01*
X156735452Y-80414237D01*
X156639720Y-80385197D01*
X156547254Y-80346896D01*
X156449097Y-80327372D01*
X156353361Y-80298330D01*
X156253795Y-80288524D01*
X156155642Y-80269000D01*
X156055564Y-80269000D01*
X155956000Y-80259194D01*
X155856436Y-80269000D01*
X155756358Y-80269000D01*
X155658205Y-80288524D01*
X155558638Y-80298330D01*
X155462900Y-80327372D01*
X155364746Y-80346896D01*
X155272283Y-80385196D01*
X155176547Y-80414237D01*
X155088318Y-80461397D01*
X154995855Y-80499696D01*
X154912640Y-80555299D01*
X154824411Y-80602458D01*
X154747077Y-80665924D01*
X154663863Y-80721526D01*
X154381526Y-81003863D01*
X154381524Y-81003866D01*
X153577102Y-81808288D01*
X153499761Y-81871760D01*
X153436289Y-81949101D01*
X153436288Y-81949102D01*
X153246458Y-82180411D01*
X153058237Y-82532548D01*
X152942331Y-82914639D01*
X152903194Y-83312000D01*
X152913001Y-83411571D01*
X152913000Y-90015570D01*
X152913001Y-90015580D01*
X152913001Y-90632024D01*
X152411712Y-91133313D01*
X152393816Y-91148000D01*
X144205661Y-91148000D01*
X144183000Y-91125339D01*
X144183000Y-87182661D01*
X144286748Y-87078913D01*
X144431972Y-86861570D01*
X144532004Y-86620072D01*
X144583000Y-86363698D01*
X144583000Y-86102302D01*
X144532004Y-85845928D01*
X144431972Y-85604430D01*
X144286748Y-85387087D01*
X144101913Y-85202252D01*
X143884570Y-85057028D01*
X143643072Y-84956996D01*
X143386698Y-84906000D01*
X143125302Y-84906000D01*
X142868928Y-84956996D01*
X142627430Y-85057028D01*
X142410087Y-85202252D01*
X142225252Y-85387087D01*
X142080028Y-85604430D01*
X142024000Y-85739693D01*
X142024000Y-79420527D01*
X142028484Y-79375000D01*
X142024000Y-79329473D01*
X142024000Y-79329462D01*
X142010587Y-79193276D01*
X141957580Y-79018536D01*
X141912587Y-78934360D01*
X141871501Y-78857494D01*
X141784688Y-78751712D01*
X141784684Y-78751708D01*
X141755659Y-78716341D01*
X141720292Y-78687316D01*
X140392000Y-77359025D01*
X140392000Y-77212302D01*
X140341004Y-76955928D01*
X140240972Y-76714430D01*
X140095748Y-76497087D01*
X139992000Y-76393339D01*
X139992000Y-73720661D01*
X140095748Y-73616913D01*
X140240972Y-73399570D01*
X140341004Y-73158072D01*
X140348569Y-73120039D01*
X145293096Y-73120039D01*
X145333754Y-73254087D01*
X145453963Y-73508420D01*
X145621481Y-73734414D01*
X145829869Y-73923385D01*
X146071119Y-74068070D01*
X146335960Y-74162909D01*
X146558000Y-74041624D01*
X146558000Y-72898000D01*
X146812000Y-72898000D01*
X146812000Y-74041624D01*
X147034040Y-74162909D01*
X147298881Y-74068070D01*
X147540131Y-73923385D01*
X147748519Y-73734414D01*
X147916037Y-73508420D01*
X148036246Y-73254087D01*
X148076904Y-73120039D01*
X147954915Y-72898000D01*
X146812000Y-72898000D01*
X146558000Y-72898000D01*
X145415085Y-72898000D01*
X145293096Y-73120039D01*
X140348569Y-73120039D01*
X140392000Y-72901698D01*
X140392000Y-72640302D01*
X140348570Y-72421961D01*
X145293096Y-72421961D01*
X145415085Y-72644000D01*
X146558000Y-72644000D01*
X146558000Y-71500376D01*
X146812000Y-71500376D01*
X146812000Y-72644000D01*
X147954915Y-72644000D01*
X148076904Y-72421961D01*
X148036246Y-72287913D01*
X147916037Y-72033580D01*
X147748519Y-71807586D01*
X147540131Y-71618615D01*
X147298881Y-71473930D01*
X147034040Y-71379091D01*
X146812000Y-71500376D01*
X146558000Y-71500376D01*
X146335960Y-71379091D01*
X146071119Y-71473930D01*
X145829869Y-71618615D01*
X145621481Y-71807586D01*
X145453963Y-72033580D01*
X145333754Y-72287913D01*
X145293096Y-72421961D01*
X140348570Y-72421961D01*
X140341004Y-72383928D01*
X140240972Y-72142430D01*
X140095748Y-71925087D01*
X139910913Y-71740252D01*
X139693570Y-71595028D01*
X139452072Y-71494996D01*
X139195698Y-71444000D01*
X138934302Y-71444000D01*
X138677928Y-71494996D01*
X138436430Y-71595028D01*
X138219087Y-71740252D01*
X138034252Y-71925087D01*
X137889028Y-72142430D01*
X137788996Y-72383928D01*
X137738000Y-72640302D01*
X137738000Y-72901698D01*
X137788996Y-73158072D01*
X137889028Y-73399570D01*
X138034252Y-73616913D01*
X138138000Y-73720661D01*
X138138001Y-76393338D01*
X138034252Y-76497087D01*
X137889028Y-76714430D01*
X137788996Y-76955928D01*
X137738000Y-77212302D01*
X137738000Y-77473698D01*
X137788996Y-77730072D01*
X137889028Y-77971570D01*
X138034252Y-78188913D01*
X138219087Y-78373748D01*
X138436430Y-78518972D01*
X138677928Y-78619004D01*
X138934302Y-78670000D01*
X139081025Y-78670000D01*
X140170001Y-79758977D01*
X140170000Y-91721213D01*
X140095748Y-91610087D01*
X139910913Y-91425252D01*
X139693570Y-91280028D01*
X139452072Y-91179996D01*
X139195698Y-91129000D01*
X138934302Y-91129000D01*
X138677928Y-91179996D01*
X138436430Y-91280028D01*
X138219087Y-91425252D01*
X138034252Y-91610087D01*
X137889028Y-91827430D01*
X137788996Y-92068928D01*
X137738000Y-92325302D01*
X137738000Y-92586698D01*
X137788996Y-92843072D01*
X137889028Y-93084570D01*
X138034252Y-93301913D01*
X138219087Y-93486748D01*
X138436430Y-93631972D01*
X138646001Y-93718779D01*
X138646000Y-94696472D01*
X138641516Y-94742000D01*
X138646000Y-94787527D01*
X138646000Y-94787537D01*
X138659413Y-94923723D01*
X138712420Y-95098463D01*
X138798499Y-95259505D01*
X138885312Y-95365287D01*
X138914341Y-95400659D01*
X138949713Y-95429688D01*
X139408001Y-95887977D01*
X139408000Y-99311024D01*
X138046025Y-100673000D01*
X128214890Y-100673000D01*
X128207374Y-100596690D01*
X128177239Y-100497350D01*
X128128304Y-100405798D01*
X128062448Y-100325552D01*
X127982202Y-100259696D01*
X127890650Y-100210761D01*
X127791310Y-100180626D01*
X127688000Y-100170451D01*
X125688000Y-100170451D01*
X125584690Y-100180626D01*
X125485350Y-100210761D01*
X125393798Y-100259696D01*
X125313552Y-100325552D01*
X125247696Y-100405798D01*
X125198761Y-100497350D01*
X125168626Y-100596690D01*
X125158451Y-100700000D01*
X125158451Y-102500000D01*
X125168626Y-102603310D01*
X125198761Y-102702650D01*
X125247696Y-102794202D01*
X125313552Y-102874448D01*
X125393798Y-102940304D01*
X125485350Y-102989239D01*
X125584690Y-103019374D01*
X125688000Y-103029549D01*
X127688000Y-103029549D01*
X127791310Y-103019374D01*
X127890650Y-102989239D01*
X127982202Y-102940304D01*
X128062448Y-102874448D01*
X128128304Y-102794202D01*
X128177239Y-102702650D01*
X128207374Y-102603310D01*
X128214890Y-102527000D01*
X138384473Y-102527000D01*
X138430000Y-102531484D01*
X138475527Y-102527000D01*
X138475538Y-102527000D01*
X138611724Y-102513587D01*
X138786464Y-102460580D01*
X138947505Y-102374501D01*
X139088659Y-102258659D01*
X139117688Y-102223287D01*
X140958293Y-100382683D01*
X140993659Y-100353659D01*
X141022684Y-100318292D01*
X141022688Y-100318288D01*
X141109501Y-100212506D01*
X141195580Y-100051464D01*
X141195580Y-100051463D01*
X141248587Y-99876724D01*
X141262000Y-99740538D01*
X141262000Y-99740527D01*
X141266484Y-99695000D01*
X141262000Y-99649473D01*
X141262000Y-95549527D01*
X141266484Y-95504000D01*
X141262000Y-95458473D01*
X141262000Y-95458462D01*
X141248587Y-95322276D01*
X141195580Y-95147536D01*
X141177385Y-95113495D01*
X141109502Y-94986494D01*
X141022688Y-94880712D01*
X141022684Y-94880708D01*
X140993659Y-94845341D01*
X140958292Y-94816316D01*
X140500000Y-94358025D01*
X140500000Y-93931975D01*
X144386312Y-97818287D01*
X144415341Y-97853659D01*
X144450712Y-97882687D01*
X144556494Y-97969501D01*
X144578782Y-97981414D01*
X144717536Y-98055580D01*
X144892276Y-98108587D01*
X145028462Y-98122000D01*
X145028474Y-98122000D01*
X145073999Y-98126484D01*
X145119524Y-98122000D01*
X147132339Y-98122000D01*
X147236087Y-98225748D01*
X147445167Y-98365451D01*
X147282000Y-98365451D01*
X147178690Y-98375626D01*
X147079350Y-98405761D01*
X146987798Y-98454696D01*
X146907552Y-98520552D01*
X146841696Y-98600798D01*
X146792761Y-98692350D01*
X146769812Y-98768000D01*
X144205661Y-98768000D01*
X144101913Y-98664252D01*
X143884570Y-98519028D01*
X143643072Y-98418996D01*
X143386698Y-98368000D01*
X143125302Y-98368000D01*
X142868928Y-98418996D01*
X142627430Y-98519028D01*
X142410087Y-98664252D01*
X142225252Y-98849087D01*
X142080028Y-99066430D01*
X141979996Y-99307928D01*
X141929000Y-99564302D01*
X141929000Y-99711024D01*
X137267025Y-104373000D01*
X126173259Y-104373000D01*
X126101923Y-104286077D01*
X125884634Y-104107752D01*
X125636731Y-103975245D01*
X125367741Y-103893648D01*
X125158098Y-103873000D01*
X124817902Y-103873000D01*
X124608259Y-103893648D01*
X124339269Y-103975245D01*
X124091366Y-104107752D01*
X123874077Y-104286077D01*
X123695752Y-104503366D01*
X123563245Y-104751269D01*
X123481648Y-105020259D01*
X123454096Y-105300000D01*
X123481648Y-105579741D01*
X123563245Y-105848731D01*
X123695752Y-106096634D01*
X123874077Y-106313923D01*
X124091366Y-106492248D01*
X124339269Y-106624755D01*
X124511498Y-106677000D01*
X124076504Y-106677000D01*
X123115000Y-105715497D01*
X123115000Y-105370098D01*
X123121904Y-105300000D01*
X123115000Y-105229902D01*
X123115000Y-105224989D01*
X123092905Y-105000656D01*
X123005590Y-104712815D01*
X122863797Y-104447540D01*
X122672976Y-104215024D01*
X122440459Y-104024203D01*
X122359478Y-103980918D01*
X123313397Y-103027000D01*
X123458098Y-103027000D01*
X123667741Y-103006352D01*
X123936731Y-102924755D01*
X124184634Y-102792248D01*
X124401923Y-102613923D01*
X124580248Y-102396634D01*
X124712755Y-102148731D01*
X124794352Y-101879741D01*
X124821904Y-101600000D01*
X124794352Y-101320259D01*
X124712755Y-101051269D01*
X124580248Y-100803366D01*
X124401923Y-100586077D01*
X124315000Y-100514741D01*
X124315000Y-99645786D01*
X124329712Y-99633712D01*
X124361877Y-99594520D01*
X124926898Y-99029499D01*
X131825444Y-99029499D01*
X131832227Y-99039651D01*
X132058848Y-99266272D01*
X132325327Y-99444327D01*
X132621422Y-99566974D01*
X132935755Y-99629499D01*
X133256245Y-99629499D01*
X133570578Y-99566974D01*
X133866673Y-99444327D01*
X134133152Y-99266272D01*
X134359773Y-99039651D01*
X134537828Y-98773172D01*
X134660475Y-98477077D01*
X134723000Y-98162744D01*
X134723000Y-97842254D01*
X134660475Y-97527921D01*
X134537828Y-97231826D01*
X134359773Y-96965347D01*
X134133152Y-96738726D01*
X133866673Y-96560671D01*
X133795041Y-96531000D01*
X135210604Y-96531000D01*
X135538803Y-96859199D01*
X135530451Y-96944000D01*
X135530451Y-99144000D01*
X135540626Y-99247310D01*
X135570761Y-99346650D01*
X135619696Y-99438202D01*
X135685552Y-99518448D01*
X135765798Y-99584304D01*
X135857350Y-99633239D01*
X135956690Y-99663374D01*
X136060000Y-99673549D01*
X138260000Y-99673549D01*
X138363310Y-99663374D01*
X138462650Y-99633239D01*
X138554202Y-99584304D01*
X138634448Y-99518448D01*
X138700304Y-99438202D01*
X138749239Y-99346650D01*
X138779374Y-99247310D01*
X138789549Y-99144000D01*
X138789549Y-96944000D01*
X138779374Y-96840690D01*
X138749239Y-96741350D01*
X138700304Y-96649798D01*
X138634448Y-96569552D01*
X138554202Y-96503696D01*
X138462650Y-96454761D01*
X138363310Y-96424626D01*
X138260000Y-96414451D01*
X137985045Y-96414451D01*
X137889712Y-96298288D01*
X137850524Y-96266128D01*
X136397877Y-94813481D01*
X136365712Y-94774288D01*
X136209331Y-94645949D01*
X136030917Y-94550585D01*
X135837327Y-94491860D01*
X135686451Y-94477000D01*
X135686441Y-94477000D01*
X135636000Y-94472032D01*
X135585559Y-94477000D01*
X123563221Y-94477000D01*
X123794130Y-94442787D01*
X124060292Y-94347603D01*
X124185514Y-94280671D01*
X124257097Y-94036702D01*
X123444000Y-93223605D01*
X122630903Y-94036702D01*
X122702486Y-94280671D01*
X122957996Y-94401571D01*
X123232184Y-94470300D01*
X123368104Y-94477000D01*
X121970443Y-94477000D01*
X121920000Y-94472032D01*
X121869556Y-94477000D01*
X121869549Y-94477000D01*
X121736831Y-94490072D01*
X121718672Y-94491860D01*
X121659947Y-94509674D01*
X121525083Y-94550585D01*
X121346669Y-94645949D01*
X121346667Y-94645950D01*
X121346668Y-94645950D01*
X121229475Y-94742127D01*
X121229470Y-94742132D01*
X121190288Y-94774288D01*
X121158132Y-94813470D01*
X119716604Y-96255000D01*
X119043397Y-96255000D01*
X118375000Y-95586604D01*
X118375000Y-94077347D01*
X118450630Y-94152977D01*
X118566903Y-94036704D01*
X118638486Y-94280671D01*
X118893996Y-94401571D01*
X119168184Y-94470300D01*
X119450512Y-94484217D01*
X119730130Y-94442787D01*
X119996292Y-94347603D01*
X120121514Y-94280671D01*
X120193097Y-94036702D01*
X119380000Y-93223605D01*
X119365858Y-93237748D01*
X119186253Y-93058143D01*
X119200395Y-93044000D01*
X119559605Y-93044000D01*
X120372702Y-93857097D01*
X120616671Y-93785514D01*
X120737571Y-93530004D01*
X120806300Y-93255816D01*
X120813265Y-93114512D01*
X122003783Y-93114512D01*
X122045213Y-93394130D01*
X122140397Y-93660292D01*
X122207329Y-93785514D01*
X122451298Y-93857097D01*
X123264395Y-93044000D01*
X123623605Y-93044000D01*
X124436702Y-93857097D01*
X124680671Y-93785514D01*
X124801571Y-93530004D01*
X124870300Y-93255816D01*
X124884217Y-92973488D01*
X124859259Y-92805039D01*
X130053096Y-92805039D01*
X130093754Y-92939087D01*
X130213963Y-93193420D01*
X130381481Y-93419414D01*
X130589869Y-93608385D01*
X130831119Y-93753070D01*
X131095960Y-93847909D01*
X131318000Y-93726624D01*
X131318000Y-92583000D01*
X131572000Y-92583000D01*
X131572000Y-93726624D01*
X131794040Y-93847909D01*
X132058881Y-93753070D01*
X132300131Y-93608385D01*
X132508519Y-93419414D01*
X132676037Y-93193420D01*
X132796246Y-92939087D01*
X132836904Y-92805039D01*
X132714915Y-92583000D01*
X131572000Y-92583000D01*
X131318000Y-92583000D01*
X130175085Y-92583000D01*
X130053096Y-92805039D01*
X124859259Y-92805039D01*
X124842787Y-92693870D01*
X124747603Y-92427708D01*
X124680671Y-92302486D01*
X124436702Y-92230903D01*
X123623605Y-93044000D01*
X123264395Y-93044000D01*
X122451298Y-92230903D01*
X122207329Y-92302486D01*
X122086429Y-92557996D01*
X122017700Y-92832184D01*
X122003783Y-93114512D01*
X120813265Y-93114512D01*
X120820217Y-92973488D01*
X120778787Y-92693870D01*
X120683603Y-92427708D01*
X120616671Y-92302486D01*
X120372702Y-92230903D01*
X119559605Y-93044000D01*
X119200395Y-93044000D01*
X119186253Y-93029858D01*
X119365858Y-92850253D01*
X119380000Y-92864395D01*
X120193097Y-92051298D01*
X122630903Y-92051298D01*
X123444000Y-92864395D01*
X124201434Y-92106961D01*
X130053096Y-92106961D01*
X130175085Y-92329000D01*
X131318000Y-92329000D01*
X131318000Y-91185376D01*
X131572000Y-91185376D01*
X131572000Y-92329000D01*
X132714915Y-92329000D01*
X132836904Y-92106961D01*
X132796246Y-91972913D01*
X132676037Y-91718580D01*
X132508519Y-91492586D01*
X132300131Y-91303615D01*
X132058881Y-91158930D01*
X131794040Y-91064091D01*
X131572000Y-91185376D01*
X131318000Y-91185376D01*
X131095960Y-91064091D01*
X130831119Y-91158930D01*
X130589869Y-91303615D01*
X130381481Y-91492586D01*
X130213963Y-91718580D01*
X130093754Y-91972913D01*
X130053096Y-92106961D01*
X124201434Y-92106961D01*
X124257097Y-92051298D01*
X124185514Y-91807329D01*
X123930004Y-91686429D01*
X123655816Y-91617700D01*
X123373488Y-91603783D01*
X123093870Y-91645213D01*
X122827708Y-91740397D01*
X122702486Y-91807329D01*
X122630903Y-92051298D01*
X120193097Y-92051298D01*
X120121514Y-91807329D01*
X119866004Y-91686429D01*
X119591816Y-91617700D01*
X119309488Y-91603783D01*
X119029870Y-91645213D01*
X118763708Y-91740397D01*
X118638486Y-91807329D01*
X118566903Y-92051296D01*
X118450630Y-91935023D01*
X118375000Y-92010653D01*
X118375000Y-89925305D01*
X118663344Y-89896905D01*
X118951185Y-89809590D01*
X119216460Y-89667797D01*
X119448976Y-89476976D01*
X119639797Y-89244460D01*
X119781590Y-88979185D01*
X119868905Y-88691344D01*
X119891000Y-88467011D01*
X119891000Y-82645039D01*
X124084096Y-82645039D01*
X124124754Y-82779087D01*
X124244963Y-83033420D01*
X124412481Y-83259414D01*
X124620869Y-83448385D01*
X124862119Y-83593070D01*
X125126960Y-83687909D01*
X125349000Y-83566624D01*
X125349000Y-82423000D01*
X125603000Y-82423000D01*
X125603000Y-83566624D01*
X125825040Y-83687909D01*
X126089881Y-83593070D01*
X126331131Y-83448385D01*
X126539519Y-83259414D01*
X126707037Y-83033420D01*
X126827246Y-82779087D01*
X126867904Y-82645039D01*
X126745915Y-82423000D01*
X125603000Y-82423000D01*
X125349000Y-82423000D01*
X124206085Y-82423000D01*
X124084096Y-82645039D01*
X119891000Y-82645039D01*
X119891000Y-81946961D01*
X124084096Y-81946961D01*
X124206085Y-82169000D01*
X125349000Y-82169000D01*
X125349000Y-81025376D01*
X125603000Y-81025376D01*
X125603000Y-82169000D01*
X126745915Y-82169000D01*
X126747946Y-82165302D01*
X136849000Y-82165302D01*
X136849000Y-82426698D01*
X136899996Y-82683072D01*
X137000028Y-82924570D01*
X137145252Y-83141913D01*
X137249000Y-83245661D01*
X137249001Y-85363338D01*
X137225252Y-85387087D01*
X137080028Y-85604430D01*
X136979996Y-85845928D01*
X136929000Y-86102302D01*
X136929000Y-86363698D01*
X136979996Y-86620072D01*
X137080028Y-86861570D01*
X137225252Y-87078913D01*
X137410087Y-87263748D01*
X137627430Y-87408972D01*
X137868928Y-87509004D01*
X138125302Y-87560000D01*
X138386698Y-87560000D01*
X138643072Y-87509004D01*
X138884570Y-87408972D01*
X139101913Y-87263748D01*
X139286748Y-87078913D01*
X139431972Y-86861570D01*
X139532004Y-86620072D01*
X139583000Y-86363698D01*
X139583000Y-86102302D01*
X139532004Y-85845928D01*
X139431972Y-85604430D01*
X139286748Y-85387087D01*
X139103000Y-85203339D01*
X139103000Y-83245661D01*
X139206748Y-83141913D01*
X139351972Y-82924570D01*
X139452004Y-82683072D01*
X139503000Y-82426698D01*
X139503000Y-82165302D01*
X139452004Y-81908928D01*
X139351972Y-81667430D01*
X139206748Y-81450087D01*
X139021913Y-81265252D01*
X138804570Y-81120028D01*
X138563072Y-81019996D01*
X138306698Y-80969000D01*
X138045302Y-80969000D01*
X137788928Y-81019996D01*
X137547430Y-81120028D01*
X137330087Y-81265252D01*
X137145252Y-81450087D01*
X137000028Y-81667430D01*
X136899996Y-81908928D01*
X136849000Y-82165302D01*
X126747946Y-82165302D01*
X126867904Y-81946961D01*
X126827246Y-81812913D01*
X126707037Y-81558580D01*
X126539519Y-81332586D01*
X126331131Y-81143615D01*
X126089881Y-80998930D01*
X125825040Y-80904091D01*
X125603000Y-81025376D01*
X125349000Y-81025376D01*
X125126960Y-80904091D01*
X124862119Y-80998930D01*
X124620869Y-81143615D01*
X124412481Y-81332586D01*
X124244963Y-81558580D01*
X124124754Y-81812913D01*
X124084096Y-81946961D01*
X119891000Y-81946961D01*
X119891000Y-79134413D01*
X119904304Y-79118202D01*
X119953239Y-79026650D01*
X119983374Y-78927310D01*
X119993549Y-78824000D01*
X119993549Y-77546847D01*
X123626525Y-73913872D01*
X123665712Y-73881712D01*
X123794051Y-73725331D01*
X123883712Y-73557587D01*
X123889414Y-73546919D01*
X123896520Y-73523495D01*
X123948140Y-73353327D01*
X123963000Y-73202451D01*
X123963000Y-73202442D01*
X123967968Y-73152001D01*
X123963000Y-73101560D01*
X123963000Y-69348224D01*
X124030202Y-69312304D01*
X124110448Y-69246448D01*
X124176304Y-69166202D01*
X124225239Y-69074650D01*
X124228256Y-69064702D01*
X124622903Y-69064702D01*
X124694486Y-69308671D01*
X124949996Y-69429571D01*
X125224184Y-69498300D01*
X125506512Y-69512217D01*
X125786130Y-69470787D01*
X126052292Y-69375603D01*
X126177514Y-69308671D01*
X126249097Y-69064702D01*
X125436000Y-68251605D01*
X124622903Y-69064702D01*
X124228256Y-69064702D01*
X124255374Y-68975310D01*
X124265549Y-68872000D01*
X124265549Y-68832944D01*
X124443298Y-68885097D01*
X125256395Y-68072000D01*
X125615605Y-68072000D01*
X126428702Y-68885097D01*
X126672671Y-68813514D01*
X126793571Y-68558004D01*
X126862300Y-68283816D01*
X126876217Y-68001488D01*
X126834787Y-67721870D01*
X126739603Y-67455708D01*
X126672671Y-67330486D01*
X126428702Y-67258903D01*
X125615605Y-68072000D01*
X125256395Y-68072000D01*
X124443298Y-67258903D01*
X124265549Y-67311056D01*
X124265549Y-67272000D01*
X124255374Y-67168690D01*
X124228257Y-67079298D01*
X124622903Y-67079298D01*
X125436000Y-67892395D01*
X126249097Y-67079298D01*
X126177514Y-66835329D01*
X125922004Y-66714429D01*
X125647816Y-66645700D01*
X125365488Y-66631783D01*
X125085870Y-66673213D01*
X124819708Y-66768397D01*
X124694486Y-66835329D01*
X124622903Y-67079298D01*
X124228257Y-67079298D01*
X124225239Y-67069350D01*
X124176304Y-66977798D01*
X124110448Y-66897552D01*
X124030202Y-66831696D01*
X123938650Y-66782761D01*
X123839310Y-66752626D01*
X123769228Y-66745724D01*
X119496797Y-62473294D01*
X119448976Y-62415024D01*
X119216460Y-62224203D01*
X118951185Y-62082410D01*
X118663344Y-61995095D01*
X118439011Y-61973000D01*
X118439001Y-61973000D01*
X118364000Y-61965613D01*
X118288999Y-61973000D01*
X114421397Y-61973000D01*
X113775396Y-61327000D01*
X123683497Y-61327000D01*
X129529288Y-67172793D01*
X129529299Y-67172802D01*
X129629000Y-67272503D01*
X129629001Y-68704023D01*
X127900708Y-70432317D01*
X127865342Y-70461341D01*
X127836317Y-70496708D01*
X127836312Y-70496713D01*
X127749499Y-70602495D01*
X127663420Y-70763537D01*
X127610414Y-70938277D01*
X127592516Y-71120000D01*
X127597001Y-71165537D01*
X127597001Y-71522451D01*
X127424000Y-71522451D01*
X127320690Y-71532626D01*
X127221350Y-71562761D01*
X127129798Y-71611696D01*
X127049552Y-71677552D01*
X126983696Y-71757798D01*
X126934761Y-71849350D01*
X126904626Y-71948690D01*
X126894451Y-72052000D01*
X126894451Y-74252000D01*
X126904626Y-74355310D01*
X126934761Y-74454650D01*
X126983696Y-74546202D01*
X127049552Y-74626448D01*
X127129798Y-74692304D01*
X127221350Y-74741239D01*
X127320690Y-74771374D01*
X127424000Y-74781549D01*
X127597001Y-74781549D01*
X127597000Y-76386626D01*
X127486848Y-76460227D01*
X127260227Y-76686848D01*
X127082172Y-76953327D01*
X126959525Y-77249422D01*
X126897000Y-77563755D01*
X126897000Y-77884245D01*
X126959525Y-78198578D01*
X127082172Y-78494673D01*
X127260227Y-78761152D01*
X127486848Y-78987773D01*
X127753327Y-79165828D01*
X128049422Y-79288475D01*
X128363755Y-79351000D01*
X128684245Y-79351000D01*
X128998578Y-79288475D01*
X129294673Y-79165828D01*
X129561152Y-78987773D01*
X129787773Y-78761152D01*
X129965828Y-78494673D01*
X130088475Y-78198578D01*
X130151000Y-77884245D01*
X130151000Y-77563755D01*
X130088475Y-77249422D01*
X129965828Y-76953327D01*
X129787773Y-76686848D01*
X129561152Y-76460227D01*
X129451000Y-76386626D01*
X129451000Y-74781549D01*
X129624000Y-74781549D01*
X129727310Y-74771374D01*
X129826650Y-74741239D01*
X129918202Y-74692304D01*
X129998448Y-74626448D01*
X130064304Y-74546202D01*
X130113239Y-74454650D01*
X130143374Y-74355310D01*
X130153549Y-74252000D01*
X130153549Y-72052000D01*
X130143374Y-71948690D01*
X130113239Y-71849350D01*
X130064304Y-71757798D01*
X129998448Y-71677552D01*
X129918202Y-71611696D01*
X129826650Y-71562761D01*
X129727310Y-71532626D01*
X129624000Y-71522451D01*
X129451000Y-71522451D01*
X129451000Y-71503975D01*
X130989688Y-69965288D01*
X130989693Y-69965282D01*
X131179287Y-69775688D01*
X131214659Y-69746659D01*
X131243688Y-69711287D01*
X131687292Y-69267684D01*
X131722659Y-69238659D01*
X131751684Y-69203292D01*
X131751688Y-69203288D01*
X131751692Y-69203283D01*
X131876619Y-69078356D01*
X132080000Y-69098387D01*
X132379344Y-69068904D01*
X132667185Y-68981590D01*
X132831896Y-68893549D01*
X132880000Y-68893549D01*
X132983310Y-68883374D01*
X133082650Y-68853239D01*
X133174202Y-68804304D01*
X133254448Y-68738448D01*
X133320304Y-68658202D01*
X133369239Y-68566650D01*
X133399374Y-68467310D01*
X133409549Y-68364000D01*
X133409549Y-68315896D01*
X133443718Y-68251971D01*
X133549252Y-68409913D01*
X133734087Y-68594748D01*
X133951430Y-68739972D01*
X134192928Y-68840004D01*
X134449302Y-68891000D01*
X134710698Y-68891000D01*
X134967072Y-68840004D01*
X135208570Y-68739972D01*
X135425913Y-68594748D01*
X135529661Y-68491000D01*
X137226339Y-68491000D01*
X137330087Y-68594748D01*
X137547430Y-68739972D01*
X137788928Y-68840004D01*
X138045302Y-68891000D01*
X138306698Y-68891000D01*
X138563072Y-68840004D01*
X138804570Y-68739972D01*
X139021913Y-68594748D01*
X139206748Y-68409913D01*
X139351972Y-68192570D01*
X139452004Y-67951072D01*
X139459569Y-67913039D01*
X149484096Y-67913039D01*
X149524754Y-68047087D01*
X149644963Y-68301420D01*
X149812481Y-68527414D01*
X150020869Y-68716385D01*
X150262119Y-68861070D01*
X150526960Y-68955909D01*
X150749000Y-68834624D01*
X150749000Y-67691000D01*
X151003000Y-67691000D01*
X151003000Y-68834624D01*
X151225040Y-68955909D01*
X151489881Y-68861070D01*
X151731131Y-68716385D01*
X151939519Y-68527414D01*
X152107037Y-68301420D01*
X152227246Y-68047087D01*
X152267904Y-67913039D01*
X152145915Y-67691000D01*
X151003000Y-67691000D01*
X150749000Y-67691000D01*
X149606085Y-67691000D01*
X149484096Y-67913039D01*
X139459569Y-67913039D01*
X139503000Y-67694698D01*
X139503000Y-67433302D01*
X139459570Y-67214961D01*
X149484096Y-67214961D01*
X149606085Y-67437000D01*
X150749000Y-67437000D01*
X150749000Y-66293376D01*
X151003000Y-66293376D01*
X151003000Y-67437000D01*
X152145915Y-67437000D01*
X152267904Y-67214961D01*
X152227246Y-67080913D01*
X152107037Y-66826580D01*
X151939519Y-66600586D01*
X151731131Y-66411615D01*
X151489881Y-66266930D01*
X151225040Y-66172091D01*
X151003000Y-66293376D01*
X150749000Y-66293376D01*
X150526960Y-66172091D01*
X150262119Y-66266930D01*
X150020869Y-66411615D01*
X149812481Y-66600586D01*
X149644963Y-66826580D01*
X149524754Y-67080913D01*
X149484096Y-67214961D01*
X139459570Y-67214961D01*
X139452004Y-67176928D01*
X139351972Y-66935430D01*
X139206748Y-66718087D01*
X139021913Y-66533252D01*
X138804570Y-66388028D01*
X138563072Y-66287996D01*
X138306698Y-66237000D01*
X138045302Y-66237000D01*
X137788928Y-66287996D01*
X137547430Y-66388028D01*
X137330087Y-66533252D01*
X137226339Y-66637000D01*
X135529661Y-66637000D01*
X135425913Y-66533252D01*
X135208570Y-66388028D01*
X134967072Y-66287996D01*
X134710698Y-66237000D01*
X134449302Y-66237000D01*
X134192928Y-66287996D01*
X134134973Y-66312002D01*
X137035976Y-63411000D01*
X138485376Y-63411000D01*
X138615024Y-63568976D01*
X138847540Y-63759797D01*
X139112815Y-63901590D01*
X139400656Y-63988905D01*
X139624989Y-64011000D01*
X152275497Y-64011000D01*
X154429000Y-66164504D01*
X154429001Y-75189110D01*
X154352690Y-75196626D01*
X154253350Y-75226761D01*
X154161798Y-75275696D01*
X154081552Y-75341552D01*
X154015696Y-75421798D01*
X153966761Y-75513350D01*
X153936626Y-75612690D01*
X153926451Y-75716000D01*
X153926451Y-76156574D01*
X153667025Y-76416000D01*
X147634661Y-76416000D01*
X147530913Y-76312252D01*
X147313570Y-76167028D01*
X147072072Y-76066996D01*
X146815698Y-76016000D01*
X146554302Y-76016000D01*
X146297928Y-76066996D01*
X146056430Y-76167028D01*
X145839087Y-76312252D01*
X145654252Y-76497087D01*
X145509028Y-76714430D01*
X145408996Y-76955928D01*
X145358000Y-77212302D01*
X145358000Y-77473698D01*
X145408996Y-77730072D01*
X145509028Y-77971570D01*
X145654252Y-78188913D01*
X145839087Y-78373748D01*
X146056430Y-78518972D01*
X146297928Y-78619004D01*
X146554302Y-78670000D01*
X146815698Y-78670000D01*
X147072072Y-78619004D01*
X147313570Y-78518972D01*
X147530913Y-78373748D01*
X147634661Y-78270000D01*
X153926451Y-78270000D01*
X153926451Y-78716000D01*
X153936626Y-78819310D01*
X153966761Y-78918650D01*
X154015696Y-79010202D01*
X154081552Y-79090448D01*
X154161798Y-79156304D01*
X154253350Y-79205239D01*
X154352690Y-79235374D01*
X154456000Y-79245549D01*
X157456000Y-79245549D01*
X157559310Y-79235374D01*
X157658650Y-79205239D01*
X157750202Y-79156304D01*
X157830448Y-79090448D01*
X157896304Y-79010202D01*
X157945239Y-78918650D01*
X157975374Y-78819310D01*
X157985549Y-78716000D01*
X157985549Y-75716000D01*
X157975374Y-75612690D01*
X157945239Y-75513350D01*
X157896304Y-75421798D01*
X157830448Y-75341552D01*
X157750202Y-75275696D01*
X157658650Y-75226761D01*
X157559310Y-75196626D01*
X157483000Y-75189110D01*
X157483000Y-65607004D01*
X157490387Y-65532000D01*
X157483000Y-65456996D01*
X157483000Y-65456989D01*
X157460905Y-65232656D01*
X157447220Y-65187540D01*
X157373590Y-64944815D01*
X157354293Y-64908713D01*
X157231797Y-64679540D01*
X157040976Y-64447024D01*
X156982713Y-64399209D01*
X154040797Y-61457294D01*
X153992976Y-61399024D01*
X153760460Y-61208203D01*
X153495185Y-61066410D01*
X153207344Y-60979095D01*
X152983011Y-60957000D01*
X152983001Y-60957000D01*
X152908000Y-60949613D01*
X152832999Y-60957000D01*
X139624989Y-60957000D01*
X139400656Y-60979095D01*
X139112815Y-61066410D01*
X138847540Y-61208203D01*
X138615024Y-61399024D01*
X138485376Y-61557000D01*
X136697526Y-61557000D01*
X136651999Y-61552516D01*
X136606472Y-61557000D01*
X136606462Y-61557000D01*
X136470276Y-61570413D01*
X136295536Y-61623420D01*
X136190590Y-61679516D01*
X136134494Y-61709499D01*
X136028712Y-61796312D01*
X136028708Y-61796316D01*
X135993341Y-61825341D01*
X135964316Y-61860708D01*
X132726713Y-65098312D01*
X132712025Y-65113000D01*
X131788503Y-65113000D01*
X131688802Y-65013299D01*
X131688793Y-65013288D01*
X125448797Y-58773294D01*
X125400976Y-58715024D01*
X125168460Y-58524203D01*
X124903185Y-58382410D01*
X124615344Y-58295095D01*
X124391011Y-58273000D01*
X124391001Y-58273000D01*
X124316000Y-58265613D01*
X124240999Y-58273000D01*
X112720989Y-58273000D01*
X112496656Y-58295095D01*
X112208815Y-58382410D01*
X111943540Y-58524203D01*
X111711024Y-58715024D01*
X111520203Y-58947540D01*
X111378410Y-59212815D01*
X111291095Y-59500656D01*
X111261612Y-59800000D01*
X111291095Y-60099344D01*
X111378410Y-60387185D01*
X111520203Y-60652460D01*
X111537059Y-60672999D01*
X110625577Y-60672999D01*
X110688248Y-60596634D01*
X110820755Y-60348731D01*
X110902352Y-60079741D01*
X110929904Y-59800000D01*
X110902352Y-59520259D01*
X110820755Y-59251269D01*
X110688248Y-59003366D01*
X110583385Y-58875590D01*
X111635976Y-57823000D01*
X130553025Y-57823000D01*
X131153001Y-58422977D01*
X131153000Y-61534339D01*
X131049252Y-61638087D01*
X130904028Y-61855430D01*
X130803996Y-62096928D01*
X130753000Y-62353302D01*
X130753000Y-62614698D01*
X130803996Y-62871072D01*
X130904028Y-63112570D01*
X131049252Y-63329913D01*
X131234087Y-63514748D01*
X131451430Y-63659972D01*
X131692928Y-63760004D01*
X131949302Y-63811000D01*
X132210698Y-63811000D01*
X132467072Y-63760004D01*
X132708570Y-63659972D01*
X132925913Y-63514748D01*
X133110748Y-63329913D01*
X133255972Y-63112570D01*
X133356004Y-62871072D01*
X133407000Y-62614698D01*
X133407000Y-62353302D01*
X133356004Y-62096928D01*
X133255972Y-61855430D01*
X133110748Y-61638087D01*
X133007000Y-61534339D01*
X133007000Y-58208188D01*
X133082650Y-58185239D01*
X133174202Y-58136304D01*
X133254448Y-58070448D01*
X133320304Y-57990202D01*
X133369239Y-57898650D01*
X133399374Y-57799310D01*
X133409549Y-57696000D01*
X133409549Y-57532833D01*
X133549252Y-57741913D01*
X133734087Y-57926748D01*
X133951430Y-58071972D01*
X134192928Y-58172004D01*
X134449302Y-58223000D01*
X134710698Y-58223000D01*
X134967072Y-58172004D01*
X135208570Y-58071972D01*
X135425913Y-57926748D01*
X135529661Y-57823000D01*
X137226339Y-57823000D01*
X137330087Y-57926748D01*
X137547430Y-58071972D01*
X137788928Y-58172004D01*
X138045302Y-58223000D01*
X138306698Y-58223000D01*
X138563072Y-58172004D01*
X138804570Y-58071972D01*
X139021913Y-57926748D01*
X139206748Y-57741913D01*
X139351972Y-57524570D01*
X139452004Y-57283072D01*
X139459569Y-57245039D01*
X144404096Y-57245039D01*
X144444754Y-57379087D01*
X144564963Y-57633420D01*
X144732481Y-57859414D01*
X144940869Y-58048385D01*
X145182119Y-58193070D01*
X145446960Y-58287909D01*
X145669000Y-58166624D01*
X145669000Y-57023000D01*
X145923000Y-57023000D01*
X145923000Y-58166624D01*
X146145040Y-58287909D01*
X146409881Y-58193070D01*
X146651131Y-58048385D01*
X146859519Y-57859414D01*
X147027037Y-57633420D01*
X147147246Y-57379087D01*
X147187904Y-57245039D01*
X147065915Y-57023000D01*
X145923000Y-57023000D01*
X145669000Y-57023000D01*
X144526085Y-57023000D01*
X144404096Y-57245039D01*
X139459569Y-57245039D01*
X139503000Y-57026698D01*
X139503000Y-56765302D01*
X139459570Y-56546961D01*
X144404096Y-56546961D01*
X144526085Y-56769000D01*
X145669000Y-56769000D01*
X145669000Y-55625376D01*
X145923000Y-55625376D01*
X145923000Y-56769000D01*
X147065915Y-56769000D01*
X147111235Y-56686509D01*
X153829000Y-56686509D01*
X153829000Y-57105491D01*
X153910739Y-57516423D01*
X154071077Y-57903512D01*
X154303851Y-58251884D01*
X154600116Y-58548149D01*
X154948488Y-58780923D01*
X155335577Y-58941261D01*
X155746509Y-59023000D01*
X156165491Y-59023000D01*
X156576423Y-58941261D01*
X156963512Y-58780923D01*
X157311884Y-58548149D01*
X157608149Y-58251884D01*
X157840923Y-57903512D01*
X158001261Y-57516423D01*
X158083000Y-57105491D01*
X158083000Y-56686509D01*
X158001261Y-56275577D01*
X157840923Y-55888488D01*
X157608149Y-55540116D01*
X157311884Y-55243851D01*
X156963512Y-55011077D01*
X156576423Y-54850739D01*
X156165491Y-54769000D01*
X155746509Y-54769000D01*
X155335577Y-54850739D01*
X154948488Y-55011077D01*
X154600116Y-55243851D01*
X154303851Y-55540116D01*
X154071077Y-55888488D01*
X153910739Y-56275577D01*
X153829000Y-56686509D01*
X147111235Y-56686509D01*
X147187904Y-56546961D01*
X147147246Y-56412913D01*
X147027037Y-56158580D01*
X146859519Y-55932586D01*
X146651131Y-55743615D01*
X146409881Y-55598930D01*
X146145040Y-55504091D01*
X145923000Y-55625376D01*
X145669000Y-55625376D01*
X145446960Y-55504091D01*
X145182119Y-55598930D01*
X144940869Y-55743615D01*
X144732481Y-55932586D01*
X144564963Y-56158580D01*
X144444754Y-56412913D01*
X144404096Y-56546961D01*
X139459570Y-56546961D01*
X139452004Y-56508928D01*
X139351972Y-56267430D01*
X139206748Y-56050087D01*
X139021913Y-55865252D01*
X138804570Y-55720028D01*
X138563072Y-55619996D01*
X138306698Y-55569000D01*
X138045302Y-55569000D01*
X137788928Y-55619996D01*
X137547430Y-55720028D01*
X137330087Y-55865252D01*
X137226339Y-55969000D01*
X135529661Y-55969000D01*
X135425913Y-55865252D01*
X135208570Y-55720028D01*
X134967072Y-55619996D01*
X134710698Y-55569000D01*
X134449302Y-55569000D01*
X134192928Y-55619996D01*
X133951430Y-55720028D01*
X133734087Y-55865252D01*
X133549252Y-56050087D01*
X133409549Y-56259167D01*
X133409549Y-56096000D01*
X133399374Y-55992690D01*
X133369239Y-55893350D01*
X133320304Y-55801798D01*
X133254448Y-55721552D01*
X133174202Y-55655696D01*
X133082650Y-55606761D01*
X132983310Y-55576626D01*
X132880000Y-55566451D01*
X131280000Y-55566451D01*
X131176690Y-55576626D01*
X131077350Y-55606761D01*
X130985798Y-55655696D01*
X130905552Y-55721552D01*
X130839696Y-55801798D01*
X130790761Y-55893350D01*
X130767812Y-55969000D01*
X111297524Y-55969000D01*
X111251999Y-55964516D01*
X111206474Y-55969000D01*
X111206462Y-55969000D01*
X111070276Y-55982413D01*
X110895536Y-56035420D01*
X110820573Y-56075489D01*
X110734494Y-56121499D01*
X110628711Y-56208313D01*
X110628708Y-56208316D01*
X110593341Y-56237341D01*
X110564316Y-56272708D01*
X108772713Y-58064312D01*
X108737341Y-58093341D01*
X108708313Y-58128712D01*
X108708312Y-58128713D01*
X108621499Y-58234495D01*
X108604866Y-58265613D01*
X108535420Y-58395537D01*
X108482413Y-58570277D01*
X108476907Y-58626184D01*
X108282077Y-58786077D01*
X108103752Y-59003366D01*
X107971245Y-59251269D01*
X107889648Y-59520259D01*
X107862096Y-59800000D01*
X107889648Y-60079741D01*
X107946041Y-60265643D01*
X105087244Y-57406848D01*
X105121670Y-57293361D01*
X105160807Y-56896000D01*
X105121670Y-56498639D01*
X105005764Y-56116548D01*
X104817543Y-55764411D01*
X104564240Y-55455760D01*
X104255589Y-55202457D01*
X103903452Y-55014236D01*
X103521361Y-54898330D01*
X103223571Y-54869000D01*
X69695571Y-54869000D01*
X69596000Y-54859193D01*
X69198638Y-54898330D01*
X68816547Y-55014236D01*
X68628326Y-55114843D01*
X68464411Y-55202457D01*
X68155760Y-55455760D01*
X68092283Y-55533107D01*
X55900288Y-67725102D01*
X55710458Y-67956411D01*
X55522237Y-68308548D01*
X55406331Y-68690639D01*
X55367194Y-69088000D01*
X55406331Y-69485361D01*
X55522237Y-69867452D01*
X55710458Y-70219589D01*
X55877000Y-70422522D01*
X55877001Y-76583495D01*
X54279594Y-78180903D01*
X54264304Y-78152298D01*
X54198448Y-78072052D01*
X54118202Y-78006196D01*
X54026650Y-77957261D01*
X53927310Y-77927126D01*
X53824000Y-77916951D01*
X50824000Y-77916951D01*
X50720690Y-77927126D01*
X50621350Y-77957261D01*
X50529798Y-78006196D01*
X50449552Y-78072052D01*
X50383696Y-78152298D01*
X50334761Y-78243850D01*
X50304626Y-78343190D01*
X50295000Y-78440926D01*
X50295000Y-76358153D01*
X51011952Y-76358153D01*
X51167962Y-76673714D01*
X51542745Y-76864520D01*
X51947551Y-76978544D01*
X52366824Y-77011402D01*
X52784451Y-76961834D01*
X53184383Y-76831743D01*
X53480038Y-76673714D01*
X53636048Y-76358153D01*
X52324000Y-75046105D01*
X51011952Y-76358153D01*
X50295000Y-76358153D01*
X50295000Y-75530878D01*
X50358757Y-75726883D01*
X50516786Y-76022538D01*
X50832347Y-76178548D01*
X52144395Y-74866500D01*
X52503605Y-74866500D01*
X53815653Y-76178548D01*
X54131214Y-76022538D01*
X54322020Y-75647755D01*
X54436044Y-75242949D01*
X54468902Y-74823676D01*
X54419334Y-74406049D01*
X54289243Y-74006117D01*
X54131214Y-73710462D01*
X53815653Y-73554452D01*
X52503605Y-74866500D01*
X52144395Y-74866500D01*
X50832347Y-73554452D01*
X50516786Y-73710462D01*
X50325980Y-74085245D01*
X50295000Y-74195230D01*
X50295000Y-73374847D01*
X51011952Y-73374847D01*
X52324000Y-74686895D01*
X53636048Y-73374847D01*
X53480038Y-73059286D01*
X53105255Y-72868480D01*
X52700449Y-72754456D01*
X52281176Y-72721598D01*
X51863549Y-72771166D01*
X51463617Y-72901257D01*
X51167962Y-73059286D01*
X51011952Y-73374847D01*
X50295000Y-73374847D01*
X50295000Y-72768503D01*
X51446477Y-71617027D01*
X51732746Y-71735604D01*
X52124358Y-71813500D01*
X52523642Y-71813500D01*
X52915254Y-71735604D01*
X53284145Y-71582804D01*
X53616137Y-71360974D01*
X53898474Y-71078637D01*
X54120304Y-70746645D01*
X54273104Y-70377754D01*
X54351000Y-69986142D01*
X54351000Y-69586858D01*
X54273104Y-69195246D01*
X54120304Y-68826355D01*
X53898474Y-68494363D01*
X53616137Y-68212026D01*
X53284145Y-67990196D01*
X52915254Y-67837396D01*
X52523642Y-67759500D01*
X52124358Y-67759500D01*
X51732746Y-67837396D01*
X51363855Y-67990196D01*
X51031863Y-68212026D01*
X50978041Y-68265848D01*
X50845455Y-68278906D01*
X50818155Y-68281595D01*
X50546501Y-68364000D01*
X50530315Y-68368910D01*
X50265040Y-68510703D01*
X50244678Y-68527414D01*
X50090788Y-68653707D01*
X50090783Y-68653712D01*
X50032524Y-68701524D01*
X49984712Y-68759783D01*
X47741293Y-71003204D01*
X47683024Y-71051024D01*
X47492203Y-71283541D01*
X47350410Y-71548816D01*
X47263095Y-71836657D01*
X47241000Y-72060990D01*
X47241000Y-72060999D01*
X47233613Y-72136000D01*
X46680000Y-72136000D01*
X46680000Y-56686509D01*
X49181000Y-56686509D01*
X49181000Y-57105491D01*
X49262739Y-57516423D01*
X49423077Y-57903512D01*
X49655851Y-58251884D01*
X49952116Y-58548149D01*
X50300488Y-58780923D01*
X50687577Y-58941261D01*
X51098509Y-59023000D01*
X51517491Y-59023000D01*
X51928423Y-58941261D01*
X52315512Y-58780923D01*
X52663884Y-58548149D01*
X52960149Y-58251884D01*
X53192923Y-57903512D01*
X53353261Y-57516423D01*
X53435000Y-57105491D01*
X53435000Y-56686509D01*
X53353261Y-56275577D01*
X53192923Y-55888488D01*
X52960149Y-55540116D01*
X52663884Y-55243851D01*
X52315512Y-55011077D01*
X51928423Y-54850739D01*
X51517491Y-54769000D01*
X51098509Y-54769000D01*
X50687577Y-54850739D01*
X50300488Y-55011077D01*
X49952116Y-55243851D01*
X49655851Y-55540116D01*
X49423077Y-55888488D01*
X49262739Y-56275577D01*
X49181000Y-56686509D01*
X46680000Y-56686509D01*
X46680000Y-52268000D01*
X160584001Y-52268000D01*
X160584000Y-111308000D01*
G36*
X106846053Y-62070451D02*
G01*
X106696000Y-62070451D01*
X106592690Y-62080626D01*
X106493350Y-62110761D01*
X106401798Y-62159696D01*
X106321552Y-62225552D01*
X106255696Y-62305798D01*
X106206761Y-62397350D01*
X106176626Y-62496690D01*
X106166451Y-62600000D01*
X106166451Y-63718573D01*
X105040713Y-64844312D01*
X105005341Y-64873341D01*
X104976313Y-64908712D01*
X104976312Y-64908713D01*
X104889499Y-65014495D01*
X104810275Y-65162713D01*
X104803420Y-65175537D01*
X104750413Y-65350277D01*
X104737000Y-65486463D01*
X104737000Y-65486473D01*
X104732516Y-65532000D01*
X104737000Y-65577527D01*
X104737001Y-74978025D01*
X94921688Y-65162713D01*
X94892659Y-65127341D01*
X94751505Y-65011499D01*
X94590464Y-64925420D01*
X94415724Y-64872413D01*
X94279538Y-64859000D01*
X94279527Y-64859000D01*
X94234000Y-64854516D01*
X94188473Y-64859000D01*
X90288010Y-64859000D01*
X90303072Y-64856004D01*
X90544570Y-64755972D01*
X90761913Y-64610748D01*
X90946748Y-64425913D01*
X91091972Y-64208570D01*
X91192004Y-63967072D01*
X91243000Y-63710698D01*
X91243000Y-63449302D01*
X91192004Y-63192928D01*
X91091972Y-62951430D01*
X90946748Y-62734087D01*
X90761913Y-62549252D01*
X90544570Y-62404028D01*
X90303072Y-62303996D01*
X90046698Y-62253000D01*
X89785302Y-62253000D01*
X89528928Y-62303996D01*
X89287430Y-62404028D01*
X89070087Y-62549252D01*
X88966339Y-62653000D01*
X86373661Y-62653000D01*
X86189913Y-62469252D01*
X85972570Y-62324028D01*
X85731072Y-62223996D01*
X85474698Y-62173000D01*
X85213302Y-62173000D01*
X84956928Y-62223996D01*
X84715430Y-62324028D01*
X84498087Y-62469252D01*
X84313252Y-62654087D01*
X84168028Y-62871430D01*
X84067996Y-63112928D01*
X84017000Y-63369302D01*
X84017000Y-63516024D01*
X82207000Y-65326025D01*
X82207000Y-63545527D01*
X82211484Y-63500000D01*
X82207000Y-63454473D01*
X82207000Y-63454462D01*
X82193587Y-63318276D01*
X82140580Y-63143536D01*
X82101907Y-63071185D01*
X82054501Y-62982494D01*
X81967688Y-62876712D01*
X81967684Y-62876708D01*
X81938659Y-62841341D01*
X81903293Y-62812317D01*
X79935688Y-60844713D01*
X79906659Y-60809341D01*
X79765505Y-60693499D01*
X79604464Y-60607420D01*
X79429724Y-60554413D01*
X79293538Y-60541000D01*
X79293527Y-60541000D01*
X79248000Y-60536516D01*
X79202473Y-60541000D01*
X76245527Y-60541000D01*
X76200000Y-60536516D01*
X76154473Y-60541000D01*
X76154462Y-60541000D01*
X76018276Y-60554413D01*
X75879093Y-60596634D01*
X75843536Y-60607420D01*
X75682494Y-60693499D01*
X75576712Y-60780312D01*
X75576708Y-60780316D01*
X75541341Y-60809341D01*
X75512316Y-60844708D01*
X72528708Y-63828317D01*
X72493342Y-63857341D01*
X72464317Y-63892708D01*
X72464312Y-63892713D01*
X72377499Y-63998495D01*
X72291420Y-64159537D01*
X72270249Y-64229331D01*
X72238414Y-64334276D01*
X72235823Y-64360580D01*
X72220516Y-64516000D01*
X72225001Y-64561537D01*
X72225000Y-66502462D01*
X72225000Y-66662473D01*
X72221519Y-66697820D01*
X72121252Y-66798087D01*
X71976028Y-67015430D01*
X71875996Y-67256928D01*
X71825000Y-67513302D01*
X71825000Y-67774698D01*
X71875996Y-68031072D01*
X71976028Y-68272570D01*
X72121252Y-68489913D01*
X72306087Y-68674748D01*
X72523430Y-68819972D01*
X72764928Y-68920004D01*
X73021302Y-68971000D01*
X73282698Y-68971000D01*
X73539072Y-68920004D01*
X73780570Y-68819972D01*
X73997913Y-68674748D01*
X74098180Y-68574481D01*
X74133527Y-68571000D01*
X76854339Y-68571000D01*
X76878087Y-68594748D01*
X77095430Y-68739972D01*
X77336928Y-68840004D01*
X77593302Y-68891000D01*
X77854698Y-68891000D01*
X78111072Y-68840004D01*
X78321000Y-68753049D01*
X78321001Y-73657023D01*
X77933073Y-74044951D01*
X76714500Y-74044951D01*
X76611190Y-74055126D01*
X76511850Y-74085261D01*
X76420298Y-74134196D01*
X76340052Y-74200052D01*
X76274196Y-74280298D01*
X76225261Y-74371850D01*
X76217246Y-74398270D01*
X74479000Y-72660025D01*
X74479000Y-72513302D01*
X74428004Y-72256928D01*
X74327972Y-72015430D01*
X74182748Y-71798087D01*
X73997913Y-71613252D01*
X73780570Y-71468028D01*
X73539072Y-71367996D01*
X73282698Y-71317000D01*
X73021302Y-71317000D01*
X72764928Y-71367996D01*
X72523430Y-71468028D01*
X72306087Y-71613252D01*
X72202339Y-71717000D01*
X63545524Y-71717000D01*
X63499999Y-71712516D01*
X63454474Y-71717000D01*
X63454462Y-71717000D01*
X63318276Y-71730413D01*
X63143536Y-71783420D01*
X63087261Y-71813500D01*
X62982494Y-71869499D01*
X62876711Y-71956313D01*
X62876708Y-71956316D01*
X62841341Y-71985341D01*
X62812316Y-72020708D01*
X60336708Y-74496317D01*
X60301342Y-74525341D01*
X60272317Y-74560708D01*
X60272312Y-74560713D01*
X60185499Y-74666495D01*
X60099420Y-74827537D01*
X60046414Y-75002277D01*
X60028516Y-75184000D01*
X60033001Y-75229537D01*
X60033000Y-76774339D01*
X59929252Y-76878087D01*
X59784028Y-77095430D01*
X59683996Y-77336928D01*
X59633000Y-77593302D01*
X59633000Y-77854698D01*
X59683996Y-78111072D01*
X59784028Y-78352570D01*
X59929252Y-78569913D01*
X60033001Y-78673662D01*
X60033000Y-89474339D01*
X59929252Y-89578087D01*
X59784028Y-89795430D01*
X59683996Y-90036928D01*
X59633000Y-90293302D01*
X59633000Y-90554698D01*
X59683996Y-90811072D01*
X59784028Y-91052570D01*
X59929252Y-91269913D01*
X60114087Y-91454748D01*
X60331430Y-91599972D01*
X60572928Y-91700004D01*
X60829302Y-91751000D01*
X61090698Y-91751000D01*
X61347072Y-91700004D01*
X61588570Y-91599972D01*
X61805913Y-91454748D01*
X61990748Y-91269913D01*
X62135972Y-91052570D01*
X62236004Y-90811072D01*
X62287000Y-90554698D01*
X62287000Y-90293302D01*
X62236004Y-90036928D01*
X62135972Y-89795430D01*
X61990748Y-89578087D01*
X61887000Y-89474339D01*
X61887000Y-78673661D01*
X61990748Y-78569913D01*
X62135972Y-78352570D01*
X62236004Y-78111072D01*
X62287000Y-77854698D01*
X62287000Y-77593302D01*
X62236004Y-77336928D01*
X62135972Y-77095430D01*
X61990748Y-76878087D01*
X61887000Y-76774339D01*
X61887000Y-75567975D01*
X63883976Y-73571000D01*
X72202339Y-73571000D01*
X72306087Y-73674748D01*
X72523430Y-73819972D01*
X72764928Y-73920004D01*
X73021302Y-73971000D01*
X73168025Y-73971000D01*
X75194816Y-75997792D01*
X75223841Y-76033159D01*
X75259208Y-76062184D01*
X75259212Y-76062188D01*
X75364994Y-76149001D01*
X75412700Y-76174500D01*
X75526036Y-76235080D01*
X75700776Y-76288087D01*
X75836962Y-76301500D01*
X75836972Y-76301500D01*
X75882499Y-76305984D01*
X75928026Y-76301500D01*
X76202312Y-76301500D01*
X76225261Y-76377150D01*
X76274196Y-76468702D01*
X76340052Y-76548948D01*
X76420298Y-76614804D01*
X76511850Y-76663739D01*
X76611190Y-76693874D01*
X76714500Y-76704049D01*
X76964058Y-76704049D01*
X76790159Y-76797000D01*
X69529661Y-76797000D01*
X69425913Y-76693252D01*
X69208570Y-76548028D01*
X68967072Y-76447996D01*
X68710698Y-76397000D01*
X68449302Y-76397000D01*
X68192928Y-76447996D01*
X67951430Y-76548028D01*
X67734087Y-76693252D01*
X67549252Y-76878087D01*
X67404028Y-77095430D01*
X67303996Y-77336928D01*
X67253000Y-77593302D01*
X67253000Y-77854698D01*
X67303996Y-78111072D01*
X67404028Y-78352570D01*
X67549252Y-78569913D01*
X67734087Y-78754748D01*
X67951430Y-78899972D01*
X68192928Y-79000004D01*
X68449302Y-79051000D01*
X68710698Y-79051000D01*
X68967072Y-79000004D01*
X69208570Y-78899972D01*
X69425913Y-78754748D01*
X69529661Y-78651000D01*
X76403499Y-78651000D01*
X76405802Y-78655308D01*
X76571630Y-78857370D01*
X76773692Y-79023198D01*
X76970096Y-79128178D01*
X76848017Y-79177334D01*
X76611661Y-79331899D01*
X76410000Y-79529605D01*
X76250785Y-79762854D01*
X76140133Y-80022682D01*
X76122596Y-80105461D01*
X76244585Y-80327500D01*
X77787500Y-80327500D01*
X77787500Y-80307500D01*
X78041500Y-80307500D01*
X78041500Y-80327500D01*
X79584415Y-80327500D01*
X79706404Y-80105461D01*
X79688867Y-80022682D01*
X79578215Y-79762854D01*
X79419000Y-79529605D01*
X79217339Y-79331899D01*
X78980983Y-79177334D01*
X78858904Y-79128178D01*
X79055308Y-79023198D01*
X79257370Y-78857370D01*
X79270394Y-78841500D01*
X79868973Y-78841500D01*
X79914500Y-78845984D01*
X79960027Y-78841500D01*
X79960038Y-78841500D01*
X80096224Y-78828087D01*
X80270964Y-78775080D01*
X80432005Y-78689001D01*
X80573159Y-78573159D01*
X80602188Y-78537787D01*
X81903292Y-77236684D01*
X81938659Y-77207659D01*
X81967684Y-77172292D01*
X81967688Y-77172288D01*
X82054502Y-77066506D01*
X82140580Y-76905464D01*
X82152897Y-76864859D01*
X82180708Y-76887683D01*
X83830816Y-78537792D01*
X83859841Y-78573159D01*
X83895208Y-78602184D01*
X83895212Y-78602188D01*
X84000994Y-78689001D01*
X84051506Y-78716000D01*
X84094448Y-78738953D01*
X84191630Y-78857370D01*
X84393692Y-79023198D01*
X84590096Y-79128178D01*
X84468017Y-79177334D01*
X84231661Y-79331899D01*
X84030000Y-79529605D01*
X83870785Y-79762854D01*
X83760133Y-80022682D01*
X83742596Y-80105461D01*
X83864585Y-80327500D01*
X85407500Y-80327500D01*
X85407500Y-80307500D01*
X85661500Y-80307500D01*
X85661500Y-80327500D01*
X87204415Y-80327500D01*
X87326404Y-80105461D01*
X87308867Y-80022682D01*
X87198215Y-79762854D01*
X87039000Y-79529605D01*
X86837339Y-79331899D01*
X86600983Y-79177334D01*
X86555451Y-79159000D01*
X92522339Y-79159000D01*
X92626087Y-79262748D01*
X92843430Y-79407972D01*
X93084928Y-79508004D01*
X93341302Y-79559000D01*
X93602698Y-79559000D01*
X93859072Y-79508004D01*
X94100570Y-79407972D01*
X94317913Y-79262748D01*
X94502748Y-79077913D01*
X94647972Y-78860570D01*
X94748004Y-78619072D01*
X94799000Y-78362698D01*
X94799000Y-78101302D01*
X94748004Y-77844928D01*
X94647972Y-77603430D01*
X94502748Y-77386087D01*
X94317913Y-77201252D01*
X94100570Y-77056028D01*
X93859072Y-76955996D01*
X93602698Y-76905000D01*
X93341302Y-76905000D01*
X93084928Y-76955996D01*
X92843430Y-77056028D01*
X92626087Y-77201252D01*
X92522339Y-77305000D01*
X87113384Y-77305000D01*
X87043198Y-77173692D01*
X86877370Y-76971630D01*
X86675308Y-76805802D01*
X86444778Y-76682581D01*
X86319243Y-76644500D01*
X86444778Y-76606419D01*
X86675308Y-76483198D01*
X86877370Y-76317370D01*
X87043198Y-76115308D01*
X87166419Y-75884778D01*
X87242299Y-75634637D01*
X87267920Y-75374500D01*
X87242299Y-75114363D01*
X87210486Y-75009489D01*
X90539292Y-71680684D01*
X90574659Y-71651659D01*
X90603684Y-71616292D01*
X90603688Y-71616288D01*
X90690502Y-71510506D01*
X90776580Y-71349464D01*
X90786428Y-71317000D01*
X90829587Y-71174724D01*
X90843000Y-71038538D01*
X90843000Y-71038527D01*
X90847484Y-70993000D01*
X90843000Y-70947473D01*
X90843000Y-69979975D01*
X91315976Y-69507000D01*
X92072025Y-69507000D01*
X100017136Y-77452111D01*
X99916028Y-77603430D01*
X99815996Y-77844928D01*
X99765000Y-78101302D01*
X99765000Y-78362698D01*
X99815996Y-78619072D01*
X99916028Y-78860570D01*
X100061252Y-79077913D01*
X100165001Y-79181662D01*
X100165000Y-82758473D01*
X100160516Y-82804000D01*
X100165000Y-82849527D01*
X100165000Y-82849537D01*
X100178413Y-82985723D01*
X100225793Y-83141913D01*
X100231420Y-83160463D01*
X100317499Y-83321505D01*
X100404312Y-83427287D01*
X100433341Y-83462659D01*
X100468713Y-83491688D01*
X100778451Y-83801426D01*
X100778451Y-84620000D01*
X100788626Y-84723310D01*
X100818761Y-84822650D01*
X100867696Y-84914202D01*
X100933552Y-84994448D01*
X101013798Y-85060304D01*
X101105350Y-85109239D01*
X101204690Y-85139374D01*
X101308000Y-85149549D01*
X102908000Y-85149549D01*
X103011310Y-85139374D01*
X103110650Y-85109239D01*
X103202202Y-85060304D01*
X103213001Y-85051442D01*
X103213001Y-90595023D01*
X101263025Y-92545000D01*
X96903976Y-92545000D01*
X94799000Y-90440025D01*
X94799000Y-90293302D01*
X94748004Y-90036928D01*
X94647972Y-89795430D01*
X94502748Y-89578087D01*
X94317913Y-89393252D01*
X94200802Y-89315001D01*
X98672026Y-89315001D01*
X99765000Y-90407976D01*
X99765000Y-90554698D01*
X99815996Y-90811072D01*
X99916028Y-91052570D01*
X100061252Y-91269913D01*
X100246087Y-91454748D01*
X100463430Y-91599972D01*
X100704928Y-91700004D01*
X100961302Y-91751000D01*
X101222698Y-91751000D01*
X101479072Y-91700004D01*
X101720570Y-91599972D01*
X101937913Y-91454748D01*
X102122748Y-91269913D01*
X102267972Y-91052570D01*
X102368004Y-90811072D01*
X102419000Y-90554698D01*
X102419000Y-90293302D01*
X102368004Y-90036928D01*
X102267972Y-89795430D01*
X102122748Y-89578087D01*
X101937913Y-89393252D01*
X101720570Y-89248028D01*
X101479072Y-89147996D01*
X101222698Y-89097000D01*
X101075976Y-89097000D01*
X99743688Y-87764713D01*
X99714660Y-87729342D01*
X99573506Y-87613500D01*
X99412465Y-87527421D01*
X99237725Y-87474414D01*
X99101539Y-87461001D01*
X99101528Y-87461001D01*
X99056001Y-87456517D01*
X99010474Y-87461001D01*
X97789089Y-87461001D01*
X97877571Y-87274004D01*
X97946300Y-86999816D01*
X97960217Y-86717488D01*
X97918787Y-86437870D01*
X97823603Y-86171708D01*
X97756671Y-86046486D01*
X97512702Y-85974903D01*
X96699605Y-86788000D01*
X96713748Y-86802143D01*
X96534143Y-86981748D01*
X96520000Y-86967605D01*
X96505858Y-86981748D01*
X96326253Y-86802143D01*
X96340395Y-86788000D01*
X95527298Y-85974903D01*
X95283329Y-86046486D01*
X95162429Y-86301996D01*
X95093700Y-86576184D01*
X95079783Y-86858512D01*
X95121213Y-87138130D01*
X95216397Y-87404292D01*
X95246708Y-87461001D01*
X87111246Y-87461001D01*
X87043198Y-87333692D01*
X86877370Y-87131630D01*
X86675308Y-86965802D01*
X86478904Y-86860822D01*
X86600983Y-86811666D01*
X86837339Y-86657101D01*
X86920480Y-86575590D01*
X90118903Y-86575590D01*
X90190486Y-86819559D01*
X90445996Y-86940459D01*
X90720184Y-87009188D01*
X91002512Y-87023105D01*
X91282130Y-86981675D01*
X91548292Y-86886491D01*
X91673514Y-86819559D01*
X91745097Y-86575590D01*
X90932000Y-85762493D01*
X90118903Y-86575590D01*
X86920480Y-86575590D01*
X87039000Y-86459395D01*
X87198215Y-86226146D01*
X87308867Y-85966318D01*
X87326404Y-85883539D01*
X87204415Y-85661500D01*
X85661500Y-85661500D01*
X85661500Y-85681500D01*
X85407500Y-85681500D01*
X85407500Y-85661500D01*
X83864585Y-85661500D01*
X83742596Y-85883539D01*
X83760133Y-85966318D01*
X83870785Y-86226146D01*
X84030000Y-86459395D01*
X84231661Y-86657101D01*
X84468017Y-86811666D01*
X84590096Y-86860822D01*
X84393692Y-86965802D01*
X84191630Y-87131630D01*
X84025802Y-87333692D01*
X83972649Y-87433134D01*
X83957816Y-87451208D01*
X82688708Y-88720317D01*
X82653342Y-88749341D01*
X82624317Y-88784708D01*
X82624312Y-88784713D01*
X82537499Y-88890495D01*
X82451420Y-89051537D01*
X82425633Y-89136548D01*
X82398414Y-89226276D01*
X82389234Y-89319485D01*
X82380516Y-89408000D01*
X82385001Y-89453537D01*
X82385000Y-94612024D01*
X79772025Y-97225000D01*
X79625302Y-97225000D01*
X79368928Y-97275996D01*
X79127430Y-97376028D01*
X78910087Y-97521252D01*
X78725252Y-97706087D01*
X78580028Y-97923430D01*
X78479996Y-98164928D01*
X78429000Y-98421302D01*
X78429000Y-98682698D01*
X78479996Y-98939072D01*
X78580028Y-99180570D01*
X78725252Y-99397913D01*
X78910087Y-99582748D01*
X79127430Y-99727972D01*
X79368928Y-99828004D01*
X79625302Y-99879000D01*
X79886698Y-99879000D01*
X80143072Y-99828004D01*
X80384570Y-99727972D01*
X80601913Y-99582748D01*
X80786748Y-99397913D01*
X80931972Y-99180570D01*
X80988541Y-99044000D01*
X109105928Y-99044000D01*
X109118188Y-99168482D01*
X109154498Y-99288180D01*
X109213463Y-99398494D01*
X109292815Y-99495185D01*
X109389506Y-99574537D01*
X109499820Y-99633502D01*
X109619518Y-99669812D01*
X109744000Y-99682072D01*
X110458250Y-99679000D01*
X110617000Y-99520250D01*
X110617000Y-98171000D01*
X110871000Y-98171000D01*
X110871000Y-99520250D01*
X111029750Y-99679000D01*
X111744000Y-99682072D01*
X111868482Y-99669812D01*
X111988180Y-99633502D01*
X112098494Y-99574537D01*
X112195185Y-99495185D01*
X112274537Y-99398494D01*
X112333502Y-99288180D01*
X112369812Y-99168482D01*
X112382072Y-99044000D01*
X112379000Y-98329750D01*
X112220250Y-98171000D01*
X110871000Y-98171000D01*
X110617000Y-98171000D01*
X109267750Y-98171000D01*
X109109000Y-98329750D01*
X109105928Y-99044000D01*
X80988541Y-99044000D01*
X81032004Y-98939072D01*
X81083000Y-98682698D01*
X81083000Y-98535975D01*
X82574975Y-97044000D01*
X109105928Y-97044000D01*
X109109000Y-97758250D01*
X109267750Y-97917000D01*
X110617000Y-97917000D01*
X110617000Y-96567750D01*
X110871000Y-96567750D01*
X110871000Y-97917000D01*
X112220250Y-97917000D01*
X112379000Y-97758250D01*
X112382072Y-97044000D01*
X112369812Y-96919518D01*
X112333502Y-96799820D01*
X112274537Y-96689506D01*
X112195185Y-96592815D01*
X112098494Y-96513463D01*
X111988180Y-96454498D01*
X111868482Y-96418188D01*
X111744000Y-96405928D01*
X111029750Y-96409000D01*
X110871000Y-96567750D01*
X110617000Y-96567750D01*
X110458250Y-96409000D01*
X109744000Y-96405928D01*
X109619518Y-96418188D01*
X109499820Y-96454498D01*
X109389506Y-96513463D01*
X109292815Y-96592815D01*
X109213463Y-96689506D01*
X109154498Y-96799820D01*
X109118188Y-96919518D01*
X109105928Y-97044000D01*
X82574975Y-97044000D01*
X83765936Y-95853039D01*
X92016596Y-95853039D01*
X92057254Y-95987087D01*
X92177463Y-96241420D01*
X92344981Y-96467414D01*
X92553369Y-96656385D01*
X92794619Y-96801070D01*
X93059460Y-96895909D01*
X93281500Y-96774624D01*
X93281500Y-95631000D01*
X93535500Y-95631000D01*
X93535500Y-96774624D01*
X93757540Y-96895909D01*
X94022381Y-96801070D01*
X94263631Y-96656385D01*
X94472019Y-96467414D01*
X94639537Y-96241420D01*
X94759746Y-95987087D01*
X94800404Y-95853039D01*
X94678415Y-95631000D01*
X93535500Y-95631000D01*
X93281500Y-95631000D01*
X92138585Y-95631000D01*
X92016596Y-95853039D01*
X83765936Y-95853039D01*
X83935293Y-95683683D01*
X83970659Y-95654659D01*
X83999684Y-95619292D01*
X83999687Y-95619289D01*
X84086501Y-95513506D01*
X84146819Y-95400659D01*
X84172580Y-95352464D01*
X84225587Y-95177724D01*
X84227828Y-95154961D01*
X92016596Y-95154961D01*
X92138585Y-95377000D01*
X93281500Y-95377000D01*
X93281500Y-94233376D01*
X93535500Y-94233376D01*
X93535500Y-95377000D01*
X94678415Y-95377000D01*
X94800404Y-95154961D01*
X94759746Y-95020913D01*
X94639537Y-94766580D01*
X94472019Y-94540586D01*
X94263631Y-94351615D01*
X94022381Y-94206930D01*
X93757540Y-94112091D01*
X93535500Y-94233376D01*
X93281500Y-94233376D01*
X93059460Y-94112091D01*
X92794619Y-94206930D01*
X92553369Y-94351615D01*
X92344981Y-94540586D01*
X92177463Y-94766580D01*
X92057254Y-95020913D01*
X92016596Y-95154961D01*
X84227828Y-95154961D01*
X84239000Y-95041538D01*
X84239000Y-95041526D01*
X84243484Y-94996001D01*
X84239000Y-94950476D01*
X84239000Y-91596246D01*
X84393692Y-91723198D01*
X84624222Y-91846419D01*
X84874363Y-91922299D01*
X85069316Y-91941500D01*
X85999684Y-91941500D01*
X86194637Y-91922299D01*
X86444778Y-91846419D01*
X86675308Y-91723198D01*
X86877370Y-91557370D01*
X87043198Y-91355308D01*
X87045501Y-91351000D01*
X92522339Y-91351000D01*
X92626087Y-91454748D01*
X92843430Y-91599972D01*
X93084928Y-91700004D01*
X93341302Y-91751000D01*
X93488025Y-91751000D01*
X95832316Y-94095292D01*
X95861341Y-94130659D01*
X95896708Y-94159684D01*
X95896712Y-94159688D01*
X96002494Y-94246501D01*
X96114325Y-94306276D01*
X96163536Y-94332580D01*
X96338276Y-94385587D01*
X96474462Y-94399000D01*
X96474473Y-94399000D01*
X96520000Y-94403484D01*
X96565527Y-94399000D01*
X100293713Y-94399000D01*
X100182587Y-94473252D01*
X99997752Y-94658087D01*
X99852528Y-94875430D01*
X99752496Y-95116928D01*
X99701500Y-95373302D01*
X99701500Y-95634698D01*
X99752496Y-95891072D01*
X99852528Y-96132570D01*
X99997752Y-96349913D01*
X100182587Y-96534748D01*
X100399930Y-96679972D01*
X100641428Y-96780004D01*
X100897802Y-96831000D01*
X101159198Y-96831000D01*
X101415572Y-96780004D01*
X101657070Y-96679972D01*
X101839614Y-96558000D01*
X103459473Y-96558000D01*
X103505000Y-96562484D01*
X103550527Y-96558000D01*
X103550538Y-96558000D01*
X103686724Y-96544587D01*
X103861464Y-96491580D01*
X104022505Y-96405501D01*
X104163659Y-96289659D01*
X104192688Y-96254287D01*
X107731292Y-92715684D01*
X107766659Y-92686659D01*
X107795684Y-92651292D01*
X107795687Y-92651289D01*
X107882501Y-92545506D01*
X107945465Y-92427708D01*
X107968580Y-92384464D01*
X108021587Y-92209724D01*
X108035000Y-92073538D01*
X108035000Y-92073526D01*
X108039484Y-92028001D01*
X108035000Y-91982476D01*
X108035000Y-84769661D01*
X108138748Y-84665913D01*
X108283972Y-84448570D01*
X108384004Y-84207072D01*
X108435000Y-83950698D01*
X108435000Y-83689302D01*
X108384004Y-83432928D01*
X108283972Y-83191430D01*
X108138748Y-82974087D01*
X108035000Y-82870339D01*
X108035000Y-82421524D01*
X108039484Y-82375999D01*
X108035000Y-82330474D01*
X108035000Y-82330462D01*
X108021587Y-82194276D01*
X107968580Y-82019536D01*
X107922699Y-81933700D01*
X107882501Y-81858494D01*
X107795687Y-81752711D01*
X107795684Y-81752708D01*
X107766659Y-81717341D01*
X107731293Y-81688317D01*
X106591000Y-80548025D01*
X106591000Y-71056702D01*
X110438903Y-71056702D01*
X110510486Y-71300671D01*
X110765996Y-71421571D01*
X111040184Y-71490300D01*
X111322512Y-71504217D01*
X111602130Y-71462787D01*
X111868292Y-71367603D01*
X111993514Y-71300671D01*
X112065097Y-71056702D01*
X111252000Y-70243605D01*
X110438903Y-71056702D01*
X106591000Y-71056702D01*
X106591000Y-70134512D01*
X109811783Y-70134512D01*
X109853213Y-70414130D01*
X109948397Y-70680292D01*
X110015329Y-70805514D01*
X110259298Y-70877097D01*
X111072395Y-70064000D01*
X110259298Y-69250903D01*
X110015329Y-69322486D01*
X109894429Y-69577996D01*
X109825700Y-69852184D01*
X109811783Y-70134512D01*
X106591000Y-70134512D01*
X106591000Y-65915975D01*
X107577427Y-64929549D01*
X108696000Y-64929549D01*
X108799310Y-64919374D01*
X108898650Y-64889239D01*
X108990202Y-64840304D01*
X109070448Y-64774448D01*
X109136304Y-64694202D01*
X109185239Y-64602650D01*
X109215374Y-64503310D01*
X109225549Y-64400000D01*
X109225549Y-62726999D01*
X109791120Y-62726999D01*
X109671245Y-62951269D01*
X109589648Y-63220259D01*
X109562096Y-63500000D01*
X109589648Y-63779741D01*
X109671245Y-64048731D01*
X109803752Y-64296634D01*
X109982077Y-64513923D01*
X110199366Y-64692248D01*
X110225001Y-64705950D01*
X110225000Y-66287776D01*
X110157798Y-66323696D01*
X110077552Y-66389552D01*
X110011696Y-66469798D01*
X109962761Y-66561350D01*
X109932626Y-66660690D01*
X109922451Y-66764000D01*
X109922451Y-66812103D01*
X109834410Y-66976815D01*
X109747095Y-67264656D01*
X109717612Y-67564000D01*
X109747095Y-67863344D01*
X109834410Y-68151185D01*
X109922451Y-68315897D01*
X109922451Y-68364000D01*
X109932626Y-68467310D01*
X109962761Y-68566650D01*
X110011696Y-68658202D01*
X110077552Y-68738448D01*
X110157798Y-68804304D01*
X110249350Y-68853239D01*
X110348690Y-68883374D01*
X110452000Y-68893549D01*
X110491056Y-68893549D01*
X110438903Y-69071298D01*
X111252000Y-69884395D01*
X111266143Y-69870253D01*
X111445748Y-70049858D01*
X111431605Y-70064000D01*
X112244702Y-70877097D01*
X112488671Y-70805514D01*
X112609571Y-70550004D01*
X112678300Y-70275816D01*
X112692217Y-69993488D01*
X112650787Y-69713870D01*
X112555603Y-69447708D01*
X112488671Y-69322486D01*
X112244704Y-69250903D01*
X112360977Y-69134630D01*
X112317347Y-69091000D01*
X114175497Y-69091000D01*
X116837000Y-71752504D01*
X116837000Y-72519496D01*
X113781294Y-75575203D01*
X113723024Y-75623024D01*
X113532203Y-75855541D01*
X113390410Y-76120816D01*
X113303095Y-76408657D01*
X113281000Y-76632990D01*
X113281000Y-76632999D01*
X113273613Y-76708000D01*
X113281000Y-76783001D01*
X113281001Y-88824980D01*
X113281000Y-88824990D01*
X113281001Y-99134602D01*
X112342604Y-100073000D01*
X97103000Y-100073000D01*
X97027999Y-100065613D01*
X96952998Y-100073000D01*
X96952989Y-100073000D01*
X96728656Y-100095095D01*
X96440815Y-100182410D01*
X96175540Y-100324203D01*
X95943024Y-100515024D01*
X95895207Y-100573289D01*
X95367897Y-101100599D01*
X95106638Y-101126331D01*
X94724547Y-101242237D01*
X94372410Y-101430458D01*
X94141101Y-101620288D01*
X93140390Y-102621000D01*
X77657396Y-102621000D01*
X76973000Y-101936604D01*
X76973000Y-97707396D01*
X81970525Y-92709872D01*
X82009712Y-92677712D01*
X82138051Y-92521331D01*
X82233415Y-92342917D01*
X82292140Y-92149327D01*
X82307000Y-91998451D01*
X82307000Y-91998442D01*
X82311968Y-91948001D01*
X82307000Y-91897560D01*
X82307000Y-85653400D01*
X89491783Y-85653400D01*
X89533213Y-85933018D01*
X89628397Y-86199180D01*
X89695329Y-86324402D01*
X89939298Y-86395985D01*
X90752395Y-85582888D01*
X91111605Y-85582888D01*
X91924702Y-86395985D01*
X92168671Y-86324402D01*
X92289571Y-86068892D01*
X92358151Y-85795298D01*
X95706903Y-85795298D01*
X96520000Y-86608395D01*
X97333097Y-85795298D01*
X97261514Y-85551329D01*
X97006004Y-85430429D01*
X96731816Y-85361700D01*
X96449488Y-85347783D01*
X96169870Y-85389213D01*
X95903708Y-85484397D01*
X95778486Y-85551329D01*
X95706903Y-85795298D01*
X92358151Y-85795298D01*
X92358300Y-85794704D01*
X92372217Y-85512376D01*
X92330787Y-85232758D01*
X92235603Y-84966596D01*
X92168671Y-84841374D01*
X91924702Y-84769791D01*
X91111605Y-85582888D01*
X90752395Y-85582888D01*
X89939298Y-84769791D01*
X89695329Y-84841374D01*
X89574429Y-85096884D01*
X89505700Y-85371072D01*
X89491783Y-85653400D01*
X82307000Y-85653400D01*
X82307000Y-85261396D01*
X83546897Y-84021500D01*
X84294143Y-84021500D01*
X84393692Y-84103198D01*
X84590096Y-84208178D01*
X84468017Y-84257334D01*
X84231661Y-84411899D01*
X84030000Y-84609605D01*
X83870785Y-84842854D01*
X83760133Y-85102682D01*
X83742596Y-85185461D01*
X83864585Y-85407500D01*
X85407500Y-85407500D01*
X85407500Y-85387500D01*
X85661500Y-85387500D01*
X85661500Y-85407500D01*
X87204415Y-85407500D01*
X87326404Y-85185461D01*
X87308867Y-85102682D01*
X87198215Y-84842854D01*
X87039000Y-84609605D01*
X86837339Y-84411899D01*
X86600983Y-84257334D01*
X86478904Y-84208178D01*
X86662792Y-84109888D01*
X89655776Y-84109888D01*
X89691696Y-84177090D01*
X89757552Y-84257336D01*
X89837798Y-84323192D01*
X89929350Y-84372127D01*
X90028690Y-84402262D01*
X90132000Y-84412437D01*
X90171056Y-84412437D01*
X90118903Y-84590186D01*
X90932000Y-85403283D01*
X91745097Y-84590186D01*
X91692944Y-84412437D01*
X91732000Y-84412437D01*
X91835310Y-84402262D01*
X91934650Y-84372127D01*
X92026202Y-84323192D01*
X92106448Y-84257336D01*
X92172304Y-84177090D01*
X92208224Y-84109888D01*
X95174671Y-84109888D01*
X95225112Y-84114856D01*
X95275553Y-84109888D01*
X95275563Y-84109888D01*
X95426439Y-84095028D01*
X95620029Y-84036303D01*
X95798443Y-83940939D01*
X95954824Y-83812600D01*
X95986989Y-83773407D01*
X96645397Y-83115000D01*
X96650698Y-83115000D01*
X96907072Y-83064004D01*
X97148570Y-82963972D01*
X97365913Y-82818748D01*
X97550748Y-82633913D01*
X97695972Y-82416570D01*
X97796004Y-82175072D01*
X97847000Y-81918698D01*
X97847000Y-81657302D01*
X97796004Y-81400928D01*
X97695972Y-81159430D01*
X97550748Y-80942087D01*
X97365913Y-80757252D01*
X97148570Y-80612028D01*
X96907072Y-80511996D01*
X96650698Y-80461000D01*
X96389302Y-80461000D01*
X96132928Y-80511996D01*
X95891430Y-80612028D01*
X95674087Y-80757252D01*
X95489252Y-80942087D01*
X95344028Y-81159430D01*
X95243996Y-81400928D01*
X95193000Y-81657302D01*
X95193000Y-81662603D01*
X94799716Y-82055888D01*
X92208224Y-82055888D01*
X92172304Y-81988686D01*
X92106448Y-81908440D01*
X92026202Y-81842584D01*
X91934650Y-81793649D01*
X91835310Y-81763514D01*
X91732000Y-81753339D01*
X90132000Y-81753339D01*
X90028690Y-81763514D01*
X89929350Y-81793649D01*
X89837798Y-81842584D01*
X89757552Y-81908440D01*
X89691696Y-81988686D01*
X89655776Y-82055888D01*
X86880864Y-82055888D01*
X86877370Y-82051630D01*
X86675308Y-81885802D01*
X86478904Y-81780822D01*
X86600983Y-81731666D01*
X86837339Y-81577101D01*
X87039000Y-81379395D01*
X87198215Y-81146146D01*
X87308867Y-80886318D01*
X87326404Y-80803539D01*
X87204415Y-80581500D01*
X85661500Y-80581500D01*
X85661500Y-80601500D01*
X85407500Y-80601500D01*
X85407500Y-80581500D01*
X83864585Y-80581500D01*
X83742596Y-80803539D01*
X83760133Y-80886318D01*
X83870785Y-81146146D01*
X84030000Y-81379395D01*
X84231661Y-81577101D01*
X84468017Y-81731666D01*
X84590096Y-81780822D01*
X84393692Y-81885802D01*
X84294143Y-81967500D01*
X83171940Y-81967500D01*
X83121499Y-81962532D01*
X83071058Y-81967500D01*
X83071049Y-81967500D01*
X82920173Y-81982360D01*
X82726583Y-82041085D01*
X82548169Y-82136449D01*
X82391788Y-82264788D01*
X82359628Y-82303975D01*
X80589481Y-84074123D01*
X80550288Y-84106288D01*
X80421949Y-84262669D01*
X80326585Y-84441084D01*
X80267860Y-84634674D01*
X80253000Y-84785550D01*
X80253000Y-84785559D01*
X80248032Y-84836000D01*
X80253000Y-84886441D01*
X80253001Y-91522602D01*
X75255481Y-96520123D01*
X75216288Y-96552288D01*
X75087949Y-96708669D01*
X74992585Y-96887084D01*
X74933860Y-97080674D01*
X74919000Y-97231550D01*
X74919000Y-97231559D01*
X74914032Y-97282000D01*
X74919000Y-97332441D01*
X74919001Y-101295540D01*
X74919000Y-101295550D01*
X74919000Y-101936603D01*
X74234603Y-102621000D01*
X56520504Y-102621000D01*
X50295000Y-96395497D01*
X50295000Y-96344367D01*
X50372815Y-96439185D01*
X50469506Y-96518537D01*
X50579820Y-96577502D01*
X50699518Y-96613812D01*
X50824000Y-96626072D01*
X52038250Y-96623000D01*
X52197000Y-96464250D01*
X52197000Y-94615000D01*
X52451000Y-94615000D01*
X52451000Y-96464250D01*
X52609750Y-96623000D01*
X53824000Y-96626072D01*
X53948482Y-96613812D01*
X54068180Y-96577502D01*
X54178494Y-96518537D01*
X54275185Y-96439185D01*
X54354537Y-96342494D01*
X54413502Y-96232180D01*
X54449812Y-96112482D01*
X54462072Y-95988000D01*
X54459000Y-94773750D01*
X54300250Y-94615000D01*
X52451000Y-94615000D01*
X52197000Y-94615000D01*
X52177000Y-94615000D01*
X52177000Y-94361000D01*
X52197000Y-94361000D01*
X52197000Y-92511750D01*
X52038250Y-92353000D01*
X50824000Y-92349928D01*
X50699518Y-92362188D01*
X50579820Y-92398498D01*
X50469506Y-92457463D01*
X50372815Y-92536815D01*
X50295000Y-92631633D01*
X50295000Y-89208358D01*
X50297000Y-89208358D01*
X50297000Y-89607642D01*
X50374896Y-89999254D01*
X50527696Y-90368145D01*
X50749526Y-90700137D01*
X51031863Y-90982474D01*
X51363855Y-91204304D01*
X51732746Y-91357104D01*
X52124358Y-91435000D01*
X52523642Y-91435000D01*
X52915254Y-91357104D01*
X52948399Y-91343375D01*
X53975369Y-92370344D01*
X53948482Y-92362188D01*
X53824000Y-92349928D01*
X52609750Y-92353000D01*
X52451000Y-92511750D01*
X52451000Y-94361000D01*
X54300250Y-94361000D01*
X54459000Y-94202250D01*
X54462072Y-92988000D01*
X54449812Y-92863518D01*
X54441656Y-92836632D01*
X57732316Y-96127292D01*
X57761341Y-96162659D01*
X57796708Y-96191684D01*
X57796712Y-96191688D01*
X57902494Y-96278501D01*
X58022216Y-96342494D01*
X58063536Y-96364580D01*
X58238276Y-96417587D01*
X58374462Y-96431000D01*
X58374473Y-96431000D01*
X58420000Y-96435484D01*
X58465527Y-96431000D01*
X60010339Y-96431000D01*
X60114087Y-96534748D01*
X60331430Y-96679972D01*
X60572928Y-96780004D01*
X60829302Y-96831000D01*
X61090698Y-96831000D01*
X61347072Y-96780004D01*
X61588570Y-96679972D01*
X61805913Y-96534748D01*
X61990748Y-96349913D01*
X62135972Y-96132570D01*
X62236004Y-95891072D01*
X62287000Y-95634698D01*
X62287000Y-95373302D01*
X62236004Y-95116928D01*
X62135972Y-94875430D01*
X61990748Y-94658087D01*
X61805913Y-94473252D01*
X61588570Y-94328028D01*
X61347072Y-94227996D01*
X61090698Y-94177000D01*
X60829302Y-94177000D01*
X60572928Y-94227996D01*
X60331430Y-94328028D01*
X60114087Y-94473252D01*
X60010339Y-94577000D01*
X58803976Y-94577000D01*
X54259375Y-90032399D01*
X54273104Y-89999254D01*
X54351000Y-89607642D01*
X54351000Y-89208358D01*
X54273104Y-88816746D01*
X54120304Y-88447855D01*
X53898474Y-88115863D01*
X53616137Y-87833526D01*
X53284145Y-87611696D01*
X52915254Y-87458896D01*
X52523642Y-87381000D01*
X52124358Y-87381000D01*
X51732746Y-87458896D01*
X51363855Y-87611696D01*
X51031863Y-87833526D01*
X50749526Y-88115863D01*
X50527696Y-88447855D01*
X50374896Y-88816746D01*
X50297000Y-89208358D01*
X50295000Y-89208358D01*
X50295000Y-81452074D01*
X50304626Y-81549810D01*
X50334761Y-81649150D01*
X50383696Y-81740702D01*
X50449552Y-81820948D01*
X50529798Y-81886804D01*
X50621350Y-81935739D01*
X50720690Y-81965874D01*
X50824000Y-81976049D01*
X52901152Y-81976049D01*
X53498877Y-82573774D01*
X53531038Y-82612962D01*
X53570231Y-82645127D01*
X54006873Y-83081769D01*
X54039038Y-83120962D01*
X54078231Y-83153127D01*
X55361001Y-84435898D01*
X55361000Y-89865559D01*
X55356032Y-89916000D01*
X55361000Y-89966441D01*
X55361000Y-89966450D01*
X55375860Y-90117326D01*
X55434585Y-90310916D01*
X55529949Y-90489331D01*
X55658288Y-90645712D01*
X55697481Y-90677877D01*
X58674128Y-93654525D01*
X58706288Y-93693712D01*
X58862669Y-93822051D01*
X59041083Y-93917415D01*
X59234673Y-93976140D01*
X59385549Y-93991000D01*
X59385559Y-93991000D01*
X59436000Y-93995968D01*
X59486441Y-93991000D01*
X62433559Y-93991000D01*
X62484000Y-93995968D01*
X62534441Y-93991000D01*
X62534451Y-93991000D01*
X62685327Y-93976140D01*
X62878917Y-93917415D01*
X63057331Y-93822051D01*
X63213712Y-93693712D01*
X63245877Y-93654519D01*
X64698524Y-92201872D01*
X64737712Y-92169712D01*
X64866051Y-92013331D01*
X64961415Y-91834917D01*
X65020140Y-91641327D01*
X65035000Y-91490451D01*
X65035000Y-91490442D01*
X65039968Y-91440001D01*
X65035000Y-91389560D01*
X65035000Y-90293302D01*
X67253000Y-90293302D01*
X67253000Y-90554698D01*
X67303996Y-90811072D01*
X67404028Y-91052570D01*
X67549252Y-91269913D01*
X67653000Y-91373661D01*
X67653000Y-91394472D01*
X67648516Y-91440000D01*
X67653000Y-91485527D01*
X67653000Y-91485537D01*
X67653001Y-91485547D01*
X67653000Y-94554339D01*
X67549252Y-94658087D01*
X67404028Y-94875430D01*
X67303996Y-95116928D01*
X67253000Y-95373302D01*
X67253000Y-95634698D01*
X67303996Y-95891072D01*
X67404028Y-96132570D01*
X67549252Y-96349913D01*
X67734087Y-96534748D01*
X67951430Y-96679972D01*
X68192928Y-96780004D01*
X68449302Y-96831000D01*
X68710698Y-96831000D01*
X68967072Y-96780004D01*
X69208570Y-96679972D01*
X69425913Y-96534748D01*
X69610748Y-96349913D01*
X69755972Y-96132570D01*
X69856004Y-95891072D01*
X69907000Y-95634698D01*
X69907000Y-95373302D01*
X69856004Y-95116928D01*
X69755972Y-94875430D01*
X69610748Y-94658087D01*
X69507000Y-94554339D01*
X69507000Y-91823975D01*
X69979976Y-91351000D01*
X72170473Y-91351000D01*
X72216000Y-91355484D01*
X72261527Y-91351000D01*
X72261538Y-91351000D01*
X72397724Y-91337587D01*
X72472540Y-91314892D01*
X72513302Y-91323000D01*
X72774698Y-91323000D01*
X73031072Y-91272004D01*
X73272570Y-91171972D01*
X73489913Y-91026748D01*
X73674748Y-90841913D01*
X73819972Y-90624570D01*
X73920004Y-90383072D01*
X73971000Y-90126698D01*
X73971000Y-89979975D01*
X74949476Y-89001500D01*
X76558606Y-89001500D01*
X76571630Y-89017370D01*
X76773692Y-89183198D01*
X77004222Y-89306419D01*
X77129757Y-89344500D01*
X77004222Y-89382581D01*
X76773692Y-89505802D01*
X76571630Y-89671630D01*
X76405802Y-89873692D01*
X76282581Y-90104222D01*
X76206701Y-90354363D01*
X76181080Y-90614500D01*
X76206701Y-90874637D01*
X76238514Y-90979510D01*
X73347758Y-93870267D01*
X73272570Y-93820028D01*
X73031072Y-93719996D01*
X72774698Y-93669000D01*
X72513302Y-93669000D01*
X72256928Y-93719996D01*
X72015430Y-93820028D01*
X71798087Y-93965252D01*
X71613252Y-94150087D01*
X71468028Y-94367430D01*
X71367996Y-94608928D01*
X71317000Y-94865302D01*
X71317000Y-95069747D01*
X71275420Y-95147537D01*
X71244300Y-95250128D01*
X71222414Y-95322276D01*
X71217024Y-95377000D01*
X71204516Y-95504000D01*
X71209001Y-95549537D01*
X71209000Y-97602339D01*
X71105252Y-97706087D01*
X70960028Y-97923430D01*
X70859996Y-98164928D01*
X70809000Y-98421302D01*
X70809000Y-98682698D01*
X70859996Y-98939072D01*
X70960028Y-99180570D01*
X71105252Y-99397913D01*
X71290087Y-99582748D01*
X71507430Y-99727972D01*
X71748928Y-99828004D01*
X72005302Y-99879000D01*
X72266698Y-99879000D01*
X72523072Y-99828004D01*
X72764570Y-99727972D01*
X72981913Y-99582748D01*
X73166748Y-99397913D01*
X73311972Y-99180570D01*
X73412004Y-98939072D01*
X73463000Y-98682698D01*
X73463000Y-98421302D01*
X73412004Y-98164928D01*
X73311972Y-97923430D01*
X73166748Y-97706087D01*
X73063000Y-97602339D01*
X73063000Y-96258779D01*
X73272570Y-96171972D01*
X73489913Y-96026748D01*
X73595313Y-95921348D01*
X73714724Y-95909587D01*
X73889464Y-95856580D01*
X74050505Y-95770501D01*
X74191659Y-95654659D01*
X74220688Y-95619287D01*
X77898476Y-91941500D01*
X78379684Y-91941500D01*
X78574637Y-91922299D01*
X78824778Y-91846419D01*
X79055308Y-91723198D01*
X79257370Y-91557370D01*
X79423198Y-91355308D01*
X79546419Y-91124778D01*
X79622299Y-90874637D01*
X79647920Y-90614500D01*
X79622299Y-90354363D01*
X79546419Y-90104222D01*
X79423198Y-89873692D01*
X79257370Y-89671630D01*
X79055308Y-89505802D01*
X78824778Y-89382581D01*
X78699243Y-89344500D01*
X78824778Y-89306419D01*
X79055308Y-89183198D01*
X79257370Y-89017370D01*
X79423198Y-88815308D01*
X79546419Y-88584778D01*
X79622299Y-88334637D01*
X79647920Y-88074500D01*
X79622299Y-87814363D01*
X79546419Y-87564222D01*
X79423198Y-87333692D01*
X79257370Y-87131630D01*
X79055308Y-86965802D01*
X78858904Y-86860822D01*
X78980983Y-86811666D01*
X79217339Y-86657101D01*
X79419000Y-86459395D01*
X79578215Y-86226146D01*
X79688867Y-85966318D01*
X79706404Y-85883539D01*
X79584415Y-85661500D01*
X78041500Y-85661500D01*
X78041500Y-85681500D01*
X77787500Y-85681500D01*
X77787500Y-85661500D01*
X76244585Y-85661500D01*
X76122596Y-85883539D01*
X76140133Y-85966318D01*
X76250785Y-86226146D01*
X76410000Y-86459395D01*
X76611661Y-86657101D01*
X76848017Y-86811666D01*
X76970096Y-86860822D01*
X76773692Y-86965802D01*
X76571630Y-87131630D01*
X76558606Y-87147500D01*
X74611024Y-87147500D01*
X74565499Y-87143016D01*
X74519974Y-87147500D01*
X74519962Y-87147500D01*
X74383776Y-87160913D01*
X74209036Y-87213920D01*
X74134073Y-87253989D01*
X74047994Y-87299999D01*
X73942211Y-87386813D01*
X73942208Y-87386816D01*
X73906841Y-87415841D01*
X73877816Y-87451208D01*
X72660025Y-88669000D01*
X72513302Y-88669000D01*
X72256928Y-88719996D01*
X72015430Y-88820028D01*
X71798087Y-88965252D01*
X71613252Y-89150087D01*
X71468028Y-89367430D01*
X71414358Y-89497000D01*
X69641527Y-89497000D01*
X69596000Y-89492516D01*
X69550473Y-89497000D01*
X69529661Y-89497000D01*
X69425913Y-89393252D01*
X69208570Y-89248028D01*
X68967072Y-89147996D01*
X68710698Y-89097000D01*
X68449302Y-89097000D01*
X68192928Y-89147996D01*
X67951430Y-89248028D01*
X67734087Y-89393252D01*
X67549252Y-89578087D01*
X67404028Y-89795430D01*
X67303996Y-90036928D01*
X67253000Y-90293302D01*
X65035000Y-90293302D01*
X65035000Y-87780702D01*
X66242903Y-87780702D01*
X66314486Y-88024671D01*
X66569996Y-88145571D01*
X66844184Y-88214300D01*
X67126512Y-88228217D01*
X67406130Y-88186787D01*
X67672292Y-88091603D01*
X67797514Y-88024671D01*
X67869097Y-87780702D01*
X67056000Y-86967605D01*
X66242903Y-87780702D01*
X65035000Y-87780702D01*
X65035000Y-86858512D01*
X65615783Y-86858512D01*
X65657213Y-87138130D01*
X65752397Y-87404292D01*
X65819329Y-87529514D01*
X66063298Y-87601097D01*
X66876395Y-86788000D01*
X67235605Y-86788000D01*
X68048702Y-87601097D01*
X68292671Y-87529514D01*
X68413571Y-87274004D01*
X68482300Y-86999816D01*
X68496217Y-86717488D01*
X68475193Y-86575590D01*
X71830903Y-86575590D01*
X71902486Y-86819559D01*
X72157996Y-86940459D01*
X72432184Y-87009188D01*
X72714512Y-87023105D01*
X72994130Y-86981675D01*
X73260292Y-86886491D01*
X73385514Y-86819559D01*
X73457097Y-86575590D01*
X72644000Y-85762493D01*
X71830903Y-86575590D01*
X68475193Y-86575590D01*
X68454787Y-86437870D01*
X68359603Y-86171708D01*
X68292671Y-86046486D01*
X68048702Y-85974903D01*
X67235605Y-86788000D01*
X66876395Y-86788000D01*
X66063298Y-85974903D01*
X65819329Y-86046486D01*
X65698429Y-86301996D01*
X65629700Y-86576184D01*
X65615783Y-86858512D01*
X65035000Y-86858512D01*
X65035000Y-85795298D01*
X66242903Y-85795298D01*
X67056000Y-86608395D01*
X67869097Y-85795298D01*
X67827463Y-85653400D01*
X71203783Y-85653400D01*
X71245213Y-85933018D01*
X71340397Y-86199180D01*
X71407329Y-86324402D01*
X71651298Y-86395985D01*
X72464395Y-85582888D01*
X72823605Y-85582888D01*
X73636702Y-86395985D01*
X73880671Y-86324402D01*
X74001571Y-86068892D01*
X74070300Y-85794704D01*
X74084217Y-85512376D01*
X74042787Y-85232758D01*
X73947603Y-84966596D01*
X73880671Y-84841374D01*
X73636702Y-84769791D01*
X72823605Y-85582888D01*
X72464395Y-85582888D01*
X71651298Y-84769791D01*
X71407329Y-84841374D01*
X71286429Y-85096884D01*
X71217700Y-85371072D01*
X71203783Y-85653400D01*
X67827463Y-85653400D01*
X67797514Y-85551329D01*
X67542004Y-85430429D01*
X67267816Y-85361700D01*
X66985488Y-85347783D01*
X66705870Y-85389213D01*
X66439708Y-85484397D01*
X66314486Y-85551329D01*
X66242903Y-85795298D01*
X65035000Y-85795298D01*
X65035000Y-83737396D01*
X65957397Y-82815000D01*
X66206339Y-82815000D01*
X66210087Y-82818748D01*
X66427430Y-82963972D01*
X66668928Y-83064004D01*
X66925302Y-83115000D01*
X67186698Y-83115000D01*
X67443072Y-83064004D01*
X67684570Y-82963972D01*
X67901913Y-82818748D01*
X67905661Y-82815000D01*
X68154604Y-82815000D01*
X69113015Y-83773412D01*
X69145176Y-83812600D01*
X69301557Y-83940939D01*
X69479971Y-84036303D01*
X69673561Y-84095028D01*
X69824437Y-84109888D01*
X69824446Y-84109888D01*
X69874887Y-84114856D01*
X69925328Y-84109888D01*
X71367776Y-84109888D01*
X71403696Y-84177090D01*
X71469552Y-84257336D01*
X71549798Y-84323192D01*
X71641350Y-84372127D01*
X71740690Y-84402262D01*
X71844000Y-84412437D01*
X71883056Y-84412437D01*
X71830903Y-84590186D01*
X72644000Y-85403283D01*
X73457097Y-84590186D01*
X73404944Y-84412437D01*
X73444000Y-84412437D01*
X73547310Y-84402262D01*
X73646650Y-84372127D01*
X73738202Y-84323192D01*
X73818448Y-84257336D01*
X73884304Y-84177090D01*
X73933239Y-84085538D01*
X73952665Y-84021500D01*
X76674143Y-84021500D01*
X76773692Y-84103198D01*
X76970096Y-84208178D01*
X76848017Y-84257334D01*
X76611661Y-84411899D01*
X76410000Y-84609605D01*
X76250785Y-84842854D01*
X76140133Y-85102682D01*
X76122596Y-85185461D01*
X76244585Y-85407500D01*
X77787500Y-85407500D01*
X77787500Y-85387500D01*
X78041500Y-85387500D01*
X78041500Y-85407500D01*
X79584415Y-85407500D01*
X79706404Y-85185461D01*
X79688867Y-85102682D01*
X79578215Y-84842854D01*
X79419000Y-84609605D01*
X79217339Y-84411899D01*
X78980983Y-84257334D01*
X78858904Y-84208178D01*
X79055308Y-84103198D01*
X79257370Y-83937370D01*
X79423198Y-83735308D01*
X79546419Y-83504778D01*
X79622299Y-83254637D01*
X79647920Y-82994500D01*
X79622299Y-82734363D01*
X79546419Y-82484222D01*
X79423198Y-82253692D01*
X79257370Y-82051630D01*
X79055308Y-81885802D01*
X78858904Y-81780822D01*
X78980983Y-81731666D01*
X79217339Y-81577101D01*
X79419000Y-81379395D01*
X79578215Y-81146146D01*
X79688867Y-80886318D01*
X79706404Y-80803539D01*
X79584415Y-80581500D01*
X78041500Y-80581500D01*
X78041500Y-80601500D01*
X77787500Y-80601500D01*
X77787500Y-80581500D01*
X76244585Y-80581500D01*
X76122596Y-80803539D01*
X76140133Y-80886318D01*
X76250785Y-81146146D01*
X76410000Y-81379395D01*
X76611661Y-81577101D01*
X76848017Y-81731666D01*
X76970096Y-81780822D01*
X76773692Y-81885802D01*
X76674143Y-81967500D01*
X73866917Y-81967500D01*
X73818448Y-81908440D01*
X73738202Y-81842584D01*
X73646650Y-81793649D01*
X73547310Y-81763514D01*
X73444000Y-81753339D01*
X71844000Y-81753339D01*
X71740690Y-81763514D01*
X71641350Y-81793649D01*
X71549798Y-81842584D01*
X71469552Y-81908440D01*
X71403696Y-81988686D01*
X71367776Y-82055888D01*
X70300285Y-82055888D01*
X69341877Y-81097481D01*
X69309712Y-81058288D01*
X69153331Y-80929949D01*
X68974917Y-80834585D01*
X68781327Y-80775860D01*
X68630451Y-80761000D01*
X68630441Y-80761000D01*
X68580000Y-80756032D01*
X68529559Y-80761000D01*
X67905661Y-80761000D01*
X67901913Y-80757252D01*
X67684570Y-80612028D01*
X67443072Y-80511996D01*
X67186698Y-80461000D01*
X66925302Y-80461000D01*
X66668928Y-80511996D01*
X66427430Y-80612028D01*
X66210087Y-80757252D01*
X66206339Y-80761000D01*
X65582440Y-80761000D01*
X65531999Y-80756032D01*
X65481558Y-80761000D01*
X65481549Y-80761000D01*
X65330673Y-80775860D01*
X65137083Y-80834585D01*
X64958669Y-80929949D01*
X64802288Y-81058288D01*
X64770128Y-81097476D01*
X63317476Y-82550128D01*
X63278289Y-82582288D01*
X63246129Y-82621475D01*
X63246128Y-82621476D01*
X63149950Y-82738669D01*
X63054586Y-82917083D01*
X62995861Y-83110673D01*
X62976032Y-83312000D01*
X62981001Y-83362451D01*
X62981000Y-91014603D01*
X62058604Y-91937000D01*
X59861397Y-91937000D01*
X57415000Y-89490604D01*
X57415000Y-84060940D01*
X57419968Y-84010499D01*
X57415000Y-83960058D01*
X57415000Y-83960049D01*
X57400140Y-83809173D01*
X57341415Y-83615583D01*
X57246051Y-83437169D01*
X57117712Y-83280788D01*
X57078524Y-83248628D01*
X55795750Y-81965854D01*
X55795750Y-80986058D01*
X55806297Y-80973206D01*
X58430712Y-78348792D01*
X58488976Y-78300976D01*
X58679797Y-78068460D01*
X58821590Y-77803185D01*
X58908905Y-77515344D01*
X58931000Y-77291011D01*
X58931000Y-77291002D01*
X58938387Y-77216001D01*
X58931000Y-77141000D01*
X58931000Y-70427610D01*
X70435610Y-58923000D01*
X103223571Y-58923000D01*
X103521361Y-58893670D01*
X103634848Y-58859244D01*
X106846053Y-62070451D01*
G37*
X106846053Y-62070451D02*
X106696000Y-62070451D01*
X106592690Y-62080626D01*
X106493350Y-62110761D01*
X106401798Y-62159696D01*
X106321552Y-62225552D01*
X106255696Y-62305798D01*
X106206761Y-62397350D01*
X106176626Y-62496690D01*
X106166451Y-62600000D01*
X106166451Y-63718573D01*
X105040713Y-64844312D01*
X105005341Y-64873341D01*
X104976313Y-64908712D01*
X104976312Y-64908713D01*
X104889499Y-65014495D01*
X104810275Y-65162713D01*
X104803420Y-65175537D01*
X104750413Y-65350277D01*
X104737000Y-65486463D01*
X104737000Y-65486473D01*
X104732516Y-65532000D01*
X104737000Y-65577527D01*
X104737001Y-74978025D01*
X94921688Y-65162713D01*
X94892659Y-65127341D01*
X94751505Y-65011499D01*
X94590464Y-64925420D01*
X94415724Y-64872413D01*
X94279538Y-64859000D01*
X94279527Y-64859000D01*
X94234000Y-64854516D01*
X94188473Y-64859000D01*
X90288010Y-64859000D01*
X90303072Y-64856004D01*
X90544570Y-64755972D01*
X90761913Y-64610748D01*
X90946748Y-64425913D01*
X91091972Y-64208570D01*
X91192004Y-63967072D01*
X91243000Y-63710698D01*
X91243000Y-63449302D01*
X91192004Y-63192928D01*
X91091972Y-62951430D01*
X90946748Y-62734087D01*
X90761913Y-62549252D01*
X90544570Y-62404028D01*
X90303072Y-62303996D01*
X90046698Y-62253000D01*
X89785302Y-62253000D01*
X89528928Y-62303996D01*
X89287430Y-62404028D01*
X89070087Y-62549252D01*
X88966339Y-62653000D01*
X86373661Y-62653000D01*
X86189913Y-62469252D01*
X85972570Y-62324028D01*
X85731072Y-62223996D01*
X85474698Y-62173000D01*
X85213302Y-62173000D01*
X84956928Y-62223996D01*
X84715430Y-62324028D01*
X84498087Y-62469252D01*
X84313252Y-62654087D01*
X84168028Y-62871430D01*
X84067996Y-63112928D01*
X84017000Y-63369302D01*
X84017000Y-63516024D01*
X82207000Y-65326025D01*
X82207000Y-63545527D01*
X82211484Y-63500000D01*
X82207000Y-63454473D01*
X82207000Y-63454462D01*
X82193587Y-63318276D01*
X82140580Y-63143536D01*
X82101907Y-63071185D01*
X82054501Y-62982494D01*
X81967688Y-62876712D01*
X81967684Y-62876708D01*
X81938659Y-62841341D01*
X81903293Y-62812317D01*
X79935688Y-60844713D01*
X79906659Y-60809341D01*
X79765505Y-60693499D01*
X79604464Y-60607420D01*
X79429724Y-60554413D01*
X79293538Y-60541000D01*
X79293527Y-60541000D01*
X79248000Y-60536516D01*
X79202473Y-60541000D01*
X76245527Y-60541000D01*
X76200000Y-60536516D01*
X76154473Y-60541000D01*
X76154462Y-60541000D01*
X76018276Y-60554413D01*
X75879093Y-60596634D01*
X75843536Y-60607420D01*
X75682494Y-60693499D01*
X75576712Y-60780312D01*
X75576708Y-60780316D01*
X75541341Y-60809341D01*
X75512316Y-60844708D01*
X72528708Y-63828317D01*
X72493342Y-63857341D01*
X72464317Y-63892708D01*
X72464312Y-63892713D01*
X72377499Y-63998495D01*
X72291420Y-64159537D01*
X72270249Y-64229331D01*
X72238414Y-64334276D01*
X72235823Y-64360580D01*
X72220516Y-64516000D01*
X72225001Y-64561537D01*
X72225000Y-66502462D01*
X72225000Y-66662473D01*
X72221519Y-66697820D01*
X72121252Y-66798087D01*
X71976028Y-67015430D01*
X71875996Y-67256928D01*
X71825000Y-67513302D01*
X71825000Y-67774698D01*
X71875996Y-68031072D01*
X71976028Y-68272570D01*
X72121252Y-68489913D01*
X72306087Y-68674748D01*
X72523430Y-68819972D01*
X72764928Y-68920004D01*
X73021302Y-68971000D01*
X73282698Y-68971000D01*
X73539072Y-68920004D01*
X73780570Y-68819972D01*
X73997913Y-68674748D01*
X74098180Y-68574481D01*
X74133527Y-68571000D01*
X76854339Y-68571000D01*
X76878087Y-68594748D01*
X77095430Y-68739972D01*
X77336928Y-68840004D01*
X77593302Y-68891000D01*
X77854698Y-68891000D01*
X78111072Y-68840004D01*
X78321000Y-68753049D01*
X78321001Y-73657023D01*
X77933073Y-74044951D01*
X76714500Y-74044951D01*
X76611190Y-74055126D01*
X76511850Y-74085261D01*
X76420298Y-74134196D01*
X76340052Y-74200052D01*
X76274196Y-74280298D01*
X76225261Y-74371850D01*
X76217246Y-74398270D01*
X74479000Y-72660025D01*
X74479000Y-72513302D01*
X74428004Y-72256928D01*
X74327972Y-72015430D01*
X74182748Y-71798087D01*
X73997913Y-71613252D01*
X73780570Y-71468028D01*
X73539072Y-71367996D01*
X73282698Y-71317000D01*
X73021302Y-71317000D01*
X72764928Y-71367996D01*
X72523430Y-71468028D01*
X72306087Y-71613252D01*
X72202339Y-71717000D01*
X63545524Y-71717000D01*
X63499999Y-71712516D01*
X63454474Y-71717000D01*
X63454462Y-71717000D01*
X63318276Y-71730413D01*
X63143536Y-71783420D01*
X63087261Y-71813500D01*
X62982494Y-71869499D01*
X62876711Y-71956313D01*
X62876708Y-71956316D01*
X62841341Y-71985341D01*
X62812316Y-72020708D01*
X60336708Y-74496317D01*
X60301342Y-74525341D01*
X60272317Y-74560708D01*
X60272312Y-74560713D01*
X60185499Y-74666495D01*
X60099420Y-74827537D01*
X60046414Y-75002277D01*
X60028516Y-75184000D01*
X60033001Y-75229537D01*
X60033000Y-76774339D01*
X59929252Y-76878087D01*
X59784028Y-77095430D01*
X59683996Y-77336928D01*
X59633000Y-77593302D01*
X59633000Y-77854698D01*
X59683996Y-78111072D01*
X59784028Y-78352570D01*
X59929252Y-78569913D01*
X60033001Y-78673662D01*
X60033000Y-89474339D01*
X59929252Y-89578087D01*
X59784028Y-89795430D01*
X59683996Y-90036928D01*
X59633000Y-90293302D01*
X59633000Y-90554698D01*
X59683996Y-90811072D01*
X59784028Y-91052570D01*
X59929252Y-91269913D01*
X60114087Y-91454748D01*
X60331430Y-91599972D01*
X60572928Y-91700004D01*
X60829302Y-91751000D01*
X61090698Y-91751000D01*
X61347072Y-91700004D01*
X61588570Y-91599972D01*
X61805913Y-91454748D01*
X61990748Y-91269913D01*
X62135972Y-91052570D01*
X62236004Y-90811072D01*
X62287000Y-90554698D01*
X62287000Y-90293302D01*
X62236004Y-90036928D01*
X62135972Y-89795430D01*
X61990748Y-89578087D01*
X61887000Y-89474339D01*
X61887000Y-78673661D01*
X61990748Y-78569913D01*
X62135972Y-78352570D01*
X62236004Y-78111072D01*
X62287000Y-77854698D01*
X62287000Y-77593302D01*
X62236004Y-77336928D01*
X62135972Y-77095430D01*
X61990748Y-76878087D01*
X61887000Y-76774339D01*
X61887000Y-75567975D01*
X63883976Y-73571000D01*
X72202339Y-73571000D01*
X72306087Y-73674748D01*
X72523430Y-73819972D01*
X72764928Y-73920004D01*
X73021302Y-73971000D01*
X73168025Y-73971000D01*
X75194816Y-75997792D01*
X75223841Y-76033159D01*
X75259208Y-76062184D01*
X75259212Y-76062188D01*
X75364994Y-76149001D01*
X75412700Y-76174500D01*
X75526036Y-76235080D01*
X75700776Y-76288087D01*
X75836962Y-76301500D01*
X75836972Y-76301500D01*
X75882499Y-76305984D01*
X75928026Y-76301500D01*
X76202312Y-76301500D01*
X76225261Y-76377150D01*
X76274196Y-76468702D01*
X76340052Y-76548948D01*
X76420298Y-76614804D01*
X76511850Y-76663739D01*
X76611190Y-76693874D01*
X76714500Y-76704049D01*
X76964058Y-76704049D01*
X76790159Y-76797000D01*
X69529661Y-76797000D01*
X69425913Y-76693252D01*
X69208570Y-76548028D01*
X68967072Y-76447996D01*
X68710698Y-76397000D01*
X68449302Y-76397000D01*
X68192928Y-76447996D01*
X67951430Y-76548028D01*
X67734087Y-76693252D01*
X67549252Y-76878087D01*
X67404028Y-77095430D01*
X67303996Y-77336928D01*
X67253000Y-77593302D01*
X67253000Y-77854698D01*
X67303996Y-78111072D01*
X67404028Y-78352570D01*
X67549252Y-78569913D01*
X67734087Y-78754748D01*
X67951430Y-78899972D01*
X68192928Y-79000004D01*
X68449302Y-79051000D01*
X68710698Y-79051000D01*
X68967072Y-79000004D01*
X69208570Y-78899972D01*
X69425913Y-78754748D01*
X69529661Y-78651000D01*
X76403499Y-78651000D01*
X76405802Y-78655308D01*
X76571630Y-78857370D01*
X76773692Y-79023198D01*
X76970096Y-79128178D01*
X76848017Y-79177334D01*
X76611661Y-79331899D01*
X76410000Y-79529605D01*
X76250785Y-79762854D01*
X76140133Y-80022682D01*
X76122596Y-80105461D01*
X76244585Y-80327500D01*
X77787500Y-80327500D01*
X77787500Y-80307500D01*
X78041500Y-80307500D01*
X78041500Y-80327500D01*
X79584415Y-80327500D01*
X79706404Y-80105461D01*
X79688867Y-80022682D01*
X79578215Y-79762854D01*
X79419000Y-79529605D01*
X79217339Y-79331899D01*
X78980983Y-79177334D01*
X78858904Y-79128178D01*
X79055308Y-79023198D01*
X79257370Y-78857370D01*
X79270394Y-78841500D01*
X79868973Y-78841500D01*
X79914500Y-78845984D01*
X79960027Y-78841500D01*
X79960038Y-78841500D01*
X80096224Y-78828087D01*
X80270964Y-78775080D01*
X80432005Y-78689001D01*
X80573159Y-78573159D01*
X80602188Y-78537787D01*
X81903292Y-77236684D01*
X81938659Y-77207659D01*
X81967684Y-77172292D01*
X81967688Y-77172288D01*
X82054502Y-77066506D01*
X82140580Y-76905464D01*
X82152897Y-76864859D01*
X82180708Y-76887683D01*
X83830816Y-78537792D01*
X83859841Y-78573159D01*
X83895208Y-78602184D01*
X83895212Y-78602188D01*
X84000994Y-78689001D01*
X84051506Y-78716000D01*
X84094448Y-78738953D01*
X84191630Y-78857370D01*
X84393692Y-79023198D01*
X84590096Y-79128178D01*
X84468017Y-79177334D01*
X84231661Y-79331899D01*
X84030000Y-79529605D01*
X83870785Y-79762854D01*
X83760133Y-80022682D01*
X83742596Y-80105461D01*
X83864585Y-80327500D01*
X85407500Y-80327500D01*
X85407500Y-80307500D01*
X85661500Y-80307500D01*
X85661500Y-80327500D01*
X87204415Y-80327500D01*
X87326404Y-80105461D01*
X87308867Y-80022682D01*
X87198215Y-79762854D01*
X87039000Y-79529605D01*
X86837339Y-79331899D01*
X86600983Y-79177334D01*
X86555451Y-79159000D01*
X92522339Y-79159000D01*
X92626087Y-79262748D01*
X92843430Y-79407972D01*
X93084928Y-79508004D01*
X93341302Y-79559000D01*
X93602698Y-79559000D01*
X93859072Y-79508004D01*
X94100570Y-79407972D01*
X94317913Y-79262748D01*
X94502748Y-79077913D01*
X94647972Y-78860570D01*
X94748004Y-78619072D01*
X94799000Y-78362698D01*
X94799000Y-78101302D01*
X94748004Y-77844928D01*
X94647972Y-77603430D01*
X94502748Y-77386087D01*
X94317913Y-77201252D01*
X94100570Y-77056028D01*
X93859072Y-76955996D01*
X93602698Y-76905000D01*
X93341302Y-76905000D01*
X93084928Y-76955996D01*
X92843430Y-77056028D01*
X92626087Y-77201252D01*
X92522339Y-77305000D01*
X87113384Y-77305000D01*
X87043198Y-77173692D01*
X86877370Y-76971630D01*
X86675308Y-76805802D01*
X86444778Y-76682581D01*
X86319243Y-76644500D01*
X86444778Y-76606419D01*
X86675308Y-76483198D01*
X86877370Y-76317370D01*
X87043198Y-76115308D01*
X87166419Y-75884778D01*
X87242299Y-75634637D01*
X87267920Y-75374500D01*
X87242299Y-75114363D01*
X87210486Y-75009489D01*
X90539292Y-71680684D01*
X90574659Y-71651659D01*
X90603684Y-71616292D01*
X90603688Y-71616288D01*
X90690502Y-71510506D01*
X90776580Y-71349464D01*
X90786428Y-71317000D01*
X90829587Y-71174724D01*
X90843000Y-71038538D01*
X90843000Y-71038527D01*
X90847484Y-70993000D01*
X90843000Y-70947473D01*
X90843000Y-69979975D01*
X91315976Y-69507000D01*
X92072025Y-69507000D01*
X100017136Y-77452111D01*
X99916028Y-77603430D01*
X99815996Y-77844928D01*
X99765000Y-78101302D01*
X99765000Y-78362698D01*
X99815996Y-78619072D01*
X99916028Y-78860570D01*
X100061252Y-79077913D01*
X100165001Y-79181662D01*
X100165000Y-82758473D01*
X100160516Y-82804000D01*
X100165000Y-82849527D01*
X100165000Y-82849537D01*
X100178413Y-82985723D01*
X100225793Y-83141913D01*
X100231420Y-83160463D01*
X100317499Y-83321505D01*
X100404312Y-83427287D01*
X100433341Y-83462659D01*
X100468713Y-83491688D01*
X100778451Y-83801426D01*
X100778451Y-84620000D01*
X100788626Y-84723310D01*
X100818761Y-84822650D01*
X100867696Y-84914202D01*
X100933552Y-84994448D01*
X101013798Y-85060304D01*
X101105350Y-85109239D01*
X101204690Y-85139374D01*
X101308000Y-85149549D01*
X102908000Y-85149549D01*
X103011310Y-85139374D01*
X103110650Y-85109239D01*
X103202202Y-85060304D01*
X103213001Y-85051442D01*
X103213001Y-90595023D01*
X101263025Y-92545000D01*
X96903976Y-92545000D01*
X94799000Y-90440025D01*
X94799000Y-90293302D01*
X94748004Y-90036928D01*
X94647972Y-89795430D01*
X94502748Y-89578087D01*
X94317913Y-89393252D01*
X94200802Y-89315001D01*
X98672026Y-89315001D01*
X99765000Y-90407976D01*
X99765000Y-90554698D01*
X99815996Y-90811072D01*
X99916028Y-91052570D01*
X100061252Y-91269913D01*
X100246087Y-91454748D01*
X100463430Y-91599972D01*
X100704928Y-91700004D01*
X100961302Y-91751000D01*
X101222698Y-91751000D01*
X101479072Y-91700004D01*
X101720570Y-91599972D01*
X101937913Y-91454748D01*
X102122748Y-91269913D01*
X102267972Y-91052570D01*
X102368004Y-90811072D01*
X102419000Y-90554698D01*
X102419000Y-90293302D01*
X102368004Y-90036928D01*
X102267972Y-89795430D01*
X102122748Y-89578087D01*
X101937913Y-89393252D01*
X101720570Y-89248028D01*
X101479072Y-89147996D01*
X101222698Y-89097000D01*
X101075976Y-89097000D01*
X99743688Y-87764713D01*
X99714660Y-87729342D01*
X99573506Y-87613500D01*
X99412465Y-87527421D01*
X99237725Y-87474414D01*
X99101539Y-87461001D01*
X99101528Y-87461001D01*
X99056001Y-87456517D01*
X99010474Y-87461001D01*
X97789089Y-87461001D01*
X97877571Y-87274004D01*
X97946300Y-86999816D01*
X97960217Y-86717488D01*
X97918787Y-86437870D01*
X97823603Y-86171708D01*
X97756671Y-86046486D01*
X97512702Y-85974903D01*
X96699605Y-86788000D01*
X96713748Y-86802143D01*
X96534143Y-86981748D01*
X96520000Y-86967605D01*
X96505858Y-86981748D01*
X96326253Y-86802143D01*
X96340395Y-86788000D01*
X95527298Y-85974903D01*
X95283329Y-86046486D01*
X95162429Y-86301996D01*
X95093700Y-86576184D01*
X95079783Y-86858512D01*
X95121213Y-87138130D01*
X95216397Y-87404292D01*
X95246708Y-87461001D01*
X87111246Y-87461001D01*
X87043198Y-87333692D01*
X86877370Y-87131630D01*
X86675308Y-86965802D01*
X86478904Y-86860822D01*
X86600983Y-86811666D01*
X86837339Y-86657101D01*
X86920480Y-86575590D01*
X90118903Y-86575590D01*
X90190486Y-86819559D01*
X90445996Y-86940459D01*
X90720184Y-87009188D01*
X91002512Y-87023105D01*
X91282130Y-86981675D01*
X91548292Y-86886491D01*
X91673514Y-86819559D01*
X91745097Y-86575590D01*
X90932000Y-85762493D01*
X90118903Y-86575590D01*
X86920480Y-86575590D01*
X87039000Y-86459395D01*
X87198215Y-86226146D01*
X87308867Y-85966318D01*
X87326404Y-85883539D01*
X87204415Y-85661500D01*
X85661500Y-85661500D01*
X85661500Y-85681500D01*
X85407500Y-85681500D01*
X85407500Y-85661500D01*
X83864585Y-85661500D01*
X83742596Y-85883539D01*
X83760133Y-85966318D01*
X83870785Y-86226146D01*
X84030000Y-86459395D01*
X84231661Y-86657101D01*
X84468017Y-86811666D01*
X84590096Y-86860822D01*
X84393692Y-86965802D01*
X84191630Y-87131630D01*
X84025802Y-87333692D01*
X83972649Y-87433134D01*
X83957816Y-87451208D01*
X82688708Y-88720317D01*
X82653342Y-88749341D01*
X82624317Y-88784708D01*
X82624312Y-88784713D01*
X82537499Y-88890495D01*
X82451420Y-89051537D01*
X82425633Y-89136548D01*
X82398414Y-89226276D01*
X82389234Y-89319485D01*
X82380516Y-89408000D01*
X82385001Y-89453537D01*
X82385000Y-94612024D01*
X79772025Y-97225000D01*
X79625302Y-97225000D01*
X79368928Y-97275996D01*
X79127430Y-97376028D01*
X78910087Y-97521252D01*
X78725252Y-97706087D01*
X78580028Y-97923430D01*
X78479996Y-98164928D01*
X78429000Y-98421302D01*
X78429000Y-98682698D01*
X78479996Y-98939072D01*
X78580028Y-99180570D01*
X78725252Y-99397913D01*
X78910087Y-99582748D01*
X79127430Y-99727972D01*
X79368928Y-99828004D01*
X79625302Y-99879000D01*
X79886698Y-99879000D01*
X80143072Y-99828004D01*
X80384570Y-99727972D01*
X80601913Y-99582748D01*
X80786748Y-99397913D01*
X80931972Y-99180570D01*
X80988541Y-99044000D01*
X109105928Y-99044000D01*
X109118188Y-99168482D01*
X109154498Y-99288180D01*
X109213463Y-99398494D01*
X109292815Y-99495185D01*
X109389506Y-99574537D01*
X109499820Y-99633502D01*
X109619518Y-99669812D01*
X109744000Y-99682072D01*
X110458250Y-99679000D01*
X110617000Y-99520250D01*
X110617000Y-98171000D01*
X110871000Y-98171000D01*
X110871000Y-99520250D01*
X111029750Y-99679000D01*
X111744000Y-99682072D01*
X111868482Y-99669812D01*
X111988180Y-99633502D01*
X112098494Y-99574537D01*
X112195185Y-99495185D01*
X112274537Y-99398494D01*
X112333502Y-99288180D01*
X112369812Y-99168482D01*
X112382072Y-99044000D01*
X112379000Y-98329750D01*
X112220250Y-98171000D01*
X110871000Y-98171000D01*
X110617000Y-98171000D01*
X109267750Y-98171000D01*
X109109000Y-98329750D01*
X109105928Y-99044000D01*
X80988541Y-99044000D01*
X81032004Y-98939072D01*
X81083000Y-98682698D01*
X81083000Y-98535975D01*
X82574975Y-97044000D01*
X109105928Y-97044000D01*
X109109000Y-97758250D01*
X109267750Y-97917000D01*
X110617000Y-97917000D01*
X110617000Y-96567750D01*
X110871000Y-96567750D01*
X110871000Y-97917000D01*
X112220250Y-97917000D01*
X112379000Y-97758250D01*
X112382072Y-97044000D01*
X112369812Y-96919518D01*
X112333502Y-96799820D01*
X112274537Y-96689506D01*
X112195185Y-96592815D01*
X112098494Y-96513463D01*
X111988180Y-96454498D01*
X111868482Y-96418188D01*
X111744000Y-96405928D01*
X111029750Y-96409000D01*
X110871000Y-96567750D01*
X110617000Y-96567750D01*
X110458250Y-96409000D01*
X109744000Y-96405928D01*
X109619518Y-96418188D01*
X109499820Y-96454498D01*
X109389506Y-96513463D01*
X109292815Y-96592815D01*
X109213463Y-96689506D01*
X109154498Y-96799820D01*
X109118188Y-96919518D01*
X109105928Y-97044000D01*
X82574975Y-97044000D01*
X83765936Y-95853039D01*
X92016596Y-95853039D01*
X92057254Y-95987087D01*
X92177463Y-96241420D01*
X92344981Y-96467414D01*
X92553369Y-96656385D01*
X92794619Y-96801070D01*
X93059460Y-96895909D01*
X93281500Y-96774624D01*
X93281500Y-95631000D01*
X93535500Y-95631000D01*
X93535500Y-96774624D01*
X93757540Y-96895909D01*
X94022381Y-96801070D01*
X94263631Y-96656385D01*
X94472019Y-96467414D01*
X94639537Y-96241420D01*
X94759746Y-95987087D01*
X94800404Y-95853039D01*
X94678415Y-95631000D01*
X93535500Y-95631000D01*
X93281500Y-95631000D01*
X92138585Y-95631000D01*
X92016596Y-95853039D01*
X83765936Y-95853039D01*
X83935293Y-95683683D01*
X83970659Y-95654659D01*
X83999684Y-95619292D01*
X83999687Y-95619289D01*
X84086501Y-95513506D01*
X84146819Y-95400659D01*
X84172580Y-95352464D01*
X84225587Y-95177724D01*
X84227828Y-95154961D01*
X92016596Y-95154961D01*
X92138585Y-95377000D01*
X93281500Y-95377000D01*
X93281500Y-94233376D01*
X93535500Y-94233376D01*
X93535500Y-95377000D01*
X94678415Y-95377000D01*
X94800404Y-95154961D01*
X94759746Y-95020913D01*
X94639537Y-94766580D01*
X94472019Y-94540586D01*
X94263631Y-94351615D01*
X94022381Y-94206930D01*
X93757540Y-94112091D01*
X93535500Y-94233376D01*
X93281500Y-94233376D01*
X93059460Y-94112091D01*
X92794619Y-94206930D01*
X92553369Y-94351615D01*
X92344981Y-94540586D01*
X92177463Y-94766580D01*
X92057254Y-95020913D01*
X92016596Y-95154961D01*
X84227828Y-95154961D01*
X84239000Y-95041538D01*
X84239000Y-95041526D01*
X84243484Y-94996001D01*
X84239000Y-94950476D01*
X84239000Y-91596246D01*
X84393692Y-91723198D01*
X84624222Y-91846419D01*
X84874363Y-91922299D01*
X85069316Y-91941500D01*
X85999684Y-91941500D01*
X86194637Y-91922299D01*
X86444778Y-91846419D01*
X86675308Y-91723198D01*
X86877370Y-91557370D01*
X87043198Y-91355308D01*
X87045501Y-91351000D01*
X92522339Y-91351000D01*
X92626087Y-91454748D01*
X92843430Y-91599972D01*
X93084928Y-91700004D01*
X93341302Y-91751000D01*
X93488025Y-91751000D01*
X95832316Y-94095292D01*
X95861341Y-94130659D01*
X95896708Y-94159684D01*
X95896712Y-94159688D01*
X96002494Y-94246501D01*
X96114325Y-94306276D01*
X96163536Y-94332580D01*
X96338276Y-94385587D01*
X96474462Y-94399000D01*
X96474473Y-94399000D01*
X96520000Y-94403484D01*
X96565527Y-94399000D01*
X100293713Y-94399000D01*
X100182587Y-94473252D01*
X99997752Y-94658087D01*
X99852528Y-94875430D01*
X99752496Y-95116928D01*
X99701500Y-95373302D01*
X99701500Y-95634698D01*
X99752496Y-95891072D01*
X99852528Y-96132570D01*
X99997752Y-96349913D01*
X100182587Y-96534748D01*
X100399930Y-96679972D01*
X100641428Y-96780004D01*
X100897802Y-96831000D01*
X101159198Y-96831000D01*
X101415572Y-96780004D01*
X101657070Y-96679972D01*
X101839614Y-96558000D01*
X103459473Y-96558000D01*
X103505000Y-96562484D01*
X103550527Y-96558000D01*
X103550538Y-96558000D01*
X103686724Y-96544587D01*
X103861464Y-96491580D01*
X104022505Y-96405501D01*
X104163659Y-96289659D01*
X104192688Y-96254287D01*
X107731292Y-92715684D01*
X107766659Y-92686659D01*
X107795684Y-92651292D01*
X107795687Y-92651289D01*
X107882501Y-92545506D01*
X107945465Y-92427708D01*
X107968580Y-92384464D01*
X108021587Y-92209724D01*
X108035000Y-92073538D01*
X108035000Y-92073526D01*
X108039484Y-92028001D01*
X108035000Y-91982476D01*
X108035000Y-84769661D01*
X108138748Y-84665913D01*
X108283972Y-84448570D01*
X108384004Y-84207072D01*
X108435000Y-83950698D01*
X108435000Y-83689302D01*
X108384004Y-83432928D01*
X108283972Y-83191430D01*
X108138748Y-82974087D01*
X108035000Y-82870339D01*
X108035000Y-82421524D01*
X108039484Y-82375999D01*
X108035000Y-82330474D01*
X108035000Y-82330462D01*
X108021587Y-82194276D01*
X107968580Y-82019536D01*
X107922699Y-81933700D01*
X107882501Y-81858494D01*
X107795687Y-81752711D01*
X107795684Y-81752708D01*
X107766659Y-81717341D01*
X107731293Y-81688317D01*
X106591000Y-80548025D01*
X106591000Y-71056702D01*
X110438903Y-71056702D01*
X110510486Y-71300671D01*
X110765996Y-71421571D01*
X111040184Y-71490300D01*
X111322512Y-71504217D01*
X111602130Y-71462787D01*
X111868292Y-71367603D01*
X111993514Y-71300671D01*
X112065097Y-71056702D01*
X111252000Y-70243605D01*
X110438903Y-71056702D01*
X106591000Y-71056702D01*
X106591000Y-70134512D01*
X109811783Y-70134512D01*
X109853213Y-70414130D01*
X109948397Y-70680292D01*
X110015329Y-70805514D01*
X110259298Y-70877097D01*
X111072395Y-70064000D01*
X110259298Y-69250903D01*
X110015329Y-69322486D01*
X109894429Y-69577996D01*
X109825700Y-69852184D01*
X109811783Y-70134512D01*
X106591000Y-70134512D01*
X106591000Y-65915975D01*
X107577427Y-64929549D01*
X108696000Y-64929549D01*
X108799310Y-64919374D01*
X108898650Y-64889239D01*
X108990202Y-64840304D01*
X109070448Y-64774448D01*
X109136304Y-64694202D01*
X109185239Y-64602650D01*
X109215374Y-64503310D01*
X109225549Y-64400000D01*
X109225549Y-62726999D01*
X109791120Y-62726999D01*
X109671245Y-62951269D01*
X109589648Y-63220259D01*
X109562096Y-63500000D01*
X109589648Y-63779741D01*
X109671245Y-64048731D01*
X109803752Y-64296634D01*
X109982077Y-64513923D01*
X110199366Y-64692248D01*
X110225001Y-64705950D01*
X110225000Y-66287776D01*
X110157798Y-66323696D01*
X110077552Y-66389552D01*
X110011696Y-66469798D01*
X109962761Y-66561350D01*
X109932626Y-66660690D01*
X109922451Y-66764000D01*
X109922451Y-66812103D01*
X109834410Y-66976815D01*
X109747095Y-67264656D01*
X109717612Y-67564000D01*
X109747095Y-67863344D01*
X109834410Y-68151185D01*
X109922451Y-68315897D01*
X109922451Y-68364000D01*
X109932626Y-68467310D01*
X109962761Y-68566650D01*
X110011696Y-68658202D01*
X110077552Y-68738448D01*
X110157798Y-68804304D01*
X110249350Y-68853239D01*
X110348690Y-68883374D01*
X110452000Y-68893549D01*
X110491056Y-68893549D01*
X110438903Y-69071298D01*
X111252000Y-69884395D01*
X111266143Y-69870253D01*
X111445748Y-70049858D01*
X111431605Y-70064000D01*
X112244702Y-70877097D01*
X112488671Y-70805514D01*
X112609571Y-70550004D01*
X112678300Y-70275816D01*
X112692217Y-69993488D01*
X112650787Y-69713870D01*
X112555603Y-69447708D01*
X112488671Y-69322486D01*
X112244704Y-69250903D01*
X112360977Y-69134630D01*
X112317347Y-69091000D01*
X114175497Y-69091000D01*
X116837000Y-71752504D01*
X116837000Y-72519496D01*
X113781294Y-75575203D01*
X113723024Y-75623024D01*
X113532203Y-75855541D01*
X113390410Y-76120816D01*
X113303095Y-76408657D01*
X113281000Y-76632990D01*
X113281000Y-76632999D01*
X113273613Y-76708000D01*
X113281000Y-76783001D01*
X113281001Y-88824980D01*
X113281000Y-88824990D01*
X113281001Y-99134602D01*
X112342604Y-100073000D01*
X97103000Y-100073000D01*
X97027999Y-100065613D01*
X96952998Y-100073000D01*
X96952989Y-100073000D01*
X96728656Y-100095095D01*
X96440815Y-100182410D01*
X96175540Y-100324203D01*
X95943024Y-100515024D01*
X95895207Y-100573289D01*
X95367897Y-101100599D01*
X95106638Y-101126331D01*
X94724547Y-101242237D01*
X94372410Y-101430458D01*
X94141101Y-101620288D01*
X93140390Y-102621000D01*
X77657396Y-102621000D01*
X76973000Y-101936604D01*
X76973000Y-97707396D01*
X81970525Y-92709872D01*
X82009712Y-92677712D01*
X82138051Y-92521331D01*
X82233415Y-92342917D01*
X82292140Y-92149327D01*
X82307000Y-91998451D01*
X82307000Y-91998442D01*
X82311968Y-91948001D01*
X82307000Y-91897560D01*
X82307000Y-85653400D01*
X89491783Y-85653400D01*
X89533213Y-85933018D01*
X89628397Y-86199180D01*
X89695329Y-86324402D01*
X89939298Y-86395985D01*
X90752395Y-85582888D01*
X91111605Y-85582888D01*
X91924702Y-86395985D01*
X92168671Y-86324402D01*
X92289571Y-86068892D01*
X92358151Y-85795298D01*
X95706903Y-85795298D01*
X96520000Y-86608395D01*
X97333097Y-85795298D01*
X97261514Y-85551329D01*
X97006004Y-85430429D01*
X96731816Y-85361700D01*
X96449488Y-85347783D01*
X96169870Y-85389213D01*
X95903708Y-85484397D01*
X95778486Y-85551329D01*
X95706903Y-85795298D01*
X92358151Y-85795298D01*
X92358300Y-85794704D01*
X92372217Y-85512376D01*
X92330787Y-85232758D01*
X92235603Y-84966596D01*
X92168671Y-84841374D01*
X91924702Y-84769791D01*
X91111605Y-85582888D01*
X90752395Y-85582888D01*
X89939298Y-84769791D01*
X89695329Y-84841374D01*
X89574429Y-85096884D01*
X89505700Y-85371072D01*
X89491783Y-85653400D01*
X82307000Y-85653400D01*
X82307000Y-85261396D01*
X83546897Y-84021500D01*
X84294143Y-84021500D01*
X84393692Y-84103198D01*
X84590096Y-84208178D01*
X84468017Y-84257334D01*
X84231661Y-84411899D01*
X84030000Y-84609605D01*
X83870785Y-84842854D01*
X83760133Y-85102682D01*
X83742596Y-85185461D01*
X83864585Y-85407500D01*
X85407500Y-85407500D01*
X85407500Y-85387500D01*
X85661500Y-85387500D01*
X85661500Y-85407500D01*
X87204415Y-85407500D01*
X87326404Y-85185461D01*
X87308867Y-85102682D01*
X87198215Y-84842854D01*
X87039000Y-84609605D01*
X86837339Y-84411899D01*
X86600983Y-84257334D01*
X86478904Y-84208178D01*
X86662792Y-84109888D01*
X89655776Y-84109888D01*
X89691696Y-84177090D01*
X89757552Y-84257336D01*
X89837798Y-84323192D01*
X89929350Y-84372127D01*
X90028690Y-84402262D01*
X90132000Y-84412437D01*
X90171056Y-84412437D01*
X90118903Y-84590186D01*
X90932000Y-85403283D01*
X91745097Y-84590186D01*
X91692944Y-84412437D01*
X91732000Y-84412437D01*
X91835310Y-84402262D01*
X91934650Y-84372127D01*
X92026202Y-84323192D01*
X92106448Y-84257336D01*
X92172304Y-84177090D01*
X92208224Y-84109888D01*
X95174671Y-84109888D01*
X95225112Y-84114856D01*
X95275553Y-84109888D01*
X95275563Y-84109888D01*
X95426439Y-84095028D01*
X95620029Y-84036303D01*
X95798443Y-83940939D01*
X95954824Y-83812600D01*
X95986989Y-83773407D01*
X96645397Y-83115000D01*
X96650698Y-83115000D01*
X96907072Y-83064004D01*
X97148570Y-82963972D01*
X97365913Y-82818748D01*
X97550748Y-82633913D01*
X97695972Y-82416570D01*
X97796004Y-82175072D01*
X97847000Y-81918698D01*
X97847000Y-81657302D01*
X97796004Y-81400928D01*
X97695972Y-81159430D01*
X97550748Y-80942087D01*
X97365913Y-80757252D01*
X97148570Y-80612028D01*
X96907072Y-80511996D01*
X96650698Y-80461000D01*
X96389302Y-80461000D01*
X96132928Y-80511996D01*
X95891430Y-80612028D01*
X95674087Y-80757252D01*
X95489252Y-80942087D01*
X95344028Y-81159430D01*
X95243996Y-81400928D01*
X95193000Y-81657302D01*
X95193000Y-81662603D01*
X94799716Y-82055888D01*
X92208224Y-82055888D01*
X92172304Y-81988686D01*
X92106448Y-81908440D01*
X92026202Y-81842584D01*
X91934650Y-81793649D01*
X91835310Y-81763514D01*
X91732000Y-81753339D01*
X90132000Y-81753339D01*
X90028690Y-81763514D01*
X89929350Y-81793649D01*
X89837798Y-81842584D01*
X89757552Y-81908440D01*
X89691696Y-81988686D01*
X89655776Y-82055888D01*
X86880864Y-82055888D01*
X86877370Y-82051630D01*
X86675308Y-81885802D01*
X86478904Y-81780822D01*
X86600983Y-81731666D01*
X86837339Y-81577101D01*
X87039000Y-81379395D01*
X87198215Y-81146146D01*
X87308867Y-80886318D01*
X87326404Y-80803539D01*
X87204415Y-80581500D01*
X85661500Y-80581500D01*
X85661500Y-80601500D01*
X85407500Y-80601500D01*
X85407500Y-80581500D01*
X83864585Y-80581500D01*
X83742596Y-80803539D01*
X83760133Y-80886318D01*
X83870785Y-81146146D01*
X84030000Y-81379395D01*
X84231661Y-81577101D01*
X84468017Y-81731666D01*
X84590096Y-81780822D01*
X84393692Y-81885802D01*
X84294143Y-81967500D01*
X83171940Y-81967500D01*
X83121499Y-81962532D01*
X83071058Y-81967500D01*
X83071049Y-81967500D01*
X82920173Y-81982360D01*
X82726583Y-82041085D01*
X82548169Y-82136449D01*
X82391788Y-82264788D01*
X82359628Y-82303975D01*
X80589481Y-84074123D01*
X80550288Y-84106288D01*
X80421949Y-84262669D01*
X80326585Y-84441084D01*
X80267860Y-84634674D01*
X80253000Y-84785550D01*
X80253000Y-84785559D01*
X80248032Y-84836000D01*
X80253000Y-84886441D01*
X80253001Y-91522602D01*
X75255481Y-96520123D01*
X75216288Y-96552288D01*
X75087949Y-96708669D01*
X74992585Y-96887084D01*
X74933860Y-97080674D01*
X74919000Y-97231550D01*
X74919000Y-97231559D01*
X74914032Y-97282000D01*
X74919000Y-97332441D01*
X74919001Y-101295540D01*
X74919000Y-101295550D01*
X74919000Y-101936603D01*
X74234603Y-102621000D01*
X56520504Y-102621000D01*
X50295000Y-96395497D01*
X50295000Y-96344367D01*
X50372815Y-96439185D01*
X50469506Y-96518537D01*
X50579820Y-96577502D01*
X50699518Y-96613812D01*
X50824000Y-96626072D01*
X52038250Y-96623000D01*
X52197000Y-96464250D01*
X52197000Y-94615000D01*
X52451000Y-94615000D01*
X52451000Y-96464250D01*
X52609750Y-96623000D01*
X53824000Y-96626072D01*
X53948482Y-96613812D01*
X54068180Y-96577502D01*
X54178494Y-96518537D01*
X54275185Y-96439185D01*
X54354537Y-96342494D01*
X54413502Y-96232180D01*
X54449812Y-96112482D01*
X54462072Y-95988000D01*
X54459000Y-94773750D01*
X54300250Y-94615000D01*
X52451000Y-94615000D01*
X52197000Y-94615000D01*
X52177000Y-94615000D01*
X52177000Y-94361000D01*
X52197000Y-94361000D01*
X52197000Y-92511750D01*
X52038250Y-92353000D01*
X50824000Y-92349928D01*
X50699518Y-92362188D01*
X50579820Y-92398498D01*
X50469506Y-92457463D01*
X50372815Y-92536815D01*
X50295000Y-92631633D01*
X50295000Y-89208358D01*
X50297000Y-89208358D01*
X50297000Y-89607642D01*
X50374896Y-89999254D01*
X50527696Y-90368145D01*
X50749526Y-90700137D01*
X51031863Y-90982474D01*
X51363855Y-91204304D01*
X51732746Y-91357104D01*
X52124358Y-91435000D01*
X52523642Y-91435000D01*
X52915254Y-91357104D01*
X52948399Y-91343375D01*
X53975369Y-92370344D01*
X53948482Y-92362188D01*
X53824000Y-92349928D01*
X52609750Y-92353000D01*
X52451000Y-92511750D01*
X52451000Y-94361000D01*
X54300250Y-94361000D01*
X54459000Y-94202250D01*
X54462072Y-92988000D01*
X54449812Y-92863518D01*
X54441656Y-92836632D01*
X57732316Y-96127292D01*
X57761341Y-96162659D01*
X57796708Y-96191684D01*
X57796712Y-96191688D01*
X57902494Y-96278501D01*
X58022216Y-96342494D01*
X58063536Y-96364580D01*
X58238276Y-96417587D01*
X58374462Y-96431000D01*
X58374473Y-96431000D01*
X58420000Y-96435484D01*
X58465527Y-96431000D01*
X60010339Y-96431000D01*
X60114087Y-96534748D01*
X60331430Y-96679972D01*
X60572928Y-96780004D01*
X60829302Y-96831000D01*
X61090698Y-96831000D01*
X61347072Y-96780004D01*
X61588570Y-96679972D01*
X61805913Y-96534748D01*
X61990748Y-96349913D01*
X62135972Y-96132570D01*
X62236004Y-95891072D01*
X62287000Y-95634698D01*
X62287000Y-95373302D01*
X62236004Y-95116928D01*
X62135972Y-94875430D01*
X61990748Y-94658087D01*
X61805913Y-94473252D01*
X61588570Y-94328028D01*
X61347072Y-94227996D01*
X61090698Y-94177000D01*
X60829302Y-94177000D01*
X60572928Y-94227996D01*
X60331430Y-94328028D01*
X60114087Y-94473252D01*
X60010339Y-94577000D01*
X58803976Y-94577000D01*
X54259375Y-90032399D01*
X54273104Y-89999254D01*
X54351000Y-89607642D01*
X54351000Y-89208358D01*
X54273104Y-88816746D01*
X54120304Y-88447855D01*
X53898474Y-88115863D01*
X53616137Y-87833526D01*
X53284145Y-87611696D01*
X52915254Y-87458896D01*
X52523642Y-87381000D01*
X52124358Y-87381000D01*
X51732746Y-87458896D01*
X51363855Y-87611696D01*
X51031863Y-87833526D01*
X50749526Y-88115863D01*
X50527696Y-88447855D01*
X50374896Y-88816746D01*
X50297000Y-89208358D01*
X50295000Y-89208358D01*
X50295000Y-81452074D01*
X50304626Y-81549810D01*
X50334761Y-81649150D01*
X50383696Y-81740702D01*
X50449552Y-81820948D01*
X50529798Y-81886804D01*
X50621350Y-81935739D01*
X50720690Y-81965874D01*
X50824000Y-81976049D01*
X52901152Y-81976049D01*
X53498877Y-82573774D01*
X53531038Y-82612962D01*
X53570231Y-82645127D01*
X54006873Y-83081769D01*
X54039038Y-83120962D01*
X54078231Y-83153127D01*
X55361001Y-84435898D01*
X55361000Y-89865559D01*
X55356032Y-89916000D01*
X55361000Y-89966441D01*
X55361000Y-89966450D01*
X55375860Y-90117326D01*
X55434585Y-90310916D01*
X55529949Y-90489331D01*
X55658288Y-90645712D01*
X55697481Y-90677877D01*
X58674128Y-93654525D01*
X58706288Y-93693712D01*
X58862669Y-93822051D01*
X59041083Y-93917415D01*
X59234673Y-93976140D01*
X59385549Y-93991000D01*
X59385559Y-93991000D01*
X59436000Y-93995968D01*
X59486441Y-93991000D01*
X62433559Y-93991000D01*
X62484000Y-93995968D01*
X62534441Y-93991000D01*
X62534451Y-93991000D01*
X62685327Y-93976140D01*
X62878917Y-93917415D01*
X63057331Y-93822051D01*
X63213712Y-93693712D01*
X63245877Y-93654519D01*
X64698524Y-92201872D01*
X64737712Y-92169712D01*
X64866051Y-92013331D01*
X64961415Y-91834917D01*
X65020140Y-91641327D01*
X65035000Y-91490451D01*
X65035000Y-91490442D01*
X65039968Y-91440001D01*
X65035000Y-91389560D01*
X65035000Y-90293302D01*
X67253000Y-90293302D01*
X67253000Y-90554698D01*
X67303996Y-90811072D01*
X67404028Y-91052570D01*
X67549252Y-91269913D01*
X67653000Y-91373661D01*
X67653000Y-91394472D01*
X67648516Y-91440000D01*
X67653000Y-91485527D01*
X67653000Y-91485537D01*
X67653001Y-91485547D01*
X67653000Y-94554339D01*
X67549252Y-94658087D01*
X67404028Y-94875430D01*
X67303996Y-95116928D01*
X67253000Y-95373302D01*
X67253000Y-95634698D01*
X67303996Y-95891072D01*
X67404028Y-96132570D01*
X67549252Y-96349913D01*
X67734087Y-96534748D01*
X67951430Y-96679972D01*
X68192928Y-96780004D01*
X68449302Y-96831000D01*
X68710698Y-96831000D01*
X68967072Y-96780004D01*
X69208570Y-96679972D01*
X69425913Y-96534748D01*
X69610748Y-96349913D01*
X69755972Y-96132570D01*
X69856004Y-95891072D01*
X69907000Y-95634698D01*
X69907000Y-95373302D01*
X69856004Y-95116928D01*
X69755972Y-94875430D01*
X69610748Y-94658087D01*
X69507000Y-94554339D01*
X69507000Y-91823975D01*
X69979976Y-91351000D01*
X72170473Y-91351000D01*
X72216000Y-91355484D01*
X72261527Y-91351000D01*
X72261538Y-91351000D01*
X72397724Y-91337587D01*
X72472540Y-91314892D01*
X72513302Y-91323000D01*
X72774698Y-91323000D01*
X73031072Y-91272004D01*
X73272570Y-91171972D01*
X73489913Y-91026748D01*
X73674748Y-90841913D01*
X73819972Y-90624570D01*
X73920004Y-90383072D01*
X73971000Y-90126698D01*
X73971000Y-89979975D01*
X74949476Y-89001500D01*
X76558606Y-89001500D01*
X76571630Y-89017370D01*
X76773692Y-89183198D01*
X77004222Y-89306419D01*
X77129757Y-89344500D01*
X77004222Y-89382581D01*
X76773692Y-89505802D01*
X76571630Y-89671630D01*
X76405802Y-89873692D01*
X76282581Y-90104222D01*
X76206701Y-90354363D01*
X76181080Y-90614500D01*
X76206701Y-90874637D01*
X76238514Y-90979510D01*
X73347758Y-93870267D01*
X73272570Y-93820028D01*
X73031072Y-93719996D01*
X72774698Y-93669000D01*
X72513302Y-93669000D01*
X72256928Y-93719996D01*
X72015430Y-93820028D01*
X71798087Y-93965252D01*
X71613252Y-94150087D01*
X71468028Y-94367430D01*
X71367996Y-94608928D01*
X71317000Y-94865302D01*
X71317000Y-95069747D01*
X71275420Y-95147537D01*
X71244300Y-95250128D01*
X71222414Y-95322276D01*
X71217024Y-95377000D01*
X71204516Y-95504000D01*
X71209001Y-95549537D01*
X71209000Y-97602339D01*
X71105252Y-97706087D01*
X70960028Y-97923430D01*
X70859996Y-98164928D01*
X70809000Y-98421302D01*
X70809000Y-98682698D01*
X70859996Y-98939072D01*
X70960028Y-99180570D01*
X71105252Y-99397913D01*
X71290087Y-99582748D01*
X71507430Y-99727972D01*
X71748928Y-99828004D01*
X72005302Y-99879000D01*
X72266698Y-99879000D01*
X72523072Y-99828004D01*
X72764570Y-99727972D01*
X72981913Y-99582748D01*
X73166748Y-99397913D01*
X73311972Y-99180570D01*
X73412004Y-98939072D01*
X73463000Y-98682698D01*
X73463000Y-98421302D01*
X73412004Y-98164928D01*
X73311972Y-97923430D01*
X73166748Y-97706087D01*
X73063000Y-97602339D01*
X73063000Y-96258779D01*
X73272570Y-96171972D01*
X73489913Y-96026748D01*
X73595313Y-95921348D01*
X73714724Y-95909587D01*
X73889464Y-95856580D01*
X74050505Y-95770501D01*
X74191659Y-95654659D01*
X74220688Y-95619287D01*
X77898476Y-91941500D01*
X78379684Y-91941500D01*
X78574637Y-91922299D01*
X78824778Y-91846419D01*
X79055308Y-91723198D01*
X79257370Y-91557370D01*
X79423198Y-91355308D01*
X79546419Y-91124778D01*
X79622299Y-90874637D01*
X79647920Y-90614500D01*
X79622299Y-90354363D01*
X79546419Y-90104222D01*
X79423198Y-89873692D01*
X79257370Y-89671630D01*
X79055308Y-89505802D01*
X78824778Y-89382581D01*
X78699243Y-89344500D01*
X78824778Y-89306419D01*
X79055308Y-89183198D01*
X79257370Y-89017370D01*
X79423198Y-88815308D01*
X79546419Y-88584778D01*
X79622299Y-88334637D01*
X79647920Y-88074500D01*
X79622299Y-87814363D01*
X79546419Y-87564222D01*
X79423198Y-87333692D01*
X79257370Y-87131630D01*
X79055308Y-86965802D01*
X78858904Y-86860822D01*
X78980983Y-86811666D01*
X79217339Y-86657101D01*
X79419000Y-86459395D01*
X79578215Y-86226146D01*
X79688867Y-85966318D01*
X79706404Y-85883539D01*
X79584415Y-85661500D01*
X78041500Y-85661500D01*
X78041500Y-85681500D01*
X77787500Y-85681500D01*
X77787500Y-85661500D01*
X76244585Y-85661500D01*
X76122596Y-85883539D01*
X76140133Y-85966318D01*
X76250785Y-86226146D01*
X76410000Y-86459395D01*
X76611661Y-86657101D01*
X76848017Y-86811666D01*
X76970096Y-86860822D01*
X76773692Y-86965802D01*
X76571630Y-87131630D01*
X76558606Y-87147500D01*
X74611024Y-87147500D01*
X74565499Y-87143016D01*
X74519974Y-87147500D01*
X74519962Y-87147500D01*
X74383776Y-87160913D01*
X74209036Y-87213920D01*
X74134073Y-87253989D01*
X74047994Y-87299999D01*
X73942211Y-87386813D01*
X73942208Y-87386816D01*
X73906841Y-87415841D01*
X73877816Y-87451208D01*
X72660025Y-88669000D01*
X72513302Y-88669000D01*
X72256928Y-88719996D01*
X72015430Y-88820028D01*
X71798087Y-88965252D01*
X71613252Y-89150087D01*
X71468028Y-89367430D01*
X71414358Y-89497000D01*
X69641527Y-89497000D01*
X69596000Y-89492516D01*
X69550473Y-89497000D01*
X69529661Y-89497000D01*
X69425913Y-89393252D01*
X69208570Y-89248028D01*
X68967072Y-89147996D01*
X68710698Y-89097000D01*
X68449302Y-89097000D01*
X68192928Y-89147996D01*
X67951430Y-89248028D01*
X67734087Y-89393252D01*
X67549252Y-89578087D01*
X67404028Y-89795430D01*
X67303996Y-90036928D01*
X67253000Y-90293302D01*
X65035000Y-90293302D01*
X65035000Y-87780702D01*
X66242903Y-87780702D01*
X66314486Y-88024671D01*
X66569996Y-88145571D01*
X66844184Y-88214300D01*
X67126512Y-88228217D01*
X67406130Y-88186787D01*
X67672292Y-88091603D01*
X67797514Y-88024671D01*
X67869097Y-87780702D01*
X67056000Y-86967605D01*
X66242903Y-87780702D01*
X65035000Y-87780702D01*
X65035000Y-86858512D01*
X65615783Y-86858512D01*
X65657213Y-87138130D01*
X65752397Y-87404292D01*
X65819329Y-87529514D01*
X66063298Y-87601097D01*
X66876395Y-86788000D01*
X67235605Y-86788000D01*
X68048702Y-87601097D01*
X68292671Y-87529514D01*
X68413571Y-87274004D01*
X68482300Y-86999816D01*
X68496217Y-86717488D01*
X68475193Y-86575590D01*
X71830903Y-86575590D01*
X71902486Y-86819559D01*
X72157996Y-86940459D01*
X72432184Y-87009188D01*
X72714512Y-87023105D01*
X72994130Y-86981675D01*
X73260292Y-86886491D01*
X73385514Y-86819559D01*
X73457097Y-86575590D01*
X72644000Y-85762493D01*
X71830903Y-86575590D01*
X68475193Y-86575590D01*
X68454787Y-86437870D01*
X68359603Y-86171708D01*
X68292671Y-86046486D01*
X68048702Y-85974903D01*
X67235605Y-86788000D01*
X66876395Y-86788000D01*
X66063298Y-85974903D01*
X65819329Y-86046486D01*
X65698429Y-86301996D01*
X65629700Y-86576184D01*
X65615783Y-86858512D01*
X65035000Y-86858512D01*
X65035000Y-85795298D01*
X66242903Y-85795298D01*
X67056000Y-86608395D01*
X67869097Y-85795298D01*
X67827463Y-85653400D01*
X71203783Y-85653400D01*
X71245213Y-85933018D01*
X71340397Y-86199180D01*
X71407329Y-86324402D01*
X71651298Y-86395985D01*
X72464395Y-85582888D01*
X72823605Y-85582888D01*
X73636702Y-86395985D01*
X73880671Y-86324402D01*
X74001571Y-86068892D01*
X74070300Y-85794704D01*
X74084217Y-85512376D01*
X74042787Y-85232758D01*
X73947603Y-84966596D01*
X73880671Y-84841374D01*
X73636702Y-84769791D01*
X72823605Y-85582888D01*
X72464395Y-85582888D01*
X71651298Y-84769791D01*
X71407329Y-84841374D01*
X71286429Y-85096884D01*
X71217700Y-85371072D01*
X71203783Y-85653400D01*
X67827463Y-85653400D01*
X67797514Y-85551329D01*
X67542004Y-85430429D01*
X67267816Y-85361700D01*
X66985488Y-85347783D01*
X66705870Y-85389213D01*
X66439708Y-85484397D01*
X66314486Y-85551329D01*
X66242903Y-85795298D01*
X65035000Y-85795298D01*
X65035000Y-83737396D01*
X65957397Y-82815000D01*
X66206339Y-82815000D01*
X66210087Y-82818748D01*
X66427430Y-82963972D01*
X66668928Y-83064004D01*
X66925302Y-83115000D01*
X67186698Y-83115000D01*
X67443072Y-83064004D01*
X67684570Y-82963972D01*
X67901913Y-82818748D01*
X67905661Y-82815000D01*
X68154604Y-82815000D01*
X69113015Y-83773412D01*
X69145176Y-83812600D01*
X69301557Y-83940939D01*
X69479971Y-84036303D01*
X69673561Y-84095028D01*
X69824437Y-84109888D01*
X69824446Y-84109888D01*
X69874887Y-84114856D01*
X69925328Y-84109888D01*
X71367776Y-84109888D01*
X71403696Y-84177090D01*
X71469552Y-84257336D01*
X71549798Y-84323192D01*
X71641350Y-84372127D01*
X71740690Y-84402262D01*
X71844000Y-84412437D01*
X71883056Y-84412437D01*
X71830903Y-84590186D01*
X72644000Y-85403283D01*
X73457097Y-84590186D01*
X73404944Y-84412437D01*
X73444000Y-84412437D01*
X73547310Y-84402262D01*
X73646650Y-84372127D01*
X73738202Y-84323192D01*
X73818448Y-84257336D01*
X73884304Y-84177090D01*
X73933239Y-84085538D01*
X73952665Y-84021500D01*
X76674143Y-84021500D01*
X76773692Y-84103198D01*
X76970096Y-84208178D01*
X76848017Y-84257334D01*
X76611661Y-84411899D01*
X76410000Y-84609605D01*
X76250785Y-84842854D01*
X76140133Y-85102682D01*
X76122596Y-85185461D01*
X76244585Y-85407500D01*
X77787500Y-85407500D01*
X77787500Y-85387500D01*
X78041500Y-85387500D01*
X78041500Y-85407500D01*
X79584415Y-85407500D01*
X79706404Y-85185461D01*
X79688867Y-85102682D01*
X79578215Y-84842854D01*
X79419000Y-84609605D01*
X79217339Y-84411899D01*
X78980983Y-84257334D01*
X78858904Y-84208178D01*
X79055308Y-84103198D01*
X79257370Y-83937370D01*
X79423198Y-83735308D01*
X79546419Y-83504778D01*
X79622299Y-83254637D01*
X79647920Y-82994500D01*
X79622299Y-82734363D01*
X79546419Y-82484222D01*
X79423198Y-82253692D01*
X79257370Y-82051630D01*
X79055308Y-81885802D01*
X78858904Y-81780822D01*
X78980983Y-81731666D01*
X79217339Y-81577101D01*
X79419000Y-81379395D01*
X79578215Y-81146146D01*
X79688867Y-80886318D01*
X79706404Y-80803539D01*
X79584415Y-80581500D01*
X78041500Y-80581500D01*
X78041500Y-80601500D01*
X77787500Y-80601500D01*
X77787500Y-80581500D01*
X76244585Y-80581500D01*
X76122596Y-80803539D01*
X76140133Y-80886318D01*
X76250785Y-81146146D01*
X76410000Y-81379395D01*
X76611661Y-81577101D01*
X76848017Y-81731666D01*
X76970096Y-81780822D01*
X76773692Y-81885802D01*
X76674143Y-81967500D01*
X73866917Y-81967500D01*
X73818448Y-81908440D01*
X73738202Y-81842584D01*
X73646650Y-81793649D01*
X73547310Y-81763514D01*
X73444000Y-81753339D01*
X71844000Y-81753339D01*
X71740690Y-81763514D01*
X71641350Y-81793649D01*
X71549798Y-81842584D01*
X71469552Y-81908440D01*
X71403696Y-81988686D01*
X71367776Y-82055888D01*
X70300285Y-82055888D01*
X69341877Y-81097481D01*
X69309712Y-81058288D01*
X69153331Y-80929949D01*
X68974917Y-80834585D01*
X68781327Y-80775860D01*
X68630451Y-80761000D01*
X68630441Y-80761000D01*
X68580000Y-80756032D01*
X68529559Y-80761000D01*
X67905661Y-80761000D01*
X67901913Y-80757252D01*
X67684570Y-80612028D01*
X67443072Y-80511996D01*
X67186698Y-80461000D01*
X66925302Y-80461000D01*
X66668928Y-80511996D01*
X66427430Y-80612028D01*
X66210087Y-80757252D01*
X66206339Y-80761000D01*
X65582440Y-80761000D01*
X65531999Y-80756032D01*
X65481558Y-80761000D01*
X65481549Y-80761000D01*
X65330673Y-80775860D01*
X65137083Y-80834585D01*
X64958669Y-80929949D01*
X64802288Y-81058288D01*
X64770128Y-81097476D01*
X63317476Y-82550128D01*
X63278289Y-82582288D01*
X63246129Y-82621475D01*
X63246128Y-82621476D01*
X63149950Y-82738669D01*
X63054586Y-82917083D01*
X62995861Y-83110673D01*
X62976032Y-83312000D01*
X62981001Y-83362451D01*
X62981000Y-91014603D01*
X62058604Y-91937000D01*
X59861397Y-91937000D01*
X57415000Y-89490604D01*
X57415000Y-84060940D01*
X57419968Y-84010499D01*
X57415000Y-83960058D01*
X57415000Y-83960049D01*
X57400140Y-83809173D01*
X57341415Y-83615583D01*
X57246051Y-83437169D01*
X57117712Y-83280788D01*
X57078524Y-83248628D01*
X55795750Y-81965854D01*
X55795750Y-80986058D01*
X55806297Y-80973206D01*
X58430712Y-78348792D01*
X58488976Y-78300976D01*
X58679797Y-78068460D01*
X58821590Y-77803185D01*
X58908905Y-77515344D01*
X58931000Y-77291011D01*
X58931000Y-77291002D01*
X58938387Y-77216001D01*
X58931000Y-77141000D01*
X58931000Y-70427610D01*
X70435610Y-58923000D01*
X103223571Y-58923000D01*
X103521361Y-58893670D01*
X103634848Y-58859244D01*
X106846053Y-62070451D01*
%TD*%
M02*
