M48
METRIC
T1C0.800
T2C1.100
T3C1.520
%
G90
G05
T1
X96.52Y-81.788
X96.52Y-86.788
X72.644Y-83.083
X72.644Y-85.583
X110.744Y-98.044
X73.152Y-67.644
X73.152Y-72.644
X67.056Y-81.788
X67.056Y-86.788
X123.444Y-93.044
X123.444Y-98.044
X77.914Y-75.374
X77.914Y-77.914
X77.914Y-80.454
X77.914Y-82.995
X77.914Y-85.534
X77.914Y-88.075
X77.914Y-90.614
X85.534Y-75.374
X85.534Y-77.914
X85.534Y-80.454
X85.534Y-82.995
X85.534Y-85.534
X85.534Y-88.075
X85.534Y-90.614
X138.176Y-67.564
X150.876Y-67.564
X60.96Y-77.724
X68.58Y-77.724
X111.252Y-67.564
X111.252Y-70.064
X125.476Y-82.296
X138.176Y-82.296
X132.08Y-56.896
X134.58Y-56.896
X93.408Y-95.504
X101.028Y-95.504
X93.472Y-78.232
X101.092Y-78.232
X132.08Y-67.564
X134.58Y-67.564
X148.082Y-97.195
X148.082Y-99.695
X90.932Y-83.083
X90.932Y-85.583
X89.916Y-63.58
X89.916Y-68.58
X110.744Y-105.156
X72.644Y-89.996
X72.644Y-94.996
X119.38Y-93.044
X119.38Y-98.044
X77.724Y-63.5
X85.344Y-63.5
X102.108Y-83.82
X107.108Y-83.82
X132.08Y-62.484
X139.7Y-62.484
X60.96Y-95.504
X68.58Y-95.504
X138.176Y-56.896
X145.796Y-56.896
X60.96Y-90.424
X68.58Y-90.424
X143.256Y-92.075
X143.256Y-99.695
X139.065Y-77.343
X146.685Y-77.343
X122.936Y-68.072
X125.436Y-68.072
X131.445Y-92.456
X139.065Y-92.456
X139.065Y-72.771
X146.685Y-72.771
X138.256Y-86.233
X143.256Y-86.233
X77.724Y-67.564
X85.344Y-67.564
X72.136Y-98.552
X79.756Y-98.552
X93.472Y-90.424
X101.092Y-90.424
T2
X118.364Y-73.152
X128.524Y-73.152
X133.096Y-98.002
X133.096Y-108.162
X119.888Y-101.6
X121.588Y-105.3
X123.288Y-101.6
X124.988Y-105.3
X126.688Y-101.6
X118.364Y-77.724
X128.524Y-77.724
X137.16Y-98.044
X137.16Y-108.204
X107.696Y-63.5
X109.396Y-59.8
X111.096Y-63.5
X112.796Y-59.8
X114.496Y-63.5
T3
X52.324Y-69.787
X52.324Y-74.867
X52.324Y-79.947
X155.956Y-77.216
X155.956Y-82.296
X52.324Y-89.408
X52.324Y-94.488
T0
M30
