%TF.GenerationSoftware,KiCad,Pcbnew,5.1.6*%
%TF.CreationDate,2020-07-02T10:29:59-03:00*%
%TF.ProjectId,audioamp,61756469-6f61-46d7-902e-6b696361645f,2*%
%TF.SameCoordinates,Original*%
%TF.FileFunction,Copper,L2,Bot*%
%TF.FilePolarity,Positive*%
%FSLAX46Y46*%
G04 Gerber Fmt 4.6, Leading zero omitted, Abs format (unit mm)*
G04 Created by KiCad (PCBNEW 5.1.6) date 2020-07-02 10:29:59*
%MOMM*%
%LPD*%
G01*
G04 APERTURE LIST*
%TA.AperFunction,ComponentPad*%
%ADD10R,2.400000X1.800000*%
%TD*%
%TA.AperFunction,ComponentPad*%
%ADD11O,2.400000X1.800000*%
%TD*%
%TA.AperFunction,ComponentPad*%
%ADD12O,2.400000X1.600000*%
%TD*%
%TA.AperFunction,ComponentPad*%
%ADD13R,3.000000X3.000000*%
%TD*%
%TA.AperFunction,ComponentPad*%
%ADD14C,3.000000*%
%TD*%
%TA.AperFunction,ComponentPad*%
%ADD15O,1.600000X2.400000*%
%TD*%
%TA.AperFunction,ComponentPad*%
%ADD16R,2.000000X2.000000*%
%TD*%
%TA.AperFunction,ComponentPad*%
%ADD17R,2.400000X1.600000*%
%TD*%
%TA.AperFunction,ComponentPad*%
%ADD18R,1.600000X2.400000*%
%TD*%
%TA.AperFunction,ComponentPad*%
%ADD19R,2.200000X2.200000*%
%TD*%
%TA.AperFunction,ComponentPad*%
%ADD20O,2.200000X2.200000*%
%TD*%
%TA.AperFunction,Conductor*%
%ADD21C,0.800000*%
%TD*%
%TA.AperFunction,Conductor*%
%ADD22C,1.000000*%
%TD*%
%TA.AperFunction,Conductor*%
%ADD23C,2.000000*%
%TD*%
%TA.AperFunction,Conductor*%
%ADD24C,3.000000*%
%TD*%
%TA.AperFunction,Conductor*%
%ADD25C,0.254000*%
%TD*%
G04 APERTURE END LIST*
D10*
%TO.P,U1,1*%
%TO.N,/T1+*%
X107696000Y-63500000D03*
D11*
%TO.P,U1,2*%
%TO.N,/T2+*%
X109396000Y-59800000D03*
%TO.P,U1,3*%
%TO.N,-VDC*%
X111096000Y-63500000D03*
%TO.P,U1,4*%
%TO.N,/OUT+*%
X112796000Y-59800000D03*
%TO.P,U1,5*%
%TO.N,+VDC*%
X114496000Y-63500000D03*
%TD*%
D12*
%TO.P,R1,2*%
%TO.N,GND*%
X93408500Y-95504000D03*
%TO.P,R1,1*%
%TO.N,/T1+*%
X101028500Y-95504000D03*
%TD*%
D13*
%TO.P,LS1,1*%
%TO.N,/OUT+*%
X155956000Y-77216000D03*
D14*
%TO.P,LS1,2*%
%TO.N,/OUT-*%
X155956000Y-82296000D03*
%TD*%
D15*
%TO.P,R6,2*%
%TO.N,/T2-*%
X143256000Y-99695000D03*
%TO.P,R6,1*%
%TO.N,/OUT-*%
X143256000Y-92075000D03*
%TD*%
D13*
%TO.P,J1,1*%
%TO.N,+VDC*%
X52324000Y-79946500D03*
D14*
%TO.P,J1,2*%
%TO.N,GND*%
X52324000Y-74866500D03*
%TO.P,J1,3*%
%TO.N,-VDC*%
X52324000Y-69786500D03*
%TD*%
D16*
%TO.P,JPR1,1*%
%TO.N,GND*%
X110744000Y-98044000D03*
%TD*%
%TO.P,JPR1,1*%
%TO.N,GND*%
X110744000Y-105156000D03*
%TD*%
D17*
%TO.P,C3,1*%
%TO.N,-VDC*%
X111252000Y-67564000D03*
D12*
%TO.P,C3,2*%
%TO.N,GND*%
X111252000Y-70064000D03*
%TD*%
%TO.P,R5,2*%
%TO.N,GND*%
X125476000Y-82296000D03*
%TO.P,R5,1*%
%TO.N,Net-(C7-Pad2)*%
X138176000Y-82296000D03*
%TD*%
D18*
%TO.P,C6,1*%
%TO.N,+VDC*%
X122936000Y-68072000D03*
D15*
%TO.P,C6,2*%
%TO.N,GND*%
X125436000Y-68072000D03*
%TD*%
D19*
%TO.P,D2,1*%
%TO.N,/OUT+*%
X128524000Y-73152000D03*
D20*
%TO.P,D2,2*%
%TO.N,-VDC*%
X118364000Y-73152000D03*
%TD*%
D15*
%TO.P,C1,2*%
%TO.N,/T1+*%
X107108000Y-83820000D03*
D18*
%TO.P,C1,1*%
%TO.N,/+SIG_F*%
X102108000Y-83820000D03*
%TD*%
D12*
%TO.P,R4,2*%
%TO.N,GND*%
X150876000Y-67564000D03*
%TO.P,R4,1*%
%TO.N,Net-(C5-Pad2)*%
X138176000Y-67564000D03*
%TD*%
%TO.P,R13,2*%
%TO.N,Net-(C10-Pad2)*%
X77724000Y-67564000D03*
%TO.P,R13,1*%
%TO.N,Net-(R13-Pad1)*%
X85344000Y-67564000D03*
%TD*%
%TO.P,R12,1*%
%TO.N,Net-(C11-Pad2)*%
X68580000Y-95504000D03*
%TO.P,R12,2*%
%TO.N,/+SIG*%
X60960000Y-95504000D03*
%TD*%
%TO.P,R14,1*%
%TO.N,Net-(R14-Pad1)*%
X79756000Y-98552000D03*
%TO.P,R14,2*%
%TO.N,Net-(C11-Pad1)*%
X72136000Y-98552000D03*
%TD*%
D15*
%TO.P,C16,2*%
%TO.N,GND*%
X96520000Y-86280000D03*
%TO.P,C16,1*%
%TO.N,-VDC*%
X96520000Y-81280000D03*
%TD*%
D12*
%TO.P,C15,2*%
%TO.N,GND*%
X90932000Y-85582888D03*
D17*
%TO.P,C15,1*%
%TO.N,-VDC*%
X90932000Y-83082888D03*
%TD*%
D12*
%TO.P,C14,2*%
%TO.N,GND*%
X72644000Y-85582888D03*
D17*
%TO.P,C14,1*%
%TO.N,+VDC*%
X72644000Y-83082888D03*
%TD*%
D15*
%TO.P,C13,2*%
%TO.N,GND*%
X67056000Y-86788000D03*
%TO.P,C13,1*%
%TO.N,+VDC*%
X67056000Y-81788000D03*
%TD*%
D18*
%TO.P,C2,1*%
%TO.N,/T2+*%
X132080000Y-56896000D03*
D15*
%TO.P,C2,2*%
%TO.N,Net-(C2-Pad2)*%
X134580000Y-56896000D03*
%TD*%
%TO.P,C4,1*%
%TO.N,+VDC*%
X119380000Y-98044000D03*
%TO.P,C4,2*%
%TO.N,GND*%
X119380000Y-93044000D03*
%TD*%
%TO.P,C5,2*%
%TO.N,Net-(C5-Pad2)*%
X134580000Y-67564000D03*
D18*
%TO.P,C5,1*%
%TO.N,/OUT+*%
X132080000Y-67564000D03*
%TD*%
D12*
%TO.P,C7,2*%
%TO.N,Net-(C7-Pad2)*%
X138256000Y-86233000D03*
%TO.P,C7,1*%
%TO.N,/OUT-*%
X143256000Y-86233000D03*
%TD*%
D15*
%TO.P,C8,1*%
%TO.N,-VDC*%
X123444000Y-98044000D03*
%TO.P,C8,2*%
%TO.N,GND*%
X123444000Y-93044000D03*
%TD*%
D12*
%TO.P,C9,2*%
%TO.N,Net-(C9-Pad2)*%
X148082000Y-97195000D03*
D17*
%TO.P,C9,1*%
%TO.N,/T2-*%
X148082000Y-99695000D03*
%TD*%
D15*
%TO.P,C10,1*%
%TO.N,/Filtro Passa-Baixas/Vo1*%
X73152000Y-72644000D03*
%TO.P,C10,2*%
%TO.N,Net-(C10-Pad2)*%
X73152000Y-67644000D03*
%TD*%
%TO.P,C11,2*%
%TO.N,Net-(C11-Pad2)*%
X72644000Y-89996000D03*
%TO.P,C11,1*%
%TO.N,Net-(C11-Pad1)*%
X72644000Y-94996000D03*
%TD*%
%TO.P,C12,1*%
%TO.N,/+SIG_F*%
X89916000Y-68580000D03*
%TO.P,C12,2*%
%TO.N,Net-(C12-Pad2)*%
X89916000Y-63580000D03*
%TD*%
D20*
%TO.P,D1,2*%
%TO.N,/OUT+*%
X128524000Y-77724000D03*
D19*
%TO.P,D1,1*%
%TO.N,+VDC*%
X118364000Y-77724000D03*
%TD*%
%TO.P,D3,1*%
%TO.N,/OUT-*%
X133096000Y-108162499D03*
D20*
%TO.P,D3,2*%
%TO.N,-VDC*%
X133096000Y-98002499D03*
%TD*%
%TO.P,D4,2*%
%TO.N,/OUT-*%
X137160000Y-108204000D03*
D19*
%TO.P,D4,1*%
%TO.N,+VDC*%
X137160000Y-98044000D03*
%TD*%
D13*
%TO.P,J2,1*%
%TO.N,GND*%
X52324000Y-94488000D03*
D14*
%TO.P,J2,2*%
%TO.N,/+SIG*%
X52324000Y-89408000D03*
%TD*%
D12*
%TO.P,R2,2*%
%TO.N,GND*%
X145796000Y-56896000D03*
%TO.P,R2,1*%
%TO.N,Net-(C2-Pad2)*%
X138176000Y-56896000D03*
%TD*%
%TO.P,R3,1*%
%TO.N,/OUT+*%
X139700000Y-62484000D03*
%TO.P,R3,2*%
%TO.N,/T2+*%
X132080000Y-62484000D03*
%TD*%
%TO.P,R7,2*%
%TO.N,/OUT+*%
X146685000Y-77343000D03*
%TO.P,R7,1*%
%TO.N,Net-(C9-Pad2)*%
X139065000Y-77343000D03*
%TD*%
%TO.P,R8,1*%
%TO.N,Net-(C9-Pad2)*%
X139065000Y-72771000D03*
%TO.P,R8,2*%
%TO.N,GND*%
X146685000Y-72771000D03*
%TD*%
%TO.P,R9,1*%
%TO.N,/T1-*%
X139065000Y-92456000D03*
%TO.P,R9,2*%
%TO.N,GND*%
X131445000Y-92456000D03*
%TD*%
%TO.P,R10,1*%
%TO.N,/Filtro Passa-Baixas/Vo1*%
X60960000Y-77724000D03*
%TO.P,R10,2*%
%TO.N,Net-(C10-Pad2)*%
X68580000Y-77724000D03*
%TD*%
%TO.P,R11,2*%
%TO.N,/Filtro Passa-Baixas/Vo1*%
X60960000Y-90424000D03*
%TO.P,R11,1*%
%TO.N,Net-(C11-Pad2)*%
X68580000Y-90424000D03*
%TD*%
%TO.P,R15,2*%
%TO.N,Net-(R14-Pad1)*%
X101092000Y-90424000D03*
%TO.P,R15,1*%
%TO.N,Net-(R13-Pad1)*%
X93472000Y-90424000D03*
%TD*%
%TO.P,R16,2*%
%TO.N,/Filtro Passa-Baixas/Vo1*%
X77724000Y-63500000D03*
%TO.P,R16,1*%
%TO.N,Net-(C12-Pad2)*%
X85344000Y-63500000D03*
%TD*%
%TO.P,R17,2*%
%TO.N,Net-(C12-Pad2)*%
X93472000Y-78232000D03*
%TO.P,R17,1*%
%TO.N,/+SIG_F*%
X101092000Y-78232000D03*
%TD*%
D11*
%TO.P,U2,5*%
%TO.N,+VDC*%
X119888000Y-101600000D03*
%TO.P,U2,4*%
%TO.N,/OUT-*%
X121588000Y-105300000D03*
%TO.P,U2,3*%
%TO.N,-VDC*%
X123288000Y-101600000D03*
%TO.P,U2,2*%
%TO.N,/T2-*%
X124988000Y-105300000D03*
D10*
%TO.P,U2,1*%
%TO.N,/T1-*%
X126688000Y-101600000D03*
%TD*%
D17*
%TO.P,U3,1*%
%TO.N,/Filtro Passa-Baixas/Vo1*%
X77914500Y-75374500D03*
D12*
%TO.P,U3,8*%
%TO.N,Net-(R13-Pad1)*%
X85534500Y-90614500D03*
%TO.P,U3,2*%
%TO.N,Net-(C10-Pad2)*%
X77914500Y-77914500D03*
%TO.P,U3,9*%
%TO.N,Net-(R14-Pad1)*%
X85534500Y-88074500D03*
%TO.P,U3,3*%
%TO.N,GND*%
X77914500Y-80454500D03*
%TO.P,U3,10*%
X85534500Y-85534500D03*
%TO.P,U3,4*%
%TO.N,+VDC*%
X77914500Y-82994500D03*
%TO.P,U3,11*%
%TO.N,-VDC*%
X85534500Y-82994500D03*
%TO.P,U3,5*%
%TO.N,GND*%
X77914500Y-85534500D03*
%TO.P,U3,12*%
X85534500Y-80454500D03*
%TO.P,U3,6*%
%TO.N,Net-(C11-Pad2)*%
X77914500Y-88074500D03*
%TO.P,U3,13*%
%TO.N,Net-(C12-Pad2)*%
X85534500Y-77914500D03*
%TO.P,U3,7*%
%TO.N,Net-(C11-Pad1)*%
X77914500Y-90614500D03*
%TO.P,U3,14*%
%TO.N,/+SIG_F*%
X85534500Y-75374500D03*
%TD*%
D21*
%TO.N,/+SIG_F*%
X89916000Y-70993000D02*
X85534500Y-75374500D01*
X102108000Y-83820000D02*
X101092000Y-82804000D01*
X101092000Y-82804000D02*
X101092000Y-78232000D01*
X89916000Y-69596000D02*
X90932000Y-68580000D01*
X90932000Y-68580000D02*
X89916000Y-68580000D01*
X89916000Y-68580000D02*
X89916000Y-69596000D01*
X89916000Y-69596000D02*
X89916000Y-70993000D01*
X92456000Y-68580000D02*
X90932000Y-68580000D01*
X101092000Y-77216000D02*
X92456000Y-68580000D01*
X101092000Y-78232000D02*
X101092000Y-77216000D01*
%TO.N,/T1+*%
X107108000Y-83820000D02*
X107108000Y-92028000D01*
X103505000Y-95631000D02*
X101028500Y-95631000D01*
X107108000Y-92028000D02*
X103505000Y-95631000D01*
X107108000Y-82376000D02*
X107108000Y-83820000D01*
X105664000Y-65532000D02*
X105664000Y-80932000D01*
X105664000Y-80932000D02*
X107108000Y-82376000D01*
X105664000Y-65532000D02*
X107696000Y-63500000D01*
%TO.N,Net-(C2-Pad2)*%
X138176000Y-56896000D02*
X134580000Y-56896000D01*
%TO.N,/T2+*%
X109396000Y-58752000D02*
X109396000Y-59800000D01*
X111252000Y-56896000D02*
X109396000Y-58752000D01*
X130937000Y-56896000D02*
X132080000Y-58039000D01*
X132080000Y-62484000D02*
X132080000Y-58039000D01*
X132080000Y-58039000D02*
X132080000Y-56896000D01*
X132080000Y-56896000D02*
X130937000Y-56896000D01*
X130937000Y-56896000D02*
X111252000Y-56896000D01*
D22*
%TO.N,-VDC*%
X85622888Y-83082888D02*
X85534500Y-82994500D01*
X90932000Y-83082888D02*
X85622888Y-83082888D01*
X95225112Y-83082888D02*
X96520000Y-81788000D01*
X90932000Y-83082888D02*
X95225112Y-83082888D01*
X123288000Y-98200000D02*
X123444000Y-98044000D01*
X123485501Y-98002499D02*
X123444000Y-98044000D01*
D23*
X114808000Y-101600000D02*
X112268000Y-101600000D01*
D22*
X123600000Y-98904000D02*
X124501501Y-98002499D01*
X123288000Y-98904000D02*
X123600000Y-98904000D01*
X124501501Y-98002499D02*
X123485501Y-98002499D01*
X133096000Y-98002499D02*
X124501501Y-98002499D01*
X123288000Y-101600000D02*
X123288000Y-98904000D01*
X123288000Y-98904000D02*
X123288000Y-98200000D01*
X116608001Y-103400001D02*
X114808000Y-101600000D01*
D23*
X118364000Y-73152000D02*
X118364000Y-72644000D01*
X114808000Y-99568000D02*
X114808000Y-101600000D01*
D22*
X114300000Y-99568000D02*
X112268000Y-101600000D01*
X114808000Y-99568000D02*
X114300000Y-99568000D01*
D23*
X114808000Y-76708000D02*
X114808000Y-88900000D01*
X114808000Y-88900000D02*
X114808000Y-99568000D01*
X118364000Y-73152000D02*
X114808000Y-76708000D01*
X118364000Y-72644000D02*
X118364000Y-71120000D01*
D22*
X111096000Y-67408000D02*
X111252000Y-67564000D01*
X112776000Y-67564000D02*
X112776000Y-67056000D01*
D23*
X114808000Y-67564000D02*
X112776000Y-67564000D01*
X118364000Y-71120000D02*
X114808000Y-67564000D01*
D22*
X121487999Y-103400001D02*
X116608001Y-103400001D01*
X123288000Y-101600000D02*
X121487999Y-103400001D01*
D23*
X97028000Y-101600000D02*
X95504000Y-103124000D01*
X112268000Y-101600000D02*
X97028000Y-101600000D01*
X51117500Y-69786500D02*
X48768000Y-72136000D01*
X48768000Y-72136000D02*
X48768000Y-97028000D01*
X48768000Y-97028000D02*
X56388000Y-104648000D01*
X52324000Y-69786500D02*
X51117500Y-69786500D01*
D24*
X93980000Y-104648000D02*
X95504000Y-103124000D01*
D22*
X75946000Y-104394000D02*
X75692000Y-104648000D01*
X81280000Y-91948000D02*
X75946000Y-97282000D01*
X81280000Y-84836000D02*
X81280000Y-91948000D01*
X85534500Y-82994500D02*
X83121500Y-82994500D01*
X83121500Y-82994500D02*
X81280000Y-84836000D01*
X75946000Y-102362000D02*
X78232000Y-104648000D01*
D24*
X78232000Y-104648000D02*
X93980000Y-104648000D01*
X75692000Y-104648000D02*
X78232000Y-104648000D01*
D22*
X75946000Y-101346000D02*
X75946000Y-104394000D01*
X75946000Y-97282000D02*
X75946000Y-101346000D01*
X75946000Y-102362000D02*
X73660000Y-104648000D01*
X75946000Y-101346000D02*
X75946000Y-102362000D01*
D24*
X73660000Y-104648000D02*
X75692000Y-104648000D01*
X56388000Y-104648000D02*
X73660000Y-104648000D01*
D22*
X111252000Y-63656000D02*
X111096000Y-63500000D01*
X111252000Y-67564000D02*
X111252000Y-63656000D01*
X112776000Y-67564000D02*
X111252000Y-67564000D01*
D23*
X114808000Y-67564000D02*
X111252000Y-67564000D01*
D22*
%TO.N,+VDC*%
X72732388Y-82994500D02*
X72644000Y-83082888D01*
X77914500Y-82994500D02*
X72732388Y-82994500D01*
X64008000Y-83312000D02*
X65532000Y-81788000D01*
X64008000Y-91440000D02*
X64008000Y-83312000D01*
X62484000Y-92964000D02*
X64008000Y-91440000D01*
X65532000Y-81788000D02*
X67056000Y-81788000D01*
D23*
X118364000Y-63500000D02*
X122936000Y-68072000D01*
X114496000Y-63500000D02*
X118364000Y-63500000D01*
D22*
X122936000Y-73152000D02*
X118364000Y-77724000D01*
X122936000Y-68072000D02*
X122936000Y-73152000D01*
X119888000Y-98552000D02*
X119380000Y-98044000D01*
X119888000Y-101600000D02*
X119888000Y-98552000D01*
X117348000Y-89408000D02*
X117348000Y-96012000D01*
X118364000Y-88392000D02*
X117348000Y-89408000D01*
D23*
X118364000Y-77724000D02*
X118364000Y-88392000D01*
D22*
X135636000Y-95504000D02*
X121920000Y-95504000D01*
X137160000Y-97028000D02*
X135636000Y-95504000D01*
X137160000Y-98044000D02*
X137160000Y-97028000D01*
X118618000Y-97282000D02*
X119380000Y-98044000D01*
X121920000Y-95504000D02*
X120142000Y-97282000D01*
X120142000Y-97282000D02*
X118618000Y-97282000D01*
X117348000Y-96012000D02*
X118618000Y-97282000D01*
X120142000Y-97282000D02*
X119380000Y-98044000D01*
X68580000Y-81788000D02*
X67056000Y-81788000D01*
X69874888Y-83082888D02*
X68580000Y-81788000D01*
X72644000Y-83082888D02*
X69874888Y-83082888D01*
X62484000Y-92964000D02*
X59436000Y-92964000D01*
X59436000Y-92964000D02*
X56388000Y-89916000D01*
X56388000Y-89916000D02*
X56388000Y-84010500D01*
D23*
X54673500Y-79946500D02*
X52324000Y-79946500D01*
X57404000Y-77216000D02*
X54673500Y-79946500D01*
D24*
X69596000Y-56896000D02*
X57404000Y-69088000D01*
D23*
X57404000Y-69088000D02*
X57404000Y-77216000D01*
D22*
X54260750Y-81883250D02*
X52324000Y-79946500D01*
X54768750Y-80041750D02*
X54673500Y-79946500D01*
X54768750Y-82391250D02*
X54768750Y-80041750D01*
X56388000Y-84010500D02*
X54768750Y-82391250D01*
X54768750Y-82391250D02*
X54260750Y-81883250D01*
X54260750Y-80359250D02*
X54673500Y-79946500D01*
X54260750Y-81883250D02*
X54260750Y-80359250D01*
X120142000Y-101346000D02*
X119888000Y-101600000D01*
X120142000Y-97282000D02*
X120142000Y-101346000D01*
D24*
X103124000Y-56896000D02*
X69596000Y-56896000D01*
D22*
X112695999Y-61699999D02*
X114496000Y-63500000D01*
X107927999Y-61699999D02*
X112695999Y-61699999D01*
X103124000Y-56896000D02*
X107927999Y-61699999D01*
D21*
%TO.N,/OUT+*%
X132080000Y-67564000D02*
X132080000Y-67056000D01*
X136652000Y-62484000D02*
X139700000Y-62484000D01*
X128524000Y-73152000D02*
X128524000Y-71120000D01*
X128524000Y-77724000D02*
X128524000Y-73152000D01*
D23*
X112796000Y-59800000D02*
X124316000Y-59800000D01*
D21*
X132588000Y-66548000D02*
X132842000Y-66294000D01*
X131064000Y-66548000D02*
X132588000Y-66548000D01*
X132080000Y-67056000D02*
X132842000Y-66294000D01*
D23*
X131064000Y-66548000D02*
X132080000Y-67564000D01*
D21*
X133096000Y-66040000D02*
X133350000Y-65786000D01*
X130556000Y-66040000D02*
X133096000Y-66040000D01*
X133350000Y-65786000D02*
X136652000Y-62484000D01*
X132842000Y-66294000D02*
X133350000Y-65786000D01*
D23*
X124316000Y-59800000D02*
X130556000Y-66040000D01*
X130556000Y-66040000D02*
X131064000Y-66548000D01*
D21*
X130556000Y-69088000D02*
X130302000Y-69342000D01*
X130556000Y-66040000D02*
X130556000Y-69088000D01*
X128524000Y-71120000D02*
X130302000Y-69342000D01*
X131064000Y-66548000D02*
X131064000Y-68580000D01*
X131064000Y-68580000D02*
X132080000Y-67564000D01*
X130302000Y-69342000D02*
X131064000Y-68580000D01*
D23*
X152908000Y-62484000D02*
X155956000Y-65532000D01*
X139700000Y-62484000D02*
X152908000Y-62484000D01*
D21*
X155829000Y-77343000D02*
X155956000Y-77216000D01*
D23*
X155956000Y-75438000D02*
X155956000Y-77216000D01*
X155956000Y-65532000D02*
X155956000Y-75438000D01*
D21*
X154051000Y-77343000D02*
X155829000Y-77343000D01*
X154051000Y-77343000D02*
X155956000Y-75438000D01*
X153289000Y-77343000D02*
X154051000Y-77343000D01*
X146685000Y-77343000D02*
X153289000Y-77343000D01*
%TO.N,Net-(C5-Pad2)*%
X134580000Y-67564000D02*
X138176000Y-67564000D01*
%TO.N,/OUT-*%
X133137501Y-108204000D02*
X133096000Y-108162499D01*
X133054499Y-108204000D02*
X133096000Y-108162499D01*
X137118499Y-108162499D02*
X137160000Y-108204000D01*
D23*
X133096000Y-108162499D02*
X137118499Y-108162499D01*
D21*
X143256000Y-86233000D02*
X143256000Y-92075000D01*
X153035000Y-92075000D02*
X153289000Y-92075000D01*
X153035000Y-92075000D02*
X153543000Y-92075000D01*
X153035000Y-92075000D02*
X153492200Y-92075000D01*
X152323800Y-92075000D02*
X153555700Y-92075000D01*
X143256000Y-92075000D02*
X152323800Y-92075000D01*
X152323800Y-92075000D02*
X153035000Y-92075000D01*
D23*
X123444000Y-108204000D02*
X133054499Y-108204000D01*
X121588000Y-106348000D02*
X123444000Y-108204000D01*
X121588000Y-105300000D02*
X121588000Y-106348000D01*
X137668000Y-107696000D02*
X137160000Y-108204000D01*
X146812000Y-107696000D02*
X137668000Y-107696000D01*
D24*
X154940000Y-99568000D02*
X146812000Y-107696000D01*
X154940000Y-83312000D02*
X155956000Y-82296000D01*
D21*
X153035000Y-91821000D02*
X154940000Y-89916000D01*
X153035000Y-92075000D02*
X153035000Y-91821000D01*
D24*
X154940000Y-89916000D02*
X154940000Y-83312000D01*
D21*
X152323800Y-92075000D02*
X152527000Y-92075000D01*
X152527000Y-92075000D02*
X154940000Y-94488000D01*
D24*
X154940000Y-94488000D02*
X154940000Y-89916000D01*
X154940000Y-99568000D02*
X154940000Y-94488000D01*
D21*
%TO.N,Net-(C7-Pad2)*%
X138176000Y-82376000D02*
X138176000Y-82296000D01*
X138176000Y-86153000D02*
X138256000Y-86233000D01*
X138176000Y-82296000D02*
X138176000Y-86153000D01*
%TO.N,/T2-*%
X137651000Y-105300000D02*
X124988000Y-105300000D01*
X143256000Y-99695000D02*
X137651000Y-105300000D01*
X143256000Y-99695000D02*
X148082000Y-99695000D01*
%TO.N,Net-(C9-Pad2)*%
X139065000Y-72771000D02*
X139065000Y-77343000D01*
X148082000Y-97195000D02*
X145074000Y-97195000D01*
X145074000Y-97195000D02*
X141097000Y-93218000D01*
X141097000Y-79375000D02*
X139065000Y-77343000D01*
X141097000Y-93218000D02*
X141097000Y-79375000D01*
%TO.N,/Filtro Passa-Baixas/Vo1*%
X75882500Y-75374500D02*
X73152000Y-72644000D01*
X77914500Y-75374500D02*
X75882500Y-75374500D01*
X60960000Y-90424000D02*
X60960000Y-77724000D01*
X60960000Y-77724000D02*
X60960000Y-75184000D01*
X63500000Y-72644000D02*
X73152000Y-72644000D01*
X60960000Y-75184000D02*
X63500000Y-72644000D01*
X79946500Y-65722500D02*
X79946500Y-73342500D01*
X79946500Y-73342500D02*
X77914500Y-75374500D01*
X77724000Y-63500000D02*
X79946500Y-65722500D01*
%TO.N,Net-(C10-Pad2)*%
X77724000Y-77724000D02*
X77914500Y-77914500D01*
X68580000Y-77724000D02*
X77724000Y-77724000D01*
X77644000Y-67644000D02*
X77724000Y-67564000D01*
X73152000Y-66708000D02*
X74088000Y-67644000D01*
X74088000Y-67644000D02*
X77644000Y-67644000D01*
X73152000Y-67644000D02*
X74088000Y-67644000D01*
X73152000Y-67644000D02*
X73152000Y-66548000D01*
X73152000Y-66548000D02*
X73152000Y-66708000D01*
X73152000Y-64516000D02*
X76200000Y-61468000D01*
X73152000Y-66548000D02*
X73152000Y-64516000D01*
X81364010Y-63584010D02*
X81364010Y-76464990D01*
X76200000Y-61468000D02*
X79248000Y-61468000D01*
X81364010Y-76464990D02*
X79914500Y-77914500D01*
X79248000Y-61468000D02*
X81364010Y-63584010D01*
X79914500Y-77914500D02*
X77914500Y-77914500D01*
%TO.N,Net-(C11-Pad2)*%
X72216000Y-90424000D02*
X72644000Y-89996000D01*
X74565500Y-88074500D02*
X77914500Y-88074500D01*
X72644000Y-89996000D02*
X74565500Y-88074500D01*
X68580000Y-91440000D02*
X69596000Y-90424000D01*
X69596000Y-90424000D02*
X72216000Y-90424000D01*
X68580000Y-90424000D02*
X69596000Y-90424000D01*
X68580000Y-95504000D02*
X68580000Y-91440000D01*
X68580000Y-91440000D02*
X68580000Y-90424000D01*
%TO.N,Net-(C11-Pad1)*%
X73533000Y-94996000D02*
X77914500Y-90614500D01*
X72644000Y-94996000D02*
X73533000Y-94996000D01*
X72136000Y-95504000D02*
X72644000Y-94996000D01*
X72136000Y-98552000D02*
X72136000Y-95504000D01*
%TO.N,Net-(C12-Pad2)*%
X85424000Y-63580000D02*
X85344000Y-63500000D01*
X89916000Y-63580000D02*
X85424000Y-63580000D01*
X82804000Y-76200000D02*
X84518500Y-77914500D01*
X84518500Y-77914500D02*
X85534500Y-77914500D01*
X82804000Y-66040000D02*
X82804000Y-76200000D01*
X85344000Y-63500000D02*
X82804000Y-66040000D01*
X85852000Y-78232000D02*
X85534500Y-77914500D01*
X93472000Y-78232000D02*
X85852000Y-78232000D01*
%TO.N,/+SIG*%
X58420000Y-95504000D02*
X60960000Y-95504000D01*
X52324000Y-89408000D02*
X58420000Y-95504000D01*
%TO.N,/T1-*%
X140335000Y-95504000D02*
X139573000Y-94742000D01*
X139573000Y-94742000D02*
X139573000Y-92964000D01*
X140335000Y-99695000D02*
X140335000Y-95504000D01*
X138430000Y-101600000D02*
X140335000Y-99695000D01*
X139573000Y-92964000D02*
X139065000Y-92456000D01*
X126688000Y-101600000D02*
X138430000Y-101600000D01*
%TO.N,Net-(R13-Pad1)*%
X85725000Y-90424000D02*
X85534500Y-90614500D01*
X93472000Y-90424000D02*
X85725000Y-90424000D01*
X85344000Y-67564000D02*
X85828001Y-67079999D01*
X96520000Y-93472000D02*
X93472000Y-90424000D01*
X104140000Y-90979000D02*
X101647000Y-93472000D01*
X104140000Y-75692000D02*
X104140000Y-90979000D01*
X94234000Y-65786000D02*
X104140000Y-75692000D01*
X87122000Y-65786000D02*
X94234000Y-65786000D01*
X101647000Y-93472000D02*
X96520000Y-93472000D01*
X85344000Y-67564000D02*
X87122000Y-65786000D01*
%TO.N,Net-(R14-Pad1)*%
X85848001Y-88388001D02*
X99056001Y-88388001D01*
X99056001Y-88388001D02*
X101092000Y-90424000D01*
X85534500Y-88074500D02*
X85848001Y-88388001D01*
X84645500Y-88074500D02*
X85534500Y-88074500D01*
X83312000Y-89408000D02*
X84645500Y-88074500D01*
X83312000Y-94996000D02*
X83312000Y-89408000D01*
X79756000Y-98552000D02*
X83312000Y-94996000D01*
%TD*%
D25*
%TO.N,GND*%
G36*
X160584000Y-111308000D02*
G01*
X46680000Y-111308000D01*
X46680000Y-106470509D01*
X49181000Y-106470509D01*
X49181000Y-106889491D01*
X49262739Y-107300423D01*
X49423077Y-107687512D01*
X49655851Y-108035884D01*
X49952116Y-108332149D01*
X50300488Y-108564923D01*
X50687577Y-108725261D01*
X51098509Y-108807000D01*
X51517491Y-108807000D01*
X51928423Y-108725261D01*
X52315512Y-108564923D01*
X52663884Y-108332149D01*
X52960149Y-108035884D01*
X53192923Y-107687512D01*
X53353261Y-107300423D01*
X53435000Y-106889491D01*
X53435000Y-106470509D01*
X53353261Y-106059577D01*
X53192923Y-105672488D01*
X52960149Y-105324116D01*
X52663884Y-105027851D01*
X52315512Y-104795077D01*
X51928423Y-104634739D01*
X51517491Y-104553000D01*
X51098509Y-104553000D01*
X50687577Y-104634739D01*
X50300488Y-104795077D01*
X49952116Y-105027851D01*
X49655851Y-105324116D01*
X49423077Y-105672488D01*
X49262739Y-106059577D01*
X49181000Y-106470509D01*
X46680000Y-106470509D01*
X46680000Y-72136000D01*
X47233613Y-72136000D01*
X47241000Y-72211001D01*
X47241001Y-96952989D01*
X47233613Y-97028000D01*
X47241001Y-97103011D01*
X47263096Y-97327344D01*
X47350411Y-97615185D01*
X47492204Y-97880460D01*
X47683025Y-98112976D01*
X47741289Y-98160792D01*
X54364598Y-104784102D01*
X54390330Y-105045361D01*
X54506236Y-105427452D01*
X54694457Y-105779589D01*
X54947760Y-106088240D01*
X55256411Y-106341543D01*
X55608548Y-106529764D01*
X55990639Y-106645670D01*
X56288429Y-106675000D01*
X93880439Y-106675000D01*
X93980000Y-106684806D01*
X94079561Y-106675000D01*
X94079571Y-106675000D01*
X94377361Y-106645670D01*
X94759452Y-106529764D01*
X95111589Y-106341543D01*
X95337674Y-106156000D01*
X109105928Y-106156000D01*
X109118188Y-106280482D01*
X109154498Y-106400180D01*
X109213463Y-106510494D01*
X109292815Y-106607185D01*
X109389506Y-106686537D01*
X109499820Y-106745502D01*
X109619518Y-106781812D01*
X109744000Y-106794072D01*
X110458250Y-106791000D01*
X110617000Y-106632250D01*
X110617000Y-105283000D01*
X110871000Y-105283000D01*
X110871000Y-106632250D01*
X111029750Y-106791000D01*
X111744000Y-106794072D01*
X111868482Y-106781812D01*
X111988180Y-106745502D01*
X112098494Y-106686537D01*
X112195185Y-106607185D01*
X112274537Y-106510494D01*
X112333502Y-106400180D01*
X112369812Y-106280482D01*
X112382072Y-106156000D01*
X112379000Y-105441750D01*
X112220250Y-105283000D01*
X110871000Y-105283000D01*
X110617000Y-105283000D01*
X109267750Y-105283000D01*
X109109000Y-105441750D01*
X109105928Y-106156000D01*
X95337674Y-106156000D01*
X95420240Y-106088240D01*
X95483716Y-106010894D01*
X97007712Y-104486899D01*
X97197542Y-104255590D01*
X97250773Y-104156000D01*
X109105928Y-104156000D01*
X109109000Y-104870250D01*
X109267750Y-105029000D01*
X110617000Y-105029000D01*
X110617000Y-103679750D01*
X110871000Y-103679750D01*
X110871000Y-105029000D01*
X112220250Y-105029000D01*
X112379000Y-104870250D01*
X112382072Y-104156000D01*
X112369812Y-104031518D01*
X112333502Y-103911820D01*
X112274537Y-103801506D01*
X112195185Y-103704815D01*
X112098494Y-103625463D01*
X111988180Y-103566498D01*
X111868482Y-103530188D01*
X111744000Y-103517928D01*
X111029750Y-103521000D01*
X110871000Y-103679750D01*
X110617000Y-103679750D01*
X110458250Y-103521000D01*
X109744000Y-103517928D01*
X109619518Y-103530188D01*
X109499820Y-103566498D01*
X109389506Y-103625463D01*
X109292815Y-103704815D01*
X109213463Y-103801506D01*
X109154498Y-103911820D01*
X109118188Y-104031518D01*
X109105928Y-104156000D01*
X97250773Y-104156000D01*
X97385763Y-103903453D01*
X97501669Y-103521362D01*
X97527401Y-103260103D01*
X97660504Y-103127000D01*
X114732989Y-103127000D01*
X114808000Y-103134388D01*
X114882640Y-103127037D01*
X115846133Y-104090531D01*
X115878289Y-104129713D01*
X115917471Y-104161869D01*
X115917476Y-104161874D01*
X115982240Y-104215024D01*
X116034670Y-104258052D01*
X116213084Y-104353416D01*
X116346875Y-104394001D01*
X116406673Y-104412141D01*
X116424832Y-104413929D01*
X116557550Y-104427001D01*
X116557557Y-104427001D01*
X116608001Y-104431969D01*
X116658444Y-104427001D01*
X120158423Y-104427001D01*
X120095752Y-104503366D01*
X119963245Y-104751269D01*
X119881648Y-105020259D01*
X119854096Y-105300000D01*
X119881648Y-105579741D01*
X119963245Y-105848731D01*
X120061000Y-106031618D01*
X120061000Y-106272999D01*
X120053613Y-106348000D01*
X120061000Y-106423001D01*
X120061000Y-106423011D01*
X120083095Y-106647344D01*
X120170410Y-106935185D01*
X120312203Y-107200460D01*
X120503025Y-107432976D01*
X120561289Y-107480792D01*
X122311208Y-109230711D01*
X122359024Y-109288976D01*
X122591540Y-109479797D01*
X122856815Y-109621590D01*
X123144656Y-109708905D01*
X123368989Y-109731000D01*
X123368998Y-109731000D01*
X123443999Y-109738387D01*
X123519000Y-109731000D01*
X131754551Y-109731000D01*
X131793350Y-109751738D01*
X131892690Y-109781873D01*
X131996000Y-109792048D01*
X134196000Y-109792048D01*
X134299310Y-109781873D01*
X134398650Y-109751738D01*
X134490202Y-109702803D01*
X134506413Y-109689499D01*
X136494758Y-109689499D01*
X136685422Y-109768475D01*
X136999755Y-109831000D01*
X137320245Y-109831000D01*
X137634578Y-109768475D01*
X137930673Y-109645828D01*
X138197152Y-109467773D01*
X138423773Y-109241152D01*
X138435902Y-109223000D01*
X145477478Y-109223000D01*
X145680411Y-109389542D01*
X146032548Y-109577763D01*
X146414639Y-109693669D01*
X146812000Y-109732806D01*
X147209361Y-109693669D01*
X147591452Y-109577763D01*
X147943589Y-109389542D01*
X148174898Y-109199712D01*
X150904101Y-106470509D01*
X153829000Y-106470509D01*
X153829000Y-106889491D01*
X153910739Y-107300423D01*
X154071077Y-107687512D01*
X154303851Y-108035884D01*
X154600116Y-108332149D01*
X154948488Y-108564923D01*
X155335577Y-108725261D01*
X155746509Y-108807000D01*
X156165491Y-108807000D01*
X156576423Y-108725261D01*
X156963512Y-108564923D01*
X157311884Y-108332149D01*
X157608149Y-108035884D01*
X157840923Y-107687512D01*
X158001261Y-107300423D01*
X158083000Y-106889491D01*
X158083000Y-106470509D01*
X158001261Y-106059577D01*
X157840923Y-105672488D01*
X157608149Y-105324116D01*
X157311884Y-105027851D01*
X156963512Y-104795077D01*
X156576423Y-104634739D01*
X156165491Y-104553000D01*
X155746509Y-104553000D01*
X155335577Y-104634739D01*
X154948488Y-104795077D01*
X154600116Y-105027851D01*
X154303851Y-105324116D01*
X154071077Y-105672488D01*
X153910739Y-106059577D01*
X153829000Y-106470509D01*
X150904101Y-106470509D01*
X156302893Y-101071717D01*
X156380240Y-101008240D01*
X156633543Y-100699589D01*
X156821764Y-100347452D01*
X156937670Y-99965361D01*
X156957695Y-99762051D01*
X156976807Y-99568000D01*
X156967000Y-99468429D01*
X156967000Y-84151610D01*
X157248134Y-83870476D01*
X157248137Y-83870474D01*
X157530474Y-83588137D01*
X157586076Y-83504923D01*
X157649542Y-83427589D01*
X157696701Y-83339360D01*
X157752304Y-83256145D01*
X157790603Y-83163682D01*
X157837763Y-83075453D01*
X157866804Y-82979717D01*
X157905104Y-82887254D01*
X157924628Y-82789100D01*
X157953670Y-82693362D01*
X157963476Y-82593795D01*
X157983000Y-82495642D01*
X157983000Y-82395564D01*
X157992806Y-82296000D01*
X157983000Y-82196436D01*
X157983000Y-82096358D01*
X157963476Y-81998205D01*
X157953670Y-81898639D01*
X157924628Y-81802903D01*
X157905104Y-81704746D01*
X157866803Y-81612280D01*
X157837763Y-81516548D01*
X157790605Y-81428321D01*
X157752304Y-81335855D01*
X157696701Y-81252639D01*
X157649542Y-81164411D01*
X157586075Y-81087076D01*
X157530474Y-81003863D01*
X157459711Y-80933100D01*
X157396240Y-80855760D01*
X157318899Y-80792288D01*
X157248137Y-80721526D01*
X157164924Y-80665925D01*
X157087589Y-80602458D01*
X156999361Y-80555299D01*
X156916145Y-80499696D01*
X156823679Y-80461395D01*
X156735452Y-80414237D01*
X156639720Y-80385197D01*
X156547254Y-80346896D01*
X156449097Y-80327372D01*
X156353361Y-80298330D01*
X156253795Y-80288524D01*
X156155642Y-80269000D01*
X156055564Y-80269000D01*
X155956000Y-80259194D01*
X155856436Y-80269000D01*
X155756358Y-80269000D01*
X155658205Y-80288524D01*
X155558638Y-80298330D01*
X155462900Y-80327372D01*
X155364746Y-80346896D01*
X155272283Y-80385196D01*
X155176547Y-80414237D01*
X155088318Y-80461397D01*
X154995855Y-80499696D01*
X154912640Y-80555299D01*
X154824411Y-80602458D01*
X154747077Y-80665924D01*
X154663863Y-80721526D01*
X154381526Y-81003863D01*
X154381524Y-81003866D01*
X153577102Y-81808288D01*
X153499761Y-81871760D01*
X153436289Y-81949101D01*
X153436288Y-81949102D01*
X153246458Y-82180411D01*
X153058237Y-82532548D01*
X152942331Y-82914639D01*
X152903194Y-83312000D01*
X152913001Y-83411571D01*
X152913000Y-90015570D01*
X152913001Y-90015580D01*
X152913001Y-90632024D01*
X152411712Y-91133313D01*
X152393816Y-91148000D01*
X144478981Y-91148000D01*
X144364698Y-90934192D01*
X144198870Y-90732130D01*
X144183000Y-90719106D01*
X144183000Y-87455981D01*
X144396808Y-87341698D01*
X144598870Y-87175870D01*
X144764698Y-86973808D01*
X144887919Y-86743278D01*
X144963799Y-86493137D01*
X144989420Y-86233000D01*
X144963799Y-85972863D01*
X144887919Y-85722722D01*
X144764698Y-85492192D01*
X144598870Y-85290130D01*
X144396808Y-85124302D01*
X144166278Y-85001081D01*
X143916137Y-84925201D01*
X143721184Y-84906000D01*
X142790816Y-84906000D01*
X142595863Y-84925201D01*
X142345722Y-85001081D01*
X142115192Y-85124302D01*
X142024000Y-85199141D01*
X142024000Y-79420527D01*
X142028484Y-79375000D01*
X142024000Y-79329473D01*
X142024000Y-79329462D01*
X142010587Y-79193276D01*
X141957580Y-79018536D01*
X141912587Y-78934360D01*
X141871501Y-78857494D01*
X141784688Y-78751712D01*
X141784684Y-78751708D01*
X141755659Y-78716341D01*
X141720292Y-78687316D01*
X140740986Y-77708010D01*
X140772799Y-77603137D01*
X140798420Y-77343000D01*
X140772799Y-77082863D01*
X140696919Y-76832722D01*
X140573698Y-76602192D01*
X140407870Y-76400130D01*
X140205808Y-76234302D01*
X139992000Y-76120019D01*
X139992000Y-73993981D01*
X140205808Y-73879698D01*
X140407870Y-73713870D01*
X140573698Y-73511808D01*
X140696919Y-73281278D01*
X140745830Y-73120039D01*
X144893096Y-73120039D01*
X144910633Y-73202818D01*
X145021285Y-73462646D01*
X145180500Y-73695895D01*
X145382161Y-73893601D01*
X145618517Y-74048166D01*
X145880486Y-74153650D01*
X146158000Y-74206000D01*
X146558000Y-74206000D01*
X146558000Y-72898000D01*
X146812000Y-72898000D01*
X146812000Y-74206000D01*
X147212000Y-74206000D01*
X147489514Y-74153650D01*
X147751483Y-74048166D01*
X147987839Y-73893601D01*
X148189500Y-73695895D01*
X148348715Y-73462646D01*
X148459367Y-73202818D01*
X148476904Y-73120039D01*
X148354915Y-72898000D01*
X146812000Y-72898000D01*
X146558000Y-72898000D01*
X145015085Y-72898000D01*
X144893096Y-73120039D01*
X140745830Y-73120039D01*
X140772799Y-73031137D01*
X140798420Y-72771000D01*
X140772799Y-72510863D01*
X140745831Y-72421961D01*
X144893096Y-72421961D01*
X145015085Y-72644000D01*
X146558000Y-72644000D01*
X146558000Y-71336000D01*
X146812000Y-71336000D01*
X146812000Y-72644000D01*
X148354915Y-72644000D01*
X148476904Y-72421961D01*
X148459367Y-72339182D01*
X148348715Y-72079354D01*
X148189500Y-71846105D01*
X147987839Y-71648399D01*
X147751483Y-71493834D01*
X147489514Y-71388350D01*
X147212000Y-71336000D01*
X146812000Y-71336000D01*
X146558000Y-71336000D01*
X146158000Y-71336000D01*
X145880486Y-71388350D01*
X145618517Y-71493834D01*
X145382161Y-71648399D01*
X145180500Y-71846105D01*
X145021285Y-72079354D01*
X144910633Y-72339182D01*
X144893096Y-72421961D01*
X140745831Y-72421961D01*
X140696919Y-72260722D01*
X140573698Y-72030192D01*
X140407870Y-71828130D01*
X140205808Y-71662302D01*
X139975278Y-71539081D01*
X139725137Y-71463201D01*
X139530184Y-71444000D01*
X138599816Y-71444000D01*
X138404863Y-71463201D01*
X138154722Y-71539081D01*
X137924192Y-71662302D01*
X137722130Y-71828130D01*
X137556302Y-72030192D01*
X137433081Y-72260722D01*
X137357201Y-72510863D01*
X137331580Y-72771000D01*
X137357201Y-73031137D01*
X137433081Y-73281278D01*
X137556302Y-73511808D01*
X137722130Y-73713870D01*
X137924192Y-73879698D01*
X138138000Y-73993981D01*
X138138001Y-76120019D01*
X137924192Y-76234302D01*
X137722130Y-76400130D01*
X137556302Y-76602192D01*
X137433081Y-76832722D01*
X137357201Y-77082863D01*
X137331580Y-77343000D01*
X137357201Y-77603137D01*
X137433081Y-77853278D01*
X137556302Y-78083808D01*
X137722130Y-78285870D01*
X137924192Y-78451698D01*
X138154722Y-78574919D01*
X138404863Y-78650799D01*
X138599816Y-78670000D01*
X139081025Y-78670000D01*
X140170001Y-79758977D01*
X140170000Y-91328162D01*
X139975278Y-91224081D01*
X139725137Y-91148201D01*
X139530184Y-91129000D01*
X138599816Y-91129000D01*
X138404863Y-91148201D01*
X138154722Y-91224081D01*
X137924192Y-91347302D01*
X137722130Y-91513130D01*
X137556302Y-91715192D01*
X137433081Y-91945722D01*
X137357201Y-92195863D01*
X137331580Y-92456000D01*
X137357201Y-92716137D01*
X137433081Y-92966278D01*
X137556302Y-93196808D01*
X137722130Y-93398870D01*
X137924192Y-93564698D01*
X138154722Y-93687919D01*
X138404863Y-93763799D01*
X138599816Y-93783000D01*
X138646001Y-93783000D01*
X138646000Y-94696472D01*
X138641516Y-94742000D01*
X138646000Y-94787527D01*
X138646000Y-94787537D01*
X138659413Y-94923723D01*
X138704448Y-95072182D01*
X138712420Y-95098463D01*
X138798499Y-95259505D01*
X138885312Y-95365287D01*
X138914341Y-95400659D01*
X138949713Y-95429688D01*
X139408001Y-95887977D01*
X139408000Y-99311024D01*
X138046025Y-100673000D01*
X128414890Y-100673000D01*
X128407374Y-100596690D01*
X128377239Y-100497350D01*
X128328304Y-100405798D01*
X128262448Y-100325552D01*
X128182202Y-100259696D01*
X128090650Y-100210761D01*
X127991310Y-100180626D01*
X127888000Y-100170451D01*
X125488000Y-100170451D01*
X125384690Y-100180626D01*
X125285350Y-100210761D01*
X125193798Y-100259696D01*
X125113552Y-100325552D01*
X125047696Y-100405798D01*
X124998761Y-100497350D01*
X124968626Y-100596690D01*
X124958451Y-100700000D01*
X124958451Y-101201909D01*
X124912755Y-101051269D01*
X124780248Y-100803366D01*
X124601923Y-100586077D01*
X124384634Y-100407752D01*
X124315000Y-100370532D01*
X124315000Y-99645786D01*
X124329712Y-99633712D01*
X124361877Y-99594520D01*
X124926898Y-99029499D01*
X131825444Y-99029499D01*
X131832227Y-99039651D01*
X132058848Y-99266272D01*
X132325327Y-99444327D01*
X132621422Y-99566974D01*
X132935755Y-99629499D01*
X133256245Y-99629499D01*
X133570578Y-99566974D01*
X133866673Y-99444327D01*
X134133152Y-99266272D01*
X134359773Y-99039651D01*
X134537828Y-98773172D01*
X134660475Y-98477077D01*
X134723000Y-98162744D01*
X134723000Y-97842254D01*
X134660475Y-97527921D01*
X134537828Y-97231826D01*
X134359773Y-96965347D01*
X134133152Y-96738726D01*
X133866673Y-96560671D01*
X133795041Y-96531000D01*
X135210604Y-96531000D01*
X135538803Y-96859199D01*
X135530451Y-96944000D01*
X135530451Y-99144000D01*
X135540626Y-99247310D01*
X135570761Y-99346650D01*
X135619696Y-99438202D01*
X135685552Y-99518448D01*
X135765798Y-99584304D01*
X135857350Y-99633239D01*
X135956690Y-99663374D01*
X136060000Y-99673549D01*
X138260000Y-99673549D01*
X138363310Y-99663374D01*
X138462650Y-99633239D01*
X138554202Y-99584304D01*
X138634448Y-99518448D01*
X138700304Y-99438202D01*
X138749239Y-99346650D01*
X138779374Y-99247310D01*
X138789549Y-99144000D01*
X138789549Y-96944000D01*
X138779374Y-96840690D01*
X138749239Y-96741350D01*
X138700304Y-96649798D01*
X138634448Y-96569552D01*
X138554202Y-96503696D01*
X138462650Y-96454761D01*
X138363310Y-96424626D01*
X138260000Y-96414451D01*
X137985045Y-96414451D01*
X137889712Y-96298288D01*
X137850524Y-96266128D01*
X136397877Y-94813481D01*
X136365712Y-94774288D01*
X136209331Y-94645949D01*
X136030917Y-94550585D01*
X135837327Y-94491860D01*
X135686451Y-94477000D01*
X135686441Y-94477000D01*
X135636000Y-94472032D01*
X135585559Y-94477000D01*
X124438993Y-94477000D01*
X124566601Y-94346839D01*
X124721166Y-94110483D01*
X124826650Y-93848514D01*
X124879000Y-93571000D01*
X124879000Y-93171000D01*
X123571000Y-93171000D01*
X123571000Y-93191000D01*
X123317000Y-93191000D01*
X123317000Y-93171000D01*
X122009000Y-93171000D01*
X122009000Y-93571000D01*
X122061350Y-93848514D01*
X122166834Y-94110483D01*
X122321399Y-94346839D01*
X122449007Y-94477000D01*
X121970443Y-94477000D01*
X121920000Y-94472032D01*
X121869556Y-94477000D01*
X121869549Y-94477000D01*
X121736831Y-94490072D01*
X121718672Y-94491860D01*
X121659947Y-94509674D01*
X121525083Y-94550585D01*
X121346669Y-94645949D01*
X121346667Y-94645950D01*
X121346668Y-94645950D01*
X121229475Y-94742127D01*
X121229470Y-94742132D01*
X121190288Y-94774288D01*
X121158132Y-94813470D01*
X119716604Y-96255000D01*
X119043397Y-96255000D01*
X118375000Y-95586604D01*
X118375000Y-94466793D01*
X118455105Y-94548500D01*
X118688354Y-94707715D01*
X118948182Y-94818367D01*
X119030961Y-94835904D01*
X119253000Y-94713915D01*
X119253000Y-93171000D01*
X119507000Y-93171000D01*
X119507000Y-94713915D01*
X119729039Y-94835904D01*
X119811818Y-94818367D01*
X120071646Y-94707715D01*
X120304895Y-94548500D01*
X120502601Y-94346839D01*
X120657166Y-94110483D01*
X120762650Y-93848514D01*
X120815000Y-93571000D01*
X120815000Y-93171000D01*
X119507000Y-93171000D01*
X119253000Y-93171000D01*
X119233000Y-93171000D01*
X119233000Y-92917000D01*
X119253000Y-92917000D01*
X119253000Y-91374085D01*
X119507000Y-91374085D01*
X119507000Y-92917000D01*
X120815000Y-92917000D01*
X120815000Y-92517000D01*
X122009000Y-92517000D01*
X122009000Y-92917000D01*
X123317000Y-92917000D01*
X123317000Y-91374085D01*
X123571000Y-91374085D01*
X123571000Y-92917000D01*
X124879000Y-92917000D01*
X124879000Y-92805039D01*
X129653096Y-92805039D01*
X129670633Y-92887818D01*
X129781285Y-93147646D01*
X129940500Y-93380895D01*
X130142161Y-93578601D01*
X130378517Y-93733166D01*
X130640486Y-93838650D01*
X130918000Y-93891000D01*
X131318000Y-93891000D01*
X131318000Y-92583000D01*
X131572000Y-92583000D01*
X131572000Y-93891000D01*
X131972000Y-93891000D01*
X132249514Y-93838650D01*
X132511483Y-93733166D01*
X132747839Y-93578601D01*
X132949500Y-93380895D01*
X133108715Y-93147646D01*
X133219367Y-92887818D01*
X133236904Y-92805039D01*
X133114915Y-92583000D01*
X131572000Y-92583000D01*
X131318000Y-92583000D01*
X129775085Y-92583000D01*
X129653096Y-92805039D01*
X124879000Y-92805039D01*
X124879000Y-92517000D01*
X124826650Y-92239486D01*
X124773288Y-92106961D01*
X129653096Y-92106961D01*
X129775085Y-92329000D01*
X131318000Y-92329000D01*
X131318000Y-91021000D01*
X131572000Y-91021000D01*
X131572000Y-92329000D01*
X133114915Y-92329000D01*
X133236904Y-92106961D01*
X133219367Y-92024182D01*
X133108715Y-91764354D01*
X132949500Y-91531105D01*
X132747839Y-91333399D01*
X132511483Y-91178834D01*
X132249514Y-91073350D01*
X131972000Y-91021000D01*
X131572000Y-91021000D01*
X131318000Y-91021000D01*
X130918000Y-91021000D01*
X130640486Y-91073350D01*
X130378517Y-91178834D01*
X130142161Y-91333399D01*
X129940500Y-91531105D01*
X129781285Y-91764354D01*
X129670633Y-92024182D01*
X129653096Y-92106961D01*
X124773288Y-92106961D01*
X124721166Y-91977517D01*
X124566601Y-91741161D01*
X124368895Y-91539500D01*
X124135646Y-91380285D01*
X123875818Y-91269633D01*
X123793039Y-91252096D01*
X123571000Y-91374085D01*
X123317000Y-91374085D01*
X123094961Y-91252096D01*
X123012182Y-91269633D01*
X122752354Y-91380285D01*
X122519105Y-91539500D01*
X122321399Y-91741161D01*
X122166834Y-91977517D01*
X122061350Y-92239486D01*
X122009000Y-92517000D01*
X120815000Y-92517000D01*
X120762650Y-92239486D01*
X120657166Y-91977517D01*
X120502601Y-91741161D01*
X120304895Y-91539500D01*
X120071646Y-91380285D01*
X119811818Y-91269633D01*
X119729039Y-91252096D01*
X119507000Y-91374085D01*
X119253000Y-91374085D01*
X119030961Y-91252096D01*
X118948182Y-91269633D01*
X118688354Y-91380285D01*
X118455105Y-91539500D01*
X118375000Y-91621207D01*
X118375000Y-89925305D01*
X118663344Y-89896905D01*
X118951185Y-89809590D01*
X119216460Y-89667797D01*
X119448976Y-89476976D01*
X119639797Y-89244460D01*
X119781590Y-88979185D01*
X119868905Y-88691344D01*
X119891000Y-88467011D01*
X119891000Y-82645039D01*
X123684096Y-82645039D01*
X123701633Y-82727818D01*
X123812285Y-82987646D01*
X123971500Y-83220895D01*
X124173161Y-83418601D01*
X124409517Y-83573166D01*
X124671486Y-83678650D01*
X124949000Y-83731000D01*
X125349000Y-83731000D01*
X125349000Y-82423000D01*
X125603000Y-82423000D01*
X125603000Y-83731000D01*
X126003000Y-83731000D01*
X126280514Y-83678650D01*
X126542483Y-83573166D01*
X126778839Y-83418601D01*
X126980500Y-83220895D01*
X127139715Y-82987646D01*
X127250367Y-82727818D01*
X127267904Y-82645039D01*
X127145915Y-82423000D01*
X125603000Y-82423000D01*
X125349000Y-82423000D01*
X123806085Y-82423000D01*
X123684096Y-82645039D01*
X119891000Y-82645039D01*
X119891000Y-82296000D01*
X136442580Y-82296000D01*
X136468201Y-82556137D01*
X136544081Y-82806278D01*
X136667302Y-83036808D01*
X136833130Y-83238870D01*
X137035192Y-83404698D01*
X137249000Y-83518981D01*
X137249001Y-85052780D01*
X137115192Y-85124302D01*
X136913130Y-85290130D01*
X136747302Y-85492192D01*
X136624081Y-85722722D01*
X136548201Y-85972863D01*
X136522580Y-86233000D01*
X136548201Y-86493137D01*
X136624081Y-86743278D01*
X136747302Y-86973808D01*
X136913130Y-87175870D01*
X137115192Y-87341698D01*
X137345722Y-87464919D01*
X137595863Y-87540799D01*
X137790816Y-87560000D01*
X138721184Y-87560000D01*
X138916137Y-87540799D01*
X139166278Y-87464919D01*
X139396808Y-87341698D01*
X139598870Y-87175870D01*
X139764698Y-86973808D01*
X139887919Y-86743278D01*
X139963799Y-86493137D01*
X139989420Y-86233000D01*
X139963799Y-85972863D01*
X139887919Y-85722722D01*
X139764698Y-85492192D01*
X139598870Y-85290130D01*
X139396808Y-85124302D01*
X139166278Y-85001081D01*
X139103000Y-84981886D01*
X139103000Y-83518981D01*
X139316808Y-83404698D01*
X139518870Y-83238870D01*
X139684698Y-83036808D01*
X139807919Y-82806278D01*
X139883799Y-82556137D01*
X139909420Y-82296000D01*
X139883799Y-82035863D01*
X139807919Y-81785722D01*
X139684698Y-81555192D01*
X139518870Y-81353130D01*
X139316808Y-81187302D01*
X139086278Y-81064081D01*
X138836137Y-80988201D01*
X138641184Y-80969000D01*
X137710816Y-80969000D01*
X137515863Y-80988201D01*
X137265722Y-81064081D01*
X137035192Y-81187302D01*
X136833130Y-81353130D01*
X136667302Y-81555192D01*
X136544081Y-81785722D01*
X136468201Y-82035863D01*
X136442580Y-82296000D01*
X119891000Y-82296000D01*
X119891000Y-81946961D01*
X123684096Y-81946961D01*
X123806085Y-82169000D01*
X125349000Y-82169000D01*
X125349000Y-80861000D01*
X125603000Y-80861000D01*
X125603000Y-82169000D01*
X127145915Y-82169000D01*
X127267904Y-81946961D01*
X127250367Y-81864182D01*
X127139715Y-81604354D01*
X126980500Y-81371105D01*
X126778839Y-81173399D01*
X126542483Y-81018834D01*
X126280514Y-80913350D01*
X126003000Y-80861000D01*
X125603000Y-80861000D01*
X125349000Y-80861000D01*
X124949000Y-80861000D01*
X124671486Y-80913350D01*
X124409517Y-81018834D01*
X124173161Y-81173399D01*
X123971500Y-81371105D01*
X123812285Y-81604354D01*
X123701633Y-81864182D01*
X123684096Y-81946961D01*
X119891000Y-81946961D01*
X119891000Y-79134413D01*
X119904304Y-79118202D01*
X119953239Y-79026650D01*
X119983374Y-78927310D01*
X119993549Y-78824000D01*
X119993549Y-77546847D01*
X123626525Y-73913872D01*
X123665712Y-73881712D01*
X123794051Y-73725331D01*
X123883712Y-73557587D01*
X123889414Y-73546919D01*
X123889415Y-73546917D01*
X123948140Y-73353327D01*
X123963000Y-73202451D01*
X123963000Y-73202442D01*
X123967968Y-73152001D01*
X123963000Y-73101560D01*
X123963000Y-69748224D01*
X124030202Y-69712304D01*
X124110448Y-69646448D01*
X124176304Y-69566202D01*
X124225239Y-69474650D01*
X124255374Y-69375310D01*
X124263009Y-69297785D01*
X124313399Y-69374839D01*
X124511105Y-69576500D01*
X124744354Y-69735715D01*
X125004182Y-69846367D01*
X125086961Y-69863904D01*
X125309000Y-69741915D01*
X125309000Y-68199000D01*
X125563000Y-68199000D01*
X125563000Y-69741915D01*
X125785039Y-69863904D01*
X125867818Y-69846367D01*
X126127646Y-69735715D01*
X126360895Y-69576500D01*
X126558601Y-69374839D01*
X126713166Y-69138483D01*
X126818650Y-68876514D01*
X126871000Y-68599000D01*
X126871000Y-68199000D01*
X125563000Y-68199000D01*
X125309000Y-68199000D01*
X125289000Y-68199000D01*
X125289000Y-67945000D01*
X125309000Y-67945000D01*
X125309000Y-66402085D01*
X125563000Y-66402085D01*
X125563000Y-67945000D01*
X126871000Y-67945000D01*
X126871000Y-67545000D01*
X126818650Y-67267486D01*
X126713166Y-67005517D01*
X126558601Y-66769161D01*
X126360895Y-66567500D01*
X126127646Y-66408285D01*
X125867818Y-66297633D01*
X125785039Y-66280096D01*
X125563000Y-66402085D01*
X125309000Y-66402085D01*
X125086961Y-66280096D01*
X125004182Y-66297633D01*
X124744354Y-66408285D01*
X124511105Y-66567500D01*
X124313399Y-66769161D01*
X124263009Y-66846215D01*
X124255374Y-66768690D01*
X124225239Y-66669350D01*
X124176304Y-66577798D01*
X124110448Y-66497552D01*
X124030202Y-66431696D01*
X123938650Y-66382761D01*
X123839310Y-66352626D01*
X123736000Y-66342451D01*
X123365955Y-66342451D01*
X119496797Y-62473294D01*
X119448976Y-62415024D01*
X119216460Y-62224203D01*
X118951185Y-62082410D01*
X118663344Y-61995095D01*
X118439011Y-61973000D01*
X118439001Y-61973000D01*
X118364000Y-61965613D01*
X118288999Y-61973000D01*
X114421397Y-61973000D01*
X113775396Y-61327000D01*
X123683497Y-61327000D01*
X129529288Y-67172793D01*
X129529299Y-67172802D01*
X129629000Y-67272503D01*
X129629001Y-68704023D01*
X127900708Y-70432317D01*
X127865342Y-70461341D01*
X127836317Y-70496708D01*
X127836312Y-70496713D01*
X127749499Y-70602495D01*
X127663420Y-70763537D01*
X127634097Y-70860203D01*
X127611044Y-70936201D01*
X127610414Y-70938277D01*
X127592516Y-71120000D01*
X127597001Y-71165537D01*
X127597001Y-71522451D01*
X127424000Y-71522451D01*
X127320690Y-71532626D01*
X127221350Y-71562761D01*
X127129798Y-71611696D01*
X127049552Y-71677552D01*
X126983696Y-71757798D01*
X126934761Y-71849350D01*
X126904626Y-71948690D01*
X126894451Y-72052000D01*
X126894451Y-74252000D01*
X126904626Y-74355310D01*
X126934761Y-74454650D01*
X126983696Y-74546202D01*
X127049552Y-74626448D01*
X127129798Y-74692304D01*
X127221350Y-74741239D01*
X127320690Y-74771374D01*
X127424000Y-74781549D01*
X127597001Y-74781549D01*
X127597000Y-76386626D01*
X127486848Y-76460227D01*
X127260227Y-76686848D01*
X127082172Y-76953327D01*
X126959525Y-77249422D01*
X126897000Y-77563755D01*
X126897000Y-77884245D01*
X126959525Y-78198578D01*
X127082172Y-78494673D01*
X127260227Y-78761152D01*
X127486848Y-78987773D01*
X127753327Y-79165828D01*
X128049422Y-79288475D01*
X128363755Y-79351000D01*
X128684245Y-79351000D01*
X128998578Y-79288475D01*
X129294673Y-79165828D01*
X129561152Y-78987773D01*
X129787773Y-78761152D01*
X129965828Y-78494673D01*
X130088475Y-78198578D01*
X130151000Y-77884245D01*
X130151000Y-77563755D01*
X130088475Y-77249422D01*
X129965828Y-76953327D01*
X129787773Y-76686848D01*
X129561152Y-76460227D01*
X129451000Y-76386626D01*
X129451000Y-74781549D01*
X129624000Y-74781549D01*
X129727310Y-74771374D01*
X129826650Y-74741239D01*
X129918202Y-74692304D01*
X129998448Y-74626448D01*
X130064304Y-74546202D01*
X130113239Y-74454650D01*
X130143374Y-74355310D01*
X130153549Y-74252000D01*
X130153549Y-72052000D01*
X130143374Y-71948690D01*
X130113239Y-71849350D01*
X130064304Y-71757798D01*
X129998448Y-71677552D01*
X129918202Y-71611696D01*
X129826650Y-71562761D01*
X129727310Y-71532626D01*
X129624000Y-71522451D01*
X129451000Y-71522451D01*
X129451000Y-71503975D01*
X130989688Y-69965288D01*
X130989693Y-69965282D01*
X131179287Y-69775688D01*
X131214659Y-69746659D01*
X131243688Y-69711287D01*
X131661427Y-69293549D01*
X132880000Y-69293549D01*
X132983310Y-69283374D01*
X133082650Y-69253239D01*
X133174202Y-69204304D01*
X133254448Y-69138448D01*
X133320304Y-69058202D01*
X133369239Y-68966650D01*
X133399374Y-68867310D01*
X133409549Y-68764000D01*
X133409549Y-68589276D01*
X133471302Y-68704808D01*
X133637131Y-68906870D01*
X133839193Y-69072698D01*
X134069723Y-69195919D01*
X134319864Y-69271799D01*
X134580000Y-69297420D01*
X134840137Y-69271799D01*
X135090278Y-69195919D01*
X135320808Y-69072698D01*
X135522870Y-68906870D01*
X135688698Y-68704808D01*
X135802981Y-68491000D01*
X136820106Y-68491000D01*
X136833130Y-68506870D01*
X137035192Y-68672698D01*
X137265722Y-68795919D01*
X137515863Y-68871799D01*
X137710816Y-68891000D01*
X138641184Y-68891000D01*
X138836137Y-68871799D01*
X139086278Y-68795919D01*
X139316808Y-68672698D01*
X139518870Y-68506870D01*
X139684698Y-68304808D01*
X139807919Y-68074278D01*
X139856830Y-67913039D01*
X149084096Y-67913039D01*
X149101633Y-67995818D01*
X149212285Y-68255646D01*
X149371500Y-68488895D01*
X149573161Y-68686601D01*
X149809517Y-68841166D01*
X150071486Y-68946650D01*
X150349000Y-68999000D01*
X150749000Y-68999000D01*
X150749000Y-67691000D01*
X151003000Y-67691000D01*
X151003000Y-68999000D01*
X151403000Y-68999000D01*
X151680514Y-68946650D01*
X151942483Y-68841166D01*
X152178839Y-68686601D01*
X152380500Y-68488895D01*
X152539715Y-68255646D01*
X152650367Y-67995818D01*
X152667904Y-67913039D01*
X152545915Y-67691000D01*
X151003000Y-67691000D01*
X150749000Y-67691000D01*
X149206085Y-67691000D01*
X149084096Y-67913039D01*
X139856830Y-67913039D01*
X139883799Y-67824137D01*
X139909420Y-67564000D01*
X139883799Y-67303863D01*
X139856831Y-67214961D01*
X149084096Y-67214961D01*
X149206085Y-67437000D01*
X150749000Y-67437000D01*
X150749000Y-66129000D01*
X151003000Y-66129000D01*
X151003000Y-67437000D01*
X152545915Y-67437000D01*
X152667904Y-67214961D01*
X152650367Y-67132182D01*
X152539715Y-66872354D01*
X152380500Y-66639105D01*
X152178839Y-66441399D01*
X151942483Y-66286834D01*
X151680514Y-66181350D01*
X151403000Y-66129000D01*
X151003000Y-66129000D01*
X150749000Y-66129000D01*
X150349000Y-66129000D01*
X150071486Y-66181350D01*
X149809517Y-66286834D01*
X149573161Y-66441399D01*
X149371500Y-66639105D01*
X149212285Y-66872354D01*
X149101633Y-67132182D01*
X149084096Y-67214961D01*
X139856831Y-67214961D01*
X139807919Y-67053722D01*
X139684698Y-66823192D01*
X139518870Y-66621130D01*
X139316808Y-66455302D01*
X139086278Y-66332081D01*
X138836137Y-66256201D01*
X138641184Y-66237000D01*
X137710816Y-66237000D01*
X137515863Y-66256201D01*
X137265722Y-66332081D01*
X137035192Y-66455302D01*
X136833130Y-66621130D01*
X136820106Y-66637000D01*
X135802981Y-66637000D01*
X135688698Y-66423192D01*
X135522870Y-66221130D01*
X135320807Y-66055302D01*
X135090277Y-65932081D01*
X134840136Y-65856201D01*
X134613132Y-65833843D01*
X137035976Y-63411000D01*
X138344106Y-63411000D01*
X138357130Y-63426870D01*
X138559192Y-63592698D01*
X138789722Y-63715919D01*
X138796627Y-63718014D01*
X138847540Y-63759797D01*
X139112815Y-63901590D01*
X139400656Y-63988905D01*
X139624989Y-64011000D01*
X152275497Y-64011000D01*
X154429000Y-66164504D01*
X154429001Y-75189110D01*
X154352690Y-75196626D01*
X154253350Y-75226761D01*
X154161798Y-75275696D01*
X154081552Y-75341552D01*
X154015696Y-75421798D01*
X153966761Y-75513350D01*
X153936626Y-75612690D01*
X153926451Y-75716000D01*
X153926451Y-76156574D01*
X153667025Y-76416000D01*
X148040894Y-76416000D01*
X148027870Y-76400130D01*
X147825808Y-76234302D01*
X147595278Y-76111081D01*
X147345137Y-76035201D01*
X147150184Y-76016000D01*
X146219816Y-76016000D01*
X146024863Y-76035201D01*
X145774722Y-76111081D01*
X145544192Y-76234302D01*
X145342130Y-76400130D01*
X145176302Y-76602192D01*
X145053081Y-76832722D01*
X144977201Y-77082863D01*
X144951580Y-77343000D01*
X144977201Y-77603137D01*
X145053081Y-77853278D01*
X145176302Y-78083808D01*
X145342130Y-78285870D01*
X145544192Y-78451698D01*
X145774722Y-78574919D01*
X146024863Y-78650799D01*
X146219816Y-78670000D01*
X147150184Y-78670000D01*
X147345137Y-78650799D01*
X147595278Y-78574919D01*
X147825808Y-78451698D01*
X148027870Y-78285870D01*
X148040894Y-78270000D01*
X153926451Y-78270000D01*
X153926451Y-78716000D01*
X153936626Y-78819310D01*
X153966761Y-78918650D01*
X154015696Y-79010202D01*
X154081552Y-79090448D01*
X154161798Y-79156304D01*
X154253350Y-79205239D01*
X154352690Y-79235374D01*
X154456000Y-79245549D01*
X157456000Y-79245549D01*
X157559310Y-79235374D01*
X157658650Y-79205239D01*
X157750202Y-79156304D01*
X157830448Y-79090448D01*
X157896304Y-79010202D01*
X157945239Y-78918650D01*
X157975374Y-78819310D01*
X157985549Y-78716000D01*
X157985549Y-75716000D01*
X157975374Y-75612690D01*
X157945239Y-75513350D01*
X157896304Y-75421798D01*
X157830448Y-75341552D01*
X157750202Y-75275696D01*
X157658650Y-75226761D01*
X157559310Y-75196626D01*
X157483000Y-75189110D01*
X157483000Y-65607004D01*
X157490387Y-65532000D01*
X157483000Y-65456996D01*
X157483000Y-65456989D01*
X157460905Y-65232656D01*
X157452515Y-65204996D01*
X157373590Y-64944815D01*
X157354293Y-64908713D01*
X157231797Y-64679540D01*
X157040976Y-64447024D01*
X156982713Y-64399209D01*
X154040797Y-61457294D01*
X153992976Y-61399024D01*
X153760460Y-61208203D01*
X153495185Y-61066410D01*
X153207344Y-60979095D01*
X152983011Y-60957000D01*
X152983001Y-60957000D01*
X152908000Y-60949613D01*
X152832999Y-60957000D01*
X139624989Y-60957000D01*
X139400656Y-60979095D01*
X139112815Y-61066410D01*
X138847540Y-61208203D01*
X138796627Y-61249986D01*
X138789722Y-61252081D01*
X138559192Y-61375302D01*
X138357130Y-61541130D01*
X138344106Y-61557000D01*
X136697526Y-61557000D01*
X136651999Y-61552516D01*
X136606472Y-61557000D01*
X136606462Y-61557000D01*
X136470276Y-61570413D01*
X136295536Y-61623420D01*
X136190590Y-61679516D01*
X136134494Y-61709499D01*
X136028712Y-61796312D01*
X136028708Y-61796316D01*
X135993341Y-61825341D01*
X135964316Y-61860708D01*
X132726713Y-65098312D01*
X132712025Y-65113000D01*
X131788503Y-65113000D01*
X131688802Y-65013299D01*
X131688793Y-65013288D01*
X125448797Y-58773294D01*
X125400976Y-58715024D01*
X125168460Y-58524203D01*
X124903185Y-58382410D01*
X124615344Y-58295095D01*
X124391011Y-58273000D01*
X124391001Y-58273000D01*
X124316000Y-58265613D01*
X124240999Y-58273000D01*
X112720989Y-58273000D01*
X112496656Y-58295095D01*
X112208815Y-58382410D01*
X112150433Y-58413616D01*
X111947269Y-58475245D01*
X111699366Y-58607752D01*
X111482077Y-58786077D01*
X111303752Y-59003366D01*
X111171245Y-59251269D01*
X111096000Y-59499319D01*
X111020755Y-59251269D01*
X110888248Y-59003366D01*
X110709923Y-58786077D01*
X110689587Y-58769388D01*
X111635976Y-57823000D01*
X130553025Y-57823000D01*
X130750451Y-58020426D01*
X130750451Y-58096000D01*
X130760626Y-58199310D01*
X130790761Y-58298650D01*
X130839696Y-58390202D01*
X130905552Y-58470448D01*
X130985798Y-58536304D01*
X131077350Y-58585239D01*
X131153001Y-58608188D01*
X131153000Y-61261019D01*
X130939192Y-61375302D01*
X130737130Y-61541130D01*
X130571302Y-61743192D01*
X130448081Y-61973722D01*
X130372201Y-62223863D01*
X130346580Y-62484000D01*
X130372201Y-62744137D01*
X130448081Y-62994278D01*
X130571302Y-63224808D01*
X130737130Y-63426870D01*
X130939192Y-63592698D01*
X131169722Y-63715919D01*
X131419863Y-63791799D01*
X131614816Y-63811000D01*
X132545184Y-63811000D01*
X132740137Y-63791799D01*
X132990278Y-63715919D01*
X133220808Y-63592698D01*
X133422870Y-63426870D01*
X133588698Y-63224808D01*
X133711919Y-62994278D01*
X133787799Y-62744137D01*
X133813420Y-62484000D01*
X133787799Y-62223863D01*
X133711919Y-61973722D01*
X133588698Y-61743192D01*
X133422870Y-61541130D01*
X133220808Y-61375302D01*
X133007000Y-61261019D01*
X133007000Y-58608188D01*
X133082650Y-58585239D01*
X133174202Y-58536304D01*
X133254448Y-58470448D01*
X133320304Y-58390202D01*
X133369239Y-58298650D01*
X133399374Y-58199310D01*
X133409549Y-58096000D01*
X133409549Y-57921276D01*
X133471302Y-58036808D01*
X133637131Y-58238870D01*
X133839193Y-58404698D01*
X134069723Y-58527919D01*
X134319864Y-58603799D01*
X134580000Y-58629420D01*
X134840137Y-58603799D01*
X135090278Y-58527919D01*
X135320808Y-58404698D01*
X135522870Y-58238870D01*
X135688698Y-58036808D01*
X135802981Y-57823000D01*
X136820106Y-57823000D01*
X136833130Y-57838870D01*
X137035192Y-58004698D01*
X137265722Y-58127919D01*
X137515863Y-58203799D01*
X137710816Y-58223000D01*
X138641184Y-58223000D01*
X138836137Y-58203799D01*
X139086278Y-58127919D01*
X139316808Y-58004698D01*
X139518870Y-57838870D01*
X139684698Y-57636808D01*
X139807919Y-57406278D01*
X139856830Y-57245039D01*
X144004096Y-57245039D01*
X144021633Y-57327818D01*
X144132285Y-57587646D01*
X144291500Y-57820895D01*
X144493161Y-58018601D01*
X144729517Y-58173166D01*
X144991486Y-58278650D01*
X145269000Y-58331000D01*
X145669000Y-58331000D01*
X145669000Y-57023000D01*
X145923000Y-57023000D01*
X145923000Y-58331000D01*
X146323000Y-58331000D01*
X146600514Y-58278650D01*
X146862483Y-58173166D01*
X147098839Y-58018601D01*
X147300500Y-57820895D01*
X147459715Y-57587646D01*
X147570367Y-57327818D01*
X147587904Y-57245039D01*
X147465915Y-57023000D01*
X145923000Y-57023000D01*
X145669000Y-57023000D01*
X144126085Y-57023000D01*
X144004096Y-57245039D01*
X139856830Y-57245039D01*
X139883799Y-57156137D01*
X139909420Y-56896000D01*
X139883799Y-56635863D01*
X139856831Y-56546961D01*
X144004096Y-56546961D01*
X144126085Y-56769000D01*
X145669000Y-56769000D01*
X145669000Y-55461000D01*
X145923000Y-55461000D01*
X145923000Y-56769000D01*
X147465915Y-56769000D01*
X147511235Y-56686509D01*
X153829000Y-56686509D01*
X153829000Y-57105491D01*
X153910739Y-57516423D01*
X154071077Y-57903512D01*
X154303851Y-58251884D01*
X154600116Y-58548149D01*
X154948488Y-58780923D01*
X155335577Y-58941261D01*
X155746509Y-59023000D01*
X156165491Y-59023000D01*
X156576423Y-58941261D01*
X156963512Y-58780923D01*
X157311884Y-58548149D01*
X157608149Y-58251884D01*
X157840923Y-57903512D01*
X158001261Y-57516423D01*
X158083000Y-57105491D01*
X158083000Y-56686509D01*
X158001261Y-56275577D01*
X157840923Y-55888488D01*
X157608149Y-55540116D01*
X157311884Y-55243851D01*
X156963512Y-55011077D01*
X156576423Y-54850739D01*
X156165491Y-54769000D01*
X155746509Y-54769000D01*
X155335577Y-54850739D01*
X154948488Y-55011077D01*
X154600116Y-55243851D01*
X154303851Y-55540116D01*
X154071077Y-55888488D01*
X153910739Y-56275577D01*
X153829000Y-56686509D01*
X147511235Y-56686509D01*
X147587904Y-56546961D01*
X147570367Y-56464182D01*
X147459715Y-56204354D01*
X147300500Y-55971105D01*
X147098839Y-55773399D01*
X146862483Y-55618834D01*
X146600514Y-55513350D01*
X146323000Y-55461000D01*
X145923000Y-55461000D01*
X145669000Y-55461000D01*
X145269000Y-55461000D01*
X144991486Y-55513350D01*
X144729517Y-55618834D01*
X144493161Y-55773399D01*
X144291500Y-55971105D01*
X144132285Y-56204354D01*
X144021633Y-56464182D01*
X144004096Y-56546961D01*
X139856831Y-56546961D01*
X139807919Y-56385722D01*
X139684698Y-56155192D01*
X139518870Y-55953130D01*
X139316808Y-55787302D01*
X139086278Y-55664081D01*
X138836137Y-55588201D01*
X138641184Y-55569000D01*
X137710816Y-55569000D01*
X137515863Y-55588201D01*
X137265722Y-55664081D01*
X137035192Y-55787302D01*
X136833130Y-55953130D01*
X136820106Y-55969000D01*
X135802981Y-55969000D01*
X135688698Y-55755192D01*
X135522870Y-55553130D01*
X135320807Y-55387302D01*
X135090277Y-55264081D01*
X134840136Y-55188201D01*
X134580000Y-55162580D01*
X134319863Y-55188201D01*
X134069722Y-55264081D01*
X133839192Y-55387302D01*
X133637130Y-55553130D01*
X133471302Y-55755193D01*
X133409549Y-55870725D01*
X133409549Y-55696000D01*
X133399374Y-55592690D01*
X133369239Y-55493350D01*
X133320304Y-55401798D01*
X133254448Y-55321552D01*
X133174202Y-55255696D01*
X133082650Y-55206761D01*
X132983310Y-55176626D01*
X132880000Y-55166451D01*
X131280000Y-55166451D01*
X131176690Y-55176626D01*
X131077350Y-55206761D01*
X130985798Y-55255696D01*
X130905552Y-55321552D01*
X130839696Y-55401798D01*
X130790761Y-55493350D01*
X130760626Y-55592690D01*
X130750451Y-55696000D01*
X130750451Y-55969000D01*
X111297524Y-55969000D01*
X111251999Y-55964516D01*
X111206474Y-55969000D01*
X111206462Y-55969000D01*
X111070276Y-55982413D01*
X110895536Y-56035420D01*
X110820573Y-56075489D01*
X110734494Y-56121499D01*
X110628711Y-56208313D01*
X110628708Y-56208316D01*
X110593341Y-56237341D01*
X110564316Y-56272708D01*
X108772713Y-58064312D01*
X108737341Y-58093341D01*
X108708313Y-58128712D01*
X108708312Y-58128713D01*
X108621499Y-58234495D01*
X108569916Y-58331000D01*
X108535420Y-58395537D01*
X108504269Y-58498229D01*
X108299366Y-58607752D01*
X108082077Y-58786077D01*
X107903752Y-59003366D01*
X107771245Y-59251269D01*
X107689648Y-59520259D01*
X107662096Y-59800000D01*
X107681947Y-60001549D01*
X105087244Y-57406848D01*
X105121670Y-57293361D01*
X105160807Y-56896000D01*
X105121670Y-56498639D01*
X105005764Y-56116548D01*
X104817543Y-55764411D01*
X104564240Y-55455760D01*
X104255589Y-55202457D01*
X103903452Y-55014236D01*
X103521361Y-54898330D01*
X103223571Y-54869000D01*
X69695571Y-54869000D01*
X69596000Y-54859193D01*
X69198638Y-54898330D01*
X68816547Y-55014236D01*
X68628326Y-55114843D01*
X68464411Y-55202457D01*
X68155760Y-55455760D01*
X68092283Y-55533107D01*
X55900288Y-67725102D01*
X55710458Y-67956411D01*
X55522237Y-68308548D01*
X55406331Y-68690639D01*
X55367194Y-69088000D01*
X55406331Y-69485361D01*
X55522237Y-69867452D01*
X55710458Y-70219589D01*
X55877000Y-70422522D01*
X55877001Y-76583495D01*
X54279594Y-78180903D01*
X54264304Y-78152298D01*
X54198448Y-78072052D01*
X54118202Y-78006196D01*
X54026650Y-77957261D01*
X53927310Y-77927126D01*
X53824000Y-77916951D01*
X50824000Y-77916951D01*
X50720690Y-77927126D01*
X50621350Y-77957261D01*
X50529798Y-78006196D01*
X50449552Y-78072052D01*
X50383696Y-78152298D01*
X50334761Y-78243850D01*
X50304626Y-78343190D01*
X50295000Y-78440926D01*
X50295000Y-76358153D01*
X51011952Y-76358153D01*
X51167962Y-76673714D01*
X51542745Y-76864520D01*
X51947551Y-76978544D01*
X52366824Y-77011402D01*
X52784451Y-76961834D01*
X53184383Y-76831743D01*
X53480038Y-76673714D01*
X53636048Y-76358153D01*
X52324000Y-75046105D01*
X51011952Y-76358153D01*
X50295000Y-76358153D01*
X50295000Y-75530878D01*
X50358757Y-75726883D01*
X50516786Y-76022538D01*
X50832347Y-76178548D01*
X52144395Y-74866500D01*
X52503605Y-74866500D01*
X53815653Y-76178548D01*
X54131214Y-76022538D01*
X54322020Y-75647755D01*
X54436044Y-75242949D01*
X54468902Y-74823676D01*
X54419334Y-74406049D01*
X54289243Y-74006117D01*
X54131214Y-73710462D01*
X53815653Y-73554452D01*
X52503605Y-74866500D01*
X52144395Y-74866500D01*
X50832347Y-73554452D01*
X50516786Y-73710462D01*
X50325980Y-74085245D01*
X50295000Y-74195230D01*
X50295000Y-73374847D01*
X51011952Y-73374847D01*
X52324000Y-74686895D01*
X53636048Y-73374847D01*
X53480038Y-73059286D01*
X53105255Y-72868480D01*
X52700449Y-72754456D01*
X52281176Y-72721598D01*
X51863549Y-72771166D01*
X51463617Y-72901257D01*
X51167962Y-73059286D01*
X51011952Y-73374847D01*
X50295000Y-73374847D01*
X50295000Y-72768503D01*
X51446477Y-71617027D01*
X51732746Y-71735604D01*
X52124358Y-71813500D01*
X52523642Y-71813500D01*
X52915254Y-71735604D01*
X53284145Y-71582804D01*
X53616137Y-71360974D01*
X53898474Y-71078637D01*
X54120304Y-70746645D01*
X54273104Y-70377754D01*
X54351000Y-69986142D01*
X54351000Y-69586858D01*
X54273104Y-69195246D01*
X54120304Y-68826355D01*
X53898474Y-68494363D01*
X53616137Y-68212026D01*
X53284145Y-67990196D01*
X52915254Y-67837396D01*
X52523642Y-67759500D01*
X52124358Y-67759500D01*
X51732746Y-67837396D01*
X51363855Y-67990196D01*
X51031863Y-68212026D01*
X50978041Y-68265848D01*
X50845455Y-68278906D01*
X50818155Y-68281595D01*
X50546501Y-68364000D01*
X50530315Y-68368910D01*
X50265040Y-68510703D01*
X50237573Y-68533245D01*
X50090788Y-68653707D01*
X50090783Y-68653712D01*
X50032524Y-68701524D01*
X49984712Y-68759783D01*
X47741293Y-71003204D01*
X47683024Y-71051024D01*
X47492203Y-71283541D01*
X47350410Y-71548816D01*
X47263095Y-71836657D01*
X47241000Y-72060990D01*
X47241000Y-72060999D01*
X47233613Y-72136000D01*
X46680000Y-72136000D01*
X46680000Y-56686509D01*
X49181000Y-56686509D01*
X49181000Y-57105491D01*
X49262739Y-57516423D01*
X49423077Y-57903512D01*
X49655851Y-58251884D01*
X49952116Y-58548149D01*
X50300488Y-58780923D01*
X50687577Y-58941261D01*
X51098509Y-59023000D01*
X51517491Y-59023000D01*
X51928423Y-58941261D01*
X52315512Y-58780923D01*
X52663884Y-58548149D01*
X52960149Y-58251884D01*
X53192923Y-57903512D01*
X53353261Y-57516423D01*
X53435000Y-57105491D01*
X53435000Y-56686509D01*
X53353261Y-56275577D01*
X53192923Y-55888488D01*
X52960149Y-55540116D01*
X52663884Y-55243851D01*
X52315512Y-55011077D01*
X51928423Y-54850739D01*
X51517491Y-54769000D01*
X51098509Y-54769000D01*
X50687577Y-54850739D01*
X50300488Y-55011077D01*
X49952116Y-55243851D01*
X49655851Y-55540116D01*
X49423077Y-55888488D01*
X49262739Y-56275577D01*
X49181000Y-56686509D01*
X46680000Y-56686509D01*
X46680000Y-52268000D01*
X160584001Y-52268000D01*
X160584000Y-111308000D01*
G37*
X160584000Y-111308000D02*
X46680000Y-111308000D01*
X46680000Y-106470509D01*
X49181000Y-106470509D01*
X49181000Y-106889491D01*
X49262739Y-107300423D01*
X49423077Y-107687512D01*
X49655851Y-108035884D01*
X49952116Y-108332149D01*
X50300488Y-108564923D01*
X50687577Y-108725261D01*
X51098509Y-108807000D01*
X51517491Y-108807000D01*
X51928423Y-108725261D01*
X52315512Y-108564923D01*
X52663884Y-108332149D01*
X52960149Y-108035884D01*
X53192923Y-107687512D01*
X53353261Y-107300423D01*
X53435000Y-106889491D01*
X53435000Y-106470509D01*
X53353261Y-106059577D01*
X53192923Y-105672488D01*
X52960149Y-105324116D01*
X52663884Y-105027851D01*
X52315512Y-104795077D01*
X51928423Y-104634739D01*
X51517491Y-104553000D01*
X51098509Y-104553000D01*
X50687577Y-104634739D01*
X50300488Y-104795077D01*
X49952116Y-105027851D01*
X49655851Y-105324116D01*
X49423077Y-105672488D01*
X49262739Y-106059577D01*
X49181000Y-106470509D01*
X46680000Y-106470509D01*
X46680000Y-72136000D01*
X47233613Y-72136000D01*
X47241000Y-72211001D01*
X47241001Y-96952989D01*
X47233613Y-97028000D01*
X47241001Y-97103011D01*
X47263096Y-97327344D01*
X47350411Y-97615185D01*
X47492204Y-97880460D01*
X47683025Y-98112976D01*
X47741289Y-98160792D01*
X54364598Y-104784102D01*
X54390330Y-105045361D01*
X54506236Y-105427452D01*
X54694457Y-105779589D01*
X54947760Y-106088240D01*
X55256411Y-106341543D01*
X55608548Y-106529764D01*
X55990639Y-106645670D01*
X56288429Y-106675000D01*
X93880439Y-106675000D01*
X93980000Y-106684806D01*
X94079561Y-106675000D01*
X94079571Y-106675000D01*
X94377361Y-106645670D01*
X94759452Y-106529764D01*
X95111589Y-106341543D01*
X95337674Y-106156000D01*
X109105928Y-106156000D01*
X109118188Y-106280482D01*
X109154498Y-106400180D01*
X109213463Y-106510494D01*
X109292815Y-106607185D01*
X109389506Y-106686537D01*
X109499820Y-106745502D01*
X109619518Y-106781812D01*
X109744000Y-106794072D01*
X110458250Y-106791000D01*
X110617000Y-106632250D01*
X110617000Y-105283000D01*
X110871000Y-105283000D01*
X110871000Y-106632250D01*
X111029750Y-106791000D01*
X111744000Y-106794072D01*
X111868482Y-106781812D01*
X111988180Y-106745502D01*
X112098494Y-106686537D01*
X112195185Y-106607185D01*
X112274537Y-106510494D01*
X112333502Y-106400180D01*
X112369812Y-106280482D01*
X112382072Y-106156000D01*
X112379000Y-105441750D01*
X112220250Y-105283000D01*
X110871000Y-105283000D01*
X110617000Y-105283000D01*
X109267750Y-105283000D01*
X109109000Y-105441750D01*
X109105928Y-106156000D01*
X95337674Y-106156000D01*
X95420240Y-106088240D01*
X95483716Y-106010894D01*
X97007712Y-104486899D01*
X97197542Y-104255590D01*
X97250773Y-104156000D01*
X109105928Y-104156000D01*
X109109000Y-104870250D01*
X109267750Y-105029000D01*
X110617000Y-105029000D01*
X110617000Y-103679750D01*
X110871000Y-103679750D01*
X110871000Y-105029000D01*
X112220250Y-105029000D01*
X112379000Y-104870250D01*
X112382072Y-104156000D01*
X112369812Y-104031518D01*
X112333502Y-103911820D01*
X112274537Y-103801506D01*
X112195185Y-103704815D01*
X112098494Y-103625463D01*
X111988180Y-103566498D01*
X111868482Y-103530188D01*
X111744000Y-103517928D01*
X111029750Y-103521000D01*
X110871000Y-103679750D01*
X110617000Y-103679750D01*
X110458250Y-103521000D01*
X109744000Y-103517928D01*
X109619518Y-103530188D01*
X109499820Y-103566498D01*
X109389506Y-103625463D01*
X109292815Y-103704815D01*
X109213463Y-103801506D01*
X109154498Y-103911820D01*
X109118188Y-104031518D01*
X109105928Y-104156000D01*
X97250773Y-104156000D01*
X97385763Y-103903453D01*
X97501669Y-103521362D01*
X97527401Y-103260103D01*
X97660504Y-103127000D01*
X114732989Y-103127000D01*
X114808000Y-103134388D01*
X114882640Y-103127037D01*
X115846133Y-104090531D01*
X115878289Y-104129713D01*
X115917471Y-104161869D01*
X115917476Y-104161874D01*
X115982240Y-104215024D01*
X116034670Y-104258052D01*
X116213084Y-104353416D01*
X116346875Y-104394001D01*
X116406673Y-104412141D01*
X116424832Y-104413929D01*
X116557550Y-104427001D01*
X116557557Y-104427001D01*
X116608001Y-104431969D01*
X116658444Y-104427001D01*
X120158423Y-104427001D01*
X120095752Y-104503366D01*
X119963245Y-104751269D01*
X119881648Y-105020259D01*
X119854096Y-105300000D01*
X119881648Y-105579741D01*
X119963245Y-105848731D01*
X120061000Y-106031618D01*
X120061000Y-106272999D01*
X120053613Y-106348000D01*
X120061000Y-106423001D01*
X120061000Y-106423011D01*
X120083095Y-106647344D01*
X120170410Y-106935185D01*
X120312203Y-107200460D01*
X120503025Y-107432976D01*
X120561289Y-107480792D01*
X122311208Y-109230711D01*
X122359024Y-109288976D01*
X122591540Y-109479797D01*
X122856815Y-109621590D01*
X123144656Y-109708905D01*
X123368989Y-109731000D01*
X123368998Y-109731000D01*
X123443999Y-109738387D01*
X123519000Y-109731000D01*
X131754551Y-109731000D01*
X131793350Y-109751738D01*
X131892690Y-109781873D01*
X131996000Y-109792048D01*
X134196000Y-109792048D01*
X134299310Y-109781873D01*
X134398650Y-109751738D01*
X134490202Y-109702803D01*
X134506413Y-109689499D01*
X136494758Y-109689499D01*
X136685422Y-109768475D01*
X136999755Y-109831000D01*
X137320245Y-109831000D01*
X137634578Y-109768475D01*
X137930673Y-109645828D01*
X138197152Y-109467773D01*
X138423773Y-109241152D01*
X138435902Y-109223000D01*
X145477478Y-109223000D01*
X145680411Y-109389542D01*
X146032548Y-109577763D01*
X146414639Y-109693669D01*
X146812000Y-109732806D01*
X147209361Y-109693669D01*
X147591452Y-109577763D01*
X147943589Y-109389542D01*
X148174898Y-109199712D01*
X150904101Y-106470509D01*
X153829000Y-106470509D01*
X153829000Y-106889491D01*
X153910739Y-107300423D01*
X154071077Y-107687512D01*
X154303851Y-108035884D01*
X154600116Y-108332149D01*
X154948488Y-108564923D01*
X155335577Y-108725261D01*
X155746509Y-108807000D01*
X156165491Y-108807000D01*
X156576423Y-108725261D01*
X156963512Y-108564923D01*
X157311884Y-108332149D01*
X157608149Y-108035884D01*
X157840923Y-107687512D01*
X158001261Y-107300423D01*
X158083000Y-106889491D01*
X158083000Y-106470509D01*
X158001261Y-106059577D01*
X157840923Y-105672488D01*
X157608149Y-105324116D01*
X157311884Y-105027851D01*
X156963512Y-104795077D01*
X156576423Y-104634739D01*
X156165491Y-104553000D01*
X155746509Y-104553000D01*
X155335577Y-104634739D01*
X154948488Y-104795077D01*
X154600116Y-105027851D01*
X154303851Y-105324116D01*
X154071077Y-105672488D01*
X153910739Y-106059577D01*
X153829000Y-106470509D01*
X150904101Y-106470509D01*
X156302893Y-101071717D01*
X156380240Y-101008240D01*
X156633543Y-100699589D01*
X156821764Y-100347452D01*
X156937670Y-99965361D01*
X156957695Y-99762051D01*
X156976807Y-99568000D01*
X156967000Y-99468429D01*
X156967000Y-84151610D01*
X157248134Y-83870476D01*
X157248137Y-83870474D01*
X157530474Y-83588137D01*
X157586076Y-83504923D01*
X157649542Y-83427589D01*
X157696701Y-83339360D01*
X157752304Y-83256145D01*
X157790603Y-83163682D01*
X157837763Y-83075453D01*
X157866804Y-82979717D01*
X157905104Y-82887254D01*
X157924628Y-82789100D01*
X157953670Y-82693362D01*
X157963476Y-82593795D01*
X157983000Y-82495642D01*
X157983000Y-82395564D01*
X157992806Y-82296000D01*
X157983000Y-82196436D01*
X157983000Y-82096358D01*
X157963476Y-81998205D01*
X157953670Y-81898639D01*
X157924628Y-81802903D01*
X157905104Y-81704746D01*
X157866803Y-81612280D01*
X157837763Y-81516548D01*
X157790605Y-81428321D01*
X157752304Y-81335855D01*
X157696701Y-81252639D01*
X157649542Y-81164411D01*
X157586075Y-81087076D01*
X157530474Y-81003863D01*
X157459711Y-80933100D01*
X157396240Y-80855760D01*
X157318899Y-80792288D01*
X157248137Y-80721526D01*
X157164924Y-80665925D01*
X157087589Y-80602458D01*
X156999361Y-80555299D01*
X156916145Y-80499696D01*
X156823679Y-80461395D01*
X156735452Y-80414237D01*
X156639720Y-80385197D01*
X156547254Y-80346896D01*
X156449097Y-80327372D01*
X156353361Y-80298330D01*
X156253795Y-80288524D01*
X156155642Y-80269000D01*
X156055564Y-80269000D01*
X155956000Y-80259194D01*
X155856436Y-80269000D01*
X155756358Y-80269000D01*
X155658205Y-80288524D01*
X155558638Y-80298330D01*
X155462900Y-80327372D01*
X155364746Y-80346896D01*
X155272283Y-80385196D01*
X155176547Y-80414237D01*
X155088318Y-80461397D01*
X154995855Y-80499696D01*
X154912640Y-80555299D01*
X154824411Y-80602458D01*
X154747077Y-80665924D01*
X154663863Y-80721526D01*
X154381526Y-81003863D01*
X154381524Y-81003866D01*
X153577102Y-81808288D01*
X153499761Y-81871760D01*
X153436289Y-81949101D01*
X153436288Y-81949102D01*
X153246458Y-82180411D01*
X153058237Y-82532548D01*
X152942331Y-82914639D01*
X152903194Y-83312000D01*
X152913001Y-83411571D01*
X152913000Y-90015570D01*
X152913001Y-90015580D01*
X152913001Y-90632024D01*
X152411712Y-91133313D01*
X152393816Y-91148000D01*
X144478981Y-91148000D01*
X144364698Y-90934192D01*
X144198870Y-90732130D01*
X144183000Y-90719106D01*
X144183000Y-87455981D01*
X144396808Y-87341698D01*
X144598870Y-87175870D01*
X144764698Y-86973808D01*
X144887919Y-86743278D01*
X144963799Y-86493137D01*
X144989420Y-86233000D01*
X144963799Y-85972863D01*
X144887919Y-85722722D01*
X144764698Y-85492192D01*
X144598870Y-85290130D01*
X144396808Y-85124302D01*
X144166278Y-85001081D01*
X143916137Y-84925201D01*
X143721184Y-84906000D01*
X142790816Y-84906000D01*
X142595863Y-84925201D01*
X142345722Y-85001081D01*
X142115192Y-85124302D01*
X142024000Y-85199141D01*
X142024000Y-79420527D01*
X142028484Y-79375000D01*
X142024000Y-79329473D01*
X142024000Y-79329462D01*
X142010587Y-79193276D01*
X141957580Y-79018536D01*
X141912587Y-78934360D01*
X141871501Y-78857494D01*
X141784688Y-78751712D01*
X141784684Y-78751708D01*
X141755659Y-78716341D01*
X141720292Y-78687316D01*
X140740986Y-77708010D01*
X140772799Y-77603137D01*
X140798420Y-77343000D01*
X140772799Y-77082863D01*
X140696919Y-76832722D01*
X140573698Y-76602192D01*
X140407870Y-76400130D01*
X140205808Y-76234302D01*
X139992000Y-76120019D01*
X139992000Y-73993981D01*
X140205808Y-73879698D01*
X140407870Y-73713870D01*
X140573698Y-73511808D01*
X140696919Y-73281278D01*
X140745830Y-73120039D01*
X144893096Y-73120039D01*
X144910633Y-73202818D01*
X145021285Y-73462646D01*
X145180500Y-73695895D01*
X145382161Y-73893601D01*
X145618517Y-74048166D01*
X145880486Y-74153650D01*
X146158000Y-74206000D01*
X146558000Y-74206000D01*
X146558000Y-72898000D01*
X146812000Y-72898000D01*
X146812000Y-74206000D01*
X147212000Y-74206000D01*
X147489514Y-74153650D01*
X147751483Y-74048166D01*
X147987839Y-73893601D01*
X148189500Y-73695895D01*
X148348715Y-73462646D01*
X148459367Y-73202818D01*
X148476904Y-73120039D01*
X148354915Y-72898000D01*
X146812000Y-72898000D01*
X146558000Y-72898000D01*
X145015085Y-72898000D01*
X144893096Y-73120039D01*
X140745830Y-73120039D01*
X140772799Y-73031137D01*
X140798420Y-72771000D01*
X140772799Y-72510863D01*
X140745831Y-72421961D01*
X144893096Y-72421961D01*
X145015085Y-72644000D01*
X146558000Y-72644000D01*
X146558000Y-71336000D01*
X146812000Y-71336000D01*
X146812000Y-72644000D01*
X148354915Y-72644000D01*
X148476904Y-72421961D01*
X148459367Y-72339182D01*
X148348715Y-72079354D01*
X148189500Y-71846105D01*
X147987839Y-71648399D01*
X147751483Y-71493834D01*
X147489514Y-71388350D01*
X147212000Y-71336000D01*
X146812000Y-71336000D01*
X146558000Y-71336000D01*
X146158000Y-71336000D01*
X145880486Y-71388350D01*
X145618517Y-71493834D01*
X145382161Y-71648399D01*
X145180500Y-71846105D01*
X145021285Y-72079354D01*
X144910633Y-72339182D01*
X144893096Y-72421961D01*
X140745831Y-72421961D01*
X140696919Y-72260722D01*
X140573698Y-72030192D01*
X140407870Y-71828130D01*
X140205808Y-71662302D01*
X139975278Y-71539081D01*
X139725137Y-71463201D01*
X139530184Y-71444000D01*
X138599816Y-71444000D01*
X138404863Y-71463201D01*
X138154722Y-71539081D01*
X137924192Y-71662302D01*
X137722130Y-71828130D01*
X137556302Y-72030192D01*
X137433081Y-72260722D01*
X137357201Y-72510863D01*
X137331580Y-72771000D01*
X137357201Y-73031137D01*
X137433081Y-73281278D01*
X137556302Y-73511808D01*
X137722130Y-73713870D01*
X137924192Y-73879698D01*
X138138000Y-73993981D01*
X138138001Y-76120019D01*
X137924192Y-76234302D01*
X137722130Y-76400130D01*
X137556302Y-76602192D01*
X137433081Y-76832722D01*
X137357201Y-77082863D01*
X137331580Y-77343000D01*
X137357201Y-77603137D01*
X137433081Y-77853278D01*
X137556302Y-78083808D01*
X137722130Y-78285870D01*
X137924192Y-78451698D01*
X138154722Y-78574919D01*
X138404863Y-78650799D01*
X138599816Y-78670000D01*
X139081025Y-78670000D01*
X140170001Y-79758977D01*
X140170000Y-91328162D01*
X139975278Y-91224081D01*
X139725137Y-91148201D01*
X139530184Y-91129000D01*
X138599816Y-91129000D01*
X138404863Y-91148201D01*
X138154722Y-91224081D01*
X137924192Y-91347302D01*
X137722130Y-91513130D01*
X137556302Y-91715192D01*
X137433081Y-91945722D01*
X137357201Y-92195863D01*
X137331580Y-92456000D01*
X137357201Y-92716137D01*
X137433081Y-92966278D01*
X137556302Y-93196808D01*
X137722130Y-93398870D01*
X137924192Y-93564698D01*
X138154722Y-93687919D01*
X138404863Y-93763799D01*
X138599816Y-93783000D01*
X138646001Y-93783000D01*
X138646000Y-94696472D01*
X138641516Y-94742000D01*
X138646000Y-94787527D01*
X138646000Y-94787537D01*
X138659413Y-94923723D01*
X138704448Y-95072182D01*
X138712420Y-95098463D01*
X138798499Y-95259505D01*
X138885312Y-95365287D01*
X138914341Y-95400659D01*
X138949713Y-95429688D01*
X139408001Y-95887977D01*
X139408000Y-99311024D01*
X138046025Y-100673000D01*
X128414890Y-100673000D01*
X128407374Y-100596690D01*
X128377239Y-100497350D01*
X128328304Y-100405798D01*
X128262448Y-100325552D01*
X128182202Y-100259696D01*
X128090650Y-100210761D01*
X127991310Y-100180626D01*
X127888000Y-100170451D01*
X125488000Y-100170451D01*
X125384690Y-100180626D01*
X125285350Y-100210761D01*
X125193798Y-100259696D01*
X125113552Y-100325552D01*
X125047696Y-100405798D01*
X124998761Y-100497350D01*
X124968626Y-100596690D01*
X124958451Y-100700000D01*
X124958451Y-101201909D01*
X124912755Y-101051269D01*
X124780248Y-100803366D01*
X124601923Y-100586077D01*
X124384634Y-100407752D01*
X124315000Y-100370532D01*
X124315000Y-99645786D01*
X124329712Y-99633712D01*
X124361877Y-99594520D01*
X124926898Y-99029499D01*
X131825444Y-99029499D01*
X131832227Y-99039651D01*
X132058848Y-99266272D01*
X132325327Y-99444327D01*
X132621422Y-99566974D01*
X132935755Y-99629499D01*
X133256245Y-99629499D01*
X133570578Y-99566974D01*
X133866673Y-99444327D01*
X134133152Y-99266272D01*
X134359773Y-99039651D01*
X134537828Y-98773172D01*
X134660475Y-98477077D01*
X134723000Y-98162744D01*
X134723000Y-97842254D01*
X134660475Y-97527921D01*
X134537828Y-97231826D01*
X134359773Y-96965347D01*
X134133152Y-96738726D01*
X133866673Y-96560671D01*
X133795041Y-96531000D01*
X135210604Y-96531000D01*
X135538803Y-96859199D01*
X135530451Y-96944000D01*
X135530451Y-99144000D01*
X135540626Y-99247310D01*
X135570761Y-99346650D01*
X135619696Y-99438202D01*
X135685552Y-99518448D01*
X135765798Y-99584304D01*
X135857350Y-99633239D01*
X135956690Y-99663374D01*
X136060000Y-99673549D01*
X138260000Y-99673549D01*
X138363310Y-99663374D01*
X138462650Y-99633239D01*
X138554202Y-99584304D01*
X138634448Y-99518448D01*
X138700304Y-99438202D01*
X138749239Y-99346650D01*
X138779374Y-99247310D01*
X138789549Y-99144000D01*
X138789549Y-96944000D01*
X138779374Y-96840690D01*
X138749239Y-96741350D01*
X138700304Y-96649798D01*
X138634448Y-96569552D01*
X138554202Y-96503696D01*
X138462650Y-96454761D01*
X138363310Y-96424626D01*
X138260000Y-96414451D01*
X137985045Y-96414451D01*
X137889712Y-96298288D01*
X137850524Y-96266128D01*
X136397877Y-94813481D01*
X136365712Y-94774288D01*
X136209331Y-94645949D01*
X136030917Y-94550585D01*
X135837327Y-94491860D01*
X135686451Y-94477000D01*
X135686441Y-94477000D01*
X135636000Y-94472032D01*
X135585559Y-94477000D01*
X124438993Y-94477000D01*
X124566601Y-94346839D01*
X124721166Y-94110483D01*
X124826650Y-93848514D01*
X124879000Y-93571000D01*
X124879000Y-93171000D01*
X123571000Y-93171000D01*
X123571000Y-93191000D01*
X123317000Y-93191000D01*
X123317000Y-93171000D01*
X122009000Y-93171000D01*
X122009000Y-93571000D01*
X122061350Y-93848514D01*
X122166834Y-94110483D01*
X122321399Y-94346839D01*
X122449007Y-94477000D01*
X121970443Y-94477000D01*
X121920000Y-94472032D01*
X121869556Y-94477000D01*
X121869549Y-94477000D01*
X121736831Y-94490072D01*
X121718672Y-94491860D01*
X121659947Y-94509674D01*
X121525083Y-94550585D01*
X121346669Y-94645949D01*
X121346667Y-94645950D01*
X121346668Y-94645950D01*
X121229475Y-94742127D01*
X121229470Y-94742132D01*
X121190288Y-94774288D01*
X121158132Y-94813470D01*
X119716604Y-96255000D01*
X119043397Y-96255000D01*
X118375000Y-95586604D01*
X118375000Y-94466793D01*
X118455105Y-94548500D01*
X118688354Y-94707715D01*
X118948182Y-94818367D01*
X119030961Y-94835904D01*
X119253000Y-94713915D01*
X119253000Y-93171000D01*
X119507000Y-93171000D01*
X119507000Y-94713915D01*
X119729039Y-94835904D01*
X119811818Y-94818367D01*
X120071646Y-94707715D01*
X120304895Y-94548500D01*
X120502601Y-94346839D01*
X120657166Y-94110483D01*
X120762650Y-93848514D01*
X120815000Y-93571000D01*
X120815000Y-93171000D01*
X119507000Y-93171000D01*
X119253000Y-93171000D01*
X119233000Y-93171000D01*
X119233000Y-92917000D01*
X119253000Y-92917000D01*
X119253000Y-91374085D01*
X119507000Y-91374085D01*
X119507000Y-92917000D01*
X120815000Y-92917000D01*
X120815000Y-92517000D01*
X122009000Y-92517000D01*
X122009000Y-92917000D01*
X123317000Y-92917000D01*
X123317000Y-91374085D01*
X123571000Y-91374085D01*
X123571000Y-92917000D01*
X124879000Y-92917000D01*
X124879000Y-92805039D01*
X129653096Y-92805039D01*
X129670633Y-92887818D01*
X129781285Y-93147646D01*
X129940500Y-93380895D01*
X130142161Y-93578601D01*
X130378517Y-93733166D01*
X130640486Y-93838650D01*
X130918000Y-93891000D01*
X131318000Y-93891000D01*
X131318000Y-92583000D01*
X131572000Y-92583000D01*
X131572000Y-93891000D01*
X131972000Y-93891000D01*
X132249514Y-93838650D01*
X132511483Y-93733166D01*
X132747839Y-93578601D01*
X132949500Y-93380895D01*
X133108715Y-93147646D01*
X133219367Y-92887818D01*
X133236904Y-92805039D01*
X133114915Y-92583000D01*
X131572000Y-92583000D01*
X131318000Y-92583000D01*
X129775085Y-92583000D01*
X129653096Y-92805039D01*
X124879000Y-92805039D01*
X124879000Y-92517000D01*
X124826650Y-92239486D01*
X124773288Y-92106961D01*
X129653096Y-92106961D01*
X129775085Y-92329000D01*
X131318000Y-92329000D01*
X131318000Y-91021000D01*
X131572000Y-91021000D01*
X131572000Y-92329000D01*
X133114915Y-92329000D01*
X133236904Y-92106961D01*
X133219367Y-92024182D01*
X133108715Y-91764354D01*
X132949500Y-91531105D01*
X132747839Y-91333399D01*
X132511483Y-91178834D01*
X132249514Y-91073350D01*
X131972000Y-91021000D01*
X131572000Y-91021000D01*
X131318000Y-91021000D01*
X130918000Y-91021000D01*
X130640486Y-91073350D01*
X130378517Y-91178834D01*
X130142161Y-91333399D01*
X129940500Y-91531105D01*
X129781285Y-91764354D01*
X129670633Y-92024182D01*
X129653096Y-92106961D01*
X124773288Y-92106961D01*
X124721166Y-91977517D01*
X124566601Y-91741161D01*
X124368895Y-91539500D01*
X124135646Y-91380285D01*
X123875818Y-91269633D01*
X123793039Y-91252096D01*
X123571000Y-91374085D01*
X123317000Y-91374085D01*
X123094961Y-91252096D01*
X123012182Y-91269633D01*
X122752354Y-91380285D01*
X122519105Y-91539500D01*
X122321399Y-91741161D01*
X122166834Y-91977517D01*
X122061350Y-92239486D01*
X122009000Y-92517000D01*
X120815000Y-92517000D01*
X120762650Y-92239486D01*
X120657166Y-91977517D01*
X120502601Y-91741161D01*
X120304895Y-91539500D01*
X120071646Y-91380285D01*
X119811818Y-91269633D01*
X119729039Y-91252096D01*
X119507000Y-91374085D01*
X119253000Y-91374085D01*
X119030961Y-91252096D01*
X118948182Y-91269633D01*
X118688354Y-91380285D01*
X118455105Y-91539500D01*
X118375000Y-91621207D01*
X118375000Y-89925305D01*
X118663344Y-89896905D01*
X118951185Y-89809590D01*
X119216460Y-89667797D01*
X119448976Y-89476976D01*
X119639797Y-89244460D01*
X119781590Y-88979185D01*
X119868905Y-88691344D01*
X119891000Y-88467011D01*
X119891000Y-82645039D01*
X123684096Y-82645039D01*
X123701633Y-82727818D01*
X123812285Y-82987646D01*
X123971500Y-83220895D01*
X124173161Y-83418601D01*
X124409517Y-83573166D01*
X124671486Y-83678650D01*
X124949000Y-83731000D01*
X125349000Y-83731000D01*
X125349000Y-82423000D01*
X125603000Y-82423000D01*
X125603000Y-83731000D01*
X126003000Y-83731000D01*
X126280514Y-83678650D01*
X126542483Y-83573166D01*
X126778839Y-83418601D01*
X126980500Y-83220895D01*
X127139715Y-82987646D01*
X127250367Y-82727818D01*
X127267904Y-82645039D01*
X127145915Y-82423000D01*
X125603000Y-82423000D01*
X125349000Y-82423000D01*
X123806085Y-82423000D01*
X123684096Y-82645039D01*
X119891000Y-82645039D01*
X119891000Y-82296000D01*
X136442580Y-82296000D01*
X136468201Y-82556137D01*
X136544081Y-82806278D01*
X136667302Y-83036808D01*
X136833130Y-83238870D01*
X137035192Y-83404698D01*
X137249000Y-83518981D01*
X137249001Y-85052780D01*
X137115192Y-85124302D01*
X136913130Y-85290130D01*
X136747302Y-85492192D01*
X136624081Y-85722722D01*
X136548201Y-85972863D01*
X136522580Y-86233000D01*
X136548201Y-86493137D01*
X136624081Y-86743278D01*
X136747302Y-86973808D01*
X136913130Y-87175870D01*
X137115192Y-87341698D01*
X137345722Y-87464919D01*
X137595863Y-87540799D01*
X137790816Y-87560000D01*
X138721184Y-87560000D01*
X138916137Y-87540799D01*
X139166278Y-87464919D01*
X139396808Y-87341698D01*
X139598870Y-87175870D01*
X139764698Y-86973808D01*
X139887919Y-86743278D01*
X139963799Y-86493137D01*
X139989420Y-86233000D01*
X139963799Y-85972863D01*
X139887919Y-85722722D01*
X139764698Y-85492192D01*
X139598870Y-85290130D01*
X139396808Y-85124302D01*
X139166278Y-85001081D01*
X139103000Y-84981886D01*
X139103000Y-83518981D01*
X139316808Y-83404698D01*
X139518870Y-83238870D01*
X139684698Y-83036808D01*
X139807919Y-82806278D01*
X139883799Y-82556137D01*
X139909420Y-82296000D01*
X139883799Y-82035863D01*
X139807919Y-81785722D01*
X139684698Y-81555192D01*
X139518870Y-81353130D01*
X139316808Y-81187302D01*
X139086278Y-81064081D01*
X138836137Y-80988201D01*
X138641184Y-80969000D01*
X137710816Y-80969000D01*
X137515863Y-80988201D01*
X137265722Y-81064081D01*
X137035192Y-81187302D01*
X136833130Y-81353130D01*
X136667302Y-81555192D01*
X136544081Y-81785722D01*
X136468201Y-82035863D01*
X136442580Y-82296000D01*
X119891000Y-82296000D01*
X119891000Y-81946961D01*
X123684096Y-81946961D01*
X123806085Y-82169000D01*
X125349000Y-82169000D01*
X125349000Y-80861000D01*
X125603000Y-80861000D01*
X125603000Y-82169000D01*
X127145915Y-82169000D01*
X127267904Y-81946961D01*
X127250367Y-81864182D01*
X127139715Y-81604354D01*
X126980500Y-81371105D01*
X126778839Y-81173399D01*
X126542483Y-81018834D01*
X126280514Y-80913350D01*
X126003000Y-80861000D01*
X125603000Y-80861000D01*
X125349000Y-80861000D01*
X124949000Y-80861000D01*
X124671486Y-80913350D01*
X124409517Y-81018834D01*
X124173161Y-81173399D01*
X123971500Y-81371105D01*
X123812285Y-81604354D01*
X123701633Y-81864182D01*
X123684096Y-81946961D01*
X119891000Y-81946961D01*
X119891000Y-79134413D01*
X119904304Y-79118202D01*
X119953239Y-79026650D01*
X119983374Y-78927310D01*
X119993549Y-78824000D01*
X119993549Y-77546847D01*
X123626525Y-73913872D01*
X123665712Y-73881712D01*
X123794051Y-73725331D01*
X123883712Y-73557587D01*
X123889414Y-73546919D01*
X123889415Y-73546917D01*
X123948140Y-73353327D01*
X123963000Y-73202451D01*
X123963000Y-73202442D01*
X123967968Y-73152001D01*
X123963000Y-73101560D01*
X123963000Y-69748224D01*
X124030202Y-69712304D01*
X124110448Y-69646448D01*
X124176304Y-69566202D01*
X124225239Y-69474650D01*
X124255374Y-69375310D01*
X124263009Y-69297785D01*
X124313399Y-69374839D01*
X124511105Y-69576500D01*
X124744354Y-69735715D01*
X125004182Y-69846367D01*
X125086961Y-69863904D01*
X125309000Y-69741915D01*
X125309000Y-68199000D01*
X125563000Y-68199000D01*
X125563000Y-69741915D01*
X125785039Y-69863904D01*
X125867818Y-69846367D01*
X126127646Y-69735715D01*
X126360895Y-69576500D01*
X126558601Y-69374839D01*
X126713166Y-69138483D01*
X126818650Y-68876514D01*
X126871000Y-68599000D01*
X126871000Y-68199000D01*
X125563000Y-68199000D01*
X125309000Y-68199000D01*
X125289000Y-68199000D01*
X125289000Y-67945000D01*
X125309000Y-67945000D01*
X125309000Y-66402085D01*
X125563000Y-66402085D01*
X125563000Y-67945000D01*
X126871000Y-67945000D01*
X126871000Y-67545000D01*
X126818650Y-67267486D01*
X126713166Y-67005517D01*
X126558601Y-66769161D01*
X126360895Y-66567500D01*
X126127646Y-66408285D01*
X125867818Y-66297633D01*
X125785039Y-66280096D01*
X125563000Y-66402085D01*
X125309000Y-66402085D01*
X125086961Y-66280096D01*
X125004182Y-66297633D01*
X124744354Y-66408285D01*
X124511105Y-66567500D01*
X124313399Y-66769161D01*
X124263009Y-66846215D01*
X124255374Y-66768690D01*
X124225239Y-66669350D01*
X124176304Y-66577798D01*
X124110448Y-66497552D01*
X124030202Y-66431696D01*
X123938650Y-66382761D01*
X123839310Y-66352626D01*
X123736000Y-66342451D01*
X123365955Y-66342451D01*
X119496797Y-62473294D01*
X119448976Y-62415024D01*
X119216460Y-62224203D01*
X118951185Y-62082410D01*
X118663344Y-61995095D01*
X118439011Y-61973000D01*
X118439001Y-61973000D01*
X118364000Y-61965613D01*
X118288999Y-61973000D01*
X114421397Y-61973000D01*
X113775396Y-61327000D01*
X123683497Y-61327000D01*
X129529288Y-67172793D01*
X129529299Y-67172802D01*
X129629000Y-67272503D01*
X129629001Y-68704023D01*
X127900708Y-70432317D01*
X127865342Y-70461341D01*
X127836317Y-70496708D01*
X127836312Y-70496713D01*
X127749499Y-70602495D01*
X127663420Y-70763537D01*
X127634097Y-70860203D01*
X127611044Y-70936201D01*
X127610414Y-70938277D01*
X127592516Y-71120000D01*
X127597001Y-71165537D01*
X127597001Y-71522451D01*
X127424000Y-71522451D01*
X127320690Y-71532626D01*
X127221350Y-71562761D01*
X127129798Y-71611696D01*
X127049552Y-71677552D01*
X126983696Y-71757798D01*
X126934761Y-71849350D01*
X126904626Y-71948690D01*
X126894451Y-72052000D01*
X126894451Y-74252000D01*
X126904626Y-74355310D01*
X126934761Y-74454650D01*
X126983696Y-74546202D01*
X127049552Y-74626448D01*
X127129798Y-74692304D01*
X127221350Y-74741239D01*
X127320690Y-74771374D01*
X127424000Y-74781549D01*
X127597001Y-74781549D01*
X127597000Y-76386626D01*
X127486848Y-76460227D01*
X127260227Y-76686848D01*
X127082172Y-76953327D01*
X126959525Y-77249422D01*
X126897000Y-77563755D01*
X126897000Y-77884245D01*
X126959525Y-78198578D01*
X127082172Y-78494673D01*
X127260227Y-78761152D01*
X127486848Y-78987773D01*
X127753327Y-79165828D01*
X128049422Y-79288475D01*
X128363755Y-79351000D01*
X128684245Y-79351000D01*
X128998578Y-79288475D01*
X129294673Y-79165828D01*
X129561152Y-78987773D01*
X129787773Y-78761152D01*
X129965828Y-78494673D01*
X130088475Y-78198578D01*
X130151000Y-77884245D01*
X130151000Y-77563755D01*
X130088475Y-77249422D01*
X129965828Y-76953327D01*
X129787773Y-76686848D01*
X129561152Y-76460227D01*
X129451000Y-76386626D01*
X129451000Y-74781549D01*
X129624000Y-74781549D01*
X129727310Y-74771374D01*
X129826650Y-74741239D01*
X129918202Y-74692304D01*
X129998448Y-74626448D01*
X130064304Y-74546202D01*
X130113239Y-74454650D01*
X130143374Y-74355310D01*
X130153549Y-74252000D01*
X130153549Y-72052000D01*
X130143374Y-71948690D01*
X130113239Y-71849350D01*
X130064304Y-71757798D01*
X129998448Y-71677552D01*
X129918202Y-71611696D01*
X129826650Y-71562761D01*
X129727310Y-71532626D01*
X129624000Y-71522451D01*
X129451000Y-71522451D01*
X129451000Y-71503975D01*
X130989688Y-69965288D01*
X130989693Y-69965282D01*
X131179287Y-69775688D01*
X131214659Y-69746659D01*
X131243688Y-69711287D01*
X131661427Y-69293549D01*
X132880000Y-69293549D01*
X132983310Y-69283374D01*
X133082650Y-69253239D01*
X133174202Y-69204304D01*
X133254448Y-69138448D01*
X133320304Y-69058202D01*
X133369239Y-68966650D01*
X133399374Y-68867310D01*
X133409549Y-68764000D01*
X133409549Y-68589276D01*
X133471302Y-68704808D01*
X133637131Y-68906870D01*
X133839193Y-69072698D01*
X134069723Y-69195919D01*
X134319864Y-69271799D01*
X134580000Y-69297420D01*
X134840137Y-69271799D01*
X135090278Y-69195919D01*
X135320808Y-69072698D01*
X135522870Y-68906870D01*
X135688698Y-68704808D01*
X135802981Y-68491000D01*
X136820106Y-68491000D01*
X136833130Y-68506870D01*
X137035192Y-68672698D01*
X137265722Y-68795919D01*
X137515863Y-68871799D01*
X137710816Y-68891000D01*
X138641184Y-68891000D01*
X138836137Y-68871799D01*
X139086278Y-68795919D01*
X139316808Y-68672698D01*
X139518870Y-68506870D01*
X139684698Y-68304808D01*
X139807919Y-68074278D01*
X139856830Y-67913039D01*
X149084096Y-67913039D01*
X149101633Y-67995818D01*
X149212285Y-68255646D01*
X149371500Y-68488895D01*
X149573161Y-68686601D01*
X149809517Y-68841166D01*
X150071486Y-68946650D01*
X150349000Y-68999000D01*
X150749000Y-68999000D01*
X150749000Y-67691000D01*
X151003000Y-67691000D01*
X151003000Y-68999000D01*
X151403000Y-68999000D01*
X151680514Y-68946650D01*
X151942483Y-68841166D01*
X152178839Y-68686601D01*
X152380500Y-68488895D01*
X152539715Y-68255646D01*
X152650367Y-67995818D01*
X152667904Y-67913039D01*
X152545915Y-67691000D01*
X151003000Y-67691000D01*
X150749000Y-67691000D01*
X149206085Y-67691000D01*
X149084096Y-67913039D01*
X139856830Y-67913039D01*
X139883799Y-67824137D01*
X139909420Y-67564000D01*
X139883799Y-67303863D01*
X139856831Y-67214961D01*
X149084096Y-67214961D01*
X149206085Y-67437000D01*
X150749000Y-67437000D01*
X150749000Y-66129000D01*
X151003000Y-66129000D01*
X151003000Y-67437000D01*
X152545915Y-67437000D01*
X152667904Y-67214961D01*
X152650367Y-67132182D01*
X152539715Y-66872354D01*
X152380500Y-66639105D01*
X152178839Y-66441399D01*
X151942483Y-66286834D01*
X151680514Y-66181350D01*
X151403000Y-66129000D01*
X151003000Y-66129000D01*
X150749000Y-66129000D01*
X150349000Y-66129000D01*
X150071486Y-66181350D01*
X149809517Y-66286834D01*
X149573161Y-66441399D01*
X149371500Y-66639105D01*
X149212285Y-66872354D01*
X149101633Y-67132182D01*
X149084096Y-67214961D01*
X139856831Y-67214961D01*
X139807919Y-67053722D01*
X139684698Y-66823192D01*
X139518870Y-66621130D01*
X139316808Y-66455302D01*
X139086278Y-66332081D01*
X138836137Y-66256201D01*
X138641184Y-66237000D01*
X137710816Y-66237000D01*
X137515863Y-66256201D01*
X137265722Y-66332081D01*
X137035192Y-66455302D01*
X136833130Y-66621130D01*
X136820106Y-66637000D01*
X135802981Y-66637000D01*
X135688698Y-66423192D01*
X135522870Y-66221130D01*
X135320807Y-66055302D01*
X135090277Y-65932081D01*
X134840136Y-65856201D01*
X134613132Y-65833843D01*
X137035976Y-63411000D01*
X138344106Y-63411000D01*
X138357130Y-63426870D01*
X138559192Y-63592698D01*
X138789722Y-63715919D01*
X138796627Y-63718014D01*
X138847540Y-63759797D01*
X139112815Y-63901590D01*
X139400656Y-63988905D01*
X139624989Y-64011000D01*
X152275497Y-64011000D01*
X154429000Y-66164504D01*
X154429001Y-75189110D01*
X154352690Y-75196626D01*
X154253350Y-75226761D01*
X154161798Y-75275696D01*
X154081552Y-75341552D01*
X154015696Y-75421798D01*
X153966761Y-75513350D01*
X153936626Y-75612690D01*
X153926451Y-75716000D01*
X153926451Y-76156574D01*
X153667025Y-76416000D01*
X148040894Y-76416000D01*
X148027870Y-76400130D01*
X147825808Y-76234302D01*
X147595278Y-76111081D01*
X147345137Y-76035201D01*
X147150184Y-76016000D01*
X146219816Y-76016000D01*
X146024863Y-76035201D01*
X145774722Y-76111081D01*
X145544192Y-76234302D01*
X145342130Y-76400130D01*
X145176302Y-76602192D01*
X145053081Y-76832722D01*
X144977201Y-77082863D01*
X144951580Y-77343000D01*
X144977201Y-77603137D01*
X145053081Y-77853278D01*
X145176302Y-78083808D01*
X145342130Y-78285870D01*
X145544192Y-78451698D01*
X145774722Y-78574919D01*
X146024863Y-78650799D01*
X146219816Y-78670000D01*
X147150184Y-78670000D01*
X147345137Y-78650799D01*
X147595278Y-78574919D01*
X147825808Y-78451698D01*
X148027870Y-78285870D01*
X148040894Y-78270000D01*
X153926451Y-78270000D01*
X153926451Y-78716000D01*
X153936626Y-78819310D01*
X153966761Y-78918650D01*
X154015696Y-79010202D01*
X154081552Y-79090448D01*
X154161798Y-79156304D01*
X154253350Y-79205239D01*
X154352690Y-79235374D01*
X154456000Y-79245549D01*
X157456000Y-79245549D01*
X157559310Y-79235374D01*
X157658650Y-79205239D01*
X157750202Y-79156304D01*
X157830448Y-79090448D01*
X157896304Y-79010202D01*
X157945239Y-78918650D01*
X157975374Y-78819310D01*
X157985549Y-78716000D01*
X157985549Y-75716000D01*
X157975374Y-75612690D01*
X157945239Y-75513350D01*
X157896304Y-75421798D01*
X157830448Y-75341552D01*
X157750202Y-75275696D01*
X157658650Y-75226761D01*
X157559310Y-75196626D01*
X157483000Y-75189110D01*
X157483000Y-65607004D01*
X157490387Y-65532000D01*
X157483000Y-65456996D01*
X157483000Y-65456989D01*
X157460905Y-65232656D01*
X157452515Y-65204996D01*
X157373590Y-64944815D01*
X157354293Y-64908713D01*
X157231797Y-64679540D01*
X157040976Y-64447024D01*
X156982713Y-64399209D01*
X154040797Y-61457294D01*
X153992976Y-61399024D01*
X153760460Y-61208203D01*
X153495185Y-61066410D01*
X153207344Y-60979095D01*
X152983011Y-60957000D01*
X152983001Y-60957000D01*
X152908000Y-60949613D01*
X152832999Y-60957000D01*
X139624989Y-60957000D01*
X139400656Y-60979095D01*
X139112815Y-61066410D01*
X138847540Y-61208203D01*
X138796627Y-61249986D01*
X138789722Y-61252081D01*
X138559192Y-61375302D01*
X138357130Y-61541130D01*
X138344106Y-61557000D01*
X136697526Y-61557000D01*
X136651999Y-61552516D01*
X136606472Y-61557000D01*
X136606462Y-61557000D01*
X136470276Y-61570413D01*
X136295536Y-61623420D01*
X136190590Y-61679516D01*
X136134494Y-61709499D01*
X136028712Y-61796312D01*
X136028708Y-61796316D01*
X135993341Y-61825341D01*
X135964316Y-61860708D01*
X132726713Y-65098312D01*
X132712025Y-65113000D01*
X131788503Y-65113000D01*
X131688802Y-65013299D01*
X131688793Y-65013288D01*
X125448797Y-58773294D01*
X125400976Y-58715024D01*
X125168460Y-58524203D01*
X124903185Y-58382410D01*
X124615344Y-58295095D01*
X124391011Y-58273000D01*
X124391001Y-58273000D01*
X124316000Y-58265613D01*
X124240999Y-58273000D01*
X112720989Y-58273000D01*
X112496656Y-58295095D01*
X112208815Y-58382410D01*
X112150433Y-58413616D01*
X111947269Y-58475245D01*
X111699366Y-58607752D01*
X111482077Y-58786077D01*
X111303752Y-59003366D01*
X111171245Y-59251269D01*
X111096000Y-59499319D01*
X111020755Y-59251269D01*
X110888248Y-59003366D01*
X110709923Y-58786077D01*
X110689587Y-58769388D01*
X111635976Y-57823000D01*
X130553025Y-57823000D01*
X130750451Y-58020426D01*
X130750451Y-58096000D01*
X130760626Y-58199310D01*
X130790761Y-58298650D01*
X130839696Y-58390202D01*
X130905552Y-58470448D01*
X130985798Y-58536304D01*
X131077350Y-58585239D01*
X131153001Y-58608188D01*
X131153000Y-61261019D01*
X130939192Y-61375302D01*
X130737130Y-61541130D01*
X130571302Y-61743192D01*
X130448081Y-61973722D01*
X130372201Y-62223863D01*
X130346580Y-62484000D01*
X130372201Y-62744137D01*
X130448081Y-62994278D01*
X130571302Y-63224808D01*
X130737130Y-63426870D01*
X130939192Y-63592698D01*
X131169722Y-63715919D01*
X131419863Y-63791799D01*
X131614816Y-63811000D01*
X132545184Y-63811000D01*
X132740137Y-63791799D01*
X132990278Y-63715919D01*
X133220808Y-63592698D01*
X133422870Y-63426870D01*
X133588698Y-63224808D01*
X133711919Y-62994278D01*
X133787799Y-62744137D01*
X133813420Y-62484000D01*
X133787799Y-62223863D01*
X133711919Y-61973722D01*
X133588698Y-61743192D01*
X133422870Y-61541130D01*
X133220808Y-61375302D01*
X133007000Y-61261019D01*
X133007000Y-58608188D01*
X133082650Y-58585239D01*
X133174202Y-58536304D01*
X133254448Y-58470448D01*
X133320304Y-58390202D01*
X133369239Y-58298650D01*
X133399374Y-58199310D01*
X133409549Y-58096000D01*
X133409549Y-57921276D01*
X133471302Y-58036808D01*
X133637131Y-58238870D01*
X133839193Y-58404698D01*
X134069723Y-58527919D01*
X134319864Y-58603799D01*
X134580000Y-58629420D01*
X134840137Y-58603799D01*
X135090278Y-58527919D01*
X135320808Y-58404698D01*
X135522870Y-58238870D01*
X135688698Y-58036808D01*
X135802981Y-57823000D01*
X136820106Y-57823000D01*
X136833130Y-57838870D01*
X137035192Y-58004698D01*
X137265722Y-58127919D01*
X137515863Y-58203799D01*
X137710816Y-58223000D01*
X138641184Y-58223000D01*
X138836137Y-58203799D01*
X139086278Y-58127919D01*
X139316808Y-58004698D01*
X139518870Y-57838870D01*
X139684698Y-57636808D01*
X139807919Y-57406278D01*
X139856830Y-57245039D01*
X144004096Y-57245039D01*
X144021633Y-57327818D01*
X144132285Y-57587646D01*
X144291500Y-57820895D01*
X144493161Y-58018601D01*
X144729517Y-58173166D01*
X144991486Y-58278650D01*
X145269000Y-58331000D01*
X145669000Y-58331000D01*
X145669000Y-57023000D01*
X145923000Y-57023000D01*
X145923000Y-58331000D01*
X146323000Y-58331000D01*
X146600514Y-58278650D01*
X146862483Y-58173166D01*
X147098839Y-58018601D01*
X147300500Y-57820895D01*
X147459715Y-57587646D01*
X147570367Y-57327818D01*
X147587904Y-57245039D01*
X147465915Y-57023000D01*
X145923000Y-57023000D01*
X145669000Y-57023000D01*
X144126085Y-57023000D01*
X144004096Y-57245039D01*
X139856830Y-57245039D01*
X139883799Y-57156137D01*
X139909420Y-56896000D01*
X139883799Y-56635863D01*
X139856831Y-56546961D01*
X144004096Y-56546961D01*
X144126085Y-56769000D01*
X145669000Y-56769000D01*
X145669000Y-55461000D01*
X145923000Y-55461000D01*
X145923000Y-56769000D01*
X147465915Y-56769000D01*
X147511235Y-56686509D01*
X153829000Y-56686509D01*
X153829000Y-57105491D01*
X153910739Y-57516423D01*
X154071077Y-57903512D01*
X154303851Y-58251884D01*
X154600116Y-58548149D01*
X154948488Y-58780923D01*
X155335577Y-58941261D01*
X155746509Y-59023000D01*
X156165491Y-59023000D01*
X156576423Y-58941261D01*
X156963512Y-58780923D01*
X157311884Y-58548149D01*
X157608149Y-58251884D01*
X157840923Y-57903512D01*
X158001261Y-57516423D01*
X158083000Y-57105491D01*
X158083000Y-56686509D01*
X158001261Y-56275577D01*
X157840923Y-55888488D01*
X157608149Y-55540116D01*
X157311884Y-55243851D01*
X156963512Y-55011077D01*
X156576423Y-54850739D01*
X156165491Y-54769000D01*
X155746509Y-54769000D01*
X155335577Y-54850739D01*
X154948488Y-55011077D01*
X154600116Y-55243851D01*
X154303851Y-55540116D01*
X154071077Y-55888488D01*
X153910739Y-56275577D01*
X153829000Y-56686509D01*
X147511235Y-56686509D01*
X147587904Y-56546961D01*
X147570367Y-56464182D01*
X147459715Y-56204354D01*
X147300500Y-55971105D01*
X147098839Y-55773399D01*
X146862483Y-55618834D01*
X146600514Y-55513350D01*
X146323000Y-55461000D01*
X145923000Y-55461000D01*
X145669000Y-55461000D01*
X145269000Y-55461000D01*
X144991486Y-55513350D01*
X144729517Y-55618834D01*
X144493161Y-55773399D01*
X144291500Y-55971105D01*
X144132285Y-56204354D01*
X144021633Y-56464182D01*
X144004096Y-56546961D01*
X139856831Y-56546961D01*
X139807919Y-56385722D01*
X139684698Y-56155192D01*
X139518870Y-55953130D01*
X139316808Y-55787302D01*
X139086278Y-55664081D01*
X138836137Y-55588201D01*
X138641184Y-55569000D01*
X137710816Y-55569000D01*
X137515863Y-55588201D01*
X137265722Y-55664081D01*
X137035192Y-55787302D01*
X136833130Y-55953130D01*
X136820106Y-55969000D01*
X135802981Y-55969000D01*
X135688698Y-55755192D01*
X135522870Y-55553130D01*
X135320807Y-55387302D01*
X135090277Y-55264081D01*
X134840136Y-55188201D01*
X134580000Y-55162580D01*
X134319863Y-55188201D01*
X134069722Y-55264081D01*
X133839192Y-55387302D01*
X133637130Y-55553130D01*
X133471302Y-55755193D01*
X133409549Y-55870725D01*
X133409549Y-55696000D01*
X133399374Y-55592690D01*
X133369239Y-55493350D01*
X133320304Y-55401798D01*
X133254448Y-55321552D01*
X133174202Y-55255696D01*
X133082650Y-55206761D01*
X132983310Y-55176626D01*
X132880000Y-55166451D01*
X131280000Y-55166451D01*
X131176690Y-55176626D01*
X131077350Y-55206761D01*
X130985798Y-55255696D01*
X130905552Y-55321552D01*
X130839696Y-55401798D01*
X130790761Y-55493350D01*
X130760626Y-55592690D01*
X130750451Y-55696000D01*
X130750451Y-55969000D01*
X111297524Y-55969000D01*
X111251999Y-55964516D01*
X111206474Y-55969000D01*
X111206462Y-55969000D01*
X111070276Y-55982413D01*
X110895536Y-56035420D01*
X110820573Y-56075489D01*
X110734494Y-56121499D01*
X110628711Y-56208313D01*
X110628708Y-56208316D01*
X110593341Y-56237341D01*
X110564316Y-56272708D01*
X108772713Y-58064312D01*
X108737341Y-58093341D01*
X108708313Y-58128712D01*
X108708312Y-58128713D01*
X108621499Y-58234495D01*
X108569916Y-58331000D01*
X108535420Y-58395537D01*
X108504269Y-58498229D01*
X108299366Y-58607752D01*
X108082077Y-58786077D01*
X107903752Y-59003366D01*
X107771245Y-59251269D01*
X107689648Y-59520259D01*
X107662096Y-59800000D01*
X107681947Y-60001549D01*
X105087244Y-57406848D01*
X105121670Y-57293361D01*
X105160807Y-56896000D01*
X105121670Y-56498639D01*
X105005764Y-56116548D01*
X104817543Y-55764411D01*
X104564240Y-55455760D01*
X104255589Y-55202457D01*
X103903452Y-55014236D01*
X103521361Y-54898330D01*
X103223571Y-54869000D01*
X69695571Y-54869000D01*
X69596000Y-54859193D01*
X69198638Y-54898330D01*
X68816547Y-55014236D01*
X68628326Y-55114843D01*
X68464411Y-55202457D01*
X68155760Y-55455760D01*
X68092283Y-55533107D01*
X55900288Y-67725102D01*
X55710458Y-67956411D01*
X55522237Y-68308548D01*
X55406331Y-68690639D01*
X55367194Y-69088000D01*
X55406331Y-69485361D01*
X55522237Y-69867452D01*
X55710458Y-70219589D01*
X55877000Y-70422522D01*
X55877001Y-76583495D01*
X54279594Y-78180903D01*
X54264304Y-78152298D01*
X54198448Y-78072052D01*
X54118202Y-78006196D01*
X54026650Y-77957261D01*
X53927310Y-77927126D01*
X53824000Y-77916951D01*
X50824000Y-77916951D01*
X50720690Y-77927126D01*
X50621350Y-77957261D01*
X50529798Y-78006196D01*
X50449552Y-78072052D01*
X50383696Y-78152298D01*
X50334761Y-78243850D01*
X50304626Y-78343190D01*
X50295000Y-78440926D01*
X50295000Y-76358153D01*
X51011952Y-76358153D01*
X51167962Y-76673714D01*
X51542745Y-76864520D01*
X51947551Y-76978544D01*
X52366824Y-77011402D01*
X52784451Y-76961834D01*
X53184383Y-76831743D01*
X53480038Y-76673714D01*
X53636048Y-76358153D01*
X52324000Y-75046105D01*
X51011952Y-76358153D01*
X50295000Y-76358153D01*
X50295000Y-75530878D01*
X50358757Y-75726883D01*
X50516786Y-76022538D01*
X50832347Y-76178548D01*
X52144395Y-74866500D01*
X52503605Y-74866500D01*
X53815653Y-76178548D01*
X54131214Y-76022538D01*
X54322020Y-75647755D01*
X54436044Y-75242949D01*
X54468902Y-74823676D01*
X54419334Y-74406049D01*
X54289243Y-74006117D01*
X54131214Y-73710462D01*
X53815653Y-73554452D01*
X52503605Y-74866500D01*
X52144395Y-74866500D01*
X50832347Y-73554452D01*
X50516786Y-73710462D01*
X50325980Y-74085245D01*
X50295000Y-74195230D01*
X50295000Y-73374847D01*
X51011952Y-73374847D01*
X52324000Y-74686895D01*
X53636048Y-73374847D01*
X53480038Y-73059286D01*
X53105255Y-72868480D01*
X52700449Y-72754456D01*
X52281176Y-72721598D01*
X51863549Y-72771166D01*
X51463617Y-72901257D01*
X51167962Y-73059286D01*
X51011952Y-73374847D01*
X50295000Y-73374847D01*
X50295000Y-72768503D01*
X51446477Y-71617027D01*
X51732746Y-71735604D01*
X52124358Y-71813500D01*
X52523642Y-71813500D01*
X52915254Y-71735604D01*
X53284145Y-71582804D01*
X53616137Y-71360974D01*
X53898474Y-71078637D01*
X54120304Y-70746645D01*
X54273104Y-70377754D01*
X54351000Y-69986142D01*
X54351000Y-69586858D01*
X54273104Y-69195246D01*
X54120304Y-68826355D01*
X53898474Y-68494363D01*
X53616137Y-68212026D01*
X53284145Y-67990196D01*
X52915254Y-67837396D01*
X52523642Y-67759500D01*
X52124358Y-67759500D01*
X51732746Y-67837396D01*
X51363855Y-67990196D01*
X51031863Y-68212026D01*
X50978041Y-68265848D01*
X50845455Y-68278906D01*
X50818155Y-68281595D01*
X50546501Y-68364000D01*
X50530315Y-68368910D01*
X50265040Y-68510703D01*
X50237573Y-68533245D01*
X50090788Y-68653707D01*
X50090783Y-68653712D01*
X50032524Y-68701524D01*
X49984712Y-68759783D01*
X47741293Y-71003204D01*
X47683024Y-71051024D01*
X47492203Y-71283541D01*
X47350410Y-71548816D01*
X47263095Y-71836657D01*
X47241000Y-72060990D01*
X47241000Y-72060999D01*
X47233613Y-72136000D01*
X46680000Y-72136000D01*
X46680000Y-56686509D01*
X49181000Y-56686509D01*
X49181000Y-57105491D01*
X49262739Y-57516423D01*
X49423077Y-57903512D01*
X49655851Y-58251884D01*
X49952116Y-58548149D01*
X50300488Y-58780923D01*
X50687577Y-58941261D01*
X51098509Y-59023000D01*
X51517491Y-59023000D01*
X51928423Y-58941261D01*
X52315512Y-58780923D01*
X52663884Y-58548149D01*
X52960149Y-58251884D01*
X53192923Y-57903512D01*
X53353261Y-57516423D01*
X53435000Y-57105491D01*
X53435000Y-56686509D01*
X53353261Y-56275577D01*
X53192923Y-55888488D01*
X52960149Y-55540116D01*
X52663884Y-55243851D01*
X52315512Y-55011077D01*
X51928423Y-54850739D01*
X51517491Y-54769000D01*
X51098509Y-54769000D01*
X50687577Y-54850739D01*
X50300488Y-55011077D01*
X49952116Y-55243851D01*
X49655851Y-55540116D01*
X49423077Y-55888488D01*
X49262739Y-56275577D01*
X49181000Y-56686509D01*
X46680000Y-56686509D01*
X46680000Y-52268000D01*
X160584001Y-52268000D01*
X160584000Y-111308000D01*
G36*
X106846053Y-62070451D02*
G01*
X106496000Y-62070451D01*
X106392690Y-62080626D01*
X106293350Y-62110761D01*
X106201798Y-62159696D01*
X106121552Y-62225552D01*
X106055696Y-62305798D01*
X106006761Y-62397350D01*
X105976626Y-62496690D01*
X105966451Y-62600000D01*
X105966451Y-63918574D01*
X105040713Y-64844312D01*
X105005341Y-64873341D01*
X104976313Y-64908712D01*
X104976312Y-64908713D01*
X104889499Y-65014495D01*
X104810275Y-65162713D01*
X104803420Y-65175537D01*
X104750413Y-65350277D01*
X104737000Y-65486463D01*
X104737000Y-65486473D01*
X104732516Y-65532000D01*
X104737000Y-65577527D01*
X104737001Y-74978025D01*
X94921688Y-65162713D01*
X94892659Y-65127341D01*
X94751505Y-65011499D01*
X94590464Y-64925420D01*
X94415724Y-64872413D01*
X94279538Y-64859000D01*
X94279527Y-64859000D01*
X94234000Y-64854516D01*
X94188473Y-64859000D01*
X90911287Y-64859000D01*
X91024698Y-64720808D01*
X91147919Y-64490278D01*
X91223799Y-64240137D01*
X91243000Y-64045183D01*
X91243000Y-63114816D01*
X91223799Y-62919863D01*
X91147919Y-62669722D01*
X91024698Y-62439192D01*
X90858870Y-62237130D01*
X90656807Y-62071302D01*
X90426277Y-61948081D01*
X90176136Y-61872201D01*
X89916000Y-61846580D01*
X89655863Y-61872201D01*
X89405722Y-61948081D01*
X89175192Y-62071302D01*
X88973130Y-62237130D01*
X88807302Y-62439193D01*
X88693020Y-62653000D01*
X86765548Y-62653000D01*
X86686870Y-62557130D01*
X86484808Y-62391302D01*
X86254278Y-62268081D01*
X86004137Y-62192201D01*
X85809184Y-62173000D01*
X84878816Y-62173000D01*
X84683863Y-62192201D01*
X84433722Y-62268081D01*
X84203192Y-62391302D01*
X84001130Y-62557130D01*
X83835302Y-62759192D01*
X83712081Y-62989722D01*
X83636201Y-63239863D01*
X83610580Y-63500000D01*
X83636201Y-63760137D01*
X83668014Y-63865010D01*
X82291010Y-65242015D01*
X82291010Y-63629536D01*
X82295494Y-63584009D01*
X82291010Y-63538482D01*
X82291010Y-63538472D01*
X82277597Y-63402286D01*
X82224590Y-63227546D01*
X82138511Y-63066504D01*
X82051698Y-62960722D01*
X82051694Y-62960718D01*
X82022669Y-62925351D01*
X81987303Y-62896327D01*
X79935688Y-60844713D01*
X79906659Y-60809341D01*
X79765505Y-60693499D01*
X79604464Y-60607420D01*
X79429724Y-60554413D01*
X79293538Y-60541000D01*
X79293527Y-60541000D01*
X79248000Y-60536516D01*
X79202473Y-60541000D01*
X76245527Y-60541000D01*
X76200000Y-60536516D01*
X76154473Y-60541000D01*
X76154462Y-60541000D01*
X76018276Y-60554413D01*
X75879093Y-60596634D01*
X75843536Y-60607420D01*
X75682494Y-60693499D01*
X75576712Y-60780312D01*
X75576708Y-60780316D01*
X75541341Y-60809341D01*
X75512316Y-60844708D01*
X72528708Y-63828317D01*
X72493342Y-63857341D01*
X72464317Y-63892708D01*
X72464312Y-63892713D01*
X72377499Y-63998495D01*
X72291420Y-64159537D01*
X72270249Y-64229331D01*
X72238414Y-64334276D01*
X72236027Y-64358511D01*
X72220516Y-64516000D01*
X72225001Y-64561537D01*
X72225000Y-66288106D01*
X72209130Y-66301130D01*
X72043302Y-66503193D01*
X71920081Y-66733723D01*
X71844201Y-66983864D01*
X71825000Y-67178817D01*
X71825000Y-68109184D01*
X71844201Y-68304137D01*
X71920081Y-68554278D01*
X72043302Y-68784808D01*
X72209131Y-68986870D01*
X72411193Y-69152698D01*
X72641723Y-69275919D01*
X72891864Y-69351799D01*
X73152000Y-69377420D01*
X73412137Y-69351799D01*
X73662278Y-69275919D01*
X73892808Y-69152698D01*
X74094870Y-68986870D01*
X74260698Y-68784808D01*
X74374981Y-68571000D01*
X76459273Y-68571000D01*
X76583192Y-68672698D01*
X76813722Y-68795919D01*
X77063863Y-68871799D01*
X77258816Y-68891000D01*
X78189184Y-68891000D01*
X78384137Y-68871799D01*
X78634278Y-68795919D01*
X78864808Y-68672698D01*
X79019500Y-68545745D01*
X79019501Y-72958523D01*
X77933074Y-74044951D01*
X76714500Y-74044951D01*
X76611190Y-74055126D01*
X76511850Y-74085261D01*
X76420298Y-74134196D01*
X76340052Y-74200052D01*
X76274196Y-74280298D01*
X76225261Y-74371850D01*
X76217246Y-74398270D01*
X74479000Y-72660025D01*
X74479000Y-72178816D01*
X74459799Y-71983863D01*
X74383919Y-71733722D01*
X74260698Y-71503192D01*
X74094870Y-71301130D01*
X73892807Y-71135302D01*
X73662277Y-71012081D01*
X73412136Y-70936201D01*
X73152000Y-70910580D01*
X72891863Y-70936201D01*
X72641722Y-71012081D01*
X72411192Y-71135302D01*
X72209130Y-71301130D01*
X72043302Y-71503193D01*
X71929020Y-71717000D01*
X63545524Y-71717000D01*
X63499999Y-71712516D01*
X63454474Y-71717000D01*
X63454462Y-71717000D01*
X63318276Y-71730413D01*
X63143536Y-71783420D01*
X63087261Y-71813500D01*
X62982494Y-71869499D01*
X62876711Y-71956313D01*
X62876708Y-71956316D01*
X62841341Y-71985341D01*
X62812316Y-72020708D01*
X60336708Y-74496317D01*
X60301342Y-74525341D01*
X60272317Y-74560708D01*
X60272312Y-74560713D01*
X60185499Y-74666495D01*
X60099420Y-74827537D01*
X60046414Y-75002277D01*
X60028516Y-75184000D01*
X60033001Y-75229537D01*
X60033000Y-76501019D01*
X59819192Y-76615302D01*
X59617130Y-76781130D01*
X59451302Y-76983192D01*
X59328081Y-77213722D01*
X59252201Y-77463863D01*
X59226580Y-77724000D01*
X59252201Y-77984137D01*
X59328081Y-78234278D01*
X59451302Y-78464808D01*
X59617130Y-78666870D01*
X59819192Y-78832698D01*
X60033001Y-78946981D01*
X60033000Y-89201019D01*
X59819192Y-89315302D01*
X59617130Y-89481130D01*
X59451302Y-89683192D01*
X59328081Y-89913722D01*
X59252201Y-90163863D01*
X59226580Y-90424000D01*
X59252201Y-90684137D01*
X59328081Y-90934278D01*
X59451302Y-91164808D01*
X59617130Y-91366870D01*
X59819192Y-91532698D01*
X60049722Y-91655919D01*
X60299863Y-91731799D01*
X60494816Y-91751000D01*
X61425184Y-91751000D01*
X61620137Y-91731799D01*
X61870278Y-91655919D01*
X62100808Y-91532698D01*
X62302870Y-91366870D01*
X62468698Y-91164808D01*
X62591919Y-90934278D01*
X62667799Y-90684137D01*
X62693420Y-90424000D01*
X62667799Y-90163863D01*
X62591919Y-89913722D01*
X62468698Y-89683192D01*
X62302870Y-89481130D01*
X62100808Y-89315302D01*
X61887000Y-89201019D01*
X61887000Y-78946981D01*
X62100808Y-78832698D01*
X62302870Y-78666870D01*
X62468698Y-78464808D01*
X62591919Y-78234278D01*
X62667799Y-77984137D01*
X62693420Y-77724000D01*
X62667799Y-77463863D01*
X62591919Y-77213722D01*
X62468698Y-76983192D01*
X62302870Y-76781130D01*
X62100808Y-76615302D01*
X61887000Y-76501019D01*
X61887000Y-75567975D01*
X63883976Y-73571000D01*
X71929019Y-73571000D01*
X72043302Y-73784808D01*
X72209131Y-73986870D01*
X72411193Y-74152698D01*
X72641723Y-74275919D01*
X72891864Y-74351799D01*
X73152000Y-74377420D01*
X73412137Y-74351799D01*
X73517010Y-74319986D01*
X75194816Y-75997792D01*
X75223841Y-76033159D01*
X75259208Y-76062184D01*
X75259212Y-76062188D01*
X75364994Y-76149001D01*
X75412700Y-76174500D01*
X75526036Y-76235080D01*
X75700776Y-76288087D01*
X75836962Y-76301500D01*
X75836972Y-76301500D01*
X75882499Y-76305984D01*
X75928026Y-76301500D01*
X76202312Y-76301500D01*
X76225261Y-76377150D01*
X76274196Y-76468702D01*
X76340052Y-76548948D01*
X76420298Y-76614804D01*
X76511850Y-76663739D01*
X76611190Y-76693874D01*
X76714500Y-76704049D01*
X76964058Y-76704049D01*
X76790159Y-76797000D01*
X69935894Y-76797000D01*
X69922870Y-76781130D01*
X69720808Y-76615302D01*
X69490278Y-76492081D01*
X69240137Y-76416201D01*
X69045184Y-76397000D01*
X68114816Y-76397000D01*
X67919863Y-76416201D01*
X67669722Y-76492081D01*
X67439192Y-76615302D01*
X67237130Y-76781130D01*
X67071302Y-76983192D01*
X66948081Y-77213722D01*
X66872201Y-77463863D01*
X66846580Y-77724000D01*
X66872201Y-77984137D01*
X66948081Y-78234278D01*
X67071302Y-78464808D01*
X67237130Y-78666870D01*
X67439192Y-78832698D01*
X67669722Y-78955919D01*
X67919863Y-79031799D01*
X68114816Y-79051000D01*
X69045184Y-79051000D01*
X69240137Y-79031799D01*
X69490278Y-78955919D01*
X69720808Y-78832698D01*
X69922870Y-78666870D01*
X69935894Y-78651000D01*
X76403499Y-78651000D01*
X76405802Y-78655308D01*
X76571630Y-78857370D01*
X76773692Y-79023198D01*
X76970096Y-79128178D01*
X76848017Y-79177334D01*
X76611661Y-79331899D01*
X76410000Y-79529605D01*
X76250785Y-79762854D01*
X76140133Y-80022682D01*
X76122596Y-80105461D01*
X76244585Y-80327500D01*
X77787500Y-80327500D01*
X77787500Y-80307500D01*
X78041500Y-80307500D01*
X78041500Y-80327500D01*
X79584415Y-80327500D01*
X79706404Y-80105461D01*
X79688867Y-80022682D01*
X79578215Y-79762854D01*
X79419000Y-79529605D01*
X79217339Y-79331899D01*
X78980983Y-79177334D01*
X78858904Y-79128178D01*
X79055308Y-79023198D01*
X79257370Y-78857370D01*
X79270394Y-78841500D01*
X79868973Y-78841500D01*
X79914500Y-78845984D01*
X79960027Y-78841500D01*
X79960038Y-78841500D01*
X80096224Y-78828087D01*
X80270964Y-78775080D01*
X80432005Y-78689001D01*
X80573159Y-78573159D01*
X80602188Y-78537787D01*
X81987302Y-77152674D01*
X82022669Y-77123649D01*
X82051694Y-77088282D01*
X82051698Y-77088278D01*
X82138512Y-76982496D01*
X82186236Y-76893211D01*
X83830816Y-78537792D01*
X83859841Y-78573159D01*
X83895208Y-78602184D01*
X83895212Y-78602188D01*
X84000994Y-78689001D01*
X84051506Y-78716000D01*
X84094448Y-78738953D01*
X84191630Y-78857370D01*
X84393692Y-79023198D01*
X84590096Y-79128178D01*
X84468017Y-79177334D01*
X84231661Y-79331899D01*
X84030000Y-79529605D01*
X83870785Y-79762854D01*
X83760133Y-80022682D01*
X83742596Y-80105461D01*
X83864585Y-80327500D01*
X85407500Y-80327500D01*
X85407500Y-80307500D01*
X85661500Y-80307500D01*
X85661500Y-80327500D01*
X87204415Y-80327500D01*
X87326404Y-80105461D01*
X87308867Y-80022682D01*
X87198215Y-79762854D01*
X87039000Y-79529605D01*
X86837339Y-79331899D01*
X86600983Y-79177334D01*
X86555451Y-79159000D01*
X92116106Y-79159000D01*
X92129130Y-79174870D01*
X92331192Y-79340698D01*
X92561722Y-79463919D01*
X92811863Y-79539799D01*
X93006816Y-79559000D01*
X93937184Y-79559000D01*
X94132137Y-79539799D01*
X94382278Y-79463919D01*
X94612808Y-79340698D01*
X94814870Y-79174870D01*
X94980698Y-78972808D01*
X95103919Y-78742278D01*
X95179799Y-78492137D01*
X95205420Y-78232000D01*
X95179799Y-77971863D01*
X95103919Y-77721722D01*
X94980698Y-77491192D01*
X94814870Y-77289130D01*
X94612808Y-77123302D01*
X94382278Y-77000081D01*
X94132137Y-76924201D01*
X93937184Y-76905000D01*
X93006816Y-76905000D01*
X92811863Y-76924201D01*
X92561722Y-77000081D01*
X92331192Y-77123302D01*
X92129130Y-77289130D01*
X92116106Y-77305000D01*
X87113384Y-77305000D01*
X87043198Y-77173692D01*
X86877370Y-76971630D01*
X86675308Y-76805802D01*
X86444778Y-76682581D01*
X86319243Y-76644500D01*
X86444778Y-76606419D01*
X86675308Y-76483198D01*
X86877370Y-76317370D01*
X87043198Y-76115308D01*
X87166419Y-75884778D01*
X87242299Y-75634637D01*
X87267920Y-75374500D01*
X87242299Y-75114363D01*
X87210486Y-75009489D01*
X90539292Y-71680684D01*
X90574659Y-71651659D01*
X90603684Y-71616292D01*
X90603688Y-71616288D01*
X90690502Y-71510506D01*
X90776580Y-71349464D01*
X90780664Y-71336000D01*
X90829587Y-71174724D01*
X90843000Y-71038538D01*
X90843000Y-71038527D01*
X90847484Y-70993000D01*
X90843000Y-70947473D01*
X90843000Y-69979975D01*
X91315976Y-69507000D01*
X92072025Y-69507000D01*
X99806815Y-77241790D01*
X99749130Y-77289130D01*
X99583302Y-77491192D01*
X99460081Y-77721722D01*
X99384201Y-77971863D01*
X99358580Y-78232000D01*
X99384201Y-78492137D01*
X99460081Y-78742278D01*
X99583302Y-78972808D01*
X99749130Y-79174870D01*
X99951192Y-79340698D01*
X100165001Y-79454981D01*
X100165000Y-82758473D01*
X100160516Y-82804000D01*
X100165000Y-82849527D01*
X100165000Y-82849537D01*
X100178413Y-82985723D01*
X100222443Y-83130870D01*
X100231420Y-83160463D01*
X100317499Y-83321505D01*
X100404312Y-83427287D01*
X100433341Y-83462659D01*
X100468713Y-83491688D01*
X100778451Y-83801426D01*
X100778451Y-85020000D01*
X100788626Y-85123310D01*
X100818761Y-85222650D01*
X100867696Y-85314202D01*
X100933552Y-85394448D01*
X101013798Y-85460304D01*
X101105350Y-85509239D01*
X101204690Y-85539374D01*
X101308000Y-85549549D01*
X102908000Y-85549549D01*
X103011310Y-85539374D01*
X103110650Y-85509239D01*
X103202202Y-85460304D01*
X103213001Y-85451442D01*
X103213001Y-90595023D01*
X101263025Y-92545000D01*
X96903976Y-92545000D01*
X95147986Y-90789010D01*
X95179799Y-90684137D01*
X95205420Y-90424000D01*
X95179799Y-90163863D01*
X95103919Y-89913722D01*
X94980698Y-89683192D01*
X94814870Y-89481130D01*
X94612808Y-89315302D01*
X94612245Y-89315001D01*
X98672026Y-89315001D01*
X99416014Y-90058990D01*
X99384201Y-90163863D01*
X99358580Y-90424000D01*
X99384201Y-90684137D01*
X99460081Y-90934278D01*
X99583302Y-91164808D01*
X99749130Y-91366870D01*
X99951192Y-91532698D01*
X100181722Y-91655919D01*
X100431863Y-91731799D01*
X100626816Y-91751000D01*
X101557184Y-91751000D01*
X101752137Y-91731799D01*
X102002278Y-91655919D01*
X102232808Y-91532698D01*
X102434870Y-91366870D01*
X102600698Y-91164808D01*
X102723919Y-90934278D01*
X102799799Y-90684137D01*
X102825420Y-90424000D01*
X102799799Y-90163863D01*
X102723919Y-89913722D01*
X102600698Y-89683192D01*
X102434870Y-89481130D01*
X102232808Y-89315302D01*
X102002278Y-89192081D01*
X101752137Y-89116201D01*
X101557184Y-89097000D01*
X101075976Y-89097000D01*
X99743688Y-87764713D01*
X99714660Y-87729342D01*
X99573506Y-87613500D01*
X99412465Y-87527421D01*
X99237725Y-87474414D01*
X99101539Y-87461001D01*
X99101528Y-87461001D01*
X99056001Y-87456517D01*
X99010474Y-87461001D01*
X97722277Y-87461001D01*
X97797166Y-87346483D01*
X97902650Y-87084514D01*
X97955000Y-86807000D01*
X97955000Y-86407000D01*
X96647000Y-86407000D01*
X96647000Y-86427000D01*
X96393000Y-86427000D01*
X96393000Y-86407000D01*
X95085000Y-86407000D01*
X95085000Y-86807000D01*
X95137350Y-87084514D01*
X95242834Y-87346483D01*
X95317723Y-87461001D01*
X87111246Y-87461001D01*
X87043198Y-87333692D01*
X86877370Y-87131630D01*
X86675308Y-86965802D01*
X86478904Y-86860822D01*
X86600983Y-86811666D01*
X86837339Y-86657101D01*
X87039000Y-86459395D01*
X87198215Y-86226146D01*
X87308867Y-85966318D01*
X87316152Y-85931927D01*
X89140096Y-85931927D01*
X89157633Y-86014706D01*
X89268285Y-86274534D01*
X89427500Y-86507783D01*
X89629161Y-86705489D01*
X89865517Y-86860054D01*
X90127486Y-86965538D01*
X90405000Y-87017888D01*
X90805000Y-87017888D01*
X90805000Y-85709888D01*
X91059000Y-85709888D01*
X91059000Y-87017888D01*
X91459000Y-87017888D01*
X91736514Y-86965538D01*
X91998483Y-86860054D01*
X92234839Y-86705489D01*
X92436500Y-86507783D01*
X92595715Y-86274534D01*
X92706367Y-86014706D01*
X92723904Y-85931927D01*
X92625601Y-85753000D01*
X95085000Y-85753000D01*
X95085000Y-86153000D01*
X96393000Y-86153000D01*
X96393000Y-84610085D01*
X96647000Y-84610085D01*
X96647000Y-86153000D01*
X97955000Y-86153000D01*
X97955000Y-85753000D01*
X97902650Y-85475486D01*
X97797166Y-85213517D01*
X97642601Y-84977161D01*
X97444895Y-84775500D01*
X97211646Y-84616285D01*
X96951818Y-84505633D01*
X96869039Y-84488096D01*
X96647000Y-84610085D01*
X96393000Y-84610085D01*
X96170961Y-84488096D01*
X96088182Y-84505633D01*
X95828354Y-84616285D01*
X95595105Y-84775500D01*
X95397399Y-84977161D01*
X95242834Y-85213517D01*
X95137350Y-85475486D01*
X95085000Y-85753000D01*
X92625601Y-85753000D01*
X92601915Y-85709888D01*
X91059000Y-85709888D01*
X90805000Y-85709888D01*
X89262085Y-85709888D01*
X89140096Y-85931927D01*
X87316152Y-85931927D01*
X87326404Y-85883539D01*
X87204415Y-85661500D01*
X85661500Y-85661500D01*
X85661500Y-85681500D01*
X85407500Y-85681500D01*
X85407500Y-85661500D01*
X83864585Y-85661500D01*
X83742596Y-85883539D01*
X83760133Y-85966318D01*
X83870785Y-86226146D01*
X84030000Y-86459395D01*
X84231661Y-86657101D01*
X84468017Y-86811666D01*
X84590096Y-86860822D01*
X84393692Y-86965802D01*
X84191630Y-87131630D01*
X84025802Y-87333692D01*
X83972649Y-87433134D01*
X83957816Y-87451208D01*
X82688708Y-88720317D01*
X82653342Y-88749341D01*
X82624317Y-88784708D01*
X82624312Y-88784713D01*
X82537499Y-88890495D01*
X82451420Y-89051537D01*
X82425633Y-89136548D01*
X82398414Y-89226276D01*
X82389646Y-89315302D01*
X82380516Y-89408000D01*
X82385001Y-89453537D01*
X82385000Y-94612024D01*
X79772025Y-97225000D01*
X79290816Y-97225000D01*
X79095863Y-97244201D01*
X78845722Y-97320081D01*
X78615192Y-97443302D01*
X78413130Y-97609130D01*
X78247302Y-97811192D01*
X78124081Y-98041722D01*
X78048201Y-98291863D01*
X78022580Y-98552000D01*
X78048201Y-98812137D01*
X78124081Y-99062278D01*
X78247302Y-99292808D01*
X78413130Y-99494870D01*
X78615192Y-99660698D01*
X78845722Y-99783919D01*
X79095863Y-99859799D01*
X79290816Y-99879000D01*
X80221184Y-99879000D01*
X80416137Y-99859799D01*
X80666278Y-99783919D01*
X80896808Y-99660698D01*
X81098870Y-99494870D01*
X81264698Y-99292808D01*
X81387919Y-99062278D01*
X81393463Y-99044000D01*
X109105928Y-99044000D01*
X109118188Y-99168482D01*
X109154498Y-99288180D01*
X109213463Y-99398494D01*
X109292815Y-99495185D01*
X109389506Y-99574537D01*
X109499820Y-99633502D01*
X109619518Y-99669812D01*
X109744000Y-99682072D01*
X110458250Y-99679000D01*
X110617000Y-99520250D01*
X110617000Y-98171000D01*
X110871000Y-98171000D01*
X110871000Y-99520250D01*
X111029750Y-99679000D01*
X111744000Y-99682072D01*
X111868482Y-99669812D01*
X111988180Y-99633502D01*
X112098494Y-99574537D01*
X112195185Y-99495185D01*
X112274537Y-99398494D01*
X112333502Y-99288180D01*
X112369812Y-99168482D01*
X112382072Y-99044000D01*
X112379000Y-98329750D01*
X112220250Y-98171000D01*
X110871000Y-98171000D01*
X110617000Y-98171000D01*
X109267750Y-98171000D01*
X109109000Y-98329750D01*
X109105928Y-99044000D01*
X81393463Y-99044000D01*
X81463799Y-98812137D01*
X81489420Y-98552000D01*
X81463799Y-98291863D01*
X81431986Y-98186990D01*
X82574976Y-97044000D01*
X109105928Y-97044000D01*
X109109000Y-97758250D01*
X109267750Y-97917000D01*
X110617000Y-97917000D01*
X110617000Y-96567750D01*
X110871000Y-96567750D01*
X110871000Y-97917000D01*
X112220250Y-97917000D01*
X112379000Y-97758250D01*
X112382072Y-97044000D01*
X112369812Y-96919518D01*
X112333502Y-96799820D01*
X112274537Y-96689506D01*
X112195185Y-96592815D01*
X112098494Y-96513463D01*
X111988180Y-96454498D01*
X111868482Y-96418188D01*
X111744000Y-96405928D01*
X111029750Y-96409000D01*
X110871000Y-96567750D01*
X110617000Y-96567750D01*
X110458250Y-96409000D01*
X109744000Y-96405928D01*
X109619518Y-96418188D01*
X109499820Y-96454498D01*
X109389506Y-96513463D01*
X109292815Y-96592815D01*
X109213463Y-96689506D01*
X109154498Y-96799820D01*
X109118188Y-96919518D01*
X109105928Y-97044000D01*
X82574976Y-97044000D01*
X83765937Y-95853039D01*
X91616596Y-95853039D01*
X91634133Y-95935818D01*
X91744785Y-96195646D01*
X91904000Y-96428895D01*
X92105661Y-96626601D01*
X92342017Y-96781166D01*
X92603986Y-96886650D01*
X92881500Y-96939000D01*
X93281500Y-96939000D01*
X93281500Y-95631000D01*
X93535500Y-95631000D01*
X93535500Y-96939000D01*
X93935500Y-96939000D01*
X94213014Y-96886650D01*
X94474983Y-96781166D01*
X94711339Y-96626601D01*
X94913000Y-96428895D01*
X95072215Y-96195646D01*
X95182867Y-95935818D01*
X95200404Y-95853039D01*
X95078415Y-95631000D01*
X93535500Y-95631000D01*
X93281500Y-95631000D01*
X91738585Y-95631000D01*
X91616596Y-95853039D01*
X83765937Y-95853039D01*
X83935293Y-95683683D01*
X83970659Y-95654659D01*
X83999684Y-95619292D01*
X83999687Y-95619289D01*
X84086501Y-95513506D01*
X84172579Y-95352465D01*
X84172580Y-95352464D01*
X84225587Y-95177724D01*
X84227828Y-95154961D01*
X91616596Y-95154961D01*
X91738585Y-95377000D01*
X93281500Y-95377000D01*
X93281500Y-94069000D01*
X93535500Y-94069000D01*
X93535500Y-95377000D01*
X95078415Y-95377000D01*
X95200404Y-95154961D01*
X95182867Y-95072182D01*
X95072215Y-94812354D01*
X94913000Y-94579105D01*
X94711339Y-94381399D01*
X94474983Y-94226834D01*
X94213014Y-94121350D01*
X93935500Y-94069000D01*
X93535500Y-94069000D01*
X93281500Y-94069000D01*
X92881500Y-94069000D01*
X92603986Y-94121350D01*
X92342017Y-94226834D01*
X92105661Y-94381399D01*
X91904000Y-94579105D01*
X91744785Y-94812354D01*
X91634133Y-95072182D01*
X91616596Y-95154961D01*
X84227828Y-95154961D01*
X84239000Y-95041538D01*
X84239000Y-95041526D01*
X84243484Y-94996001D01*
X84239000Y-94950476D01*
X84239000Y-91596246D01*
X84393692Y-91723198D01*
X84624222Y-91846419D01*
X84874363Y-91922299D01*
X85069316Y-91941500D01*
X85999684Y-91941500D01*
X86194637Y-91922299D01*
X86444778Y-91846419D01*
X86675308Y-91723198D01*
X86877370Y-91557370D01*
X87043198Y-91355308D01*
X87045501Y-91351000D01*
X92116106Y-91351000D01*
X92129130Y-91366870D01*
X92331192Y-91532698D01*
X92561722Y-91655919D01*
X92811863Y-91731799D01*
X93006816Y-91751000D01*
X93488025Y-91751000D01*
X95832316Y-94095292D01*
X95861341Y-94130659D01*
X95896708Y-94159684D01*
X95896712Y-94159688D01*
X96002494Y-94246501D01*
X96050351Y-94272081D01*
X96163536Y-94332580D01*
X96338276Y-94385587D01*
X96474462Y-94399000D01*
X96474473Y-94399000D01*
X96520000Y-94403484D01*
X96565527Y-94399000D01*
X99883186Y-94399000D01*
X99685630Y-94561130D01*
X99519802Y-94763192D01*
X99396581Y-94993722D01*
X99320701Y-95243863D01*
X99295080Y-95504000D01*
X99320701Y-95764137D01*
X99396581Y-96014278D01*
X99519802Y-96244808D01*
X99685630Y-96446870D01*
X99887692Y-96612698D01*
X100118222Y-96735919D01*
X100368363Y-96811799D01*
X100563316Y-96831000D01*
X101493684Y-96831000D01*
X101688637Y-96811799D01*
X101938778Y-96735919D01*
X102169308Y-96612698D01*
X102235958Y-96558000D01*
X103459473Y-96558000D01*
X103505000Y-96562484D01*
X103550527Y-96558000D01*
X103550538Y-96558000D01*
X103686724Y-96544587D01*
X103861464Y-96491580D01*
X104022505Y-96405501D01*
X104163659Y-96289659D01*
X104192688Y-96254287D01*
X107731292Y-92715684D01*
X107766659Y-92686659D01*
X107795684Y-92651292D01*
X107795687Y-92651289D01*
X107882501Y-92545506D01*
X107943458Y-92431463D01*
X107968580Y-92384464D01*
X108021587Y-92209724D01*
X108035000Y-92073538D01*
X108035000Y-92073526D01*
X108039484Y-92028001D01*
X108035000Y-91982476D01*
X108035000Y-85175894D01*
X108050870Y-85162870D01*
X108216698Y-84960808D01*
X108339919Y-84730278D01*
X108415799Y-84480137D01*
X108435000Y-84285183D01*
X108435000Y-83354816D01*
X108415799Y-83159863D01*
X108339919Y-82909722D01*
X108216698Y-82679192D01*
X108050870Y-82477130D01*
X108035000Y-82464106D01*
X108035000Y-82421524D01*
X108039484Y-82375999D01*
X108035000Y-82330474D01*
X108035000Y-82330462D01*
X108021587Y-82194276D01*
X107968580Y-82019536D01*
X107922699Y-81933700D01*
X107882501Y-81858494D01*
X107795687Y-81752711D01*
X107795684Y-81752708D01*
X107766659Y-81717341D01*
X107731293Y-81688317D01*
X106591000Y-80548025D01*
X106591000Y-70413039D01*
X109460096Y-70413039D01*
X109477633Y-70495818D01*
X109588285Y-70755646D01*
X109747500Y-70988895D01*
X109949161Y-71186601D01*
X110185517Y-71341166D01*
X110447486Y-71446650D01*
X110725000Y-71499000D01*
X111125000Y-71499000D01*
X111125000Y-70191000D01*
X111379000Y-70191000D01*
X111379000Y-71499000D01*
X111779000Y-71499000D01*
X112056514Y-71446650D01*
X112318483Y-71341166D01*
X112554839Y-71186601D01*
X112756500Y-70988895D01*
X112915715Y-70755646D01*
X113026367Y-70495818D01*
X113043904Y-70413039D01*
X112921915Y-70191000D01*
X111379000Y-70191000D01*
X111125000Y-70191000D01*
X109582085Y-70191000D01*
X109460096Y-70413039D01*
X106591000Y-70413039D01*
X106591000Y-65915975D01*
X107577427Y-64929549D01*
X108896000Y-64929549D01*
X108999310Y-64919374D01*
X109098650Y-64889239D01*
X109190202Y-64840304D01*
X109270448Y-64774448D01*
X109336304Y-64694202D01*
X109385239Y-64602650D01*
X109415374Y-64503310D01*
X109425549Y-64400000D01*
X109425549Y-63898091D01*
X109471245Y-64048731D01*
X109603752Y-64296634D01*
X109782077Y-64513923D01*
X109999366Y-64692248D01*
X110225001Y-64812852D01*
X110225000Y-66234451D01*
X110052000Y-66234451D01*
X109948690Y-66244626D01*
X109849350Y-66274761D01*
X109757798Y-66323696D01*
X109677552Y-66389552D01*
X109611696Y-66469798D01*
X109562761Y-66561350D01*
X109532626Y-66660690D01*
X109522451Y-66764000D01*
X109522451Y-68364000D01*
X109532626Y-68467310D01*
X109562761Y-68566650D01*
X109611696Y-68658202D01*
X109677552Y-68738448D01*
X109757798Y-68804304D01*
X109849350Y-68853239D01*
X109948690Y-68883374D01*
X110026215Y-68891009D01*
X109949161Y-68941399D01*
X109747500Y-69139105D01*
X109588285Y-69372354D01*
X109477633Y-69632182D01*
X109460096Y-69714961D01*
X109582085Y-69937000D01*
X111125000Y-69937000D01*
X111125000Y-69917000D01*
X111379000Y-69917000D01*
X111379000Y-69937000D01*
X112921915Y-69937000D01*
X113043904Y-69714961D01*
X113026367Y-69632182D01*
X112915715Y-69372354D01*
X112756500Y-69139105D01*
X112707433Y-69091000D01*
X114175497Y-69091000D01*
X116837000Y-71752504D01*
X116837000Y-72519496D01*
X113781294Y-75575203D01*
X113723024Y-75623024D01*
X113532203Y-75855541D01*
X113390410Y-76120816D01*
X113303095Y-76408657D01*
X113281000Y-76632990D01*
X113281000Y-76632999D01*
X113273613Y-76708000D01*
X113281000Y-76783001D01*
X113281001Y-88824980D01*
X113281000Y-88824990D01*
X113281001Y-99134602D01*
X112342604Y-100073000D01*
X97103000Y-100073000D01*
X97027999Y-100065613D01*
X96952998Y-100073000D01*
X96952989Y-100073000D01*
X96728656Y-100095095D01*
X96440815Y-100182410D01*
X96175540Y-100324203D01*
X95943024Y-100515024D01*
X95895207Y-100573289D01*
X95367897Y-101100599D01*
X95106638Y-101126331D01*
X94724547Y-101242237D01*
X94372410Y-101430458D01*
X94141101Y-101620288D01*
X93140390Y-102621000D01*
X77657396Y-102621000D01*
X76973000Y-101936604D01*
X76973000Y-97707396D01*
X81970525Y-92709872D01*
X82009712Y-92677712D01*
X82138051Y-92521331D01*
X82233415Y-92342917D01*
X82292140Y-92149327D01*
X82307000Y-91998451D01*
X82307000Y-91998442D01*
X82311968Y-91948001D01*
X82307000Y-91897560D01*
X82307000Y-85261396D01*
X83546897Y-84021500D01*
X84294143Y-84021500D01*
X84393692Y-84103198D01*
X84590096Y-84208178D01*
X84468017Y-84257334D01*
X84231661Y-84411899D01*
X84030000Y-84609605D01*
X83870785Y-84842854D01*
X83760133Y-85102682D01*
X83742596Y-85185461D01*
X83864585Y-85407500D01*
X85407500Y-85407500D01*
X85407500Y-85387500D01*
X85661500Y-85387500D01*
X85661500Y-85407500D01*
X87204415Y-85407500D01*
X87326404Y-85185461D01*
X87308867Y-85102682D01*
X87198215Y-84842854D01*
X87039000Y-84609605D01*
X86837339Y-84411899D01*
X86600983Y-84257334D01*
X86478904Y-84208178D01*
X86662792Y-84109888D01*
X89255776Y-84109888D01*
X89291696Y-84177090D01*
X89357552Y-84257336D01*
X89437798Y-84323192D01*
X89529350Y-84372127D01*
X89628690Y-84402262D01*
X89706215Y-84409897D01*
X89629161Y-84460287D01*
X89427500Y-84657993D01*
X89268285Y-84891242D01*
X89157633Y-85151070D01*
X89140096Y-85233849D01*
X89262085Y-85455888D01*
X90805000Y-85455888D01*
X90805000Y-85435888D01*
X91059000Y-85435888D01*
X91059000Y-85455888D01*
X92601915Y-85455888D01*
X92723904Y-85233849D01*
X92706367Y-85151070D01*
X92595715Y-84891242D01*
X92436500Y-84657993D01*
X92234839Y-84460287D01*
X92157785Y-84409897D01*
X92235310Y-84402262D01*
X92334650Y-84372127D01*
X92426202Y-84323192D01*
X92506448Y-84257336D01*
X92572304Y-84177090D01*
X92608224Y-84109888D01*
X95174671Y-84109888D01*
X95225112Y-84114856D01*
X95275553Y-84109888D01*
X95275563Y-84109888D01*
X95426439Y-84095028D01*
X95620029Y-84036303D01*
X95798443Y-83940939D01*
X95954824Y-83812600D01*
X95986989Y-83773407D01*
X96771774Y-82988623D01*
X96780136Y-82987799D01*
X97030277Y-82911919D01*
X97260807Y-82788698D01*
X97462870Y-82622870D01*
X97628698Y-82420808D01*
X97751919Y-82190278D01*
X97827799Y-81940137D01*
X97847000Y-81745184D01*
X97847000Y-80814817D01*
X97827799Y-80619863D01*
X97751919Y-80369722D01*
X97628698Y-80139192D01*
X97462870Y-79937130D01*
X97260808Y-79771302D01*
X97030278Y-79648081D01*
X96780137Y-79572201D01*
X96520000Y-79546580D01*
X96259864Y-79572201D01*
X96009723Y-79648081D01*
X95779193Y-79771302D01*
X95577131Y-79937130D01*
X95411302Y-80139192D01*
X95288081Y-80369722D01*
X95212201Y-80619863D01*
X95193000Y-80814816D01*
X95193000Y-81662603D01*
X94799716Y-82055888D01*
X92608224Y-82055888D01*
X92572304Y-81988686D01*
X92506448Y-81908440D01*
X92426202Y-81842584D01*
X92334650Y-81793649D01*
X92235310Y-81763514D01*
X92132000Y-81753339D01*
X89732000Y-81753339D01*
X89628690Y-81763514D01*
X89529350Y-81793649D01*
X89437798Y-81842584D01*
X89357552Y-81908440D01*
X89291696Y-81988686D01*
X89255776Y-82055888D01*
X86880864Y-82055888D01*
X86877370Y-82051630D01*
X86675308Y-81885802D01*
X86478904Y-81780822D01*
X86600983Y-81731666D01*
X86837339Y-81577101D01*
X87039000Y-81379395D01*
X87198215Y-81146146D01*
X87308867Y-80886318D01*
X87326404Y-80803539D01*
X87204415Y-80581500D01*
X85661500Y-80581500D01*
X85661500Y-80601500D01*
X85407500Y-80601500D01*
X85407500Y-80581500D01*
X83864585Y-80581500D01*
X83742596Y-80803539D01*
X83760133Y-80886318D01*
X83870785Y-81146146D01*
X84030000Y-81379395D01*
X84231661Y-81577101D01*
X84468017Y-81731666D01*
X84590096Y-81780822D01*
X84393692Y-81885802D01*
X84294143Y-81967500D01*
X83171940Y-81967500D01*
X83121499Y-81962532D01*
X83071058Y-81967500D01*
X83071049Y-81967500D01*
X82920173Y-81982360D01*
X82726583Y-82041085D01*
X82548169Y-82136449D01*
X82391788Y-82264788D01*
X82359628Y-82303975D01*
X80589481Y-84074123D01*
X80550288Y-84106288D01*
X80421949Y-84262669D01*
X80326585Y-84441084D01*
X80267860Y-84634674D01*
X80253000Y-84785550D01*
X80253000Y-84785559D01*
X80248032Y-84836000D01*
X80253000Y-84886441D01*
X80253001Y-91522602D01*
X75255481Y-96520123D01*
X75216288Y-96552288D01*
X75087949Y-96708669D01*
X74992585Y-96887084D01*
X74933860Y-97080674D01*
X74919000Y-97231550D01*
X74919000Y-97231559D01*
X74914032Y-97282000D01*
X74919000Y-97332441D01*
X74919001Y-101295540D01*
X74919000Y-101295550D01*
X74919000Y-101936603D01*
X74234603Y-102621000D01*
X56520504Y-102621000D01*
X50295000Y-96395497D01*
X50295000Y-96344367D01*
X50372815Y-96439185D01*
X50469506Y-96518537D01*
X50579820Y-96577502D01*
X50699518Y-96613812D01*
X50824000Y-96626072D01*
X52038250Y-96623000D01*
X52197000Y-96464250D01*
X52197000Y-94615000D01*
X52451000Y-94615000D01*
X52451000Y-96464250D01*
X52609750Y-96623000D01*
X53824000Y-96626072D01*
X53948482Y-96613812D01*
X54068180Y-96577502D01*
X54178494Y-96518537D01*
X54275185Y-96439185D01*
X54354537Y-96342494D01*
X54413502Y-96232180D01*
X54449812Y-96112482D01*
X54462072Y-95988000D01*
X54459000Y-94773750D01*
X54300250Y-94615000D01*
X52451000Y-94615000D01*
X52197000Y-94615000D01*
X52177000Y-94615000D01*
X52177000Y-94361000D01*
X52197000Y-94361000D01*
X52197000Y-92511750D01*
X52038250Y-92353000D01*
X50824000Y-92349928D01*
X50699518Y-92362188D01*
X50579820Y-92398498D01*
X50469506Y-92457463D01*
X50372815Y-92536815D01*
X50295000Y-92631633D01*
X50295000Y-89208358D01*
X50297000Y-89208358D01*
X50297000Y-89607642D01*
X50374896Y-89999254D01*
X50527696Y-90368145D01*
X50749526Y-90700137D01*
X51031863Y-90982474D01*
X51363855Y-91204304D01*
X51732746Y-91357104D01*
X52124358Y-91435000D01*
X52523642Y-91435000D01*
X52915254Y-91357104D01*
X52948399Y-91343375D01*
X53975369Y-92370344D01*
X53948482Y-92362188D01*
X53824000Y-92349928D01*
X52609750Y-92353000D01*
X52451000Y-92511750D01*
X52451000Y-94361000D01*
X54300250Y-94361000D01*
X54459000Y-94202250D01*
X54462072Y-92988000D01*
X54449812Y-92863518D01*
X54441656Y-92836632D01*
X57732316Y-96127292D01*
X57761341Y-96162659D01*
X57796708Y-96191684D01*
X57796712Y-96191688D01*
X57902494Y-96278501D01*
X58015436Y-96338870D01*
X58063536Y-96364580D01*
X58238276Y-96417587D01*
X58374462Y-96431000D01*
X58374473Y-96431000D01*
X58420000Y-96435484D01*
X58465527Y-96431000D01*
X59604106Y-96431000D01*
X59617130Y-96446870D01*
X59819192Y-96612698D01*
X60049722Y-96735919D01*
X60299863Y-96811799D01*
X60494816Y-96831000D01*
X61425184Y-96831000D01*
X61620137Y-96811799D01*
X61870278Y-96735919D01*
X62100808Y-96612698D01*
X62302870Y-96446870D01*
X62468698Y-96244808D01*
X62591919Y-96014278D01*
X62667799Y-95764137D01*
X62693420Y-95504000D01*
X62667799Y-95243863D01*
X62591919Y-94993722D01*
X62468698Y-94763192D01*
X62302870Y-94561130D01*
X62100808Y-94395302D01*
X61870278Y-94272081D01*
X61620137Y-94196201D01*
X61425184Y-94177000D01*
X60494816Y-94177000D01*
X60299863Y-94196201D01*
X60049722Y-94272081D01*
X59819192Y-94395302D01*
X59617130Y-94561130D01*
X59604106Y-94577000D01*
X58803976Y-94577000D01*
X54259375Y-90032399D01*
X54273104Y-89999254D01*
X54351000Y-89607642D01*
X54351000Y-89208358D01*
X54273104Y-88816746D01*
X54120304Y-88447855D01*
X53898474Y-88115863D01*
X53616137Y-87833526D01*
X53284145Y-87611696D01*
X52915254Y-87458896D01*
X52523642Y-87381000D01*
X52124358Y-87381000D01*
X51732746Y-87458896D01*
X51363855Y-87611696D01*
X51031863Y-87833526D01*
X50749526Y-88115863D01*
X50527696Y-88447855D01*
X50374896Y-88816746D01*
X50297000Y-89208358D01*
X50295000Y-89208358D01*
X50295000Y-81452074D01*
X50304626Y-81549810D01*
X50334761Y-81649150D01*
X50383696Y-81740702D01*
X50449552Y-81820948D01*
X50529798Y-81886804D01*
X50621350Y-81935739D01*
X50720690Y-81965874D01*
X50824000Y-81976049D01*
X52901152Y-81976049D01*
X53498877Y-82573774D01*
X53531038Y-82612962D01*
X53570231Y-82645127D01*
X54006873Y-83081769D01*
X54039038Y-83120962D01*
X54078231Y-83153127D01*
X55361001Y-84435898D01*
X55361000Y-89865559D01*
X55356032Y-89916000D01*
X55361000Y-89966441D01*
X55361000Y-89966450D01*
X55375860Y-90117326D01*
X55434585Y-90310916D01*
X55529949Y-90489331D01*
X55658288Y-90645712D01*
X55697481Y-90677877D01*
X58674128Y-93654525D01*
X58706288Y-93693712D01*
X58862669Y-93822051D01*
X59041083Y-93917415D01*
X59234673Y-93976140D01*
X59385549Y-93991000D01*
X59385559Y-93991000D01*
X59436000Y-93995968D01*
X59486441Y-93991000D01*
X62433559Y-93991000D01*
X62484000Y-93995968D01*
X62534441Y-93991000D01*
X62534451Y-93991000D01*
X62685327Y-93976140D01*
X62878917Y-93917415D01*
X63057331Y-93822051D01*
X63213712Y-93693712D01*
X63245877Y-93654519D01*
X64698524Y-92201872D01*
X64737712Y-92169712D01*
X64866051Y-92013331D01*
X64961415Y-91834917D01*
X65020140Y-91641327D01*
X65035000Y-91490451D01*
X65035000Y-91490442D01*
X65039968Y-91440001D01*
X65035000Y-91389560D01*
X65035000Y-90424000D01*
X66846580Y-90424000D01*
X66872201Y-90684137D01*
X66948081Y-90934278D01*
X67071302Y-91164808D01*
X67237130Y-91366870D01*
X67439192Y-91532698D01*
X67653001Y-91646981D01*
X67653000Y-94281019D01*
X67439192Y-94395302D01*
X67237130Y-94561130D01*
X67071302Y-94763192D01*
X66948081Y-94993722D01*
X66872201Y-95243863D01*
X66846580Y-95504000D01*
X66872201Y-95764137D01*
X66948081Y-96014278D01*
X67071302Y-96244808D01*
X67237130Y-96446870D01*
X67439192Y-96612698D01*
X67669722Y-96735919D01*
X67919863Y-96811799D01*
X68114816Y-96831000D01*
X69045184Y-96831000D01*
X69240137Y-96811799D01*
X69490278Y-96735919D01*
X69720808Y-96612698D01*
X69922870Y-96446870D01*
X70088698Y-96244808D01*
X70211919Y-96014278D01*
X70287799Y-95764137D01*
X70313420Y-95504000D01*
X70287799Y-95243863D01*
X70211919Y-94993722D01*
X70088698Y-94763192D01*
X69922870Y-94561130D01*
X69720808Y-94395302D01*
X69507000Y-94281019D01*
X69507000Y-91823975D01*
X69979976Y-91351000D01*
X71715911Y-91351000D01*
X71903193Y-91504698D01*
X72133723Y-91627919D01*
X72383864Y-91703799D01*
X72644000Y-91729420D01*
X72904137Y-91703799D01*
X73154278Y-91627919D01*
X73384808Y-91504698D01*
X73586870Y-91338870D01*
X73752698Y-91136808D01*
X73875919Y-90906278D01*
X73951799Y-90656137D01*
X73971000Y-90461183D01*
X73971000Y-89979975D01*
X74949476Y-89001500D01*
X76558606Y-89001500D01*
X76571630Y-89017370D01*
X76773692Y-89183198D01*
X77004222Y-89306419D01*
X77129757Y-89344500D01*
X77004222Y-89382581D01*
X76773692Y-89505802D01*
X76571630Y-89671630D01*
X76405802Y-89873692D01*
X76282581Y-90104222D01*
X76206701Y-90354363D01*
X76181080Y-90614500D01*
X76206701Y-90874637D01*
X76238514Y-90979510D01*
X73574800Y-93643225D01*
X73384807Y-93487302D01*
X73154277Y-93364081D01*
X72904136Y-93288201D01*
X72644000Y-93262580D01*
X72383863Y-93288201D01*
X72133722Y-93364081D01*
X71903192Y-93487302D01*
X71701130Y-93653130D01*
X71535302Y-93855193D01*
X71412081Y-94085723D01*
X71336201Y-94335864D01*
X71317000Y-94530817D01*
X71317000Y-95069747D01*
X71275420Y-95147537D01*
X71246200Y-95243863D01*
X71222414Y-95322276D01*
X71219441Y-95352463D01*
X71204516Y-95504000D01*
X71209001Y-95549537D01*
X71209000Y-97329019D01*
X70995192Y-97443302D01*
X70793130Y-97609130D01*
X70627302Y-97811192D01*
X70504081Y-98041722D01*
X70428201Y-98291863D01*
X70402580Y-98552000D01*
X70428201Y-98812137D01*
X70504081Y-99062278D01*
X70627302Y-99292808D01*
X70793130Y-99494870D01*
X70995192Y-99660698D01*
X71225722Y-99783919D01*
X71475863Y-99859799D01*
X71670816Y-99879000D01*
X72601184Y-99879000D01*
X72796137Y-99859799D01*
X73046278Y-99783919D01*
X73276808Y-99660698D01*
X73478870Y-99494870D01*
X73644698Y-99292808D01*
X73767919Y-99062278D01*
X73843799Y-98812137D01*
X73869420Y-98552000D01*
X73843799Y-98291863D01*
X73767919Y-98041722D01*
X73644698Y-97811192D01*
X73478870Y-97609130D01*
X73276808Y-97443302D01*
X73063000Y-97329019D01*
X73063000Y-96655608D01*
X73154278Y-96627919D01*
X73384808Y-96504698D01*
X73586870Y-96338870D01*
X73752698Y-96136808D01*
X73875919Y-95906278D01*
X73891291Y-95855603D01*
X74050505Y-95770501D01*
X74191659Y-95654659D01*
X74220688Y-95619287D01*
X77898476Y-91941500D01*
X78379684Y-91941500D01*
X78574637Y-91922299D01*
X78824778Y-91846419D01*
X79055308Y-91723198D01*
X79257370Y-91557370D01*
X79423198Y-91355308D01*
X79546419Y-91124778D01*
X79622299Y-90874637D01*
X79647920Y-90614500D01*
X79622299Y-90354363D01*
X79546419Y-90104222D01*
X79423198Y-89873692D01*
X79257370Y-89671630D01*
X79055308Y-89505802D01*
X78824778Y-89382581D01*
X78699243Y-89344500D01*
X78824778Y-89306419D01*
X79055308Y-89183198D01*
X79257370Y-89017370D01*
X79423198Y-88815308D01*
X79546419Y-88584778D01*
X79622299Y-88334637D01*
X79647920Y-88074500D01*
X79622299Y-87814363D01*
X79546419Y-87564222D01*
X79423198Y-87333692D01*
X79257370Y-87131630D01*
X79055308Y-86965802D01*
X78858904Y-86860822D01*
X78980983Y-86811666D01*
X79217339Y-86657101D01*
X79419000Y-86459395D01*
X79578215Y-86226146D01*
X79688867Y-85966318D01*
X79706404Y-85883539D01*
X79584415Y-85661500D01*
X78041500Y-85661500D01*
X78041500Y-85681500D01*
X77787500Y-85681500D01*
X77787500Y-85661500D01*
X76244585Y-85661500D01*
X76122596Y-85883539D01*
X76140133Y-85966318D01*
X76250785Y-86226146D01*
X76410000Y-86459395D01*
X76611661Y-86657101D01*
X76848017Y-86811666D01*
X76970096Y-86860822D01*
X76773692Y-86965802D01*
X76571630Y-87131630D01*
X76558606Y-87147500D01*
X74611024Y-87147500D01*
X74565499Y-87143016D01*
X74519974Y-87147500D01*
X74519962Y-87147500D01*
X74383776Y-87160913D01*
X74209036Y-87213920D01*
X74134073Y-87253989D01*
X74047994Y-87299999D01*
X73942211Y-87386813D01*
X73942208Y-87386816D01*
X73906841Y-87415841D01*
X73877816Y-87451208D01*
X73009010Y-88320014D01*
X72904136Y-88288201D01*
X72644000Y-88262580D01*
X72383863Y-88288201D01*
X72133722Y-88364081D01*
X71903192Y-88487302D01*
X71701130Y-88653130D01*
X71535302Y-88855193D01*
X71412081Y-89085723D01*
X71336201Y-89335864D01*
X71320331Y-89497000D01*
X69935894Y-89497000D01*
X69922870Y-89481130D01*
X69720808Y-89315302D01*
X69490278Y-89192081D01*
X69240137Y-89116201D01*
X69045184Y-89097000D01*
X68114816Y-89097000D01*
X67919863Y-89116201D01*
X67669722Y-89192081D01*
X67439192Y-89315302D01*
X67237130Y-89481130D01*
X67071302Y-89683192D01*
X66948081Y-89913722D01*
X66872201Y-90163863D01*
X66846580Y-90424000D01*
X65035000Y-90424000D01*
X65035000Y-86915000D01*
X65621000Y-86915000D01*
X65621000Y-87315000D01*
X65673350Y-87592514D01*
X65778834Y-87854483D01*
X65933399Y-88090839D01*
X66131105Y-88292500D01*
X66364354Y-88451715D01*
X66624182Y-88562367D01*
X66706961Y-88579904D01*
X66929000Y-88457915D01*
X66929000Y-86915000D01*
X67183000Y-86915000D01*
X67183000Y-88457915D01*
X67405039Y-88579904D01*
X67487818Y-88562367D01*
X67747646Y-88451715D01*
X67980895Y-88292500D01*
X68178601Y-88090839D01*
X68333166Y-87854483D01*
X68438650Y-87592514D01*
X68491000Y-87315000D01*
X68491000Y-86915000D01*
X67183000Y-86915000D01*
X66929000Y-86915000D01*
X65621000Y-86915000D01*
X65035000Y-86915000D01*
X65035000Y-86261000D01*
X65621000Y-86261000D01*
X65621000Y-86661000D01*
X66929000Y-86661000D01*
X66929000Y-85118085D01*
X67183000Y-85118085D01*
X67183000Y-86661000D01*
X68491000Y-86661000D01*
X68491000Y-86261000D01*
X68438650Y-85983486D01*
X68417890Y-85931927D01*
X70852096Y-85931927D01*
X70869633Y-86014706D01*
X70980285Y-86274534D01*
X71139500Y-86507783D01*
X71341161Y-86705489D01*
X71577517Y-86860054D01*
X71839486Y-86965538D01*
X72117000Y-87017888D01*
X72517000Y-87017888D01*
X72517000Y-85709888D01*
X72771000Y-85709888D01*
X72771000Y-87017888D01*
X73171000Y-87017888D01*
X73448514Y-86965538D01*
X73710483Y-86860054D01*
X73946839Y-86705489D01*
X74148500Y-86507783D01*
X74307715Y-86274534D01*
X74418367Y-86014706D01*
X74435904Y-85931927D01*
X74313915Y-85709888D01*
X72771000Y-85709888D01*
X72517000Y-85709888D01*
X70974085Y-85709888D01*
X70852096Y-85931927D01*
X68417890Y-85931927D01*
X68333166Y-85721517D01*
X68178601Y-85485161D01*
X67980895Y-85283500D01*
X67747646Y-85124285D01*
X67487818Y-85013633D01*
X67405039Y-84996096D01*
X67183000Y-85118085D01*
X66929000Y-85118085D01*
X66706961Y-84996096D01*
X66624182Y-85013633D01*
X66364354Y-85124285D01*
X66131105Y-85283500D01*
X65933399Y-85485161D01*
X65778834Y-85721517D01*
X65673350Y-85983486D01*
X65621000Y-86261000D01*
X65035000Y-86261000D01*
X65035000Y-83737396D01*
X65911176Y-82861221D01*
X65947302Y-82928807D01*
X66113130Y-83130870D01*
X66315192Y-83296698D01*
X66545722Y-83419919D01*
X66795863Y-83495799D01*
X67056000Y-83521420D01*
X67316136Y-83495799D01*
X67566277Y-83419919D01*
X67796807Y-83296698D01*
X67998870Y-83130870D01*
X68164698Y-82928808D01*
X68200824Y-82861221D01*
X69113015Y-83773412D01*
X69145176Y-83812600D01*
X69301557Y-83940939D01*
X69479971Y-84036303D01*
X69673561Y-84095028D01*
X69824437Y-84109888D01*
X69824446Y-84109888D01*
X69874887Y-84114856D01*
X69925328Y-84109888D01*
X70967776Y-84109888D01*
X71003696Y-84177090D01*
X71069552Y-84257336D01*
X71149798Y-84323192D01*
X71241350Y-84372127D01*
X71340690Y-84402262D01*
X71418215Y-84409897D01*
X71341161Y-84460287D01*
X71139500Y-84657993D01*
X70980285Y-84891242D01*
X70869633Y-85151070D01*
X70852096Y-85233849D01*
X70974085Y-85455888D01*
X72517000Y-85455888D01*
X72517000Y-85435888D01*
X72771000Y-85435888D01*
X72771000Y-85455888D01*
X74313915Y-85455888D01*
X74435904Y-85233849D01*
X74418367Y-85151070D01*
X74307715Y-84891242D01*
X74148500Y-84657993D01*
X73946839Y-84460287D01*
X73869785Y-84409897D01*
X73947310Y-84402262D01*
X74046650Y-84372127D01*
X74138202Y-84323192D01*
X74218448Y-84257336D01*
X74284304Y-84177090D01*
X74333239Y-84085538D01*
X74352665Y-84021500D01*
X76674143Y-84021500D01*
X76773692Y-84103198D01*
X76970096Y-84208178D01*
X76848017Y-84257334D01*
X76611661Y-84411899D01*
X76410000Y-84609605D01*
X76250785Y-84842854D01*
X76140133Y-85102682D01*
X76122596Y-85185461D01*
X76244585Y-85407500D01*
X77787500Y-85407500D01*
X77787500Y-85387500D01*
X78041500Y-85387500D01*
X78041500Y-85407500D01*
X79584415Y-85407500D01*
X79706404Y-85185461D01*
X79688867Y-85102682D01*
X79578215Y-84842854D01*
X79419000Y-84609605D01*
X79217339Y-84411899D01*
X78980983Y-84257334D01*
X78858904Y-84208178D01*
X79055308Y-84103198D01*
X79257370Y-83937370D01*
X79423198Y-83735308D01*
X79546419Y-83504778D01*
X79622299Y-83254637D01*
X79647920Y-82994500D01*
X79622299Y-82734363D01*
X79546419Y-82484222D01*
X79423198Y-82253692D01*
X79257370Y-82051630D01*
X79055308Y-81885802D01*
X78858904Y-81780822D01*
X78980983Y-81731666D01*
X79217339Y-81577101D01*
X79419000Y-81379395D01*
X79578215Y-81146146D01*
X79688867Y-80886318D01*
X79706404Y-80803539D01*
X79584415Y-80581500D01*
X78041500Y-80581500D01*
X78041500Y-80601500D01*
X77787500Y-80601500D01*
X77787500Y-80581500D01*
X76244585Y-80581500D01*
X76122596Y-80803539D01*
X76140133Y-80886318D01*
X76250785Y-81146146D01*
X76410000Y-81379395D01*
X76611661Y-81577101D01*
X76848017Y-81731666D01*
X76970096Y-81780822D01*
X76773692Y-81885802D01*
X76674143Y-81967500D01*
X74266917Y-81967500D01*
X74218448Y-81908440D01*
X74138202Y-81842584D01*
X74046650Y-81793649D01*
X73947310Y-81763514D01*
X73844000Y-81753339D01*
X71444000Y-81753339D01*
X71340690Y-81763514D01*
X71241350Y-81793649D01*
X71149798Y-81842584D01*
X71069552Y-81908440D01*
X71003696Y-81988686D01*
X70967776Y-82055888D01*
X70300285Y-82055888D01*
X69341877Y-81097481D01*
X69309712Y-81058288D01*
X69153331Y-80929949D01*
X68974917Y-80834585D01*
X68781327Y-80775860D01*
X68630451Y-80761000D01*
X68630441Y-80761000D01*
X68580000Y-80756032D01*
X68529559Y-80761000D01*
X68225530Y-80761000D01*
X68164698Y-80647192D01*
X67998870Y-80445130D01*
X67796808Y-80279302D01*
X67566278Y-80156081D01*
X67316137Y-80080201D01*
X67056000Y-80054580D01*
X66795864Y-80080201D01*
X66545723Y-80156081D01*
X66315193Y-80279302D01*
X66113131Y-80445130D01*
X65947302Y-80647192D01*
X65886470Y-80761000D01*
X65582440Y-80761000D01*
X65531999Y-80756032D01*
X65481558Y-80761000D01*
X65481549Y-80761000D01*
X65330673Y-80775860D01*
X65137083Y-80834585D01*
X64958669Y-80929949D01*
X64802288Y-81058288D01*
X64770128Y-81097476D01*
X63317476Y-82550128D01*
X63278289Y-82582288D01*
X63246129Y-82621475D01*
X63246128Y-82621476D01*
X63149950Y-82738669D01*
X63054586Y-82917083D01*
X62995861Y-83110673D01*
X62976032Y-83312000D01*
X62981001Y-83362451D01*
X62981000Y-91014603D01*
X62058604Y-91937000D01*
X59861397Y-91937000D01*
X57415000Y-89490604D01*
X57415000Y-84060940D01*
X57419968Y-84010499D01*
X57415000Y-83960058D01*
X57415000Y-83960049D01*
X57400140Y-83809173D01*
X57341415Y-83615583D01*
X57246051Y-83437169D01*
X57117712Y-83280788D01*
X57078524Y-83248628D01*
X55795750Y-81965854D01*
X55795750Y-80986058D01*
X55806297Y-80973206D01*
X58430712Y-78348792D01*
X58488976Y-78300976D01*
X58679797Y-78068460D01*
X58821590Y-77803185D01*
X58908905Y-77515344D01*
X58931000Y-77291011D01*
X58931000Y-77291002D01*
X58938387Y-77216001D01*
X58931000Y-77141000D01*
X58931000Y-70427610D01*
X70435610Y-58923000D01*
X103223571Y-58923000D01*
X103521361Y-58893670D01*
X103634848Y-58859244D01*
X106846053Y-62070451D01*
G37*
X106846053Y-62070451D02*
X106496000Y-62070451D01*
X106392690Y-62080626D01*
X106293350Y-62110761D01*
X106201798Y-62159696D01*
X106121552Y-62225552D01*
X106055696Y-62305798D01*
X106006761Y-62397350D01*
X105976626Y-62496690D01*
X105966451Y-62600000D01*
X105966451Y-63918574D01*
X105040713Y-64844312D01*
X105005341Y-64873341D01*
X104976313Y-64908712D01*
X104976312Y-64908713D01*
X104889499Y-65014495D01*
X104810275Y-65162713D01*
X104803420Y-65175537D01*
X104750413Y-65350277D01*
X104737000Y-65486463D01*
X104737000Y-65486473D01*
X104732516Y-65532000D01*
X104737000Y-65577527D01*
X104737001Y-74978025D01*
X94921688Y-65162713D01*
X94892659Y-65127341D01*
X94751505Y-65011499D01*
X94590464Y-64925420D01*
X94415724Y-64872413D01*
X94279538Y-64859000D01*
X94279527Y-64859000D01*
X94234000Y-64854516D01*
X94188473Y-64859000D01*
X90911287Y-64859000D01*
X91024698Y-64720808D01*
X91147919Y-64490278D01*
X91223799Y-64240137D01*
X91243000Y-64045183D01*
X91243000Y-63114816D01*
X91223799Y-62919863D01*
X91147919Y-62669722D01*
X91024698Y-62439192D01*
X90858870Y-62237130D01*
X90656807Y-62071302D01*
X90426277Y-61948081D01*
X90176136Y-61872201D01*
X89916000Y-61846580D01*
X89655863Y-61872201D01*
X89405722Y-61948081D01*
X89175192Y-62071302D01*
X88973130Y-62237130D01*
X88807302Y-62439193D01*
X88693020Y-62653000D01*
X86765548Y-62653000D01*
X86686870Y-62557130D01*
X86484808Y-62391302D01*
X86254278Y-62268081D01*
X86004137Y-62192201D01*
X85809184Y-62173000D01*
X84878816Y-62173000D01*
X84683863Y-62192201D01*
X84433722Y-62268081D01*
X84203192Y-62391302D01*
X84001130Y-62557130D01*
X83835302Y-62759192D01*
X83712081Y-62989722D01*
X83636201Y-63239863D01*
X83610580Y-63500000D01*
X83636201Y-63760137D01*
X83668014Y-63865010D01*
X82291010Y-65242015D01*
X82291010Y-63629536D01*
X82295494Y-63584009D01*
X82291010Y-63538482D01*
X82291010Y-63538472D01*
X82277597Y-63402286D01*
X82224590Y-63227546D01*
X82138511Y-63066504D01*
X82051698Y-62960722D01*
X82051694Y-62960718D01*
X82022669Y-62925351D01*
X81987303Y-62896327D01*
X79935688Y-60844713D01*
X79906659Y-60809341D01*
X79765505Y-60693499D01*
X79604464Y-60607420D01*
X79429724Y-60554413D01*
X79293538Y-60541000D01*
X79293527Y-60541000D01*
X79248000Y-60536516D01*
X79202473Y-60541000D01*
X76245527Y-60541000D01*
X76200000Y-60536516D01*
X76154473Y-60541000D01*
X76154462Y-60541000D01*
X76018276Y-60554413D01*
X75879093Y-60596634D01*
X75843536Y-60607420D01*
X75682494Y-60693499D01*
X75576712Y-60780312D01*
X75576708Y-60780316D01*
X75541341Y-60809341D01*
X75512316Y-60844708D01*
X72528708Y-63828317D01*
X72493342Y-63857341D01*
X72464317Y-63892708D01*
X72464312Y-63892713D01*
X72377499Y-63998495D01*
X72291420Y-64159537D01*
X72270249Y-64229331D01*
X72238414Y-64334276D01*
X72236027Y-64358511D01*
X72220516Y-64516000D01*
X72225001Y-64561537D01*
X72225000Y-66288106D01*
X72209130Y-66301130D01*
X72043302Y-66503193D01*
X71920081Y-66733723D01*
X71844201Y-66983864D01*
X71825000Y-67178817D01*
X71825000Y-68109184D01*
X71844201Y-68304137D01*
X71920081Y-68554278D01*
X72043302Y-68784808D01*
X72209131Y-68986870D01*
X72411193Y-69152698D01*
X72641723Y-69275919D01*
X72891864Y-69351799D01*
X73152000Y-69377420D01*
X73412137Y-69351799D01*
X73662278Y-69275919D01*
X73892808Y-69152698D01*
X74094870Y-68986870D01*
X74260698Y-68784808D01*
X74374981Y-68571000D01*
X76459273Y-68571000D01*
X76583192Y-68672698D01*
X76813722Y-68795919D01*
X77063863Y-68871799D01*
X77258816Y-68891000D01*
X78189184Y-68891000D01*
X78384137Y-68871799D01*
X78634278Y-68795919D01*
X78864808Y-68672698D01*
X79019500Y-68545745D01*
X79019501Y-72958523D01*
X77933074Y-74044951D01*
X76714500Y-74044951D01*
X76611190Y-74055126D01*
X76511850Y-74085261D01*
X76420298Y-74134196D01*
X76340052Y-74200052D01*
X76274196Y-74280298D01*
X76225261Y-74371850D01*
X76217246Y-74398270D01*
X74479000Y-72660025D01*
X74479000Y-72178816D01*
X74459799Y-71983863D01*
X74383919Y-71733722D01*
X74260698Y-71503192D01*
X74094870Y-71301130D01*
X73892807Y-71135302D01*
X73662277Y-71012081D01*
X73412136Y-70936201D01*
X73152000Y-70910580D01*
X72891863Y-70936201D01*
X72641722Y-71012081D01*
X72411192Y-71135302D01*
X72209130Y-71301130D01*
X72043302Y-71503193D01*
X71929020Y-71717000D01*
X63545524Y-71717000D01*
X63499999Y-71712516D01*
X63454474Y-71717000D01*
X63454462Y-71717000D01*
X63318276Y-71730413D01*
X63143536Y-71783420D01*
X63087261Y-71813500D01*
X62982494Y-71869499D01*
X62876711Y-71956313D01*
X62876708Y-71956316D01*
X62841341Y-71985341D01*
X62812316Y-72020708D01*
X60336708Y-74496317D01*
X60301342Y-74525341D01*
X60272317Y-74560708D01*
X60272312Y-74560713D01*
X60185499Y-74666495D01*
X60099420Y-74827537D01*
X60046414Y-75002277D01*
X60028516Y-75184000D01*
X60033001Y-75229537D01*
X60033000Y-76501019D01*
X59819192Y-76615302D01*
X59617130Y-76781130D01*
X59451302Y-76983192D01*
X59328081Y-77213722D01*
X59252201Y-77463863D01*
X59226580Y-77724000D01*
X59252201Y-77984137D01*
X59328081Y-78234278D01*
X59451302Y-78464808D01*
X59617130Y-78666870D01*
X59819192Y-78832698D01*
X60033001Y-78946981D01*
X60033000Y-89201019D01*
X59819192Y-89315302D01*
X59617130Y-89481130D01*
X59451302Y-89683192D01*
X59328081Y-89913722D01*
X59252201Y-90163863D01*
X59226580Y-90424000D01*
X59252201Y-90684137D01*
X59328081Y-90934278D01*
X59451302Y-91164808D01*
X59617130Y-91366870D01*
X59819192Y-91532698D01*
X60049722Y-91655919D01*
X60299863Y-91731799D01*
X60494816Y-91751000D01*
X61425184Y-91751000D01*
X61620137Y-91731799D01*
X61870278Y-91655919D01*
X62100808Y-91532698D01*
X62302870Y-91366870D01*
X62468698Y-91164808D01*
X62591919Y-90934278D01*
X62667799Y-90684137D01*
X62693420Y-90424000D01*
X62667799Y-90163863D01*
X62591919Y-89913722D01*
X62468698Y-89683192D01*
X62302870Y-89481130D01*
X62100808Y-89315302D01*
X61887000Y-89201019D01*
X61887000Y-78946981D01*
X62100808Y-78832698D01*
X62302870Y-78666870D01*
X62468698Y-78464808D01*
X62591919Y-78234278D01*
X62667799Y-77984137D01*
X62693420Y-77724000D01*
X62667799Y-77463863D01*
X62591919Y-77213722D01*
X62468698Y-76983192D01*
X62302870Y-76781130D01*
X62100808Y-76615302D01*
X61887000Y-76501019D01*
X61887000Y-75567975D01*
X63883976Y-73571000D01*
X71929019Y-73571000D01*
X72043302Y-73784808D01*
X72209131Y-73986870D01*
X72411193Y-74152698D01*
X72641723Y-74275919D01*
X72891864Y-74351799D01*
X73152000Y-74377420D01*
X73412137Y-74351799D01*
X73517010Y-74319986D01*
X75194816Y-75997792D01*
X75223841Y-76033159D01*
X75259208Y-76062184D01*
X75259212Y-76062188D01*
X75364994Y-76149001D01*
X75412700Y-76174500D01*
X75526036Y-76235080D01*
X75700776Y-76288087D01*
X75836962Y-76301500D01*
X75836972Y-76301500D01*
X75882499Y-76305984D01*
X75928026Y-76301500D01*
X76202312Y-76301500D01*
X76225261Y-76377150D01*
X76274196Y-76468702D01*
X76340052Y-76548948D01*
X76420298Y-76614804D01*
X76511850Y-76663739D01*
X76611190Y-76693874D01*
X76714500Y-76704049D01*
X76964058Y-76704049D01*
X76790159Y-76797000D01*
X69935894Y-76797000D01*
X69922870Y-76781130D01*
X69720808Y-76615302D01*
X69490278Y-76492081D01*
X69240137Y-76416201D01*
X69045184Y-76397000D01*
X68114816Y-76397000D01*
X67919863Y-76416201D01*
X67669722Y-76492081D01*
X67439192Y-76615302D01*
X67237130Y-76781130D01*
X67071302Y-76983192D01*
X66948081Y-77213722D01*
X66872201Y-77463863D01*
X66846580Y-77724000D01*
X66872201Y-77984137D01*
X66948081Y-78234278D01*
X67071302Y-78464808D01*
X67237130Y-78666870D01*
X67439192Y-78832698D01*
X67669722Y-78955919D01*
X67919863Y-79031799D01*
X68114816Y-79051000D01*
X69045184Y-79051000D01*
X69240137Y-79031799D01*
X69490278Y-78955919D01*
X69720808Y-78832698D01*
X69922870Y-78666870D01*
X69935894Y-78651000D01*
X76403499Y-78651000D01*
X76405802Y-78655308D01*
X76571630Y-78857370D01*
X76773692Y-79023198D01*
X76970096Y-79128178D01*
X76848017Y-79177334D01*
X76611661Y-79331899D01*
X76410000Y-79529605D01*
X76250785Y-79762854D01*
X76140133Y-80022682D01*
X76122596Y-80105461D01*
X76244585Y-80327500D01*
X77787500Y-80327500D01*
X77787500Y-80307500D01*
X78041500Y-80307500D01*
X78041500Y-80327500D01*
X79584415Y-80327500D01*
X79706404Y-80105461D01*
X79688867Y-80022682D01*
X79578215Y-79762854D01*
X79419000Y-79529605D01*
X79217339Y-79331899D01*
X78980983Y-79177334D01*
X78858904Y-79128178D01*
X79055308Y-79023198D01*
X79257370Y-78857370D01*
X79270394Y-78841500D01*
X79868973Y-78841500D01*
X79914500Y-78845984D01*
X79960027Y-78841500D01*
X79960038Y-78841500D01*
X80096224Y-78828087D01*
X80270964Y-78775080D01*
X80432005Y-78689001D01*
X80573159Y-78573159D01*
X80602188Y-78537787D01*
X81987302Y-77152674D01*
X82022669Y-77123649D01*
X82051694Y-77088282D01*
X82051698Y-77088278D01*
X82138512Y-76982496D01*
X82186236Y-76893211D01*
X83830816Y-78537792D01*
X83859841Y-78573159D01*
X83895208Y-78602184D01*
X83895212Y-78602188D01*
X84000994Y-78689001D01*
X84051506Y-78716000D01*
X84094448Y-78738953D01*
X84191630Y-78857370D01*
X84393692Y-79023198D01*
X84590096Y-79128178D01*
X84468017Y-79177334D01*
X84231661Y-79331899D01*
X84030000Y-79529605D01*
X83870785Y-79762854D01*
X83760133Y-80022682D01*
X83742596Y-80105461D01*
X83864585Y-80327500D01*
X85407500Y-80327500D01*
X85407500Y-80307500D01*
X85661500Y-80307500D01*
X85661500Y-80327500D01*
X87204415Y-80327500D01*
X87326404Y-80105461D01*
X87308867Y-80022682D01*
X87198215Y-79762854D01*
X87039000Y-79529605D01*
X86837339Y-79331899D01*
X86600983Y-79177334D01*
X86555451Y-79159000D01*
X92116106Y-79159000D01*
X92129130Y-79174870D01*
X92331192Y-79340698D01*
X92561722Y-79463919D01*
X92811863Y-79539799D01*
X93006816Y-79559000D01*
X93937184Y-79559000D01*
X94132137Y-79539799D01*
X94382278Y-79463919D01*
X94612808Y-79340698D01*
X94814870Y-79174870D01*
X94980698Y-78972808D01*
X95103919Y-78742278D01*
X95179799Y-78492137D01*
X95205420Y-78232000D01*
X95179799Y-77971863D01*
X95103919Y-77721722D01*
X94980698Y-77491192D01*
X94814870Y-77289130D01*
X94612808Y-77123302D01*
X94382278Y-77000081D01*
X94132137Y-76924201D01*
X93937184Y-76905000D01*
X93006816Y-76905000D01*
X92811863Y-76924201D01*
X92561722Y-77000081D01*
X92331192Y-77123302D01*
X92129130Y-77289130D01*
X92116106Y-77305000D01*
X87113384Y-77305000D01*
X87043198Y-77173692D01*
X86877370Y-76971630D01*
X86675308Y-76805802D01*
X86444778Y-76682581D01*
X86319243Y-76644500D01*
X86444778Y-76606419D01*
X86675308Y-76483198D01*
X86877370Y-76317370D01*
X87043198Y-76115308D01*
X87166419Y-75884778D01*
X87242299Y-75634637D01*
X87267920Y-75374500D01*
X87242299Y-75114363D01*
X87210486Y-75009489D01*
X90539292Y-71680684D01*
X90574659Y-71651659D01*
X90603684Y-71616292D01*
X90603688Y-71616288D01*
X90690502Y-71510506D01*
X90776580Y-71349464D01*
X90780664Y-71336000D01*
X90829587Y-71174724D01*
X90843000Y-71038538D01*
X90843000Y-71038527D01*
X90847484Y-70993000D01*
X90843000Y-70947473D01*
X90843000Y-69979975D01*
X91315976Y-69507000D01*
X92072025Y-69507000D01*
X99806815Y-77241790D01*
X99749130Y-77289130D01*
X99583302Y-77491192D01*
X99460081Y-77721722D01*
X99384201Y-77971863D01*
X99358580Y-78232000D01*
X99384201Y-78492137D01*
X99460081Y-78742278D01*
X99583302Y-78972808D01*
X99749130Y-79174870D01*
X99951192Y-79340698D01*
X100165001Y-79454981D01*
X100165000Y-82758473D01*
X100160516Y-82804000D01*
X100165000Y-82849527D01*
X100165000Y-82849537D01*
X100178413Y-82985723D01*
X100222443Y-83130870D01*
X100231420Y-83160463D01*
X100317499Y-83321505D01*
X100404312Y-83427287D01*
X100433341Y-83462659D01*
X100468713Y-83491688D01*
X100778451Y-83801426D01*
X100778451Y-85020000D01*
X100788626Y-85123310D01*
X100818761Y-85222650D01*
X100867696Y-85314202D01*
X100933552Y-85394448D01*
X101013798Y-85460304D01*
X101105350Y-85509239D01*
X101204690Y-85539374D01*
X101308000Y-85549549D01*
X102908000Y-85549549D01*
X103011310Y-85539374D01*
X103110650Y-85509239D01*
X103202202Y-85460304D01*
X103213001Y-85451442D01*
X103213001Y-90595023D01*
X101263025Y-92545000D01*
X96903976Y-92545000D01*
X95147986Y-90789010D01*
X95179799Y-90684137D01*
X95205420Y-90424000D01*
X95179799Y-90163863D01*
X95103919Y-89913722D01*
X94980698Y-89683192D01*
X94814870Y-89481130D01*
X94612808Y-89315302D01*
X94612245Y-89315001D01*
X98672026Y-89315001D01*
X99416014Y-90058990D01*
X99384201Y-90163863D01*
X99358580Y-90424000D01*
X99384201Y-90684137D01*
X99460081Y-90934278D01*
X99583302Y-91164808D01*
X99749130Y-91366870D01*
X99951192Y-91532698D01*
X100181722Y-91655919D01*
X100431863Y-91731799D01*
X100626816Y-91751000D01*
X101557184Y-91751000D01*
X101752137Y-91731799D01*
X102002278Y-91655919D01*
X102232808Y-91532698D01*
X102434870Y-91366870D01*
X102600698Y-91164808D01*
X102723919Y-90934278D01*
X102799799Y-90684137D01*
X102825420Y-90424000D01*
X102799799Y-90163863D01*
X102723919Y-89913722D01*
X102600698Y-89683192D01*
X102434870Y-89481130D01*
X102232808Y-89315302D01*
X102002278Y-89192081D01*
X101752137Y-89116201D01*
X101557184Y-89097000D01*
X101075976Y-89097000D01*
X99743688Y-87764713D01*
X99714660Y-87729342D01*
X99573506Y-87613500D01*
X99412465Y-87527421D01*
X99237725Y-87474414D01*
X99101539Y-87461001D01*
X99101528Y-87461001D01*
X99056001Y-87456517D01*
X99010474Y-87461001D01*
X97722277Y-87461001D01*
X97797166Y-87346483D01*
X97902650Y-87084514D01*
X97955000Y-86807000D01*
X97955000Y-86407000D01*
X96647000Y-86407000D01*
X96647000Y-86427000D01*
X96393000Y-86427000D01*
X96393000Y-86407000D01*
X95085000Y-86407000D01*
X95085000Y-86807000D01*
X95137350Y-87084514D01*
X95242834Y-87346483D01*
X95317723Y-87461001D01*
X87111246Y-87461001D01*
X87043198Y-87333692D01*
X86877370Y-87131630D01*
X86675308Y-86965802D01*
X86478904Y-86860822D01*
X86600983Y-86811666D01*
X86837339Y-86657101D01*
X87039000Y-86459395D01*
X87198215Y-86226146D01*
X87308867Y-85966318D01*
X87316152Y-85931927D01*
X89140096Y-85931927D01*
X89157633Y-86014706D01*
X89268285Y-86274534D01*
X89427500Y-86507783D01*
X89629161Y-86705489D01*
X89865517Y-86860054D01*
X90127486Y-86965538D01*
X90405000Y-87017888D01*
X90805000Y-87017888D01*
X90805000Y-85709888D01*
X91059000Y-85709888D01*
X91059000Y-87017888D01*
X91459000Y-87017888D01*
X91736514Y-86965538D01*
X91998483Y-86860054D01*
X92234839Y-86705489D01*
X92436500Y-86507783D01*
X92595715Y-86274534D01*
X92706367Y-86014706D01*
X92723904Y-85931927D01*
X92625601Y-85753000D01*
X95085000Y-85753000D01*
X95085000Y-86153000D01*
X96393000Y-86153000D01*
X96393000Y-84610085D01*
X96647000Y-84610085D01*
X96647000Y-86153000D01*
X97955000Y-86153000D01*
X97955000Y-85753000D01*
X97902650Y-85475486D01*
X97797166Y-85213517D01*
X97642601Y-84977161D01*
X97444895Y-84775500D01*
X97211646Y-84616285D01*
X96951818Y-84505633D01*
X96869039Y-84488096D01*
X96647000Y-84610085D01*
X96393000Y-84610085D01*
X96170961Y-84488096D01*
X96088182Y-84505633D01*
X95828354Y-84616285D01*
X95595105Y-84775500D01*
X95397399Y-84977161D01*
X95242834Y-85213517D01*
X95137350Y-85475486D01*
X95085000Y-85753000D01*
X92625601Y-85753000D01*
X92601915Y-85709888D01*
X91059000Y-85709888D01*
X90805000Y-85709888D01*
X89262085Y-85709888D01*
X89140096Y-85931927D01*
X87316152Y-85931927D01*
X87326404Y-85883539D01*
X87204415Y-85661500D01*
X85661500Y-85661500D01*
X85661500Y-85681500D01*
X85407500Y-85681500D01*
X85407500Y-85661500D01*
X83864585Y-85661500D01*
X83742596Y-85883539D01*
X83760133Y-85966318D01*
X83870785Y-86226146D01*
X84030000Y-86459395D01*
X84231661Y-86657101D01*
X84468017Y-86811666D01*
X84590096Y-86860822D01*
X84393692Y-86965802D01*
X84191630Y-87131630D01*
X84025802Y-87333692D01*
X83972649Y-87433134D01*
X83957816Y-87451208D01*
X82688708Y-88720317D01*
X82653342Y-88749341D01*
X82624317Y-88784708D01*
X82624312Y-88784713D01*
X82537499Y-88890495D01*
X82451420Y-89051537D01*
X82425633Y-89136548D01*
X82398414Y-89226276D01*
X82389646Y-89315302D01*
X82380516Y-89408000D01*
X82385001Y-89453537D01*
X82385000Y-94612024D01*
X79772025Y-97225000D01*
X79290816Y-97225000D01*
X79095863Y-97244201D01*
X78845722Y-97320081D01*
X78615192Y-97443302D01*
X78413130Y-97609130D01*
X78247302Y-97811192D01*
X78124081Y-98041722D01*
X78048201Y-98291863D01*
X78022580Y-98552000D01*
X78048201Y-98812137D01*
X78124081Y-99062278D01*
X78247302Y-99292808D01*
X78413130Y-99494870D01*
X78615192Y-99660698D01*
X78845722Y-99783919D01*
X79095863Y-99859799D01*
X79290816Y-99879000D01*
X80221184Y-99879000D01*
X80416137Y-99859799D01*
X80666278Y-99783919D01*
X80896808Y-99660698D01*
X81098870Y-99494870D01*
X81264698Y-99292808D01*
X81387919Y-99062278D01*
X81393463Y-99044000D01*
X109105928Y-99044000D01*
X109118188Y-99168482D01*
X109154498Y-99288180D01*
X109213463Y-99398494D01*
X109292815Y-99495185D01*
X109389506Y-99574537D01*
X109499820Y-99633502D01*
X109619518Y-99669812D01*
X109744000Y-99682072D01*
X110458250Y-99679000D01*
X110617000Y-99520250D01*
X110617000Y-98171000D01*
X110871000Y-98171000D01*
X110871000Y-99520250D01*
X111029750Y-99679000D01*
X111744000Y-99682072D01*
X111868482Y-99669812D01*
X111988180Y-99633502D01*
X112098494Y-99574537D01*
X112195185Y-99495185D01*
X112274537Y-99398494D01*
X112333502Y-99288180D01*
X112369812Y-99168482D01*
X112382072Y-99044000D01*
X112379000Y-98329750D01*
X112220250Y-98171000D01*
X110871000Y-98171000D01*
X110617000Y-98171000D01*
X109267750Y-98171000D01*
X109109000Y-98329750D01*
X109105928Y-99044000D01*
X81393463Y-99044000D01*
X81463799Y-98812137D01*
X81489420Y-98552000D01*
X81463799Y-98291863D01*
X81431986Y-98186990D01*
X82574976Y-97044000D01*
X109105928Y-97044000D01*
X109109000Y-97758250D01*
X109267750Y-97917000D01*
X110617000Y-97917000D01*
X110617000Y-96567750D01*
X110871000Y-96567750D01*
X110871000Y-97917000D01*
X112220250Y-97917000D01*
X112379000Y-97758250D01*
X112382072Y-97044000D01*
X112369812Y-96919518D01*
X112333502Y-96799820D01*
X112274537Y-96689506D01*
X112195185Y-96592815D01*
X112098494Y-96513463D01*
X111988180Y-96454498D01*
X111868482Y-96418188D01*
X111744000Y-96405928D01*
X111029750Y-96409000D01*
X110871000Y-96567750D01*
X110617000Y-96567750D01*
X110458250Y-96409000D01*
X109744000Y-96405928D01*
X109619518Y-96418188D01*
X109499820Y-96454498D01*
X109389506Y-96513463D01*
X109292815Y-96592815D01*
X109213463Y-96689506D01*
X109154498Y-96799820D01*
X109118188Y-96919518D01*
X109105928Y-97044000D01*
X82574976Y-97044000D01*
X83765937Y-95853039D01*
X91616596Y-95853039D01*
X91634133Y-95935818D01*
X91744785Y-96195646D01*
X91904000Y-96428895D01*
X92105661Y-96626601D01*
X92342017Y-96781166D01*
X92603986Y-96886650D01*
X92881500Y-96939000D01*
X93281500Y-96939000D01*
X93281500Y-95631000D01*
X93535500Y-95631000D01*
X93535500Y-96939000D01*
X93935500Y-96939000D01*
X94213014Y-96886650D01*
X94474983Y-96781166D01*
X94711339Y-96626601D01*
X94913000Y-96428895D01*
X95072215Y-96195646D01*
X95182867Y-95935818D01*
X95200404Y-95853039D01*
X95078415Y-95631000D01*
X93535500Y-95631000D01*
X93281500Y-95631000D01*
X91738585Y-95631000D01*
X91616596Y-95853039D01*
X83765937Y-95853039D01*
X83935293Y-95683683D01*
X83970659Y-95654659D01*
X83999684Y-95619292D01*
X83999687Y-95619289D01*
X84086501Y-95513506D01*
X84172579Y-95352465D01*
X84172580Y-95352464D01*
X84225587Y-95177724D01*
X84227828Y-95154961D01*
X91616596Y-95154961D01*
X91738585Y-95377000D01*
X93281500Y-95377000D01*
X93281500Y-94069000D01*
X93535500Y-94069000D01*
X93535500Y-95377000D01*
X95078415Y-95377000D01*
X95200404Y-95154961D01*
X95182867Y-95072182D01*
X95072215Y-94812354D01*
X94913000Y-94579105D01*
X94711339Y-94381399D01*
X94474983Y-94226834D01*
X94213014Y-94121350D01*
X93935500Y-94069000D01*
X93535500Y-94069000D01*
X93281500Y-94069000D01*
X92881500Y-94069000D01*
X92603986Y-94121350D01*
X92342017Y-94226834D01*
X92105661Y-94381399D01*
X91904000Y-94579105D01*
X91744785Y-94812354D01*
X91634133Y-95072182D01*
X91616596Y-95154961D01*
X84227828Y-95154961D01*
X84239000Y-95041538D01*
X84239000Y-95041526D01*
X84243484Y-94996001D01*
X84239000Y-94950476D01*
X84239000Y-91596246D01*
X84393692Y-91723198D01*
X84624222Y-91846419D01*
X84874363Y-91922299D01*
X85069316Y-91941500D01*
X85999684Y-91941500D01*
X86194637Y-91922299D01*
X86444778Y-91846419D01*
X86675308Y-91723198D01*
X86877370Y-91557370D01*
X87043198Y-91355308D01*
X87045501Y-91351000D01*
X92116106Y-91351000D01*
X92129130Y-91366870D01*
X92331192Y-91532698D01*
X92561722Y-91655919D01*
X92811863Y-91731799D01*
X93006816Y-91751000D01*
X93488025Y-91751000D01*
X95832316Y-94095292D01*
X95861341Y-94130659D01*
X95896708Y-94159684D01*
X95896712Y-94159688D01*
X96002494Y-94246501D01*
X96050351Y-94272081D01*
X96163536Y-94332580D01*
X96338276Y-94385587D01*
X96474462Y-94399000D01*
X96474473Y-94399000D01*
X96520000Y-94403484D01*
X96565527Y-94399000D01*
X99883186Y-94399000D01*
X99685630Y-94561130D01*
X99519802Y-94763192D01*
X99396581Y-94993722D01*
X99320701Y-95243863D01*
X99295080Y-95504000D01*
X99320701Y-95764137D01*
X99396581Y-96014278D01*
X99519802Y-96244808D01*
X99685630Y-96446870D01*
X99887692Y-96612698D01*
X100118222Y-96735919D01*
X100368363Y-96811799D01*
X100563316Y-96831000D01*
X101493684Y-96831000D01*
X101688637Y-96811799D01*
X101938778Y-96735919D01*
X102169308Y-96612698D01*
X102235958Y-96558000D01*
X103459473Y-96558000D01*
X103505000Y-96562484D01*
X103550527Y-96558000D01*
X103550538Y-96558000D01*
X103686724Y-96544587D01*
X103861464Y-96491580D01*
X104022505Y-96405501D01*
X104163659Y-96289659D01*
X104192688Y-96254287D01*
X107731292Y-92715684D01*
X107766659Y-92686659D01*
X107795684Y-92651292D01*
X107795687Y-92651289D01*
X107882501Y-92545506D01*
X107943458Y-92431463D01*
X107968580Y-92384464D01*
X108021587Y-92209724D01*
X108035000Y-92073538D01*
X108035000Y-92073526D01*
X108039484Y-92028001D01*
X108035000Y-91982476D01*
X108035000Y-85175894D01*
X108050870Y-85162870D01*
X108216698Y-84960808D01*
X108339919Y-84730278D01*
X108415799Y-84480137D01*
X108435000Y-84285183D01*
X108435000Y-83354816D01*
X108415799Y-83159863D01*
X108339919Y-82909722D01*
X108216698Y-82679192D01*
X108050870Y-82477130D01*
X108035000Y-82464106D01*
X108035000Y-82421524D01*
X108039484Y-82375999D01*
X108035000Y-82330474D01*
X108035000Y-82330462D01*
X108021587Y-82194276D01*
X107968580Y-82019536D01*
X107922699Y-81933700D01*
X107882501Y-81858494D01*
X107795687Y-81752711D01*
X107795684Y-81752708D01*
X107766659Y-81717341D01*
X107731293Y-81688317D01*
X106591000Y-80548025D01*
X106591000Y-70413039D01*
X109460096Y-70413039D01*
X109477633Y-70495818D01*
X109588285Y-70755646D01*
X109747500Y-70988895D01*
X109949161Y-71186601D01*
X110185517Y-71341166D01*
X110447486Y-71446650D01*
X110725000Y-71499000D01*
X111125000Y-71499000D01*
X111125000Y-70191000D01*
X111379000Y-70191000D01*
X111379000Y-71499000D01*
X111779000Y-71499000D01*
X112056514Y-71446650D01*
X112318483Y-71341166D01*
X112554839Y-71186601D01*
X112756500Y-70988895D01*
X112915715Y-70755646D01*
X113026367Y-70495818D01*
X113043904Y-70413039D01*
X112921915Y-70191000D01*
X111379000Y-70191000D01*
X111125000Y-70191000D01*
X109582085Y-70191000D01*
X109460096Y-70413039D01*
X106591000Y-70413039D01*
X106591000Y-65915975D01*
X107577427Y-64929549D01*
X108896000Y-64929549D01*
X108999310Y-64919374D01*
X109098650Y-64889239D01*
X109190202Y-64840304D01*
X109270448Y-64774448D01*
X109336304Y-64694202D01*
X109385239Y-64602650D01*
X109415374Y-64503310D01*
X109425549Y-64400000D01*
X109425549Y-63898091D01*
X109471245Y-64048731D01*
X109603752Y-64296634D01*
X109782077Y-64513923D01*
X109999366Y-64692248D01*
X110225001Y-64812852D01*
X110225000Y-66234451D01*
X110052000Y-66234451D01*
X109948690Y-66244626D01*
X109849350Y-66274761D01*
X109757798Y-66323696D01*
X109677552Y-66389552D01*
X109611696Y-66469798D01*
X109562761Y-66561350D01*
X109532626Y-66660690D01*
X109522451Y-66764000D01*
X109522451Y-68364000D01*
X109532626Y-68467310D01*
X109562761Y-68566650D01*
X109611696Y-68658202D01*
X109677552Y-68738448D01*
X109757798Y-68804304D01*
X109849350Y-68853239D01*
X109948690Y-68883374D01*
X110026215Y-68891009D01*
X109949161Y-68941399D01*
X109747500Y-69139105D01*
X109588285Y-69372354D01*
X109477633Y-69632182D01*
X109460096Y-69714961D01*
X109582085Y-69937000D01*
X111125000Y-69937000D01*
X111125000Y-69917000D01*
X111379000Y-69917000D01*
X111379000Y-69937000D01*
X112921915Y-69937000D01*
X113043904Y-69714961D01*
X113026367Y-69632182D01*
X112915715Y-69372354D01*
X112756500Y-69139105D01*
X112707433Y-69091000D01*
X114175497Y-69091000D01*
X116837000Y-71752504D01*
X116837000Y-72519496D01*
X113781294Y-75575203D01*
X113723024Y-75623024D01*
X113532203Y-75855541D01*
X113390410Y-76120816D01*
X113303095Y-76408657D01*
X113281000Y-76632990D01*
X113281000Y-76632999D01*
X113273613Y-76708000D01*
X113281000Y-76783001D01*
X113281001Y-88824980D01*
X113281000Y-88824990D01*
X113281001Y-99134602D01*
X112342604Y-100073000D01*
X97103000Y-100073000D01*
X97027999Y-100065613D01*
X96952998Y-100073000D01*
X96952989Y-100073000D01*
X96728656Y-100095095D01*
X96440815Y-100182410D01*
X96175540Y-100324203D01*
X95943024Y-100515024D01*
X95895207Y-100573289D01*
X95367897Y-101100599D01*
X95106638Y-101126331D01*
X94724547Y-101242237D01*
X94372410Y-101430458D01*
X94141101Y-101620288D01*
X93140390Y-102621000D01*
X77657396Y-102621000D01*
X76973000Y-101936604D01*
X76973000Y-97707396D01*
X81970525Y-92709872D01*
X82009712Y-92677712D01*
X82138051Y-92521331D01*
X82233415Y-92342917D01*
X82292140Y-92149327D01*
X82307000Y-91998451D01*
X82307000Y-91998442D01*
X82311968Y-91948001D01*
X82307000Y-91897560D01*
X82307000Y-85261396D01*
X83546897Y-84021500D01*
X84294143Y-84021500D01*
X84393692Y-84103198D01*
X84590096Y-84208178D01*
X84468017Y-84257334D01*
X84231661Y-84411899D01*
X84030000Y-84609605D01*
X83870785Y-84842854D01*
X83760133Y-85102682D01*
X83742596Y-85185461D01*
X83864585Y-85407500D01*
X85407500Y-85407500D01*
X85407500Y-85387500D01*
X85661500Y-85387500D01*
X85661500Y-85407500D01*
X87204415Y-85407500D01*
X87326404Y-85185461D01*
X87308867Y-85102682D01*
X87198215Y-84842854D01*
X87039000Y-84609605D01*
X86837339Y-84411899D01*
X86600983Y-84257334D01*
X86478904Y-84208178D01*
X86662792Y-84109888D01*
X89255776Y-84109888D01*
X89291696Y-84177090D01*
X89357552Y-84257336D01*
X89437798Y-84323192D01*
X89529350Y-84372127D01*
X89628690Y-84402262D01*
X89706215Y-84409897D01*
X89629161Y-84460287D01*
X89427500Y-84657993D01*
X89268285Y-84891242D01*
X89157633Y-85151070D01*
X89140096Y-85233849D01*
X89262085Y-85455888D01*
X90805000Y-85455888D01*
X90805000Y-85435888D01*
X91059000Y-85435888D01*
X91059000Y-85455888D01*
X92601915Y-85455888D01*
X92723904Y-85233849D01*
X92706367Y-85151070D01*
X92595715Y-84891242D01*
X92436500Y-84657993D01*
X92234839Y-84460287D01*
X92157785Y-84409897D01*
X92235310Y-84402262D01*
X92334650Y-84372127D01*
X92426202Y-84323192D01*
X92506448Y-84257336D01*
X92572304Y-84177090D01*
X92608224Y-84109888D01*
X95174671Y-84109888D01*
X95225112Y-84114856D01*
X95275553Y-84109888D01*
X95275563Y-84109888D01*
X95426439Y-84095028D01*
X95620029Y-84036303D01*
X95798443Y-83940939D01*
X95954824Y-83812600D01*
X95986989Y-83773407D01*
X96771774Y-82988623D01*
X96780136Y-82987799D01*
X97030277Y-82911919D01*
X97260807Y-82788698D01*
X97462870Y-82622870D01*
X97628698Y-82420808D01*
X97751919Y-82190278D01*
X97827799Y-81940137D01*
X97847000Y-81745184D01*
X97847000Y-80814817D01*
X97827799Y-80619863D01*
X97751919Y-80369722D01*
X97628698Y-80139192D01*
X97462870Y-79937130D01*
X97260808Y-79771302D01*
X97030278Y-79648081D01*
X96780137Y-79572201D01*
X96520000Y-79546580D01*
X96259864Y-79572201D01*
X96009723Y-79648081D01*
X95779193Y-79771302D01*
X95577131Y-79937130D01*
X95411302Y-80139192D01*
X95288081Y-80369722D01*
X95212201Y-80619863D01*
X95193000Y-80814816D01*
X95193000Y-81662603D01*
X94799716Y-82055888D01*
X92608224Y-82055888D01*
X92572304Y-81988686D01*
X92506448Y-81908440D01*
X92426202Y-81842584D01*
X92334650Y-81793649D01*
X92235310Y-81763514D01*
X92132000Y-81753339D01*
X89732000Y-81753339D01*
X89628690Y-81763514D01*
X89529350Y-81793649D01*
X89437798Y-81842584D01*
X89357552Y-81908440D01*
X89291696Y-81988686D01*
X89255776Y-82055888D01*
X86880864Y-82055888D01*
X86877370Y-82051630D01*
X86675308Y-81885802D01*
X86478904Y-81780822D01*
X86600983Y-81731666D01*
X86837339Y-81577101D01*
X87039000Y-81379395D01*
X87198215Y-81146146D01*
X87308867Y-80886318D01*
X87326404Y-80803539D01*
X87204415Y-80581500D01*
X85661500Y-80581500D01*
X85661500Y-80601500D01*
X85407500Y-80601500D01*
X85407500Y-80581500D01*
X83864585Y-80581500D01*
X83742596Y-80803539D01*
X83760133Y-80886318D01*
X83870785Y-81146146D01*
X84030000Y-81379395D01*
X84231661Y-81577101D01*
X84468017Y-81731666D01*
X84590096Y-81780822D01*
X84393692Y-81885802D01*
X84294143Y-81967500D01*
X83171940Y-81967500D01*
X83121499Y-81962532D01*
X83071058Y-81967500D01*
X83071049Y-81967500D01*
X82920173Y-81982360D01*
X82726583Y-82041085D01*
X82548169Y-82136449D01*
X82391788Y-82264788D01*
X82359628Y-82303975D01*
X80589481Y-84074123D01*
X80550288Y-84106288D01*
X80421949Y-84262669D01*
X80326585Y-84441084D01*
X80267860Y-84634674D01*
X80253000Y-84785550D01*
X80253000Y-84785559D01*
X80248032Y-84836000D01*
X80253000Y-84886441D01*
X80253001Y-91522602D01*
X75255481Y-96520123D01*
X75216288Y-96552288D01*
X75087949Y-96708669D01*
X74992585Y-96887084D01*
X74933860Y-97080674D01*
X74919000Y-97231550D01*
X74919000Y-97231559D01*
X74914032Y-97282000D01*
X74919000Y-97332441D01*
X74919001Y-101295540D01*
X74919000Y-101295550D01*
X74919000Y-101936603D01*
X74234603Y-102621000D01*
X56520504Y-102621000D01*
X50295000Y-96395497D01*
X50295000Y-96344367D01*
X50372815Y-96439185D01*
X50469506Y-96518537D01*
X50579820Y-96577502D01*
X50699518Y-96613812D01*
X50824000Y-96626072D01*
X52038250Y-96623000D01*
X52197000Y-96464250D01*
X52197000Y-94615000D01*
X52451000Y-94615000D01*
X52451000Y-96464250D01*
X52609750Y-96623000D01*
X53824000Y-96626072D01*
X53948482Y-96613812D01*
X54068180Y-96577502D01*
X54178494Y-96518537D01*
X54275185Y-96439185D01*
X54354537Y-96342494D01*
X54413502Y-96232180D01*
X54449812Y-96112482D01*
X54462072Y-95988000D01*
X54459000Y-94773750D01*
X54300250Y-94615000D01*
X52451000Y-94615000D01*
X52197000Y-94615000D01*
X52177000Y-94615000D01*
X52177000Y-94361000D01*
X52197000Y-94361000D01*
X52197000Y-92511750D01*
X52038250Y-92353000D01*
X50824000Y-92349928D01*
X50699518Y-92362188D01*
X50579820Y-92398498D01*
X50469506Y-92457463D01*
X50372815Y-92536815D01*
X50295000Y-92631633D01*
X50295000Y-89208358D01*
X50297000Y-89208358D01*
X50297000Y-89607642D01*
X50374896Y-89999254D01*
X50527696Y-90368145D01*
X50749526Y-90700137D01*
X51031863Y-90982474D01*
X51363855Y-91204304D01*
X51732746Y-91357104D01*
X52124358Y-91435000D01*
X52523642Y-91435000D01*
X52915254Y-91357104D01*
X52948399Y-91343375D01*
X53975369Y-92370344D01*
X53948482Y-92362188D01*
X53824000Y-92349928D01*
X52609750Y-92353000D01*
X52451000Y-92511750D01*
X52451000Y-94361000D01*
X54300250Y-94361000D01*
X54459000Y-94202250D01*
X54462072Y-92988000D01*
X54449812Y-92863518D01*
X54441656Y-92836632D01*
X57732316Y-96127292D01*
X57761341Y-96162659D01*
X57796708Y-96191684D01*
X57796712Y-96191688D01*
X57902494Y-96278501D01*
X58015436Y-96338870D01*
X58063536Y-96364580D01*
X58238276Y-96417587D01*
X58374462Y-96431000D01*
X58374473Y-96431000D01*
X58420000Y-96435484D01*
X58465527Y-96431000D01*
X59604106Y-96431000D01*
X59617130Y-96446870D01*
X59819192Y-96612698D01*
X60049722Y-96735919D01*
X60299863Y-96811799D01*
X60494816Y-96831000D01*
X61425184Y-96831000D01*
X61620137Y-96811799D01*
X61870278Y-96735919D01*
X62100808Y-96612698D01*
X62302870Y-96446870D01*
X62468698Y-96244808D01*
X62591919Y-96014278D01*
X62667799Y-95764137D01*
X62693420Y-95504000D01*
X62667799Y-95243863D01*
X62591919Y-94993722D01*
X62468698Y-94763192D01*
X62302870Y-94561130D01*
X62100808Y-94395302D01*
X61870278Y-94272081D01*
X61620137Y-94196201D01*
X61425184Y-94177000D01*
X60494816Y-94177000D01*
X60299863Y-94196201D01*
X60049722Y-94272081D01*
X59819192Y-94395302D01*
X59617130Y-94561130D01*
X59604106Y-94577000D01*
X58803976Y-94577000D01*
X54259375Y-90032399D01*
X54273104Y-89999254D01*
X54351000Y-89607642D01*
X54351000Y-89208358D01*
X54273104Y-88816746D01*
X54120304Y-88447855D01*
X53898474Y-88115863D01*
X53616137Y-87833526D01*
X53284145Y-87611696D01*
X52915254Y-87458896D01*
X52523642Y-87381000D01*
X52124358Y-87381000D01*
X51732746Y-87458896D01*
X51363855Y-87611696D01*
X51031863Y-87833526D01*
X50749526Y-88115863D01*
X50527696Y-88447855D01*
X50374896Y-88816746D01*
X50297000Y-89208358D01*
X50295000Y-89208358D01*
X50295000Y-81452074D01*
X50304626Y-81549810D01*
X50334761Y-81649150D01*
X50383696Y-81740702D01*
X50449552Y-81820948D01*
X50529798Y-81886804D01*
X50621350Y-81935739D01*
X50720690Y-81965874D01*
X50824000Y-81976049D01*
X52901152Y-81976049D01*
X53498877Y-82573774D01*
X53531038Y-82612962D01*
X53570231Y-82645127D01*
X54006873Y-83081769D01*
X54039038Y-83120962D01*
X54078231Y-83153127D01*
X55361001Y-84435898D01*
X55361000Y-89865559D01*
X55356032Y-89916000D01*
X55361000Y-89966441D01*
X55361000Y-89966450D01*
X55375860Y-90117326D01*
X55434585Y-90310916D01*
X55529949Y-90489331D01*
X55658288Y-90645712D01*
X55697481Y-90677877D01*
X58674128Y-93654525D01*
X58706288Y-93693712D01*
X58862669Y-93822051D01*
X59041083Y-93917415D01*
X59234673Y-93976140D01*
X59385549Y-93991000D01*
X59385559Y-93991000D01*
X59436000Y-93995968D01*
X59486441Y-93991000D01*
X62433559Y-93991000D01*
X62484000Y-93995968D01*
X62534441Y-93991000D01*
X62534451Y-93991000D01*
X62685327Y-93976140D01*
X62878917Y-93917415D01*
X63057331Y-93822051D01*
X63213712Y-93693712D01*
X63245877Y-93654519D01*
X64698524Y-92201872D01*
X64737712Y-92169712D01*
X64866051Y-92013331D01*
X64961415Y-91834917D01*
X65020140Y-91641327D01*
X65035000Y-91490451D01*
X65035000Y-91490442D01*
X65039968Y-91440001D01*
X65035000Y-91389560D01*
X65035000Y-90424000D01*
X66846580Y-90424000D01*
X66872201Y-90684137D01*
X66948081Y-90934278D01*
X67071302Y-91164808D01*
X67237130Y-91366870D01*
X67439192Y-91532698D01*
X67653001Y-91646981D01*
X67653000Y-94281019D01*
X67439192Y-94395302D01*
X67237130Y-94561130D01*
X67071302Y-94763192D01*
X66948081Y-94993722D01*
X66872201Y-95243863D01*
X66846580Y-95504000D01*
X66872201Y-95764137D01*
X66948081Y-96014278D01*
X67071302Y-96244808D01*
X67237130Y-96446870D01*
X67439192Y-96612698D01*
X67669722Y-96735919D01*
X67919863Y-96811799D01*
X68114816Y-96831000D01*
X69045184Y-96831000D01*
X69240137Y-96811799D01*
X69490278Y-96735919D01*
X69720808Y-96612698D01*
X69922870Y-96446870D01*
X70088698Y-96244808D01*
X70211919Y-96014278D01*
X70287799Y-95764137D01*
X70313420Y-95504000D01*
X70287799Y-95243863D01*
X70211919Y-94993722D01*
X70088698Y-94763192D01*
X69922870Y-94561130D01*
X69720808Y-94395302D01*
X69507000Y-94281019D01*
X69507000Y-91823975D01*
X69979976Y-91351000D01*
X71715911Y-91351000D01*
X71903193Y-91504698D01*
X72133723Y-91627919D01*
X72383864Y-91703799D01*
X72644000Y-91729420D01*
X72904137Y-91703799D01*
X73154278Y-91627919D01*
X73384808Y-91504698D01*
X73586870Y-91338870D01*
X73752698Y-91136808D01*
X73875919Y-90906278D01*
X73951799Y-90656137D01*
X73971000Y-90461183D01*
X73971000Y-89979975D01*
X74949476Y-89001500D01*
X76558606Y-89001500D01*
X76571630Y-89017370D01*
X76773692Y-89183198D01*
X77004222Y-89306419D01*
X77129757Y-89344500D01*
X77004222Y-89382581D01*
X76773692Y-89505802D01*
X76571630Y-89671630D01*
X76405802Y-89873692D01*
X76282581Y-90104222D01*
X76206701Y-90354363D01*
X76181080Y-90614500D01*
X76206701Y-90874637D01*
X76238514Y-90979510D01*
X73574800Y-93643225D01*
X73384807Y-93487302D01*
X73154277Y-93364081D01*
X72904136Y-93288201D01*
X72644000Y-93262580D01*
X72383863Y-93288201D01*
X72133722Y-93364081D01*
X71903192Y-93487302D01*
X71701130Y-93653130D01*
X71535302Y-93855193D01*
X71412081Y-94085723D01*
X71336201Y-94335864D01*
X71317000Y-94530817D01*
X71317000Y-95069747D01*
X71275420Y-95147537D01*
X71246200Y-95243863D01*
X71222414Y-95322276D01*
X71219441Y-95352463D01*
X71204516Y-95504000D01*
X71209001Y-95549537D01*
X71209000Y-97329019D01*
X70995192Y-97443302D01*
X70793130Y-97609130D01*
X70627302Y-97811192D01*
X70504081Y-98041722D01*
X70428201Y-98291863D01*
X70402580Y-98552000D01*
X70428201Y-98812137D01*
X70504081Y-99062278D01*
X70627302Y-99292808D01*
X70793130Y-99494870D01*
X70995192Y-99660698D01*
X71225722Y-99783919D01*
X71475863Y-99859799D01*
X71670816Y-99879000D01*
X72601184Y-99879000D01*
X72796137Y-99859799D01*
X73046278Y-99783919D01*
X73276808Y-99660698D01*
X73478870Y-99494870D01*
X73644698Y-99292808D01*
X73767919Y-99062278D01*
X73843799Y-98812137D01*
X73869420Y-98552000D01*
X73843799Y-98291863D01*
X73767919Y-98041722D01*
X73644698Y-97811192D01*
X73478870Y-97609130D01*
X73276808Y-97443302D01*
X73063000Y-97329019D01*
X73063000Y-96655608D01*
X73154278Y-96627919D01*
X73384808Y-96504698D01*
X73586870Y-96338870D01*
X73752698Y-96136808D01*
X73875919Y-95906278D01*
X73891291Y-95855603D01*
X74050505Y-95770501D01*
X74191659Y-95654659D01*
X74220688Y-95619287D01*
X77898476Y-91941500D01*
X78379684Y-91941500D01*
X78574637Y-91922299D01*
X78824778Y-91846419D01*
X79055308Y-91723198D01*
X79257370Y-91557370D01*
X79423198Y-91355308D01*
X79546419Y-91124778D01*
X79622299Y-90874637D01*
X79647920Y-90614500D01*
X79622299Y-90354363D01*
X79546419Y-90104222D01*
X79423198Y-89873692D01*
X79257370Y-89671630D01*
X79055308Y-89505802D01*
X78824778Y-89382581D01*
X78699243Y-89344500D01*
X78824778Y-89306419D01*
X79055308Y-89183198D01*
X79257370Y-89017370D01*
X79423198Y-88815308D01*
X79546419Y-88584778D01*
X79622299Y-88334637D01*
X79647920Y-88074500D01*
X79622299Y-87814363D01*
X79546419Y-87564222D01*
X79423198Y-87333692D01*
X79257370Y-87131630D01*
X79055308Y-86965802D01*
X78858904Y-86860822D01*
X78980983Y-86811666D01*
X79217339Y-86657101D01*
X79419000Y-86459395D01*
X79578215Y-86226146D01*
X79688867Y-85966318D01*
X79706404Y-85883539D01*
X79584415Y-85661500D01*
X78041500Y-85661500D01*
X78041500Y-85681500D01*
X77787500Y-85681500D01*
X77787500Y-85661500D01*
X76244585Y-85661500D01*
X76122596Y-85883539D01*
X76140133Y-85966318D01*
X76250785Y-86226146D01*
X76410000Y-86459395D01*
X76611661Y-86657101D01*
X76848017Y-86811666D01*
X76970096Y-86860822D01*
X76773692Y-86965802D01*
X76571630Y-87131630D01*
X76558606Y-87147500D01*
X74611024Y-87147500D01*
X74565499Y-87143016D01*
X74519974Y-87147500D01*
X74519962Y-87147500D01*
X74383776Y-87160913D01*
X74209036Y-87213920D01*
X74134073Y-87253989D01*
X74047994Y-87299999D01*
X73942211Y-87386813D01*
X73942208Y-87386816D01*
X73906841Y-87415841D01*
X73877816Y-87451208D01*
X73009010Y-88320014D01*
X72904136Y-88288201D01*
X72644000Y-88262580D01*
X72383863Y-88288201D01*
X72133722Y-88364081D01*
X71903192Y-88487302D01*
X71701130Y-88653130D01*
X71535302Y-88855193D01*
X71412081Y-89085723D01*
X71336201Y-89335864D01*
X71320331Y-89497000D01*
X69935894Y-89497000D01*
X69922870Y-89481130D01*
X69720808Y-89315302D01*
X69490278Y-89192081D01*
X69240137Y-89116201D01*
X69045184Y-89097000D01*
X68114816Y-89097000D01*
X67919863Y-89116201D01*
X67669722Y-89192081D01*
X67439192Y-89315302D01*
X67237130Y-89481130D01*
X67071302Y-89683192D01*
X66948081Y-89913722D01*
X66872201Y-90163863D01*
X66846580Y-90424000D01*
X65035000Y-90424000D01*
X65035000Y-86915000D01*
X65621000Y-86915000D01*
X65621000Y-87315000D01*
X65673350Y-87592514D01*
X65778834Y-87854483D01*
X65933399Y-88090839D01*
X66131105Y-88292500D01*
X66364354Y-88451715D01*
X66624182Y-88562367D01*
X66706961Y-88579904D01*
X66929000Y-88457915D01*
X66929000Y-86915000D01*
X67183000Y-86915000D01*
X67183000Y-88457915D01*
X67405039Y-88579904D01*
X67487818Y-88562367D01*
X67747646Y-88451715D01*
X67980895Y-88292500D01*
X68178601Y-88090839D01*
X68333166Y-87854483D01*
X68438650Y-87592514D01*
X68491000Y-87315000D01*
X68491000Y-86915000D01*
X67183000Y-86915000D01*
X66929000Y-86915000D01*
X65621000Y-86915000D01*
X65035000Y-86915000D01*
X65035000Y-86261000D01*
X65621000Y-86261000D01*
X65621000Y-86661000D01*
X66929000Y-86661000D01*
X66929000Y-85118085D01*
X67183000Y-85118085D01*
X67183000Y-86661000D01*
X68491000Y-86661000D01*
X68491000Y-86261000D01*
X68438650Y-85983486D01*
X68417890Y-85931927D01*
X70852096Y-85931927D01*
X70869633Y-86014706D01*
X70980285Y-86274534D01*
X71139500Y-86507783D01*
X71341161Y-86705489D01*
X71577517Y-86860054D01*
X71839486Y-86965538D01*
X72117000Y-87017888D01*
X72517000Y-87017888D01*
X72517000Y-85709888D01*
X72771000Y-85709888D01*
X72771000Y-87017888D01*
X73171000Y-87017888D01*
X73448514Y-86965538D01*
X73710483Y-86860054D01*
X73946839Y-86705489D01*
X74148500Y-86507783D01*
X74307715Y-86274534D01*
X74418367Y-86014706D01*
X74435904Y-85931927D01*
X74313915Y-85709888D01*
X72771000Y-85709888D01*
X72517000Y-85709888D01*
X70974085Y-85709888D01*
X70852096Y-85931927D01*
X68417890Y-85931927D01*
X68333166Y-85721517D01*
X68178601Y-85485161D01*
X67980895Y-85283500D01*
X67747646Y-85124285D01*
X67487818Y-85013633D01*
X67405039Y-84996096D01*
X67183000Y-85118085D01*
X66929000Y-85118085D01*
X66706961Y-84996096D01*
X66624182Y-85013633D01*
X66364354Y-85124285D01*
X66131105Y-85283500D01*
X65933399Y-85485161D01*
X65778834Y-85721517D01*
X65673350Y-85983486D01*
X65621000Y-86261000D01*
X65035000Y-86261000D01*
X65035000Y-83737396D01*
X65911176Y-82861221D01*
X65947302Y-82928807D01*
X66113130Y-83130870D01*
X66315192Y-83296698D01*
X66545722Y-83419919D01*
X66795863Y-83495799D01*
X67056000Y-83521420D01*
X67316136Y-83495799D01*
X67566277Y-83419919D01*
X67796807Y-83296698D01*
X67998870Y-83130870D01*
X68164698Y-82928808D01*
X68200824Y-82861221D01*
X69113015Y-83773412D01*
X69145176Y-83812600D01*
X69301557Y-83940939D01*
X69479971Y-84036303D01*
X69673561Y-84095028D01*
X69824437Y-84109888D01*
X69824446Y-84109888D01*
X69874887Y-84114856D01*
X69925328Y-84109888D01*
X70967776Y-84109888D01*
X71003696Y-84177090D01*
X71069552Y-84257336D01*
X71149798Y-84323192D01*
X71241350Y-84372127D01*
X71340690Y-84402262D01*
X71418215Y-84409897D01*
X71341161Y-84460287D01*
X71139500Y-84657993D01*
X70980285Y-84891242D01*
X70869633Y-85151070D01*
X70852096Y-85233849D01*
X70974085Y-85455888D01*
X72517000Y-85455888D01*
X72517000Y-85435888D01*
X72771000Y-85435888D01*
X72771000Y-85455888D01*
X74313915Y-85455888D01*
X74435904Y-85233849D01*
X74418367Y-85151070D01*
X74307715Y-84891242D01*
X74148500Y-84657993D01*
X73946839Y-84460287D01*
X73869785Y-84409897D01*
X73947310Y-84402262D01*
X74046650Y-84372127D01*
X74138202Y-84323192D01*
X74218448Y-84257336D01*
X74284304Y-84177090D01*
X74333239Y-84085538D01*
X74352665Y-84021500D01*
X76674143Y-84021500D01*
X76773692Y-84103198D01*
X76970096Y-84208178D01*
X76848017Y-84257334D01*
X76611661Y-84411899D01*
X76410000Y-84609605D01*
X76250785Y-84842854D01*
X76140133Y-85102682D01*
X76122596Y-85185461D01*
X76244585Y-85407500D01*
X77787500Y-85407500D01*
X77787500Y-85387500D01*
X78041500Y-85387500D01*
X78041500Y-85407500D01*
X79584415Y-85407500D01*
X79706404Y-85185461D01*
X79688867Y-85102682D01*
X79578215Y-84842854D01*
X79419000Y-84609605D01*
X79217339Y-84411899D01*
X78980983Y-84257334D01*
X78858904Y-84208178D01*
X79055308Y-84103198D01*
X79257370Y-83937370D01*
X79423198Y-83735308D01*
X79546419Y-83504778D01*
X79622299Y-83254637D01*
X79647920Y-82994500D01*
X79622299Y-82734363D01*
X79546419Y-82484222D01*
X79423198Y-82253692D01*
X79257370Y-82051630D01*
X79055308Y-81885802D01*
X78858904Y-81780822D01*
X78980983Y-81731666D01*
X79217339Y-81577101D01*
X79419000Y-81379395D01*
X79578215Y-81146146D01*
X79688867Y-80886318D01*
X79706404Y-80803539D01*
X79584415Y-80581500D01*
X78041500Y-80581500D01*
X78041500Y-80601500D01*
X77787500Y-80601500D01*
X77787500Y-80581500D01*
X76244585Y-80581500D01*
X76122596Y-80803539D01*
X76140133Y-80886318D01*
X76250785Y-81146146D01*
X76410000Y-81379395D01*
X76611661Y-81577101D01*
X76848017Y-81731666D01*
X76970096Y-81780822D01*
X76773692Y-81885802D01*
X76674143Y-81967500D01*
X74266917Y-81967500D01*
X74218448Y-81908440D01*
X74138202Y-81842584D01*
X74046650Y-81793649D01*
X73947310Y-81763514D01*
X73844000Y-81753339D01*
X71444000Y-81753339D01*
X71340690Y-81763514D01*
X71241350Y-81793649D01*
X71149798Y-81842584D01*
X71069552Y-81908440D01*
X71003696Y-81988686D01*
X70967776Y-82055888D01*
X70300285Y-82055888D01*
X69341877Y-81097481D01*
X69309712Y-81058288D01*
X69153331Y-80929949D01*
X68974917Y-80834585D01*
X68781327Y-80775860D01*
X68630451Y-80761000D01*
X68630441Y-80761000D01*
X68580000Y-80756032D01*
X68529559Y-80761000D01*
X68225530Y-80761000D01*
X68164698Y-80647192D01*
X67998870Y-80445130D01*
X67796808Y-80279302D01*
X67566278Y-80156081D01*
X67316137Y-80080201D01*
X67056000Y-80054580D01*
X66795864Y-80080201D01*
X66545723Y-80156081D01*
X66315193Y-80279302D01*
X66113131Y-80445130D01*
X65947302Y-80647192D01*
X65886470Y-80761000D01*
X65582440Y-80761000D01*
X65531999Y-80756032D01*
X65481558Y-80761000D01*
X65481549Y-80761000D01*
X65330673Y-80775860D01*
X65137083Y-80834585D01*
X64958669Y-80929949D01*
X64802288Y-81058288D01*
X64770128Y-81097476D01*
X63317476Y-82550128D01*
X63278289Y-82582288D01*
X63246129Y-82621475D01*
X63246128Y-82621476D01*
X63149950Y-82738669D01*
X63054586Y-82917083D01*
X62995861Y-83110673D01*
X62976032Y-83312000D01*
X62981001Y-83362451D01*
X62981000Y-91014603D01*
X62058604Y-91937000D01*
X59861397Y-91937000D01*
X57415000Y-89490604D01*
X57415000Y-84060940D01*
X57419968Y-84010499D01*
X57415000Y-83960058D01*
X57415000Y-83960049D01*
X57400140Y-83809173D01*
X57341415Y-83615583D01*
X57246051Y-83437169D01*
X57117712Y-83280788D01*
X57078524Y-83248628D01*
X55795750Y-81965854D01*
X55795750Y-80986058D01*
X55806297Y-80973206D01*
X58430712Y-78348792D01*
X58488976Y-78300976D01*
X58679797Y-78068460D01*
X58821590Y-77803185D01*
X58908905Y-77515344D01*
X58931000Y-77291011D01*
X58931000Y-77291002D01*
X58938387Y-77216001D01*
X58931000Y-77141000D01*
X58931000Y-70427610D01*
X70435610Y-58923000D01*
X103223571Y-58923000D01*
X103521361Y-58893670D01*
X103634848Y-58859244D01*
X106846053Y-62070451D01*
%TD*%
M02*
