%TF.GenerationSoftware,KiCad,Pcbnew,5.1.6*%
%TF.CreationDate,2020-07-01T22:40:06-03:00*%
%TF.ProjectId,audioamp,61756469-6f61-46d7-902e-6b696361645f,2*%
%TF.SameCoordinates,Original*%
%TF.FileFunction,Legend,Top*%
%TF.FilePolarity,Positive*%
%FSLAX46Y46*%
G04 Gerber Fmt 4.6, Leading zero omitted, Abs format (unit mm)*
G04 Created by KiCad (PCBNEW 5.1.6) date 2020-07-01 22:40:06*
%MOMM*%
%LPD*%
G01*
G04 APERTURE LIST*
%ADD10C,0.250000*%
%ADD11C,0.120000*%
%ADD12C,0.150000*%
G04 APERTURE END LIST*
D10*
X57150095Y-94242000D02*
X57054857Y-94194380D01*
X56912000Y-94194380D01*
X56769142Y-94242000D01*
X56673904Y-94337238D01*
X56626285Y-94432476D01*
X56578666Y-94622952D01*
X56578666Y-94765809D01*
X56626285Y-94956285D01*
X56673904Y-95051523D01*
X56769142Y-95146761D01*
X56912000Y-95194380D01*
X57007238Y-95194380D01*
X57150095Y-95146761D01*
X57197714Y-95099142D01*
X57197714Y-94765809D01*
X57007238Y-94765809D01*
X57626285Y-95194380D02*
X57626285Y-94194380D01*
X58197714Y-95194380D01*
X58197714Y-94194380D01*
X58673904Y-95194380D02*
X58673904Y-94194380D01*
X58912000Y-94194380D01*
X59054857Y-94242000D01*
X59150095Y-94337238D01*
X59197714Y-94432476D01*
X59245333Y-94622952D01*
X59245333Y-94765809D01*
X59197714Y-94956285D01*
X59150095Y-95051523D01*
X59054857Y-95146761D01*
X58912000Y-95194380D01*
X58673904Y-95194380D01*
X56316761Y-89733428D02*
X57078666Y-89733428D01*
X56697714Y-90114380D02*
X56697714Y-89352476D01*
X57507238Y-90066761D02*
X57650095Y-90114380D01*
X57888190Y-90114380D01*
X57983428Y-90066761D01*
X58031047Y-90019142D01*
X58078666Y-89923904D01*
X58078666Y-89828666D01*
X58031047Y-89733428D01*
X57983428Y-89685809D01*
X57888190Y-89638190D01*
X57697714Y-89590571D01*
X57602476Y-89542952D01*
X57554857Y-89495333D01*
X57507238Y-89400095D01*
X57507238Y-89304857D01*
X57554857Y-89209619D01*
X57602476Y-89162000D01*
X57697714Y-89114380D01*
X57935809Y-89114380D01*
X58078666Y-89162000D01*
X58507238Y-90114380D02*
X58507238Y-89114380D01*
X59507238Y-89162000D02*
X59412000Y-89114380D01*
X59269142Y-89114380D01*
X59126285Y-89162000D01*
X59031047Y-89257238D01*
X58983428Y-89352476D01*
X58935809Y-89542952D01*
X58935809Y-89685809D01*
X58983428Y-89876285D01*
X59031047Y-89971523D01*
X59126285Y-90066761D01*
X59269142Y-90114380D01*
X59364380Y-90114380D01*
X59507238Y-90066761D01*
X59554857Y-90019142D01*
X59554857Y-89685809D01*
X59364380Y-89685809D01*
X56102476Y-80081428D02*
X56864380Y-80081428D01*
X56483428Y-80462380D02*
X56483428Y-79700476D01*
X57197714Y-79462380D02*
X57531047Y-80462380D01*
X57864380Y-79462380D01*
X58197714Y-80462380D02*
X58197714Y-79462380D01*
X58435809Y-79462380D01*
X58578666Y-79510000D01*
X58673904Y-79605238D01*
X58721523Y-79700476D01*
X58769142Y-79890952D01*
X58769142Y-80033809D01*
X58721523Y-80224285D01*
X58673904Y-80319523D01*
X58578666Y-80414761D01*
X58435809Y-80462380D01*
X58197714Y-80462380D01*
X59769142Y-80367142D02*
X59721523Y-80414761D01*
X59578666Y-80462380D01*
X59483428Y-80462380D01*
X59340571Y-80414761D01*
X59245333Y-80319523D01*
X59197714Y-80224285D01*
X59150095Y-80033809D01*
X59150095Y-79890952D01*
X59197714Y-79700476D01*
X59245333Y-79605238D01*
X59340571Y-79510000D01*
X59483428Y-79462380D01*
X59578666Y-79462380D01*
X59721523Y-79510000D01*
X59769142Y-79557619D01*
X56102476Y-69921428D02*
X56864380Y-69921428D01*
X57197714Y-69302380D02*
X57531047Y-70302380D01*
X57864380Y-69302380D01*
X58197714Y-70302380D02*
X58197714Y-69302380D01*
X58435809Y-69302380D01*
X58578666Y-69350000D01*
X58673904Y-69445238D01*
X58721523Y-69540476D01*
X58769142Y-69730952D01*
X58769142Y-69873809D01*
X58721523Y-70064285D01*
X58673904Y-70159523D01*
X58578666Y-70254761D01*
X58435809Y-70302380D01*
X58197714Y-70302380D01*
X59769142Y-70207142D02*
X59721523Y-70254761D01*
X59578666Y-70302380D01*
X59483428Y-70302380D01*
X59340571Y-70254761D01*
X59245333Y-70159523D01*
X59197714Y-70064285D01*
X59150095Y-69873809D01*
X59150095Y-69730952D01*
X59197714Y-69540476D01*
X59245333Y-69445238D01*
X59340571Y-69350000D01*
X59483428Y-69302380D01*
X59578666Y-69302380D01*
X59721523Y-69350000D01*
X59769142Y-69397619D01*
X57404095Y-74430000D02*
X57308857Y-74382380D01*
X57166000Y-74382380D01*
X57023142Y-74430000D01*
X56927904Y-74525238D01*
X56880285Y-74620476D01*
X56832666Y-74810952D01*
X56832666Y-74953809D01*
X56880285Y-75144285D01*
X56927904Y-75239523D01*
X57023142Y-75334761D01*
X57166000Y-75382380D01*
X57261238Y-75382380D01*
X57404095Y-75334761D01*
X57451714Y-75287142D01*
X57451714Y-74953809D01*
X57261238Y-74953809D01*
X57880285Y-75382380D02*
X57880285Y-74382380D01*
X58451714Y-75382380D01*
X58451714Y-74382380D01*
X58927904Y-75382380D02*
X58927904Y-74382380D01*
X59166000Y-74382380D01*
X59308857Y-74430000D01*
X59404095Y-74525238D01*
X59451714Y-74620476D01*
X59499333Y-74810952D01*
X59499333Y-74953809D01*
X59451714Y-75144285D01*
X59404095Y-75239523D01*
X59308857Y-75334761D01*
X59166000Y-75382380D01*
X58927904Y-75382380D01*
D11*
%TO.C,U1*%
X105975000Y-55180000D02*
X116216000Y-55180000D01*
X105975000Y-59821000D02*
X108331000Y-59821000D01*
X110461000Y-59821000D02*
X111731000Y-59821000D01*
X113861000Y-59821000D02*
X116216000Y-59821000D01*
X105975000Y-55180000D02*
X105975000Y-59821000D01*
X116216000Y-55180000D02*
X116216000Y-59821000D01*
X105975000Y-56689000D02*
X116216000Y-56689000D01*
X109246000Y-55180000D02*
X109246000Y-56689000D01*
X112946000Y-55180000D02*
X112946000Y-56689000D01*
X107696000Y-59821000D02*
X107696000Y-62451000D01*
X111096000Y-59821000D02*
X111096000Y-62435000D01*
X114496000Y-59821000D02*
X114496000Y-62435000D01*
%TO.C,R1*%
X93948500Y-94134000D02*
X93948500Y-94464000D01*
X100488500Y-94134000D02*
X93948500Y-94134000D01*
X100488500Y-94464000D02*
X100488500Y-94134000D01*
X93948500Y-96874000D02*
X93948500Y-96544000D01*
X100488500Y-96874000D02*
X93948500Y-96874000D01*
X100488500Y-96544000D02*
X100488500Y-96874000D01*
%TO.C,LS1*%
X153416000Y-84836000D02*
X153416000Y-74676000D01*
X152146000Y-84836000D02*
X159766000Y-84836000D01*
X159766000Y-84836000D02*
X159766000Y-74676000D01*
X159766000Y-74676000D02*
X152146000Y-74676000D01*
X152146000Y-74676000D02*
X152146000Y-84836000D01*
%TO.C,R6*%
X141886000Y-99155000D02*
X142216000Y-99155000D01*
X141886000Y-92615000D02*
X141886000Y-99155000D01*
X142216000Y-92615000D02*
X141886000Y-92615000D01*
X144626000Y-99155000D02*
X144296000Y-99155000D01*
X144626000Y-92615000D02*
X144626000Y-99155000D01*
X144296000Y-92615000D02*
X144626000Y-92615000D01*
%TO.C,J1*%
X56134000Y-82486500D02*
X48514000Y-82486500D01*
X56134000Y-67246500D02*
X48514000Y-67246500D01*
X54864000Y-82486500D02*
X54864000Y-67246500D01*
X48514000Y-82486500D02*
X48514000Y-67246500D01*
X56134000Y-82486500D02*
X56134000Y-67246500D01*
%TO.C,JPR1*%
X109544000Y-96844000D02*
X111944000Y-96844000D01*
X111944000Y-96844000D02*
X111944000Y-99244000D01*
X111944000Y-99244000D02*
X109544000Y-99244000D01*
X109544000Y-99244000D02*
X109544000Y-96844000D01*
X109544000Y-106356000D02*
X109544000Y-103956000D01*
X111944000Y-106356000D02*
X109544000Y-106356000D01*
X111944000Y-103956000D02*
X111944000Y-106356000D01*
X109544000Y-103956000D02*
X111944000Y-103956000D01*
%TO.C,C3*%
X113872000Y-68814000D02*
G75*
G03*
X113872000Y-68814000I-2620000J0D01*
G01*
X113832000Y-68814000D02*
X108672000Y-68814000D01*
X113832000Y-68854000D02*
X108672000Y-68854000D01*
X113831000Y-68894000D02*
X108673000Y-68894000D01*
X113830000Y-68934000D02*
X108674000Y-68934000D01*
X113828000Y-68974000D02*
X108676000Y-68974000D01*
X113825000Y-69014000D02*
X108679000Y-69014000D01*
X113821000Y-69054000D02*
X112292000Y-69054000D01*
X110212000Y-69054000D02*
X108683000Y-69054000D01*
X113817000Y-69094000D02*
X112292000Y-69094000D01*
X110212000Y-69094000D02*
X108687000Y-69094000D01*
X113813000Y-69134000D02*
X112292000Y-69134000D01*
X110212000Y-69134000D02*
X108691000Y-69134000D01*
X113808000Y-69174000D02*
X112292000Y-69174000D01*
X110212000Y-69174000D02*
X108696000Y-69174000D01*
X113802000Y-69214000D02*
X112292000Y-69214000D01*
X110212000Y-69214000D02*
X108702000Y-69214000D01*
X113795000Y-69254000D02*
X112292000Y-69254000D01*
X110212000Y-69254000D02*
X108709000Y-69254000D01*
X113788000Y-69294000D02*
X112292000Y-69294000D01*
X110212000Y-69294000D02*
X108716000Y-69294000D01*
X113780000Y-69334000D02*
X112292000Y-69334000D01*
X110212000Y-69334000D02*
X108724000Y-69334000D01*
X113772000Y-69374000D02*
X112292000Y-69374000D01*
X110212000Y-69374000D02*
X108732000Y-69374000D01*
X113763000Y-69414000D02*
X112292000Y-69414000D01*
X110212000Y-69414000D02*
X108741000Y-69414000D01*
X113753000Y-69454000D02*
X112292000Y-69454000D01*
X110212000Y-69454000D02*
X108751000Y-69454000D01*
X113743000Y-69494000D02*
X112292000Y-69494000D01*
X110212000Y-69494000D02*
X108761000Y-69494000D01*
X113732000Y-69535000D02*
X112292000Y-69535000D01*
X110212000Y-69535000D02*
X108772000Y-69535000D01*
X113720000Y-69575000D02*
X112292000Y-69575000D01*
X110212000Y-69575000D02*
X108784000Y-69575000D01*
X113707000Y-69615000D02*
X112292000Y-69615000D01*
X110212000Y-69615000D02*
X108797000Y-69615000D01*
X113694000Y-69655000D02*
X112292000Y-69655000D01*
X110212000Y-69655000D02*
X108810000Y-69655000D01*
X113680000Y-69695000D02*
X112292000Y-69695000D01*
X110212000Y-69695000D02*
X108824000Y-69695000D01*
X113666000Y-69735000D02*
X112292000Y-69735000D01*
X110212000Y-69735000D02*
X108838000Y-69735000D01*
X113650000Y-69775000D02*
X112292000Y-69775000D01*
X110212000Y-69775000D02*
X108854000Y-69775000D01*
X113634000Y-69815000D02*
X112292000Y-69815000D01*
X110212000Y-69815000D02*
X108870000Y-69815000D01*
X113617000Y-69855000D02*
X112292000Y-69855000D01*
X110212000Y-69855000D02*
X108887000Y-69855000D01*
X113600000Y-69895000D02*
X112292000Y-69895000D01*
X110212000Y-69895000D02*
X108904000Y-69895000D01*
X113581000Y-69935000D02*
X112292000Y-69935000D01*
X110212000Y-69935000D02*
X108923000Y-69935000D01*
X113562000Y-69975000D02*
X112292000Y-69975000D01*
X110212000Y-69975000D02*
X108942000Y-69975000D01*
X113542000Y-70015000D02*
X112292000Y-70015000D01*
X110212000Y-70015000D02*
X108962000Y-70015000D01*
X113520000Y-70055000D02*
X112292000Y-70055000D01*
X110212000Y-70055000D02*
X108984000Y-70055000D01*
X113499000Y-70095000D02*
X112292000Y-70095000D01*
X110212000Y-70095000D02*
X109005000Y-70095000D01*
X113476000Y-70135000D02*
X112292000Y-70135000D01*
X110212000Y-70135000D02*
X109028000Y-70135000D01*
X113452000Y-70175000D02*
X112292000Y-70175000D01*
X110212000Y-70175000D02*
X109052000Y-70175000D01*
X113427000Y-70215000D02*
X112292000Y-70215000D01*
X110212000Y-70215000D02*
X109077000Y-70215000D01*
X113401000Y-70255000D02*
X112292000Y-70255000D01*
X110212000Y-70255000D02*
X109103000Y-70255000D01*
X113374000Y-70295000D02*
X112292000Y-70295000D01*
X110212000Y-70295000D02*
X109130000Y-70295000D01*
X113347000Y-70335000D02*
X112292000Y-70335000D01*
X110212000Y-70335000D02*
X109157000Y-70335000D01*
X113317000Y-70375000D02*
X112292000Y-70375000D01*
X110212000Y-70375000D02*
X109187000Y-70375000D01*
X113287000Y-70415000D02*
X112292000Y-70415000D01*
X110212000Y-70415000D02*
X109217000Y-70415000D01*
X113256000Y-70455000D02*
X112292000Y-70455000D01*
X110212000Y-70455000D02*
X109248000Y-70455000D01*
X113223000Y-70495000D02*
X112292000Y-70495000D01*
X110212000Y-70495000D02*
X109281000Y-70495000D01*
X113189000Y-70535000D02*
X112292000Y-70535000D01*
X110212000Y-70535000D02*
X109315000Y-70535000D01*
X113153000Y-70575000D02*
X112292000Y-70575000D01*
X110212000Y-70575000D02*
X109351000Y-70575000D01*
X113116000Y-70615000D02*
X112292000Y-70615000D01*
X110212000Y-70615000D02*
X109388000Y-70615000D01*
X113078000Y-70655000D02*
X112292000Y-70655000D01*
X110212000Y-70655000D02*
X109426000Y-70655000D01*
X113037000Y-70695000D02*
X112292000Y-70695000D01*
X110212000Y-70695000D02*
X109467000Y-70695000D01*
X112995000Y-70735000D02*
X112292000Y-70735000D01*
X110212000Y-70735000D02*
X109509000Y-70735000D01*
X112951000Y-70775000D02*
X112292000Y-70775000D01*
X110212000Y-70775000D02*
X109553000Y-70775000D01*
X112905000Y-70815000D02*
X112292000Y-70815000D01*
X110212000Y-70815000D02*
X109599000Y-70815000D01*
X112857000Y-70855000D02*
X112292000Y-70855000D01*
X110212000Y-70855000D02*
X109647000Y-70855000D01*
X112806000Y-70895000D02*
X112292000Y-70895000D01*
X110212000Y-70895000D02*
X109698000Y-70895000D01*
X112752000Y-70935000D02*
X112292000Y-70935000D01*
X110212000Y-70935000D02*
X109752000Y-70935000D01*
X112695000Y-70975000D02*
X112292000Y-70975000D01*
X110212000Y-70975000D02*
X109809000Y-70975000D01*
X112635000Y-71015000D02*
X112292000Y-71015000D01*
X110212000Y-71015000D02*
X109869000Y-71015000D01*
X112571000Y-71055000D02*
X112292000Y-71055000D01*
X110212000Y-71055000D02*
X109933000Y-71055000D01*
X112503000Y-71095000D02*
X112292000Y-71095000D01*
X110212000Y-71095000D02*
X110001000Y-71095000D01*
X112430000Y-71135000D02*
X110074000Y-71135000D01*
X112350000Y-71175000D02*
X110154000Y-71175000D01*
X112263000Y-71215000D02*
X110241000Y-71215000D01*
X112167000Y-71255000D02*
X110337000Y-71255000D01*
X112057000Y-71295000D02*
X110447000Y-71295000D01*
X111929000Y-71335000D02*
X110575000Y-71335000D01*
X111770000Y-71375000D02*
X110734000Y-71375000D01*
X111536000Y-71415000D02*
X110968000Y-71415000D01*
X112727000Y-66009225D02*
X112727000Y-66509225D01*
X112977000Y-66259225D02*
X112477000Y-66259225D01*
%TO.C,R5*%
X126516000Y-82296000D02*
X127206000Y-82296000D01*
X137136000Y-82296000D02*
X136446000Y-82296000D01*
X127206000Y-84016000D02*
X136446000Y-84016000D01*
X127206000Y-80576000D02*
X127206000Y-84016000D01*
X136446000Y-80576000D02*
X127206000Y-80576000D01*
X136446000Y-84016000D02*
X136446000Y-80576000D01*
%TO.C,C6*%
X126806000Y-68072000D02*
G75*
G03*
X126806000Y-68072000I-2620000J0D01*
G01*
X124186000Y-65492000D02*
X124186000Y-70652000D01*
X124226000Y-65492000D02*
X124226000Y-70652000D01*
X124266000Y-65493000D02*
X124266000Y-70651000D01*
X124306000Y-65494000D02*
X124306000Y-70650000D01*
X124346000Y-65496000D02*
X124346000Y-70648000D01*
X124386000Y-65499000D02*
X124386000Y-70645000D01*
X124426000Y-65503000D02*
X124426000Y-67032000D01*
X124426000Y-69112000D02*
X124426000Y-70641000D01*
X124466000Y-65507000D02*
X124466000Y-67032000D01*
X124466000Y-69112000D02*
X124466000Y-70637000D01*
X124506000Y-65511000D02*
X124506000Y-67032000D01*
X124506000Y-69112000D02*
X124506000Y-70633000D01*
X124546000Y-65516000D02*
X124546000Y-67032000D01*
X124546000Y-69112000D02*
X124546000Y-70628000D01*
X124586000Y-65522000D02*
X124586000Y-67032000D01*
X124586000Y-69112000D02*
X124586000Y-70622000D01*
X124626000Y-65529000D02*
X124626000Y-67032000D01*
X124626000Y-69112000D02*
X124626000Y-70615000D01*
X124666000Y-65536000D02*
X124666000Y-67032000D01*
X124666000Y-69112000D02*
X124666000Y-70608000D01*
X124706000Y-65544000D02*
X124706000Y-67032000D01*
X124706000Y-69112000D02*
X124706000Y-70600000D01*
X124746000Y-65552000D02*
X124746000Y-67032000D01*
X124746000Y-69112000D02*
X124746000Y-70592000D01*
X124786000Y-65561000D02*
X124786000Y-67032000D01*
X124786000Y-69112000D02*
X124786000Y-70583000D01*
X124826000Y-65571000D02*
X124826000Y-67032000D01*
X124826000Y-69112000D02*
X124826000Y-70573000D01*
X124866000Y-65581000D02*
X124866000Y-67032000D01*
X124866000Y-69112000D02*
X124866000Y-70563000D01*
X124907000Y-65592000D02*
X124907000Y-67032000D01*
X124907000Y-69112000D02*
X124907000Y-70552000D01*
X124947000Y-65604000D02*
X124947000Y-67032000D01*
X124947000Y-69112000D02*
X124947000Y-70540000D01*
X124987000Y-65617000D02*
X124987000Y-67032000D01*
X124987000Y-69112000D02*
X124987000Y-70527000D01*
X125027000Y-65630000D02*
X125027000Y-67032000D01*
X125027000Y-69112000D02*
X125027000Y-70514000D01*
X125067000Y-65644000D02*
X125067000Y-67032000D01*
X125067000Y-69112000D02*
X125067000Y-70500000D01*
X125107000Y-65658000D02*
X125107000Y-67032000D01*
X125107000Y-69112000D02*
X125107000Y-70486000D01*
X125147000Y-65674000D02*
X125147000Y-67032000D01*
X125147000Y-69112000D02*
X125147000Y-70470000D01*
X125187000Y-65690000D02*
X125187000Y-67032000D01*
X125187000Y-69112000D02*
X125187000Y-70454000D01*
X125227000Y-65707000D02*
X125227000Y-67032000D01*
X125227000Y-69112000D02*
X125227000Y-70437000D01*
X125267000Y-65724000D02*
X125267000Y-67032000D01*
X125267000Y-69112000D02*
X125267000Y-70420000D01*
X125307000Y-65743000D02*
X125307000Y-67032000D01*
X125307000Y-69112000D02*
X125307000Y-70401000D01*
X125347000Y-65762000D02*
X125347000Y-67032000D01*
X125347000Y-69112000D02*
X125347000Y-70382000D01*
X125387000Y-65782000D02*
X125387000Y-67032000D01*
X125387000Y-69112000D02*
X125387000Y-70362000D01*
X125427000Y-65804000D02*
X125427000Y-67032000D01*
X125427000Y-69112000D02*
X125427000Y-70340000D01*
X125467000Y-65825000D02*
X125467000Y-67032000D01*
X125467000Y-69112000D02*
X125467000Y-70319000D01*
X125507000Y-65848000D02*
X125507000Y-67032000D01*
X125507000Y-69112000D02*
X125507000Y-70296000D01*
X125547000Y-65872000D02*
X125547000Y-67032000D01*
X125547000Y-69112000D02*
X125547000Y-70272000D01*
X125587000Y-65897000D02*
X125587000Y-67032000D01*
X125587000Y-69112000D02*
X125587000Y-70247000D01*
X125627000Y-65923000D02*
X125627000Y-67032000D01*
X125627000Y-69112000D02*
X125627000Y-70221000D01*
X125667000Y-65950000D02*
X125667000Y-67032000D01*
X125667000Y-69112000D02*
X125667000Y-70194000D01*
X125707000Y-65977000D02*
X125707000Y-67032000D01*
X125707000Y-69112000D02*
X125707000Y-70167000D01*
X125747000Y-66007000D02*
X125747000Y-67032000D01*
X125747000Y-69112000D02*
X125747000Y-70137000D01*
X125787000Y-66037000D02*
X125787000Y-67032000D01*
X125787000Y-69112000D02*
X125787000Y-70107000D01*
X125827000Y-66068000D02*
X125827000Y-67032000D01*
X125827000Y-69112000D02*
X125827000Y-70076000D01*
X125867000Y-66101000D02*
X125867000Y-67032000D01*
X125867000Y-69112000D02*
X125867000Y-70043000D01*
X125907000Y-66135000D02*
X125907000Y-67032000D01*
X125907000Y-69112000D02*
X125907000Y-70009000D01*
X125947000Y-66171000D02*
X125947000Y-67032000D01*
X125947000Y-69112000D02*
X125947000Y-69973000D01*
X125987000Y-66208000D02*
X125987000Y-67032000D01*
X125987000Y-69112000D02*
X125987000Y-69936000D01*
X126027000Y-66246000D02*
X126027000Y-67032000D01*
X126027000Y-69112000D02*
X126027000Y-69898000D01*
X126067000Y-66287000D02*
X126067000Y-67032000D01*
X126067000Y-69112000D02*
X126067000Y-69857000D01*
X126107000Y-66329000D02*
X126107000Y-67032000D01*
X126107000Y-69112000D02*
X126107000Y-69815000D01*
X126147000Y-66373000D02*
X126147000Y-67032000D01*
X126147000Y-69112000D02*
X126147000Y-69771000D01*
X126187000Y-66419000D02*
X126187000Y-67032000D01*
X126187000Y-69112000D02*
X126187000Y-69725000D01*
X126227000Y-66467000D02*
X126227000Y-67032000D01*
X126227000Y-69112000D02*
X126227000Y-69677000D01*
X126267000Y-66518000D02*
X126267000Y-67032000D01*
X126267000Y-69112000D02*
X126267000Y-69626000D01*
X126307000Y-66572000D02*
X126307000Y-67032000D01*
X126307000Y-69112000D02*
X126307000Y-69572000D01*
X126347000Y-66629000D02*
X126347000Y-67032000D01*
X126347000Y-69112000D02*
X126347000Y-69515000D01*
X126387000Y-66689000D02*
X126387000Y-67032000D01*
X126387000Y-69112000D02*
X126387000Y-69455000D01*
X126427000Y-66753000D02*
X126427000Y-67032000D01*
X126427000Y-69112000D02*
X126427000Y-69391000D01*
X126467000Y-66821000D02*
X126467000Y-67032000D01*
X126467000Y-69112000D02*
X126467000Y-69323000D01*
X126507000Y-66894000D02*
X126507000Y-69250000D01*
X126547000Y-66974000D02*
X126547000Y-69170000D01*
X126587000Y-67061000D02*
X126587000Y-69083000D01*
X126627000Y-67157000D02*
X126627000Y-68987000D01*
X126667000Y-67267000D02*
X126667000Y-68877000D01*
X126707000Y-67395000D02*
X126707000Y-68749000D01*
X126747000Y-67554000D02*
X126747000Y-68590000D01*
X126787000Y-67788000D02*
X126787000Y-68356000D01*
X121381225Y-66597000D02*
X121881225Y-66597000D01*
X121631225Y-66347000D02*
X121631225Y-66847000D01*
%TO.C,D2*%
X126164000Y-74622000D02*
X126164000Y-71682000D01*
X126164000Y-71682000D02*
X120724000Y-71682000D01*
X120724000Y-71682000D02*
X120724000Y-74622000D01*
X120724000Y-74622000D02*
X126164000Y-74622000D01*
X127184000Y-73152000D02*
X126164000Y-73152000D01*
X119704000Y-73152000D02*
X120724000Y-73152000D01*
X125264000Y-74622000D02*
X125264000Y-71682000D01*
X125144000Y-74622000D02*
X125144000Y-71682000D01*
X125384000Y-74622000D02*
X125384000Y-71682000D01*
%TO.C,C1*%
X100598302Y-81105000D02*
X100598302Y-81905000D01*
X100198302Y-81505000D02*
X100998302Y-81505000D01*
X108689000Y-83287000D02*
X108689000Y-84353000D01*
X108649000Y-83052000D02*
X108649000Y-84588000D01*
X108609000Y-82872000D02*
X108609000Y-84768000D01*
X108569000Y-82722000D02*
X108569000Y-84918000D01*
X108529000Y-82591000D02*
X108529000Y-85049000D01*
X108489000Y-82474000D02*
X108489000Y-85166000D01*
X108449000Y-82367000D02*
X108449000Y-85273000D01*
X108409000Y-82268000D02*
X108409000Y-85372000D01*
X108369000Y-82175000D02*
X108369000Y-85465000D01*
X108329000Y-82089000D02*
X108329000Y-85551000D01*
X108289000Y-82007000D02*
X108289000Y-85633000D01*
X108249000Y-81930000D02*
X108249000Y-85710000D01*
X108209000Y-81856000D02*
X108209000Y-85784000D01*
X108169000Y-81786000D02*
X108169000Y-85854000D01*
X108129000Y-84860000D02*
X108129000Y-85922000D01*
X108129000Y-81718000D02*
X108129000Y-82780000D01*
X108089000Y-84860000D02*
X108089000Y-85986000D01*
X108089000Y-81654000D02*
X108089000Y-82780000D01*
X108049000Y-84860000D02*
X108049000Y-86048000D01*
X108049000Y-81592000D02*
X108049000Y-82780000D01*
X108009000Y-84860000D02*
X108009000Y-86107000D01*
X108009000Y-81533000D02*
X108009000Y-82780000D01*
X107969000Y-84860000D02*
X107969000Y-86165000D01*
X107969000Y-81475000D02*
X107969000Y-82780000D01*
X107929000Y-84860000D02*
X107929000Y-86220000D01*
X107929000Y-81420000D02*
X107929000Y-82780000D01*
X107889000Y-84860000D02*
X107889000Y-86274000D01*
X107889000Y-81366000D02*
X107889000Y-82780000D01*
X107849000Y-84860000D02*
X107849000Y-86325000D01*
X107849000Y-81315000D02*
X107849000Y-82780000D01*
X107809000Y-84860000D02*
X107809000Y-86376000D01*
X107809000Y-81264000D02*
X107809000Y-82780000D01*
X107769000Y-84860000D02*
X107769000Y-86424000D01*
X107769000Y-81216000D02*
X107769000Y-82780000D01*
X107729000Y-84860000D02*
X107729000Y-86471000D01*
X107729000Y-81169000D02*
X107729000Y-82780000D01*
X107689000Y-84860000D02*
X107689000Y-86517000D01*
X107689000Y-81123000D02*
X107689000Y-82780000D01*
X107649000Y-84860000D02*
X107649000Y-86561000D01*
X107649000Y-81079000D02*
X107649000Y-82780000D01*
X107609000Y-84860000D02*
X107609000Y-86604000D01*
X107609000Y-81036000D02*
X107609000Y-82780000D01*
X107569000Y-84860000D02*
X107569000Y-86646000D01*
X107569000Y-80994000D02*
X107569000Y-82780000D01*
X107529000Y-84860000D02*
X107529000Y-86687000D01*
X107529000Y-80953000D02*
X107529000Y-82780000D01*
X107489000Y-84860000D02*
X107489000Y-86727000D01*
X107489000Y-80913000D02*
X107489000Y-82780000D01*
X107449000Y-84860000D02*
X107449000Y-86765000D01*
X107449000Y-80875000D02*
X107449000Y-82780000D01*
X107409000Y-84860000D02*
X107409000Y-86803000D01*
X107409000Y-80837000D02*
X107409000Y-82780000D01*
X107369000Y-84860000D02*
X107369000Y-86839000D01*
X107369000Y-80801000D02*
X107369000Y-82780000D01*
X107329000Y-84860000D02*
X107329000Y-86875000D01*
X107329000Y-80765000D02*
X107329000Y-82780000D01*
X107289000Y-84860000D02*
X107289000Y-86910000D01*
X107289000Y-80730000D02*
X107289000Y-82780000D01*
X107249000Y-84860000D02*
X107249000Y-86944000D01*
X107249000Y-80696000D02*
X107249000Y-82780000D01*
X107209000Y-84860000D02*
X107209000Y-86976000D01*
X107209000Y-80664000D02*
X107209000Y-82780000D01*
X107169000Y-84860000D02*
X107169000Y-87009000D01*
X107169000Y-80631000D02*
X107169000Y-82780000D01*
X107129000Y-84860000D02*
X107129000Y-87040000D01*
X107129000Y-80600000D02*
X107129000Y-82780000D01*
X107089000Y-84860000D02*
X107089000Y-87070000D01*
X107089000Y-80570000D02*
X107089000Y-82780000D01*
X107049000Y-84860000D02*
X107049000Y-87100000D01*
X107049000Y-80540000D02*
X107049000Y-82780000D01*
X107009000Y-84860000D02*
X107009000Y-87129000D01*
X107009000Y-80511000D02*
X107009000Y-82780000D01*
X106969000Y-84860000D02*
X106969000Y-87158000D01*
X106969000Y-80482000D02*
X106969000Y-82780000D01*
X106929000Y-84860000D02*
X106929000Y-87185000D01*
X106929000Y-80455000D02*
X106929000Y-82780000D01*
X106889000Y-84860000D02*
X106889000Y-87212000D01*
X106889000Y-80428000D02*
X106889000Y-82780000D01*
X106849000Y-84860000D02*
X106849000Y-87238000D01*
X106849000Y-80402000D02*
X106849000Y-82780000D01*
X106809000Y-84860000D02*
X106809000Y-87264000D01*
X106809000Y-80376000D02*
X106809000Y-82780000D01*
X106769000Y-84860000D02*
X106769000Y-87289000D01*
X106769000Y-80351000D02*
X106769000Y-82780000D01*
X106729000Y-84860000D02*
X106729000Y-87313000D01*
X106729000Y-80327000D02*
X106729000Y-82780000D01*
X106689000Y-84860000D02*
X106689000Y-87337000D01*
X106689000Y-80303000D02*
X106689000Y-82780000D01*
X106649000Y-84860000D02*
X106649000Y-87360000D01*
X106649000Y-80280000D02*
X106649000Y-82780000D01*
X106609000Y-84860000D02*
X106609000Y-87382000D01*
X106609000Y-80258000D02*
X106609000Y-82780000D01*
X106569000Y-84860000D02*
X106569000Y-87404000D01*
X106569000Y-80236000D02*
X106569000Y-82780000D01*
X106529000Y-84860000D02*
X106529000Y-87426000D01*
X106529000Y-80214000D02*
X106529000Y-82780000D01*
X106489000Y-84860000D02*
X106489000Y-87447000D01*
X106489000Y-80193000D02*
X106489000Y-82780000D01*
X106449000Y-84860000D02*
X106449000Y-87467000D01*
X106449000Y-80173000D02*
X106449000Y-82780000D01*
X106409000Y-84860000D02*
X106409000Y-87486000D01*
X106409000Y-80154000D02*
X106409000Y-82780000D01*
X106369000Y-84860000D02*
X106369000Y-87506000D01*
X106369000Y-80134000D02*
X106369000Y-82780000D01*
X106329000Y-84860000D02*
X106329000Y-87524000D01*
X106329000Y-80116000D02*
X106329000Y-82780000D01*
X106289000Y-84860000D02*
X106289000Y-87542000D01*
X106289000Y-80098000D02*
X106289000Y-82780000D01*
X106249000Y-84860000D02*
X106249000Y-87560000D01*
X106249000Y-80080000D02*
X106249000Y-82780000D01*
X106209000Y-84860000D02*
X106209000Y-87577000D01*
X106209000Y-80063000D02*
X106209000Y-82780000D01*
X106169000Y-84860000D02*
X106169000Y-87594000D01*
X106169000Y-80046000D02*
X106169000Y-82780000D01*
X106129000Y-84860000D02*
X106129000Y-87610000D01*
X106129000Y-80030000D02*
X106129000Y-82780000D01*
X106089000Y-84860000D02*
X106089000Y-87625000D01*
X106089000Y-80015000D02*
X106089000Y-82780000D01*
X106049000Y-79999000D02*
X106049000Y-87641000D01*
X106009000Y-79985000D02*
X106009000Y-87655000D01*
X105969000Y-79970000D02*
X105969000Y-87670000D01*
X105929000Y-79957000D02*
X105929000Y-87683000D01*
X105889000Y-79943000D02*
X105889000Y-87697000D01*
X105849000Y-79931000D02*
X105849000Y-87709000D01*
X105809000Y-79918000D02*
X105809000Y-87722000D01*
X105769000Y-79906000D02*
X105769000Y-87734000D01*
X105729000Y-79895000D02*
X105729000Y-87745000D01*
X105689000Y-79884000D02*
X105689000Y-87756000D01*
X105649000Y-79873000D02*
X105649000Y-87767000D01*
X105609000Y-79863000D02*
X105609000Y-87777000D01*
X105569000Y-79853000D02*
X105569000Y-87787000D01*
X105529000Y-79844000D02*
X105529000Y-87796000D01*
X105489000Y-79835000D02*
X105489000Y-87805000D01*
X105449000Y-79826000D02*
X105449000Y-87814000D01*
X105409000Y-79818000D02*
X105409000Y-87822000D01*
X105369000Y-79810000D02*
X105369000Y-87830000D01*
X105329000Y-79803000D02*
X105329000Y-87837000D01*
X105288000Y-79796000D02*
X105288000Y-87844000D01*
X105248000Y-79790000D02*
X105248000Y-87850000D01*
X105208000Y-79783000D02*
X105208000Y-87857000D01*
X105168000Y-79778000D02*
X105168000Y-87862000D01*
X105128000Y-79772000D02*
X105128000Y-87868000D01*
X105088000Y-79768000D02*
X105088000Y-87872000D01*
X105048000Y-79763000D02*
X105048000Y-87877000D01*
X105008000Y-79759000D02*
X105008000Y-87881000D01*
X104968000Y-79755000D02*
X104968000Y-87885000D01*
X104928000Y-79752000D02*
X104928000Y-87888000D01*
X104888000Y-79749000D02*
X104888000Y-87891000D01*
X104848000Y-79746000D02*
X104848000Y-87894000D01*
X104808000Y-79744000D02*
X104808000Y-87896000D01*
X104768000Y-79743000D02*
X104768000Y-87897000D01*
X104728000Y-79741000D02*
X104728000Y-87899000D01*
X104688000Y-79740000D02*
X104688000Y-87900000D01*
X104648000Y-79740000D02*
X104648000Y-87900000D01*
X104608000Y-79740000D02*
X104608000Y-87900000D01*
X108728000Y-83820000D02*
G75*
G03*
X108728000Y-83820000I-4120000J0D01*
G01*
%TO.C,R4*%
X149836000Y-67564000D02*
X149146000Y-67564000D01*
X139216000Y-67564000D02*
X139906000Y-67564000D01*
X149146000Y-65844000D02*
X139906000Y-65844000D01*
X149146000Y-69284000D02*
X149146000Y-65844000D01*
X139906000Y-69284000D02*
X149146000Y-69284000D01*
X139906000Y-65844000D02*
X139906000Y-69284000D01*
%TO.C,R13*%
X78264000Y-66194000D02*
X78264000Y-66524000D01*
X84804000Y-66194000D02*
X78264000Y-66194000D01*
X84804000Y-66524000D02*
X84804000Y-66194000D01*
X78264000Y-68934000D02*
X78264000Y-68604000D01*
X84804000Y-68934000D02*
X78264000Y-68934000D01*
X84804000Y-68604000D02*
X84804000Y-68934000D01*
%TO.C,R12*%
X68040000Y-96544000D02*
X68040000Y-96874000D01*
X68040000Y-96874000D02*
X61500000Y-96874000D01*
X61500000Y-96874000D02*
X61500000Y-96544000D01*
X68040000Y-94464000D02*
X68040000Y-94134000D01*
X68040000Y-94134000D02*
X61500000Y-94134000D01*
X61500000Y-94134000D02*
X61500000Y-94464000D01*
%TO.C,R14*%
X79216000Y-99592000D02*
X79216000Y-99922000D01*
X79216000Y-99922000D02*
X72676000Y-99922000D01*
X72676000Y-99922000D02*
X72676000Y-99592000D01*
X79216000Y-97512000D02*
X79216000Y-97182000D01*
X79216000Y-97182000D02*
X72676000Y-97182000D01*
X72676000Y-97182000D02*
X72676000Y-97512000D01*
%TO.C,C16*%
X95465000Y-86758000D02*
X95150000Y-86758000D01*
X97890000Y-86758000D02*
X97575000Y-86758000D01*
X95465000Y-81818000D02*
X95150000Y-81818000D01*
X97890000Y-81818000D02*
X97575000Y-81818000D01*
X95150000Y-81818000D02*
X95150000Y-86758000D01*
X97890000Y-81818000D02*
X97890000Y-86758000D01*
%TO.C,C15*%
X92657000Y-81778113D02*
X92157000Y-81778113D01*
X92407000Y-81528113D02*
X92407000Y-82028113D01*
X91216000Y-86933888D02*
X90648000Y-86933888D01*
X91450000Y-86893888D02*
X90414000Y-86893888D01*
X91609000Y-86853888D02*
X90255000Y-86853888D01*
X91737000Y-86813888D02*
X90127000Y-86813888D01*
X91847000Y-86773888D02*
X90017000Y-86773888D01*
X91943000Y-86733888D02*
X89921000Y-86733888D01*
X92030000Y-86693888D02*
X89834000Y-86693888D01*
X92110000Y-86653888D02*
X89754000Y-86653888D01*
X89892000Y-86613888D02*
X89681000Y-86613888D01*
X92183000Y-86613888D02*
X91972000Y-86613888D01*
X89892000Y-86573888D02*
X89613000Y-86573888D01*
X92251000Y-86573888D02*
X91972000Y-86573888D01*
X89892000Y-86533888D02*
X89549000Y-86533888D01*
X92315000Y-86533888D02*
X91972000Y-86533888D01*
X89892000Y-86493888D02*
X89489000Y-86493888D01*
X92375000Y-86493888D02*
X91972000Y-86493888D01*
X89892000Y-86453888D02*
X89432000Y-86453888D01*
X92432000Y-86453888D02*
X91972000Y-86453888D01*
X89892000Y-86413888D02*
X89378000Y-86413888D01*
X92486000Y-86413888D02*
X91972000Y-86413888D01*
X89892000Y-86373888D02*
X89327000Y-86373888D01*
X92537000Y-86373888D02*
X91972000Y-86373888D01*
X89892000Y-86333888D02*
X89279000Y-86333888D01*
X92585000Y-86333888D02*
X91972000Y-86333888D01*
X89892000Y-86293888D02*
X89233000Y-86293888D01*
X92631000Y-86293888D02*
X91972000Y-86293888D01*
X89892000Y-86253888D02*
X89189000Y-86253888D01*
X92675000Y-86253888D02*
X91972000Y-86253888D01*
X89892000Y-86213888D02*
X89147000Y-86213888D01*
X92717000Y-86213888D02*
X91972000Y-86213888D01*
X89892000Y-86173888D02*
X89106000Y-86173888D01*
X92758000Y-86173888D02*
X91972000Y-86173888D01*
X89892000Y-86133888D02*
X89068000Y-86133888D01*
X92796000Y-86133888D02*
X91972000Y-86133888D01*
X89892000Y-86093888D02*
X89031000Y-86093888D01*
X92833000Y-86093888D02*
X91972000Y-86093888D01*
X89892000Y-86053888D02*
X88995000Y-86053888D01*
X92869000Y-86053888D02*
X91972000Y-86053888D01*
X89892000Y-86013888D02*
X88961000Y-86013888D01*
X92903000Y-86013888D02*
X91972000Y-86013888D01*
X89892000Y-85973888D02*
X88928000Y-85973888D01*
X92936000Y-85973888D02*
X91972000Y-85973888D01*
X89892000Y-85933888D02*
X88897000Y-85933888D01*
X92967000Y-85933888D02*
X91972000Y-85933888D01*
X89892000Y-85893888D02*
X88867000Y-85893888D01*
X92997000Y-85893888D02*
X91972000Y-85893888D01*
X89892000Y-85853888D02*
X88837000Y-85853888D01*
X93027000Y-85853888D02*
X91972000Y-85853888D01*
X89892000Y-85813888D02*
X88810000Y-85813888D01*
X93054000Y-85813888D02*
X91972000Y-85813888D01*
X89892000Y-85773888D02*
X88783000Y-85773888D01*
X93081000Y-85773888D02*
X91972000Y-85773888D01*
X89892000Y-85733888D02*
X88757000Y-85733888D01*
X93107000Y-85733888D02*
X91972000Y-85733888D01*
X89892000Y-85693888D02*
X88732000Y-85693888D01*
X93132000Y-85693888D02*
X91972000Y-85693888D01*
X89892000Y-85653888D02*
X88708000Y-85653888D01*
X93156000Y-85653888D02*
X91972000Y-85653888D01*
X89892000Y-85613888D02*
X88685000Y-85613888D01*
X93179000Y-85613888D02*
X91972000Y-85613888D01*
X89892000Y-85573888D02*
X88664000Y-85573888D01*
X93200000Y-85573888D02*
X91972000Y-85573888D01*
X89892000Y-85533888D02*
X88642000Y-85533888D01*
X93222000Y-85533888D02*
X91972000Y-85533888D01*
X89892000Y-85493888D02*
X88622000Y-85493888D01*
X93242000Y-85493888D02*
X91972000Y-85493888D01*
X89892000Y-85453888D02*
X88603000Y-85453888D01*
X93261000Y-85453888D02*
X91972000Y-85453888D01*
X89892000Y-85413888D02*
X88584000Y-85413888D01*
X93280000Y-85413888D02*
X91972000Y-85413888D01*
X89892000Y-85373888D02*
X88567000Y-85373888D01*
X93297000Y-85373888D02*
X91972000Y-85373888D01*
X89892000Y-85333888D02*
X88550000Y-85333888D01*
X93314000Y-85333888D02*
X91972000Y-85333888D01*
X89892000Y-85293888D02*
X88534000Y-85293888D01*
X93330000Y-85293888D02*
X91972000Y-85293888D01*
X89892000Y-85253888D02*
X88518000Y-85253888D01*
X93346000Y-85253888D02*
X91972000Y-85253888D01*
X89892000Y-85213888D02*
X88504000Y-85213888D01*
X93360000Y-85213888D02*
X91972000Y-85213888D01*
X89892000Y-85173888D02*
X88490000Y-85173888D01*
X93374000Y-85173888D02*
X91972000Y-85173888D01*
X89892000Y-85133888D02*
X88477000Y-85133888D01*
X93387000Y-85133888D02*
X91972000Y-85133888D01*
X89892000Y-85093888D02*
X88464000Y-85093888D01*
X93400000Y-85093888D02*
X91972000Y-85093888D01*
X89892000Y-85053888D02*
X88452000Y-85053888D01*
X93412000Y-85053888D02*
X91972000Y-85053888D01*
X89892000Y-85012888D02*
X88441000Y-85012888D01*
X93423000Y-85012888D02*
X91972000Y-85012888D01*
X89892000Y-84972888D02*
X88431000Y-84972888D01*
X93433000Y-84972888D02*
X91972000Y-84972888D01*
X89892000Y-84932888D02*
X88421000Y-84932888D01*
X93443000Y-84932888D02*
X91972000Y-84932888D01*
X89892000Y-84892888D02*
X88412000Y-84892888D01*
X93452000Y-84892888D02*
X91972000Y-84892888D01*
X89892000Y-84852888D02*
X88404000Y-84852888D01*
X93460000Y-84852888D02*
X91972000Y-84852888D01*
X89892000Y-84812888D02*
X88396000Y-84812888D01*
X93468000Y-84812888D02*
X91972000Y-84812888D01*
X89892000Y-84772888D02*
X88389000Y-84772888D01*
X93475000Y-84772888D02*
X91972000Y-84772888D01*
X89892000Y-84732888D02*
X88382000Y-84732888D01*
X93482000Y-84732888D02*
X91972000Y-84732888D01*
X89892000Y-84692888D02*
X88376000Y-84692888D01*
X93488000Y-84692888D02*
X91972000Y-84692888D01*
X89892000Y-84652888D02*
X88371000Y-84652888D01*
X93493000Y-84652888D02*
X91972000Y-84652888D01*
X89892000Y-84612888D02*
X88367000Y-84612888D01*
X93497000Y-84612888D02*
X91972000Y-84612888D01*
X89892000Y-84572888D02*
X88363000Y-84572888D01*
X93501000Y-84572888D02*
X91972000Y-84572888D01*
X93505000Y-84532888D02*
X88359000Y-84532888D01*
X93508000Y-84492888D02*
X88356000Y-84492888D01*
X93510000Y-84452888D02*
X88354000Y-84452888D01*
X93511000Y-84412888D02*
X88353000Y-84412888D01*
X93512000Y-84372888D02*
X88352000Y-84372888D01*
X93512000Y-84332888D02*
X88352000Y-84332888D01*
X93552000Y-84332888D02*
G75*
G03*
X93552000Y-84332888I-2620000J0D01*
G01*
%TO.C,C14*%
X74369000Y-81778113D02*
X73869000Y-81778113D01*
X74119000Y-81528113D02*
X74119000Y-82028113D01*
X72928000Y-86933888D02*
X72360000Y-86933888D01*
X73162000Y-86893888D02*
X72126000Y-86893888D01*
X73321000Y-86853888D02*
X71967000Y-86853888D01*
X73449000Y-86813888D02*
X71839000Y-86813888D01*
X73559000Y-86773888D02*
X71729000Y-86773888D01*
X73655000Y-86733888D02*
X71633000Y-86733888D01*
X73742000Y-86693888D02*
X71546000Y-86693888D01*
X73822000Y-86653888D02*
X71466000Y-86653888D01*
X71604000Y-86613888D02*
X71393000Y-86613888D01*
X73895000Y-86613888D02*
X73684000Y-86613888D01*
X71604000Y-86573888D02*
X71325000Y-86573888D01*
X73963000Y-86573888D02*
X73684000Y-86573888D01*
X71604000Y-86533888D02*
X71261000Y-86533888D01*
X74027000Y-86533888D02*
X73684000Y-86533888D01*
X71604000Y-86493888D02*
X71201000Y-86493888D01*
X74087000Y-86493888D02*
X73684000Y-86493888D01*
X71604000Y-86453888D02*
X71144000Y-86453888D01*
X74144000Y-86453888D02*
X73684000Y-86453888D01*
X71604000Y-86413888D02*
X71090000Y-86413888D01*
X74198000Y-86413888D02*
X73684000Y-86413888D01*
X71604000Y-86373888D02*
X71039000Y-86373888D01*
X74249000Y-86373888D02*
X73684000Y-86373888D01*
X71604000Y-86333888D02*
X70991000Y-86333888D01*
X74297000Y-86333888D02*
X73684000Y-86333888D01*
X71604000Y-86293888D02*
X70945000Y-86293888D01*
X74343000Y-86293888D02*
X73684000Y-86293888D01*
X71604000Y-86253888D02*
X70901000Y-86253888D01*
X74387000Y-86253888D02*
X73684000Y-86253888D01*
X71604000Y-86213888D02*
X70859000Y-86213888D01*
X74429000Y-86213888D02*
X73684000Y-86213888D01*
X71604000Y-86173888D02*
X70818000Y-86173888D01*
X74470000Y-86173888D02*
X73684000Y-86173888D01*
X71604000Y-86133888D02*
X70780000Y-86133888D01*
X74508000Y-86133888D02*
X73684000Y-86133888D01*
X71604000Y-86093888D02*
X70743000Y-86093888D01*
X74545000Y-86093888D02*
X73684000Y-86093888D01*
X71604000Y-86053888D02*
X70707000Y-86053888D01*
X74581000Y-86053888D02*
X73684000Y-86053888D01*
X71604000Y-86013888D02*
X70673000Y-86013888D01*
X74615000Y-86013888D02*
X73684000Y-86013888D01*
X71604000Y-85973888D02*
X70640000Y-85973888D01*
X74648000Y-85973888D02*
X73684000Y-85973888D01*
X71604000Y-85933888D02*
X70609000Y-85933888D01*
X74679000Y-85933888D02*
X73684000Y-85933888D01*
X71604000Y-85893888D02*
X70579000Y-85893888D01*
X74709000Y-85893888D02*
X73684000Y-85893888D01*
X71604000Y-85853888D02*
X70549000Y-85853888D01*
X74739000Y-85853888D02*
X73684000Y-85853888D01*
X71604000Y-85813888D02*
X70522000Y-85813888D01*
X74766000Y-85813888D02*
X73684000Y-85813888D01*
X71604000Y-85773888D02*
X70495000Y-85773888D01*
X74793000Y-85773888D02*
X73684000Y-85773888D01*
X71604000Y-85733888D02*
X70469000Y-85733888D01*
X74819000Y-85733888D02*
X73684000Y-85733888D01*
X71604000Y-85693888D02*
X70444000Y-85693888D01*
X74844000Y-85693888D02*
X73684000Y-85693888D01*
X71604000Y-85653888D02*
X70420000Y-85653888D01*
X74868000Y-85653888D02*
X73684000Y-85653888D01*
X71604000Y-85613888D02*
X70397000Y-85613888D01*
X74891000Y-85613888D02*
X73684000Y-85613888D01*
X71604000Y-85573888D02*
X70376000Y-85573888D01*
X74912000Y-85573888D02*
X73684000Y-85573888D01*
X71604000Y-85533888D02*
X70354000Y-85533888D01*
X74934000Y-85533888D02*
X73684000Y-85533888D01*
X71604000Y-85493888D02*
X70334000Y-85493888D01*
X74954000Y-85493888D02*
X73684000Y-85493888D01*
X71604000Y-85453888D02*
X70315000Y-85453888D01*
X74973000Y-85453888D02*
X73684000Y-85453888D01*
X71604000Y-85413888D02*
X70296000Y-85413888D01*
X74992000Y-85413888D02*
X73684000Y-85413888D01*
X71604000Y-85373888D02*
X70279000Y-85373888D01*
X75009000Y-85373888D02*
X73684000Y-85373888D01*
X71604000Y-85333888D02*
X70262000Y-85333888D01*
X75026000Y-85333888D02*
X73684000Y-85333888D01*
X71604000Y-85293888D02*
X70246000Y-85293888D01*
X75042000Y-85293888D02*
X73684000Y-85293888D01*
X71604000Y-85253888D02*
X70230000Y-85253888D01*
X75058000Y-85253888D02*
X73684000Y-85253888D01*
X71604000Y-85213888D02*
X70216000Y-85213888D01*
X75072000Y-85213888D02*
X73684000Y-85213888D01*
X71604000Y-85173888D02*
X70202000Y-85173888D01*
X75086000Y-85173888D02*
X73684000Y-85173888D01*
X71604000Y-85133888D02*
X70189000Y-85133888D01*
X75099000Y-85133888D02*
X73684000Y-85133888D01*
X71604000Y-85093888D02*
X70176000Y-85093888D01*
X75112000Y-85093888D02*
X73684000Y-85093888D01*
X71604000Y-85053888D02*
X70164000Y-85053888D01*
X75124000Y-85053888D02*
X73684000Y-85053888D01*
X71604000Y-85012888D02*
X70153000Y-85012888D01*
X75135000Y-85012888D02*
X73684000Y-85012888D01*
X71604000Y-84972888D02*
X70143000Y-84972888D01*
X75145000Y-84972888D02*
X73684000Y-84972888D01*
X71604000Y-84932888D02*
X70133000Y-84932888D01*
X75155000Y-84932888D02*
X73684000Y-84932888D01*
X71604000Y-84892888D02*
X70124000Y-84892888D01*
X75164000Y-84892888D02*
X73684000Y-84892888D01*
X71604000Y-84852888D02*
X70116000Y-84852888D01*
X75172000Y-84852888D02*
X73684000Y-84852888D01*
X71604000Y-84812888D02*
X70108000Y-84812888D01*
X75180000Y-84812888D02*
X73684000Y-84812888D01*
X71604000Y-84772888D02*
X70101000Y-84772888D01*
X75187000Y-84772888D02*
X73684000Y-84772888D01*
X71604000Y-84732888D02*
X70094000Y-84732888D01*
X75194000Y-84732888D02*
X73684000Y-84732888D01*
X71604000Y-84692888D02*
X70088000Y-84692888D01*
X75200000Y-84692888D02*
X73684000Y-84692888D01*
X71604000Y-84652888D02*
X70083000Y-84652888D01*
X75205000Y-84652888D02*
X73684000Y-84652888D01*
X71604000Y-84612888D02*
X70079000Y-84612888D01*
X75209000Y-84612888D02*
X73684000Y-84612888D01*
X71604000Y-84572888D02*
X70075000Y-84572888D01*
X75213000Y-84572888D02*
X73684000Y-84572888D01*
X75217000Y-84532888D02*
X70071000Y-84532888D01*
X75220000Y-84492888D02*
X70068000Y-84492888D01*
X75222000Y-84452888D02*
X70066000Y-84452888D01*
X75223000Y-84412888D02*
X70065000Y-84412888D01*
X75224000Y-84372888D02*
X70064000Y-84372888D01*
X75224000Y-84332888D02*
X70064000Y-84332888D01*
X75264000Y-84332888D02*
G75*
G03*
X75264000Y-84332888I-2620000J0D01*
G01*
%TO.C,C13*%
X66001000Y-86758000D02*
X65686000Y-86758000D01*
X68426000Y-86758000D02*
X68111000Y-86758000D01*
X66001000Y-81818000D02*
X65686000Y-81818000D01*
X68426000Y-81818000D02*
X68111000Y-81818000D01*
X65686000Y-81818000D02*
X65686000Y-86758000D01*
X68426000Y-81818000D02*
X68426000Y-86758000D01*
%TO.C,C2*%
X135950000Y-56896000D02*
G75*
G03*
X135950000Y-56896000I-2620000J0D01*
G01*
X133330000Y-54316000D02*
X133330000Y-59476000D01*
X133370000Y-54316000D02*
X133370000Y-59476000D01*
X133410000Y-54317000D02*
X133410000Y-59475000D01*
X133450000Y-54318000D02*
X133450000Y-59474000D01*
X133490000Y-54320000D02*
X133490000Y-59472000D01*
X133530000Y-54323000D02*
X133530000Y-59469000D01*
X133570000Y-54327000D02*
X133570000Y-55856000D01*
X133570000Y-57936000D02*
X133570000Y-59465000D01*
X133610000Y-54331000D02*
X133610000Y-55856000D01*
X133610000Y-57936000D02*
X133610000Y-59461000D01*
X133650000Y-54335000D02*
X133650000Y-55856000D01*
X133650000Y-57936000D02*
X133650000Y-59457000D01*
X133690000Y-54340000D02*
X133690000Y-55856000D01*
X133690000Y-57936000D02*
X133690000Y-59452000D01*
X133730000Y-54346000D02*
X133730000Y-55856000D01*
X133730000Y-57936000D02*
X133730000Y-59446000D01*
X133770000Y-54353000D02*
X133770000Y-55856000D01*
X133770000Y-57936000D02*
X133770000Y-59439000D01*
X133810000Y-54360000D02*
X133810000Y-55856000D01*
X133810000Y-57936000D02*
X133810000Y-59432000D01*
X133850000Y-54368000D02*
X133850000Y-55856000D01*
X133850000Y-57936000D02*
X133850000Y-59424000D01*
X133890000Y-54376000D02*
X133890000Y-55856000D01*
X133890000Y-57936000D02*
X133890000Y-59416000D01*
X133930000Y-54385000D02*
X133930000Y-55856000D01*
X133930000Y-57936000D02*
X133930000Y-59407000D01*
X133970000Y-54395000D02*
X133970000Y-55856000D01*
X133970000Y-57936000D02*
X133970000Y-59397000D01*
X134010000Y-54405000D02*
X134010000Y-55856000D01*
X134010000Y-57936000D02*
X134010000Y-59387000D01*
X134051000Y-54416000D02*
X134051000Y-55856000D01*
X134051000Y-57936000D02*
X134051000Y-59376000D01*
X134091000Y-54428000D02*
X134091000Y-55856000D01*
X134091000Y-57936000D02*
X134091000Y-59364000D01*
X134131000Y-54441000D02*
X134131000Y-55856000D01*
X134131000Y-57936000D02*
X134131000Y-59351000D01*
X134171000Y-54454000D02*
X134171000Y-55856000D01*
X134171000Y-57936000D02*
X134171000Y-59338000D01*
X134211000Y-54468000D02*
X134211000Y-55856000D01*
X134211000Y-57936000D02*
X134211000Y-59324000D01*
X134251000Y-54482000D02*
X134251000Y-55856000D01*
X134251000Y-57936000D02*
X134251000Y-59310000D01*
X134291000Y-54498000D02*
X134291000Y-55856000D01*
X134291000Y-57936000D02*
X134291000Y-59294000D01*
X134331000Y-54514000D02*
X134331000Y-55856000D01*
X134331000Y-57936000D02*
X134331000Y-59278000D01*
X134371000Y-54531000D02*
X134371000Y-55856000D01*
X134371000Y-57936000D02*
X134371000Y-59261000D01*
X134411000Y-54548000D02*
X134411000Y-55856000D01*
X134411000Y-57936000D02*
X134411000Y-59244000D01*
X134451000Y-54567000D02*
X134451000Y-55856000D01*
X134451000Y-57936000D02*
X134451000Y-59225000D01*
X134491000Y-54586000D02*
X134491000Y-55856000D01*
X134491000Y-57936000D02*
X134491000Y-59206000D01*
X134531000Y-54606000D02*
X134531000Y-55856000D01*
X134531000Y-57936000D02*
X134531000Y-59186000D01*
X134571000Y-54628000D02*
X134571000Y-55856000D01*
X134571000Y-57936000D02*
X134571000Y-59164000D01*
X134611000Y-54649000D02*
X134611000Y-55856000D01*
X134611000Y-57936000D02*
X134611000Y-59143000D01*
X134651000Y-54672000D02*
X134651000Y-55856000D01*
X134651000Y-57936000D02*
X134651000Y-59120000D01*
X134691000Y-54696000D02*
X134691000Y-55856000D01*
X134691000Y-57936000D02*
X134691000Y-59096000D01*
X134731000Y-54721000D02*
X134731000Y-55856000D01*
X134731000Y-57936000D02*
X134731000Y-59071000D01*
X134771000Y-54747000D02*
X134771000Y-55856000D01*
X134771000Y-57936000D02*
X134771000Y-59045000D01*
X134811000Y-54774000D02*
X134811000Y-55856000D01*
X134811000Y-57936000D02*
X134811000Y-59018000D01*
X134851000Y-54801000D02*
X134851000Y-55856000D01*
X134851000Y-57936000D02*
X134851000Y-58991000D01*
X134891000Y-54831000D02*
X134891000Y-55856000D01*
X134891000Y-57936000D02*
X134891000Y-58961000D01*
X134931000Y-54861000D02*
X134931000Y-55856000D01*
X134931000Y-57936000D02*
X134931000Y-58931000D01*
X134971000Y-54892000D02*
X134971000Y-55856000D01*
X134971000Y-57936000D02*
X134971000Y-58900000D01*
X135011000Y-54925000D02*
X135011000Y-55856000D01*
X135011000Y-57936000D02*
X135011000Y-58867000D01*
X135051000Y-54959000D02*
X135051000Y-55856000D01*
X135051000Y-57936000D02*
X135051000Y-58833000D01*
X135091000Y-54995000D02*
X135091000Y-55856000D01*
X135091000Y-57936000D02*
X135091000Y-58797000D01*
X135131000Y-55032000D02*
X135131000Y-55856000D01*
X135131000Y-57936000D02*
X135131000Y-58760000D01*
X135171000Y-55070000D02*
X135171000Y-55856000D01*
X135171000Y-57936000D02*
X135171000Y-58722000D01*
X135211000Y-55111000D02*
X135211000Y-55856000D01*
X135211000Y-57936000D02*
X135211000Y-58681000D01*
X135251000Y-55153000D02*
X135251000Y-55856000D01*
X135251000Y-57936000D02*
X135251000Y-58639000D01*
X135291000Y-55197000D02*
X135291000Y-55856000D01*
X135291000Y-57936000D02*
X135291000Y-58595000D01*
X135331000Y-55243000D02*
X135331000Y-55856000D01*
X135331000Y-57936000D02*
X135331000Y-58549000D01*
X135371000Y-55291000D02*
X135371000Y-55856000D01*
X135371000Y-57936000D02*
X135371000Y-58501000D01*
X135411000Y-55342000D02*
X135411000Y-55856000D01*
X135411000Y-57936000D02*
X135411000Y-58450000D01*
X135451000Y-55396000D02*
X135451000Y-55856000D01*
X135451000Y-57936000D02*
X135451000Y-58396000D01*
X135491000Y-55453000D02*
X135491000Y-55856000D01*
X135491000Y-57936000D02*
X135491000Y-58339000D01*
X135531000Y-55513000D02*
X135531000Y-55856000D01*
X135531000Y-57936000D02*
X135531000Y-58279000D01*
X135571000Y-55577000D02*
X135571000Y-55856000D01*
X135571000Y-57936000D02*
X135571000Y-58215000D01*
X135611000Y-55645000D02*
X135611000Y-55856000D01*
X135611000Y-57936000D02*
X135611000Y-58147000D01*
X135651000Y-55718000D02*
X135651000Y-58074000D01*
X135691000Y-55798000D02*
X135691000Y-57994000D01*
X135731000Y-55885000D02*
X135731000Y-57907000D01*
X135771000Y-55981000D02*
X135771000Y-57811000D01*
X135811000Y-56091000D02*
X135811000Y-57701000D01*
X135851000Y-56219000D02*
X135851000Y-57573000D01*
X135891000Y-56378000D02*
X135891000Y-57414000D01*
X135931000Y-56612000D02*
X135931000Y-57180000D01*
X130525225Y-55421000D02*
X131025225Y-55421000D01*
X130775225Y-55171000D02*
X130775225Y-55671000D01*
%TO.C,C4*%
X118010000Y-98014000D02*
X118010000Y-93074000D01*
X120750000Y-98014000D02*
X120750000Y-93074000D01*
X118010000Y-98014000D02*
X118325000Y-98014000D01*
X120435000Y-98014000D02*
X120750000Y-98014000D01*
X118010000Y-93074000D02*
X118325000Y-93074000D01*
X120435000Y-93074000D02*
X120750000Y-93074000D01*
%TO.C,C5*%
X130775225Y-65839000D02*
X130775225Y-66339000D01*
X130525225Y-66089000D02*
X131025225Y-66089000D01*
X135931000Y-67280000D02*
X135931000Y-67848000D01*
X135891000Y-67046000D02*
X135891000Y-68082000D01*
X135851000Y-66887000D02*
X135851000Y-68241000D01*
X135811000Y-66759000D02*
X135811000Y-68369000D01*
X135771000Y-66649000D02*
X135771000Y-68479000D01*
X135731000Y-66553000D02*
X135731000Y-68575000D01*
X135691000Y-66466000D02*
X135691000Y-68662000D01*
X135651000Y-66386000D02*
X135651000Y-68742000D01*
X135611000Y-68604000D02*
X135611000Y-68815000D01*
X135611000Y-66313000D02*
X135611000Y-66524000D01*
X135571000Y-68604000D02*
X135571000Y-68883000D01*
X135571000Y-66245000D02*
X135571000Y-66524000D01*
X135531000Y-68604000D02*
X135531000Y-68947000D01*
X135531000Y-66181000D02*
X135531000Y-66524000D01*
X135491000Y-68604000D02*
X135491000Y-69007000D01*
X135491000Y-66121000D02*
X135491000Y-66524000D01*
X135451000Y-68604000D02*
X135451000Y-69064000D01*
X135451000Y-66064000D02*
X135451000Y-66524000D01*
X135411000Y-68604000D02*
X135411000Y-69118000D01*
X135411000Y-66010000D02*
X135411000Y-66524000D01*
X135371000Y-68604000D02*
X135371000Y-69169000D01*
X135371000Y-65959000D02*
X135371000Y-66524000D01*
X135331000Y-68604000D02*
X135331000Y-69217000D01*
X135331000Y-65911000D02*
X135331000Y-66524000D01*
X135291000Y-68604000D02*
X135291000Y-69263000D01*
X135291000Y-65865000D02*
X135291000Y-66524000D01*
X135251000Y-68604000D02*
X135251000Y-69307000D01*
X135251000Y-65821000D02*
X135251000Y-66524000D01*
X135211000Y-68604000D02*
X135211000Y-69349000D01*
X135211000Y-65779000D02*
X135211000Y-66524000D01*
X135171000Y-68604000D02*
X135171000Y-69390000D01*
X135171000Y-65738000D02*
X135171000Y-66524000D01*
X135131000Y-68604000D02*
X135131000Y-69428000D01*
X135131000Y-65700000D02*
X135131000Y-66524000D01*
X135091000Y-68604000D02*
X135091000Y-69465000D01*
X135091000Y-65663000D02*
X135091000Y-66524000D01*
X135051000Y-68604000D02*
X135051000Y-69501000D01*
X135051000Y-65627000D02*
X135051000Y-66524000D01*
X135011000Y-68604000D02*
X135011000Y-69535000D01*
X135011000Y-65593000D02*
X135011000Y-66524000D01*
X134971000Y-68604000D02*
X134971000Y-69568000D01*
X134971000Y-65560000D02*
X134971000Y-66524000D01*
X134931000Y-68604000D02*
X134931000Y-69599000D01*
X134931000Y-65529000D02*
X134931000Y-66524000D01*
X134891000Y-68604000D02*
X134891000Y-69629000D01*
X134891000Y-65499000D02*
X134891000Y-66524000D01*
X134851000Y-68604000D02*
X134851000Y-69659000D01*
X134851000Y-65469000D02*
X134851000Y-66524000D01*
X134811000Y-68604000D02*
X134811000Y-69686000D01*
X134811000Y-65442000D02*
X134811000Y-66524000D01*
X134771000Y-68604000D02*
X134771000Y-69713000D01*
X134771000Y-65415000D02*
X134771000Y-66524000D01*
X134731000Y-68604000D02*
X134731000Y-69739000D01*
X134731000Y-65389000D02*
X134731000Y-66524000D01*
X134691000Y-68604000D02*
X134691000Y-69764000D01*
X134691000Y-65364000D02*
X134691000Y-66524000D01*
X134651000Y-68604000D02*
X134651000Y-69788000D01*
X134651000Y-65340000D02*
X134651000Y-66524000D01*
X134611000Y-68604000D02*
X134611000Y-69811000D01*
X134611000Y-65317000D02*
X134611000Y-66524000D01*
X134571000Y-68604000D02*
X134571000Y-69832000D01*
X134571000Y-65296000D02*
X134571000Y-66524000D01*
X134531000Y-68604000D02*
X134531000Y-69854000D01*
X134531000Y-65274000D02*
X134531000Y-66524000D01*
X134491000Y-68604000D02*
X134491000Y-69874000D01*
X134491000Y-65254000D02*
X134491000Y-66524000D01*
X134451000Y-68604000D02*
X134451000Y-69893000D01*
X134451000Y-65235000D02*
X134451000Y-66524000D01*
X134411000Y-68604000D02*
X134411000Y-69912000D01*
X134411000Y-65216000D02*
X134411000Y-66524000D01*
X134371000Y-68604000D02*
X134371000Y-69929000D01*
X134371000Y-65199000D02*
X134371000Y-66524000D01*
X134331000Y-68604000D02*
X134331000Y-69946000D01*
X134331000Y-65182000D02*
X134331000Y-66524000D01*
X134291000Y-68604000D02*
X134291000Y-69962000D01*
X134291000Y-65166000D02*
X134291000Y-66524000D01*
X134251000Y-68604000D02*
X134251000Y-69978000D01*
X134251000Y-65150000D02*
X134251000Y-66524000D01*
X134211000Y-68604000D02*
X134211000Y-69992000D01*
X134211000Y-65136000D02*
X134211000Y-66524000D01*
X134171000Y-68604000D02*
X134171000Y-70006000D01*
X134171000Y-65122000D02*
X134171000Y-66524000D01*
X134131000Y-68604000D02*
X134131000Y-70019000D01*
X134131000Y-65109000D02*
X134131000Y-66524000D01*
X134091000Y-68604000D02*
X134091000Y-70032000D01*
X134091000Y-65096000D02*
X134091000Y-66524000D01*
X134051000Y-68604000D02*
X134051000Y-70044000D01*
X134051000Y-65084000D02*
X134051000Y-66524000D01*
X134010000Y-68604000D02*
X134010000Y-70055000D01*
X134010000Y-65073000D02*
X134010000Y-66524000D01*
X133970000Y-68604000D02*
X133970000Y-70065000D01*
X133970000Y-65063000D02*
X133970000Y-66524000D01*
X133930000Y-68604000D02*
X133930000Y-70075000D01*
X133930000Y-65053000D02*
X133930000Y-66524000D01*
X133890000Y-68604000D02*
X133890000Y-70084000D01*
X133890000Y-65044000D02*
X133890000Y-66524000D01*
X133850000Y-68604000D02*
X133850000Y-70092000D01*
X133850000Y-65036000D02*
X133850000Y-66524000D01*
X133810000Y-68604000D02*
X133810000Y-70100000D01*
X133810000Y-65028000D02*
X133810000Y-66524000D01*
X133770000Y-68604000D02*
X133770000Y-70107000D01*
X133770000Y-65021000D02*
X133770000Y-66524000D01*
X133730000Y-68604000D02*
X133730000Y-70114000D01*
X133730000Y-65014000D02*
X133730000Y-66524000D01*
X133690000Y-68604000D02*
X133690000Y-70120000D01*
X133690000Y-65008000D02*
X133690000Y-66524000D01*
X133650000Y-68604000D02*
X133650000Y-70125000D01*
X133650000Y-65003000D02*
X133650000Y-66524000D01*
X133610000Y-68604000D02*
X133610000Y-70129000D01*
X133610000Y-64999000D02*
X133610000Y-66524000D01*
X133570000Y-68604000D02*
X133570000Y-70133000D01*
X133570000Y-64995000D02*
X133570000Y-66524000D01*
X133530000Y-64991000D02*
X133530000Y-70137000D01*
X133490000Y-64988000D02*
X133490000Y-70140000D01*
X133450000Y-64986000D02*
X133450000Y-70142000D01*
X133410000Y-64985000D02*
X133410000Y-70143000D01*
X133370000Y-64984000D02*
X133370000Y-70144000D01*
X133330000Y-64984000D02*
X133330000Y-70144000D01*
X135950000Y-67564000D02*
G75*
G03*
X135950000Y-67564000I-2620000J0D01*
G01*
%TO.C,C7*%
X138286000Y-85178000D02*
X138286000Y-84863000D01*
X138286000Y-87603000D02*
X138286000Y-87288000D01*
X143226000Y-85178000D02*
X143226000Y-84863000D01*
X143226000Y-87603000D02*
X143226000Y-87288000D01*
X143226000Y-84863000D02*
X138286000Y-84863000D01*
X143226000Y-87603000D02*
X138286000Y-87603000D01*
%TO.C,C8*%
X122074000Y-98014000D02*
X122074000Y-93074000D01*
X124814000Y-98014000D02*
X124814000Y-93074000D01*
X122074000Y-98014000D02*
X122389000Y-98014000D01*
X124499000Y-98014000D02*
X124814000Y-98014000D01*
X122074000Y-93074000D02*
X122389000Y-93074000D01*
X124499000Y-93074000D02*
X124814000Y-93074000D01*
%TO.C,C9*%
X146357000Y-100999775D02*
X146857000Y-100999775D01*
X146607000Y-101249775D02*
X146607000Y-100749775D01*
X147798000Y-95844000D02*
X148366000Y-95844000D01*
X147564000Y-95884000D02*
X148600000Y-95884000D01*
X147405000Y-95924000D02*
X148759000Y-95924000D01*
X147277000Y-95964000D02*
X148887000Y-95964000D01*
X147167000Y-96004000D02*
X148997000Y-96004000D01*
X147071000Y-96044000D02*
X149093000Y-96044000D01*
X146984000Y-96084000D02*
X149180000Y-96084000D01*
X146904000Y-96124000D02*
X149260000Y-96124000D01*
X149122000Y-96164000D02*
X149333000Y-96164000D01*
X146831000Y-96164000D02*
X147042000Y-96164000D01*
X149122000Y-96204000D02*
X149401000Y-96204000D01*
X146763000Y-96204000D02*
X147042000Y-96204000D01*
X149122000Y-96244000D02*
X149465000Y-96244000D01*
X146699000Y-96244000D02*
X147042000Y-96244000D01*
X149122000Y-96284000D02*
X149525000Y-96284000D01*
X146639000Y-96284000D02*
X147042000Y-96284000D01*
X149122000Y-96324000D02*
X149582000Y-96324000D01*
X146582000Y-96324000D02*
X147042000Y-96324000D01*
X149122000Y-96364000D02*
X149636000Y-96364000D01*
X146528000Y-96364000D02*
X147042000Y-96364000D01*
X149122000Y-96404000D02*
X149687000Y-96404000D01*
X146477000Y-96404000D02*
X147042000Y-96404000D01*
X149122000Y-96444000D02*
X149735000Y-96444000D01*
X146429000Y-96444000D02*
X147042000Y-96444000D01*
X149122000Y-96484000D02*
X149781000Y-96484000D01*
X146383000Y-96484000D02*
X147042000Y-96484000D01*
X149122000Y-96524000D02*
X149825000Y-96524000D01*
X146339000Y-96524000D02*
X147042000Y-96524000D01*
X149122000Y-96564000D02*
X149867000Y-96564000D01*
X146297000Y-96564000D02*
X147042000Y-96564000D01*
X149122000Y-96604000D02*
X149908000Y-96604000D01*
X146256000Y-96604000D02*
X147042000Y-96604000D01*
X149122000Y-96644000D02*
X149946000Y-96644000D01*
X146218000Y-96644000D02*
X147042000Y-96644000D01*
X149122000Y-96684000D02*
X149983000Y-96684000D01*
X146181000Y-96684000D02*
X147042000Y-96684000D01*
X149122000Y-96724000D02*
X150019000Y-96724000D01*
X146145000Y-96724000D02*
X147042000Y-96724000D01*
X149122000Y-96764000D02*
X150053000Y-96764000D01*
X146111000Y-96764000D02*
X147042000Y-96764000D01*
X149122000Y-96804000D02*
X150086000Y-96804000D01*
X146078000Y-96804000D02*
X147042000Y-96804000D01*
X149122000Y-96844000D02*
X150117000Y-96844000D01*
X146047000Y-96844000D02*
X147042000Y-96844000D01*
X149122000Y-96884000D02*
X150147000Y-96884000D01*
X146017000Y-96884000D02*
X147042000Y-96884000D01*
X149122000Y-96924000D02*
X150177000Y-96924000D01*
X145987000Y-96924000D02*
X147042000Y-96924000D01*
X149122000Y-96964000D02*
X150204000Y-96964000D01*
X145960000Y-96964000D02*
X147042000Y-96964000D01*
X149122000Y-97004000D02*
X150231000Y-97004000D01*
X145933000Y-97004000D02*
X147042000Y-97004000D01*
X149122000Y-97044000D02*
X150257000Y-97044000D01*
X145907000Y-97044000D02*
X147042000Y-97044000D01*
X149122000Y-97084000D02*
X150282000Y-97084000D01*
X145882000Y-97084000D02*
X147042000Y-97084000D01*
X149122000Y-97124000D02*
X150306000Y-97124000D01*
X145858000Y-97124000D02*
X147042000Y-97124000D01*
X149122000Y-97164000D02*
X150329000Y-97164000D01*
X145835000Y-97164000D02*
X147042000Y-97164000D01*
X149122000Y-97204000D02*
X150350000Y-97204000D01*
X145814000Y-97204000D02*
X147042000Y-97204000D01*
X149122000Y-97244000D02*
X150372000Y-97244000D01*
X145792000Y-97244000D02*
X147042000Y-97244000D01*
X149122000Y-97284000D02*
X150392000Y-97284000D01*
X145772000Y-97284000D02*
X147042000Y-97284000D01*
X149122000Y-97324000D02*
X150411000Y-97324000D01*
X145753000Y-97324000D02*
X147042000Y-97324000D01*
X149122000Y-97364000D02*
X150430000Y-97364000D01*
X145734000Y-97364000D02*
X147042000Y-97364000D01*
X149122000Y-97404000D02*
X150447000Y-97404000D01*
X145717000Y-97404000D02*
X147042000Y-97404000D01*
X149122000Y-97444000D02*
X150464000Y-97444000D01*
X145700000Y-97444000D02*
X147042000Y-97444000D01*
X149122000Y-97484000D02*
X150480000Y-97484000D01*
X145684000Y-97484000D02*
X147042000Y-97484000D01*
X149122000Y-97524000D02*
X150496000Y-97524000D01*
X145668000Y-97524000D02*
X147042000Y-97524000D01*
X149122000Y-97564000D02*
X150510000Y-97564000D01*
X145654000Y-97564000D02*
X147042000Y-97564000D01*
X149122000Y-97604000D02*
X150524000Y-97604000D01*
X145640000Y-97604000D02*
X147042000Y-97604000D01*
X149122000Y-97644000D02*
X150537000Y-97644000D01*
X145627000Y-97644000D02*
X147042000Y-97644000D01*
X149122000Y-97684000D02*
X150550000Y-97684000D01*
X145614000Y-97684000D02*
X147042000Y-97684000D01*
X149122000Y-97724000D02*
X150562000Y-97724000D01*
X145602000Y-97724000D02*
X147042000Y-97724000D01*
X149122000Y-97765000D02*
X150573000Y-97765000D01*
X145591000Y-97765000D02*
X147042000Y-97765000D01*
X149122000Y-97805000D02*
X150583000Y-97805000D01*
X145581000Y-97805000D02*
X147042000Y-97805000D01*
X149122000Y-97845000D02*
X150593000Y-97845000D01*
X145571000Y-97845000D02*
X147042000Y-97845000D01*
X149122000Y-97885000D02*
X150602000Y-97885000D01*
X145562000Y-97885000D02*
X147042000Y-97885000D01*
X149122000Y-97925000D02*
X150610000Y-97925000D01*
X145554000Y-97925000D02*
X147042000Y-97925000D01*
X149122000Y-97965000D02*
X150618000Y-97965000D01*
X145546000Y-97965000D02*
X147042000Y-97965000D01*
X149122000Y-98005000D02*
X150625000Y-98005000D01*
X145539000Y-98005000D02*
X147042000Y-98005000D01*
X149122000Y-98045000D02*
X150632000Y-98045000D01*
X145532000Y-98045000D02*
X147042000Y-98045000D01*
X149122000Y-98085000D02*
X150638000Y-98085000D01*
X145526000Y-98085000D02*
X147042000Y-98085000D01*
X149122000Y-98125000D02*
X150643000Y-98125000D01*
X145521000Y-98125000D02*
X147042000Y-98125000D01*
X149122000Y-98165000D02*
X150647000Y-98165000D01*
X145517000Y-98165000D02*
X147042000Y-98165000D01*
X149122000Y-98205000D02*
X150651000Y-98205000D01*
X145513000Y-98205000D02*
X147042000Y-98205000D01*
X145509000Y-98245000D02*
X150655000Y-98245000D01*
X145506000Y-98285000D02*
X150658000Y-98285000D01*
X145504000Y-98325000D02*
X150660000Y-98325000D01*
X145503000Y-98365000D02*
X150661000Y-98365000D01*
X145502000Y-98405000D02*
X150662000Y-98405000D01*
X145502000Y-98445000D02*
X150662000Y-98445000D01*
X150702000Y-98445000D02*
G75*
G03*
X150702000Y-98445000I-2620000J0D01*
G01*
%TO.C,C10*%
X71782000Y-72614000D02*
X71782000Y-67674000D01*
X74522000Y-72614000D02*
X74522000Y-67674000D01*
X71782000Y-72614000D02*
X72097000Y-72614000D01*
X74207000Y-72614000D02*
X74522000Y-72614000D01*
X71782000Y-67674000D02*
X72097000Y-67674000D01*
X74207000Y-67674000D02*
X74522000Y-67674000D01*
%TO.C,C11*%
X73699000Y-90026000D02*
X74014000Y-90026000D01*
X71274000Y-90026000D02*
X71589000Y-90026000D01*
X73699000Y-94966000D02*
X74014000Y-94966000D01*
X71274000Y-94966000D02*
X71589000Y-94966000D01*
X74014000Y-94966000D02*
X74014000Y-90026000D01*
X71274000Y-94966000D02*
X71274000Y-90026000D01*
%TO.C,C12*%
X88546000Y-68550000D02*
X88546000Y-63610000D01*
X91286000Y-68550000D02*
X91286000Y-63610000D01*
X88546000Y-68550000D02*
X88861000Y-68550000D01*
X90971000Y-68550000D02*
X91286000Y-68550000D01*
X88546000Y-63610000D02*
X88861000Y-63610000D01*
X90971000Y-63610000D02*
X91286000Y-63610000D01*
%TO.C,D1*%
X121504000Y-76254000D02*
X121504000Y-79194000D01*
X121744000Y-76254000D02*
X121744000Y-79194000D01*
X121624000Y-76254000D02*
X121624000Y-79194000D01*
X127184000Y-77724000D02*
X126164000Y-77724000D01*
X119704000Y-77724000D02*
X120724000Y-77724000D01*
X126164000Y-76254000D02*
X120724000Y-76254000D01*
X126164000Y-79194000D02*
X126164000Y-76254000D01*
X120724000Y-79194000D02*
X126164000Y-79194000D01*
X120724000Y-76254000D02*
X120724000Y-79194000D01*
%TO.C,D3*%
X131626000Y-105802499D02*
X134566000Y-105802499D01*
X134566000Y-105802499D02*
X134566000Y-100362499D01*
X134566000Y-100362499D02*
X131626000Y-100362499D01*
X131626000Y-100362499D02*
X131626000Y-105802499D01*
X133096000Y-106822499D02*
X133096000Y-105802499D01*
X133096000Y-99342499D02*
X133096000Y-100362499D01*
X131626000Y-104902499D02*
X134566000Y-104902499D01*
X131626000Y-104782499D02*
X134566000Y-104782499D01*
X131626000Y-105022499D02*
X134566000Y-105022499D01*
%TO.C,D4*%
X138630000Y-101184000D02*
X135690000Y-101184000D01*
X138630000Y-101424000D02*
X135690000Y-101424000D01*
X138630000Y-101304000D02*
X135690000Y-101304000D01*
X137160000Y-106864000D02*
X137160000Y-105844000D01*
X137160000Y-99384000D02*
X137160000Y-100404000D01*
X138630000Y-105844000D02*
X138630000Y-100404000D01*
X135690000Y-105844000D02*
X138630000Y-105844000D01*
X135690000Y-100404000D02*
X135690000Y-105844000D01*
X138630000Y-100404000D02*
X135690000Y-100404000D01*
%TO.C,J2*%
X54864000Y-86868000D02*
X54864000Y-97028000D01*
X56134000Y-86868000D02*
X48514000Y-86868000D01*
X48514000Y-86868000D02*
X48514000Y-97028000D01*
X48514000Y-97028000D02*
X56134000Y-97028000D01*
X56134000Y-97028000D02*
X56134000Y-86868000D01*
%TO.C,R2*%
X145256000Y-58266000D02*
X145256000Y-57936000D01*
X138716000Y-58266000D02*
X145256000Y-58266000D01*
X138716000Y-57936000D02*
X138716000Y-58266000D01*
X145256000Y-55526000D02*
X145256000Y-55856000D01*
X138716000Y-55526000D02*
X145256000Y-55526000D01*
X138716000Y-55856000D02*
X138716000Y-55526000D01*
%TO.C,R3*%
X139160000Y-63524000D02*
X139160000Y-63854000D01*
X139160000Y-63854000D02*
X132620000Y-63854000D01*
X132620000Y-63854000D02*
X132620000Y-63524000D01*
X139160000Y-61444000D02*
X139160000Y-61114000D01*
X139160000Y-61114000D02*
X132620000Y-61114000D01*
X132620000Y-61114000D02*
X132620000Y-61444000D01*
%TO.C,R7*%
X146145000Y-78713000D02*
X146145000Y-78383000D01*
X139605000Y-78713000D02*
X146145000Y-78713000D01*
X139605000Y-78383000D02*
X139605000Y-78713000D01*
X146145000Y-75973000D02*
X146145000Y-76303000D01*
X139605000Y-75973000D02*
X146145000Y-75973000D01*
X139605000Y-76303000D02*
X139605000Y-75973000D01*
%TO.C,R8*%
X139605000Y-71731000D02*
X139605000Y-71401000D01*
X139605000Y-71401000D02*
X146145000Y-71401000D01*
X146145000Y-71401000D02*
X146145000Y-71731000D01*
X139605000Y-73811000D02*
X139605000Y-74141000D01*
X139605000Y-74141000D02*
X146145000Y-74141000D01*
X146145000Y-74141000D02*
X146145000Y-73811000D01*
%TO.C,R9*%
X138525000Y-93496000D02*
X138525000Y-93826000D01*
X138525000Y-93826000D02*
X131985000Y-93826000D01*
X131985000Y-93826000D02*
X131985000Y-93496000D01*
X138525000Y-91416000D02*
X138525000Y-91086000D01*
X138525000Y-91086000D02*
X131985000Y-91086000D01*
X131985000Y-91086000D02*
X131985000Y-91416000D01*
%TO.C,R10*%
X61500000Y-76684000D02*
X61500000Y-76354000D01*
X61500000Y-76354000D02*
X68040000Y-76354000D01*
X68040000Y-76354000D02*
X68040000Y-76684000D01*
X61500000Y-78764000D02*
X61500000Y-79094000D01*
X61500000Y-79094000D02*
X68040000Y-79094000D01*
X68040000Y-79094000D02*
X68040000Y-78764000D01*
%TO.C,R11*%
X61500000Y-89054000D02*
X61500000Y-89384000D01*
X68040000Y-89054000D02*
X61500000Y-89054000D01*
X68040000Y-89384000D02*
X68040000Y-89054000D01*
X61500000Y-91794000D02*
X61500000Y-91464000D01*
X68040000Y-91794000D02*
X61500000Y-91794000D01*
X68040000Y-91464000D02*
X68040000Y-91794000D01*
%TO.C,R15*%
X100552000Y-91794000D02*
X100552000Y-91464000D01*
X94012000Y-91794000D02*
X100552000Y-91794000D01*
X94012000Y-91464000D02*
X94012000Y-91794000D01*
X100552000Y-89054000D02*
X100552000Y-89384000D01*
X94012000Y-89054000D02*
X100552000Y-89054000D01*
X94012000Y-89384000D02*
X94012000Y-89054000D01*
%TO.C,R16*%
X78264000Y-62130000D02*
X78264000Y-62460000D01*
X84804000Y-62130000D02*
X78264000Y-62130000D01*
X84804000Y-62460000D02*
X84804000Y-62130000D01*
X78264000Y-64870000D02*
X78264000Y-64540000D01*
X84804000Y-64870000D02*
X78264000Y-64870000D01*
X84804000Y-64540000D02*
X84804000Y-64870000D01*
%TO.C,R17*%
X94012000Y-76862000D02*
X94012000Y-77192000D01*
X100552000Y-76862000D02*
X94012000Y-76862000D01*
X100552000Y-77192000D02*
X100552000Y-76862000D01*
X94012000Y-79602000D02*
X94012000Y-79272000D01*
X100552000Y-79602000D02*
X94012000Y-79602000D01*
X100552000Y-79272000D02*
X100552000Y-79602000D01*
%TO.C,U2*%
X119888000Y-105279000D02*
X119888000Y-102665000D01*
X123288000Y-105279000D02*
X123288000Y-102665000D01*
X126688000Y-105279000D02*
X126688000Y-102649000D01*
X121438000Y-109920000D02*
X121438000Y-108411000D01*
X125138000Y-109920000D02*
X125138000Y-108411000D01*
X128409000Y-108411000D02*
X118168000Y-108411000D01*
X118168000Y-109920000D02*
X118168000Y-105279000D01*
X128409000Y-109920000D02*
X128409000Y-105279000D01*
X120523000Y-105279000D02*
X118168000Y-105279000D01*
X123923000Y-105279000D02*
X122653000Y-105279000D01*
X128409000Y-105279000D02*
X126053000Y-105279000D01*
X128409000Y-109920000D02*
X118168000Y-109920000D01*
%TO.C,U3*%
X80724500Y-74044500D02*
X79474500Y-74044500D01*
X79474500Y-74044500D02*
X79474500Y-91944500D01*
X79474500Y-91944500D02*
X83974500Y-91944500D01*
X83974500Y-91944500D02*
X83974500Y-74044500D01*
X83974500Y-74044500D02*
X82724500Y-74044500D01*
X76474500Y-73984500D02*
X76474500Y-92004500D01*
X76474500Y-92004500D02*
X86974500Y-92004500D01*
X86974500Y-92004500D02*
X86974500Y-73984500D01*
X86974500Y-73984500D02*
X76474500Y-73984500D01*
X82724500Y-74044500D02*
G75*
G02*
X80724500Y-74044500I-1000000J0D01*
G01*
%TO.C,U1*%
D12*
X110334095Y-53632380D02*
X110334095Y-54441904D01*
X110381714Y-54537142D01*
X110429333Y-54584761D01*
X110524571Y-54632380D01*
X110715047Y-54632380D01*
X110810285Y-54584761D01*
X110857904Y-54537142D01*
X110905523Y-54441904D01*
X110905523Y-53632380D01*
X111905523Y-54632380D02*
X111334095Y-54632380D01*
X111619809Y-54632380D02*
X111619809Y-53632380D01*
X111524571Y-53775238D01*
X111429333Y-53870476D01*
X111334095Y-53918095D01*
%TO.C,R1*%
X97051833Y-98326380D02*
X96718500Y-97850190D01*
X96480404Y-98326380D02*
X96480404Y-97326380D01*
X96861357Y-97326380D01*
X96956595Y-97374000D01*
X97004214Y-97421619D01*
X97051833Y-97516857D01*
X97051833Y-97659714D01*
X97004214Y-97754952D01*
X96956595Y-97802571D01*
X96861357Y-97850190D01*
X96480404Y-97850190D01*
X98004214Y-98326380D02*
X97432785Y-98326380D01*
X97718500Y-98326380D02*
X97718500Y-97326380D01*
X97623261Y-97469238D01*
X97528023Y-97564476D01*
X97432785Y-97612095D01*
X95956595Y-92681619D02*
X96004214Y-92634000D01*
X96099452Y-92586380D01*
X96337547Y-92586380D01*
X96432785Y-92634000D01*
X96480404Y-92681619D01*
X96528023Y-92776857D01*
X96528023Y-92872095D01*
X96480404Y-93014952D01*
X95908976Y-93586380D01*
X96528023Y-93586380D01*
X96908976Y-92681619D02*
X96956595Y-92634000D01*
X97051833Y-92586380D01*
X97289928Y-92586380D01*
X97385166Y-92634000D01*
X97432785Y-92681619D01*
X97480404Y-92776857D01*
X97480404Y-92872095D01*
X97432785Y-93014952D01*
X96861357Y-93586380D01*
X97480404Y-93586380D01*
X97908976Y-93586380D02*
X97908976Y-92586380D01*
X98480404Y-93586380D02*
X98051833Y-93014952D01*
X98480404Y-92586380D02*
X97908976Y-93157809D01*
%TO.C,LS1*%
X161488380Y-80398857D02*
X161488380Y-80875047D01*
X160488380Y-80875047D01*
X161440761Y-80113142D02*
X161488380Y-79970285D01*
X161488380Y-79732190D01*
X161440761Y-79636952D01*
X161393142Y-79589333D01*
X161297904Y-79541714D01*
X161202666Y-79541714D01*
X161107428Y-79589333D01*
X161059809Y-79636952D01*
X161012190Y-79732190D01*
X160964571Y-79922666D01*
X160916952Y-80017904D01*
X160869333Y-80065523D01*
X160774095Y-80113142D01*
X160678857Y-80113142D01*
X160583619Y-80065523D01*
X160536000Y-80017904D01*
X160488380Y-79922666D01*
X160488380Y-79684571D01*
X160536000Y-79541714D01*
X161488380Y-78589333D02*
X161488380Y-79160761D01*
X161488380Y-78875047D02*
X160488380Y-78875047D01*
X160631238Y-78970285D01*
X160726476Y-79065523D01*
X160774095Y-79160761D01*
%TO.C,R6*%
X145756333Y-93416380D02*
X145423000Y-92940190D01*
X145184904Y-93416380D02*
X145184904Y-92416380D01*
X145565857Y-92416380D01*
X145661095Y-92464000D01*
X145708714Y-92511619D01*
X145756333Y-92606857D01*
X145756333Y-92749714D01*
X145708714Y-92844952D01*
X145661095Y-92892571D01*
X145565857Y-92940190D01*
X145184904Y-92940190D01*
X146613476Y-92416380D02*
X146423000Y-92416380D01*
X146327761Y-92464000D01*
X146280142Y-92511619D01*
X146184904Y-92654476D01*
X146137285Y-92844952D01*
X146137285Y-93225904D01*
X146184904Y-93321142D01*
X146232523Y-93368761D01*
X146327761Y-93416380D01*
X146518238Y-93416380D01*
X146613476Y-93368761D01*
X146661095Y-93321142D01*
X146708714Y-93225904D01*
X146708714Y-92987809D01*
X146661095Y-92892571D01*
X146613476Y-92844952D01*
X146518238Y-92797333D01*
X146327761Y-92797333D01*
X146232523Y-92844952D01*
X146184904Y-92892571D01*
X146137285Y-92987809D01*
X145169095Y-93908619D02*
X145216714Y-93861000D01*
X145311952Y-93813380D01*
X145550047Y-93813380D01*
X145645285Y-93861000D01*
X145692904Y-93908619D01*
X145740523Y-94003857D01*
X145740523Y-94099095D01*
X145692904Y-94241952D01*
X145121476Y-94813380D01*
X145740523Y-94813380D01*
X146121476Y-93908619D02*
X146169095Y-93861000D01*
X146264333Y-93813380D01*
X146502428Y-93813380D01*
X146597666Y-93861000D01*
X146645285Y-93908619D01*
X146692904Y-94003857D01*
X146692904Y-94099095D01*
X146645285Y-94241952D01*
X146073857Y-94813380D01*
X146692904Y-94813380D01*
X147121476Y-94813380D02*
X147121476Y-93813380D01*
X147692904Y-94813380D02*
X147264333Y-94241952D01*
X147692904Y-93813380D02*
X147121476Y-94384809D01*
%TO.C,J1*%
X47126380Y-75229833D02*
X47840666Y-75229833D01*
X47983523Y-75277452D01*
X48078761Y-75372690D01*
X48126380Y-75515547D01*
X48126380Y-75610785D01*
X48126380Y-74229833D02*
X48126380Y-74801261D01*
X48126380Y-74515547D02*
X47126380Y-74515547D01*
X47269238Y-74610785D01*
X47364476Y-74706023D01*
X47412095Y-74801261D01*
%TO.C,JPR1*%
X109410666Y-95498380D02*
X109410666Y-96212666D01*
X109363047Y-96355523D01*
X109267809Y-96450761D01*
X109124952Y-96498380D01*
X109029714Y-96498380D01*
X109886857Y-96498380D02*
X109886857Y-95498380D01*
X110267809Y-95498380D01*
X110363047Y-95546000D01*
X110410666Y-95593619D01*
X110458285Y-95688857D01*
X110458285Y-95831714D01*
X110410666Y-95926952D01*
X110363047Y-95974571D01*
X110267809Y-96022190D01*
X109886857Y-96022190D01*
X111458285Y-96498380D02*
X111124952Y-96022190D01*
X110886857Y-96498380D02*
X110886857Y-95498380D01*
X111267809Y-95498380D01*
X111363047Y-95546000D01*
X111410666Y-95593619D01*
X111458285Y-95688857D01*
X111458285Y-95831714D01*
X111410666Y-95926952D01*
X111363047Y-95974571D01*
X111267809Y-96022190D01*
X110886857Y-96022190D01*
X112410666Y-96498380D02*
X111839238Y-96498380D01*
X112124952Y-96498380D02*
X112124952Y-95498380D01*
X112029714Y-95641238D01*
X111934476Y-95736476D01*
X111839238Y-95784095D01*
X109410666Y-102610380D02*
X109410666Y-103324666D01*
X109363047Y-103467523D01*
X109267809Y-103562761D01*
X109124952Y-103610380D01*
X109029714Y-103610380D01*
X109886857Y-103610380D02*
X109886857Y-102610380D01*
X110267809Y-102610380D01*
X110363047Y-102658000D01*
X110410666Y-102705619D01*
X110458285Y-102800857D01*
X110458285Y-102943714D01*
X110410666Y-103038952D01*
X110363047Y-103086571D01*
X110267809Y-103134190D01*
X109886857Y-103134190D01*
X111458285Y-103610380D02*
X111124952Y-103134190D01*
X110886857Y-103610380D02*
X110886857Y-102610380D01*
X111267809Y-102610380D01*
X111363047Y-102658000D01*
X111410666Y-102705619D01*
X111458285Y-102800857D01*
X111458285Y-102943714D01*
X111410666Y-103038952D01*
X111363047Y-103086571D01*
X111267809Y-103134190D01*
X110886857Y-103134190D01*
X112410666Y-103610380D02*
X111839238Y-103610380D01*
X112124952Y-103610380D02*
X112124952Y-102610380D01*
X112029714Y-102753238D01*
X111934476Y-102848476D01*
X111839238Y-102896095D01*
%TO.C,C3*%
X115359142Y-68980666D02*
X115406761Y-69028285D01*
X115454380Y-69171142D01*
X115454380Y-69266380D01*
X115406761Y-69409238D01*
X115311523Y-69504476D01*
X115216285Y-69552095D01*
X115025809Y-69599714D01*
X114882952Y-69599714D01*
X114692476Y-69552095D01*
X114597238Y-69504476D01*
X114502000Y-69409238D01*
X114454380Y-69266380D01*
X114454380Y-69171142D01*
X114502000Y-69028285D01*
X114549619Y-68980666D01*
X114454380Y-68647333D02*
X114454380Y-68028285D01*
X114835333Y-68361619D01*
X114835333Y-68218761D01*
X114882952Y-68123523D01*
X114930571Y-68075904D01*
X115025809Y-68028285D01*
X115263904Y-68028285D01*
X115359142Y-68075904D01*
X115406761Y-68123523D01*
X115454380Y-68218761D01*
X115454380Y-68504476D01*
X115406761Y-68599714D01*
X115359142Y-68647333D01*
X107954380Y-70361619D02*
X107954380Y-70933047D01*
X107954380Y-70647333D02*
X106954380Y-70647333D01*
X107097238Y-70742571D01*
X107192476Y-70837809D01*
X107240095Y-70933047D01*
X106954380Y-69742571D02*
X106954380Y-69647333D01*
X107002000Y-69552095D01*
X107049619Y-69504476D01*
X107144857Y-69456857D01*
X107335333Y-69409238D01*
X107573428Y-69409238D01*
X107763904Y-69456857D01*
X107859142Y-69504476D01*
X107906761Y-69552095D01*
X107954380Y-69647333D01*
X107954380Y-69742571D01*
X107906761Y-69837809D01*
X107859142Y-69885428D01*
X107763904Y-69933047D01*
X107573428Y-69980666D01*
X107335333Y-69980666D01*
X107144857Y-69933047D01*
X107049619Y-69885428D01*
X107002000Y-69837809D01*
X106954380Y-69742571D01*
X106954380Y-68790190D02*
X106954380Y-68694952D01*
X107002000Y-68599714D01*
X107049619Y-68552095D01*
X107144857Y-68504476D01*
X107335333Y-68456857D01*
X107573428Y-68456857D01*
X107763904Y-68504476D01*
X107859142Y-68552095D01*
X107906761Y-68599714D01*
X107954380Y-68694952D01*
X107954380Y-68790190D01*
X107906761Y-68885428D01*
X107859142Y-68933047D01*
X107763904Y-68980666D01*
X107573428Y-69028285D01*
X107335333Y-69028285D01*
X107144857Y-68980666D01*
X107049619Y-68933047D01*
X107002000Y-68885428D01*
X106954380Y-68790190D01*
X107287714Y-67599714D02*
X107954380Y-67599714D01*
X107287714Y-68028285D02*
X107811523Y-68028285D01*
X107906761Y-67980666D01*
X107954380Y-67885428D01*
X107954380Y-67742571D01*
X107906761Y-67647333D01*
X107859142Y-67599714D01*
X107430571Y-66790190D02*
X107430571Y-67123523D01*
X107954380Y-67123523D02*
X106954380Y-67123523D01*
X106954380Y-66647333D01*
%TO.C,R5*%
X131659333Y-85468380D02*
X131326000Y-84992190D01*
X131087904Y-85468380D02*
X131087904Y-84468380D01*
X131468857Y-84468380D01*
X131564095Y-84516000D01*
X131611714Y-84563619D01*
X131659333Y-84658857D01*
X131659333Y-84801714D01*
X131611714Y-84896952D01*
X131564095Y-84944571D01*
X131468857Y-84992190D01*
X131087904Y-84992190D01*
X132564095Y-84468380D02*
X132087904Y-84468380D01*
X132040285Y-84944571D01*
X132087904Y-84896952D01*
X132183142Y-84849333D01*
X132421238Y-84849333D01*
X132516476Y-84896952D01*
X132564095Y-84944571D01*
X132611714Y-85039809D01*
X132611714Y-85277904D01*
X132564095Y-85373142D01*
X132516476Y-85420761D01*
X132421238Y-85468380D01*
X132183142Y-85468380D01*
X132087904Y-85420761D01*
X132040285Y-85373142D01*
X131611714Y-80028380D02*
X131040285Y-80028380D01*
X131326000Y-80028380D02*
X131326000Y-79028380D01*
X131230761Y-79171238D01*
X131135523Y-79266476D01*
X131040285Y-79314095D01*
X132611714Y-80028380D02*
X132278380Y-79552190D01*
X132040285Y-80028380D02*
X132040285Y-79028380D01*
X132421238Y-79028380D01*
X132516476Y-79076000D01*
X132564095Y-79123619D01*
X132611714Y-79218857D01*
X132611714Y-79361714D01*
X132564095Y-79456952D01*
X132516476Y-79504571D01*
X132421238Y-79552190D01*
X132040285Y-79552190D01*
%TO.C,C6*%
X124019333Y-63349142D02*
X123971714Y-63396761D01*
X123828857Y-63444380D01*
X123733619Y-63444380D01*
X123590761Y-63396761D01*
X123495523Y-63301523D01*
X123447904Y-63206285D01*
X123400285Y-63015809D01*
X123400285Y-62872952D01*
X123447904Y-62682476D01*
X123495523Y-62587238D01*
X123590761Y-62492000D01*
X123733619Y-62444380D01*
X123828857Y-62444380D01*
X123971714Y-62492000D01*
X124019333Y-62539619D01*
X124876476Y-62444380D02*
X124686000Y-62444380D01*
X124590761Y-62492000D01*
X124543142Y-62539619D01*
X124447904Y-62682476D01*
X124400285Y-62872952D01*
X124400285Y-63253904D01*
X124447904Y-63349142D01*
X124495523Y-63396761D01*
X124590761Y-63444380D01*
X124781238Y-63444380D01*
X124876476Y-63396761D01*
X124924095Y-63349142D01*
X124971714Y-63253904D01*
X124971714Y-63015809D01*
X124924095Y-62920571D01*
X124876476Y-62872952D01*
X124781238Y-62825333D01*
X124590761Y-62825333D01*
X124495523Y-62872952D01*
X124447904Y-62920571D01*
X124400285Y-63015809D01*
X122912380Y-64968380D02*
X122340952Y-64968380D01*
X122626666Y-64968380D02*
X122626666Y-63968380D01*
X122531428Y-64111238D01*
X122436190Y-64206476D01*
X122340952Y-64254095D01*
X123531428Y-63968380D02*
X123626666Y-63968380D01*
X123721904Y-64016000D01*
X123769523Y-64063619D01*
X123817142Y-64158857D01*
X123864761Y-64349333D01*
X123864761Y-64587428D01*
X123817142Y-64777904D01*
X123769523Y-64873142D01*
X123721904Y-64920761D01*
X123626666Y-64968380D01*
X123531428Y-64968380D01*
X123436190Y-64920761D01*
X123388571Y-64873142D01*
X123340952Y-64777904D01*
X123293333Y-64587428D01*
X123293333Y-64349333D01*
X123340952Y-64158857D01*
X123388571Y-64063619D01*
X123436190Y-64016000D01*
X123531428Y-63968380D01*
X124483809Y-63968380D02*
X124579047Y-63968380D01*
X124674285Y-64016000D01*
X124721904Y-64063619D01*
X124769523Y-64158857D01*
X124817142Y-64349333D01*
X124817142Y-64587428D01*
X124769523Y-64777904D01*
X124721904Y-64873142D01*
X124674285Y-64920761D01*
X124579047Y-64968380D01*
X124483809Y-64968380D01*
X124388571Y-64920761D01*
X124340952Y-64873142D01*
X124293333Y-64777904D01*
X124245714Y-64587428D01*
X124245714Y-64349333D01*
X124293333Y-64158857D01*
X124340952Y-64063619D01*
X124388571Y-64016000D01*
X124483809Y-63968380D01*
X125674285Y-64301714D02*
X125674285Y-64968380D01*
X125245714Y-64301714D02*
X125245714Y-64825523D01*
X125293333Y-64920761D01*
X125388571Y-64968380D01*
X125531428Y-64968380D01*
X125626666Y-64920761D01*
X125674285Y-64873142D01*
X126483809Y-64444571D02*
X126150476Y-64444571D01*
X126150476Y-64968380D02*
X126150476Y-63968380D01*
X126626666Y-63968380D01*
%TO.C,D2*%
X130325904Y-73604380D02*
X130325904Y-72604380D01*
X130564000Y-72604380D01*
X130706857Y-72652000D01*
X130802095Y-72747238D01*
X130849714Y-72842476D01*
X130897333Y-73032952D01*
X130897333Y-73175809D01*
X130849714Y-73366285D01*
X130802095Y-73461523D01*
X130706857Y-73556761D01*
X130564000Y-73604380D01*
X130325904Y-73604380D01*
X131278285Y-72699619D02*
X131325904Y-72652000D01*
X131421142Y-72604380D01*
X131659238Y-72604380D01*
X131754476Y-72652000D01*
X131802095Y-72699619D01*
X131849714Y-72794857D01*
X131849714Y-72890095D01*
X131802095Y-73032952D01*
X131230666Y-73604380D01*
X131849714Y-73604380D01*
X128262095Y-75704380D02*
X128262095Y-74704380D01*
X128833523Y-75704380D02*
X128404952Y-75132952D01*
X128833523Y-74704380D02*
X128262095Y-75275809D01*
%TO.C,C1*%
X104989333Y-79097142D02*
X104941714Y-79144761D01*
X104798857Y-79192380D01*
X104703619Y-79192380D01*
X104560761Y-79144761D01*
X104465523Y-79049523D01*
X104417904Y-78954285D01*
X104370285Y-78763809D01*
X104370285Y-78620952D01*
X104417904Y-78430476D01*
X104465523Y-78335238D01*
X104560761Y-78240000D01*
X104703619Y-78192380D01*
X104798857Y-78192380D01*
X104941714Y-78240000D01*
X104989333Y-78287619D01*
X105941714Y-79192380D02*
X105370285Y-79192380D01*
X105656000Y-79192380D02*
X105656000Y-78192380D01*
X105560761Y-78335238D01*
X105465523Y-78430476D01*
X105370285Y-78478095D01*
X107608761Y-80208380D02*
X107037333Y-80208380D01*
X107323047Y-80208380D02*
X107323047Y-79208380D01*
X107227809Y-79351238D01*
X107132571Y-79446476D01*
X107037333Y-79494095D01*
X108465904Y-79541714D02*
X108465904Y-80208380D01*
X108037333Y-79541714D02*
X108037333Y-80065523D01*
X108084952Y-80160761D01*
X108180190Y-80208380D01*
X108323047Y-80208380D01*
X108418285Y-80160761D01*
X108465904Y-80113142D01*
X109275428Y-79684571D02*
X108942095Y-79684571D01*
X108942095Y-80208380D02*
X108942095Y-79208380D01*
X109418285Y-79208380D01*
%TO.C,R4*%
X144105333Y-65349380D02*
X143772000Y-64873190D01*
X143533904Y-65349380D02*
X143533904Y-64349380D01*
X143914857Y-64349380D01*
X144010095Y-64397000D01*
X144057714Y-64444619D01*
X144105333Y-64539857D01*
X144105333Y-64682714D01*
X144057714Y-64777952D01*
X144010095Y-64825571D01*
X143914857Y-64873190D01*
X143533904Y-64873190D01*
X144962476Y-64682714D02*
X144962476Y-65349380D01*
X144724380Y-64301761D02*
X144486285Y-65016047D01*
X145105333Y-65016047D01*
X148121714Y-65476380D02*
X147550285Y-65476380D01*
X147836000Y-65476380D02*
X147836000Y-64476380D01*
X147740761Y-64619238D01*
X147645523Y-64714476D01*
X147550285Y-64762095D01*
X149121714Y-65476380D02*
X148788380Y-65000190D01*
X148550285Y-65476380D02*
X148550285Y-64476380D01*
X148931238Y-64476380D01*
X149026476Y-64524000D01*
X149074095Y-64571619D01*
X149121714Y-64666857D01*
X149121714Y-64809714D01*
X149074095Y-64904952D01*
X149026476Y-64952571D01*
X148931238Y-65000190D01*
X148550285Y-65000190D01*
%TO.C,R13*%
X80891142Y-70386380D02*
X80557809Y-69910190D01*
X80319714Y-70386380D02*
X80319714Y-69386380D01*
X80700666Y-69386380D01*
X80795904Y-69434000D01*
X80843523Y-69481619D01*
X80891142Y-69576857D01*
X80891142Y-69719714D01*
X80843523Y-69814952D01*
X80795904Y-69862571D01*
X80700666Y-69910190D01*
X80319714Y-69910190D01*
X81843523Y-70386380D02*
X81272095Y-70386380D01*
X81557809Y-70386380D02*
X81557809Y-69386380D01*
X81462571Y-69529238D01*
X81367333Y-69624476D01*
X81272095Y-69672095D01*
X82176857Y-69386380D02*
X82795904Y-69386380D01*
X82462571Y-69767333D01*
X82605428Y-69767333D01*
X82700666Y-69814952D01*
X82748285Y-69862571D01*
X82795904Y-69957809D01*
X82795904Y-70195904D01*
X82748285Y-70291142D01*
X82700666Y-70338761D01*
X82605428Y-70386380D01*
X82319714Y-70386380D01*
X82224476Y-70338761D01*
X82176857Y-70291142D01*
%TO.C,R12*%
X60317142Y-98326380D02*
X59983809Y-97850190D01*
X59745714Y-98326380D02*
X59745714Y-97326380D01*
X60126666Y-97326380D01*
X60221904Y-97374000D01*
X60269523Y-97421619D01*
X60317142Y-97516857D01*
X60317142Y-97659714D01*
X60269523Y-97754952D01*
X60221904Y-97802571D01*
X60126666Y-97850190D01*
X59745714Y-97850190D01*
X61269523Y-98326380D02*
X60698095Y-98326380D01*
X60983809Y-98326380D02*
X60983809Y-97326380D01*
X60888571Y-97469238D01*
X60793333Y-97564476D01*
X60698095Y-97612095D01*
X61650476Y-97421619D02*
X61698095Y-97374000D01*
X61793333Y-97326380D01*
X62031428Y-97326380D01*
X62126666Y-97374000D01*
X62174285Y-97421619D01*
X62221904Y-97516857D01*
X62221904Y-97612095D01*
X62174285Y-97754952D01*
X61602857Y-98326380D01*
X62221904Y-98326380D01*
X66635428Y-98496380D02*
X66064000Y-98496380D01*
X66349714Y-98496380D02*
X66349714Y-97496380D01*
X66254476Y-97639238D01*
X66159238Y-97734476D01*
X66064000Y-97782095D01*
X67064000Y-98401142D02*
X67111619Y-98448761D01*
X67064000Y-98496380D01*
X67016380Y-98448761D01*
X67064000Y-98401142D01*
X67064000Y-98496380D01*
X68016380Y-97496380D02*
X67540190Y-97496380D01*
X67492571Y-97972571D01*
X67540190Y-97924952D01*
X67635428Y-97877333D01*
X67873523Y-97877333D01*
X67968761Y-97924952D01*
X68016380Y-97972571D01*
X68064000Y-98067809D01*
X68064000Y-98305904D01*
X68016380Y-98401142D01*
X67968761Y-98448761D01*
X67873523Y-98496380D01*
X67635428Y-98496380D01*
X67540190Y-98448761D01*
X67492571Y-98401142D01*
X68492571Y-98496380D02*
X68492571Y-97496380D01*
X69064000Y-98496380D02*
X68635428Y-97924952D01*
X69064000Y-97496380D02*
X68492571Y-98067809D01*
%TO.C,R14*%
X72001142Y-101544380D02*
X71667809Y-101068190D01*
X71429714Y-101544380D02*
X71429714Y-100544380D01*
X71810666Y-100544380D01*
X71905904Y-100592000D01*
X71953523Y-100639619D01*
X72001142Y-100734857D01*
X72001142Y-100877714D01*
X71953523Y-100972952D01*
X71905904Y-101020571D01*
X71810666Y-101068190D01*
X71429714Y-101068190D01*
X72953523Y-101544380D02*
X72382095Y-101544380D01*
X72667809Y-101544380D02*
X72667809Y-100544380D01*
X72572571Y-100687238D01*
X72477333Y-100782476D01*
X72382095Y-100830095D01*
X73810666Y-100877714D02*
X73810666Y-101544380D01*
X73572571Y-100496761D02*
X73334476Y-101211047D01*
X73953523Y-101211047D01*
X79541714Y-101544380D02*
X78970285Y-101544380D01*
X79256000Y-101544380D02*
X79256000Y-100544380D01*
X79160761Y-100687238D01*
X79065523Y-100782476D01*
X78970285Y-100830095D01*
X79970285Y-101544380D02*
X79970285Y-100544380D01*
X80541714Y-101544380D02*
X80113142Y-100972952D01*
X80541714Y-100544380D02*
X79970285Y-101115809D01*
%TO.C,C16*%
X99377142Y-84930857D02*
X99424761Y-84978476D01*
X99472380Y-85121333D01*
X99472380Y-85216571D01*
X99424761Y-85359428D01*
X99329523Y-85454666D01*
X99234285Y-85502285D01*
X99043809Y-85549904D01*
X98900952Y-85549904D01*
X98710476Y-85502285D01*
X98615238Y-85454666D01*
X98520000Y-85359428D01*
X98472380Y-85216571D01*
X98472380Y-85121333D01*
X98520000Y-84978476D01*
X98567619Y-84930857D01*
X99472380Y-83978476D02*
X99472380Y-84549904D01*
X99472380Y-84264190D02*
X98472380Y-84264190D01*
X98615238Y-84359428D01*
X98710476Y-84454666D01*
X98758095Y-84549904D01*
X98472380Y-83121333D02*
X98472380Y-83311809D01*
X98520000Y-83407047D01*
X98567619Y-83454666D01*
X98710476Y-83549904D01*
X98900952Y-83597523D01*
X99281904Y-83597523D01*
X99377142Y-83549904D01*
X99424761Y-83502285D01*
X99472380Y-83407047D01*
X99472380Y-83216571D01*
X99424761Y-83121333D01*
X99377142Y-83073714D01*
X99281904Y-83026095D01*
X99043809Y-83026095D01*
X98948571Y-83073714D01*
X98900952Y-83121333D01*
X98853333Y-83216571D01*
X98853333Y-83407047D01*
X98900952Y-83502285D01*
X98948571Y-83549904D01*
X99043809Y-83597523D01*
X94940380Y-85835619D02*
X94940380Y-86407047D01*
X94940380Y-86121333D02*
X93940380Y-86121333D01*
X94083238Y-86216571D01*
X94178476Y-86311809D01*
X94226095Y-86407047D01*
X93940380Y-85216571D02*
X93940380Y-85121333D01*
X93988000Y-85026095D01*
X94035619Y-84978476D01*
X94130857Y-84930857D01*
X94321333Y-84883238D01*
X94559428Y-84883238D01*
X94749904Y-84930857D01*
X94845142Y-84978476D01*
X94892761Y-85026095D01*
X94940380Y-85121333D01*
X94940380Y-85216571D01*
X94892761Y-85311809D01*
X94845142Y-85359428D01*
X94749904Y-85407047D01*
X94559428Y-85454666D01*
X94321333Y-85454666D01*
X94130857Y-85407047D01*
X94035619Y-85359428D01*
X93988000Y-85311809D01*
X93940380Y-85216571D01*
X93940380Y-84264190D02*
X93940380Y-84168952D01*
X93988000Y-84073714D01*
X94035619Y-84026095D01*
X94130857Y-83978476D01*
X94321333Y-83930857D01*
X94559428Y-83930857D01*
X94749904Y-83978476D01*
X94845142Y-84026095D01*
X94892761Y-84073714D01*
X94940380Y-84168952D01*
X94940380Y-84264190D01*
X94892761Y-84359428D01*
X94845142Y-84407047D01*
X94749904Y-84454666D01*
X94559428Y-84502285D01*
X94321333Y-84502285D01*
X94130857Y-84454666D01*
X94035619Y-84407047D01*
X93988000Y-84359428D01*
X93940380Y-84264190D01*
X94273714Y-83502285D02*
X94940380Y-83502285D01*
X94368952Y-83502285D02*
X94321333Y-83454666D01*
X94273714Y-83359428D01*
X94273714Y-83216571D01*
X94321333Y-83121333D01*
X94416571Y-83073714D01*
X94940380Y-83073714D01*
X94416571Y-82264190D02*
X94416571Y-82597523D01*
X94940380Y-82597523D02*
X93940380Y-82597523D01*
X93940380Y-82121333D01*
%TO.C,C15*%
X89781142Y-81129142D02*
X89733523Y-81176761D01*
X89590666Y-81224380D01*
X89495428Y-81224380D01*
X89352571Y-81176761D01*
X89257333Y-81081523D01*
X89209714Y-80986285D01*
X89162095Y-80795809D01*
X89162095Y-80652952D01*
X89209714Y-80462476D01*
X89257333Y-80367238D01*
X89352571Y-80272000D01*
X89495428Y-80224380D01*
X89590666Y-80224380D01*
X89733523Y-80272000D01*
X89781142Y-80319619D01*
X90733523Y-81224380D02*
X90162095Y-81224380D01*
X90447809Y-81224380D02*
X90447809Y-80224380D01*
X90352571Y-80367238D01*
X90257333Y-80462476D01*
X90162095Y-80510095D01*
X91638285Y-80224380D02*
X91162095Y-80224380D01*
X91114476Y-80700571D01*
X91162095Y-80652952D01*
X91257333Y-80605333D01*
X91495428Y-80605333D01*
X91590666Y-80652952D01*
X91638285Y-80700571D01*
X91685904Y-80795809D01*
X91685904Y-81033904D01*
X91638285Y-81129142D01*
X91590666Y-81176761D01*
X91495428Y-81224380D01*
X91257333Y-81224380D01*
X91162095Y-81176761D01*
X91114476Y-81129142D01*
X88876380Y-87828380D02*
X88304952Y-87828380D01*
X88590666Y-87828380D02*
X88590666Y-86828380D01*
X88495428Y-86971238D01*
X88400190Y-87066476D01*
X88304952Y-87114095D01*
X89495428Y-86828380D02*
X89590666Y-86828380D01*
X89685904Y-86876000D01*
X89733523Y-86923619D01*
X89781142Y-87018857D01*
X89828761Y-87209333D01*
X89828761Y-87447428D01*
X89781142Y-87637904D01*
X89733523Y-87733142D01*
X89685904Y-87780761D01*
X89590666Y-87828380D01*
X89495428Y-87828380D01*
X89400190Y-87780761D01*
X89352571Y-87733142D01*
X89304952Y-87637904D01*
X89257333Y-87447428D01*
X89257333Y-87209333D01*
X89304952Y-87018857D01*
X89352571Y-86923619D01*
X89400190Y-86876000D01*
X89495428Y-86828380D01*
X90447809Y-86828380D02*
X90543047Y-86828380D01*
X90638285Y-86876000D01*
X90685904Y-86923619D01*
X90733523Y-87018857D01*
X90781142Y-87209333D01*
X90781142Y-87447428D01*
X90733523Y-87637904D01*
X90685904Y-87733142D01*
X90638285Y-87780761D01*
X90543047Y-87828380D01*
X90447809Y-87828380D01*
X90352571Y-87780761D01*
X90304952Y-87733142D01*
X90257333Y-87637904D01*
X90209714Y-87447428D01*
X90209714Y-87209333D01*
X90257333Y-87018857D01*
X90304952Y-86923619D01*
X90352571Y-86876000D01*
X90447809Y-86828380D01*
X91638285Y-87161714D02*
X91638285Y-87828380D01*
X91209714Y-87161714D02*
X91209714Y-87685523D01*
X91257333Y-87780761D01*
X91352571Y-87828380D01*
X91495428Y-87828380D01*
X91590666Y-87780761D01*
X91638285Y-87733142D01*
X92447809Y-87304571D02*
X92114476Y-87304571D01*
X92114476Y-87828380D02*
X92114476Y-86828380D01*
X92590666Y-86828380D01*
%TO.C,C14*%
X72001142Y-81129142D02*
X71953523Y-81176761D01*
X71810666Y-81224380D01*
X71715428Y-81224380D01*
X71572571Y-81176761D01*
X71477333Y-81081523D01*
X71429714Y-80986285D01*
X71382095Y-80795809D01*
X71382095Y-80652952D01*
X71429714Y-80462476D01*
X71477333Y-80367238D01*
X71572571Y-80272000D01*
X71715428Y-80224380D01*
X71810666Y-80224380D01*
X71953523Y-80272000D01*
X72001142Y-80319619D01*
X72953523Y-81224380D02*
X72382095Y-81224380D01*
X72667809Y-81224380D02*
X72667809Y-80224380D01*
X72572571Y-80367238D01*
X72477333Y-80462476D01*
X72382095Y-80510095D01*
X73810666Y-80557714D02*
X73810666Y-81224380D01*
X73572571Y-80176761D02*
X73334476Y-80891047D01*
X73953523Y-80891047D01*
X71096380Y-88336380D02*
X70524952Y-88336380D01*
X70810666Y-88336380D02*
X70810666Y-87336380D01*
X70715428Y-87479238D01*
X70620190Y-87574476D01*
X70524952Y-87622095D01*
X71715428Y-87336380D02*
X71810666Y-87336380D01*
X71905904Y-87384000D01*
X71953523Y-87431619D01*
X72001142Y-87526857D01*
X72048761Y-87717333D01*
X72048761Y-87955428D01*
X72001142Y-88145904D01*
X71953523Y-88241142D01*
X71905904Y-88288761D01*
X71810666Y-88336380D01*
X71715428Y-88336380D01*
X71620190Y-88288761D01*
X71572571Y-88241142D01*
X71524952Y-88145904D01*
X71477333Y-87955428D01*
X71477333Y-87717333D01*
X71524952Y-87526857D01*
X71572571Y-87431619D01*
X71620190Y-87384000D01*
X71715428Y-87336380D01*
X72667809Y-87336380D02*
X72763047Y-87336380D01*
X72858285Y-87384000D01*
X72905904Y-87431619D01*
X72953523Y-87526857D01*
X73001142Y-87717333D01*
X73001142Y-87955428D01*
X72953523Y-88145904D01*
X72905904Y-88241142D01*
X72858285Y-88288761D01*
X72763047Y-88336380D01*
X72667809Y-88336380D01*
X72572571Y-88288761D01*
X72524952Y-88241142D01*
X72477333Y-88145904D01*
X72429714Y-87955428D01*
X72429714Y-87717333D01*
X72477333Y-87526857D01*
X72524952Y-87431619D01*
X72572571Y-87384000D01*
X72667809Y-87336380D01*
X73858285Y-87669714D02*
X73858285Y-88336380D01*
X73429714Y-87669714D02*
X73429714Y-88193523D01*
X73477333Y-88288761D01*
X73572571Y-88336380D01*
X73715428Y-88336380D01*
X73810666Y-88288761D01*
X73858285Y-88241142D01*
X74667809Y-87812571D02*
X74334476Y-87812571D01*
X74334476Y-88336380D02*
X74334476Y-87336380D01*
X74810666Y-87336380D01*
%TO.C,C13*%
X64873142Y-84930857D02*
X64920761Y-84978476D01*
X64968380Y-85121333D01*
X64968380Y-85216571D01*
X64920761Y-85359428D01*
X64825523Y-85454666D01*
X64730285Y-85502285D01*
X64539809Y-85549904D01*
X64396952Y-85549904D01*
X64206476Y-85502285D01*
X64111238Y-85454666D01*
X64016000Y-85359428D01*
X63968380Y-85216571D01*
X63968380Y-85121333D01*
X64016000Y-84978476D01*
X64063619Y-84930857D01*
X64968380Y-83978476D02*
X64968380Y-84549904D01*
X64968380Y-84264190D02*
X63968380Y-84264190D01*
X64111238Y-84359428D01*
X64206476Y-84454666D01*
X64254095Y-84549904D01*
X63968380Y-83645142D02*
X63968380Y-83026095D01*
X64349333Y-83359428D01*
X64349333Y-83216571D01*
X64396952Y-83121333D01*
X64444571Y-83073714D01*
X64539809Y-83026095D01*
X64777904Y-83026095D01*
X64873142Y-83073714D01*
X64920761Y-83121333D01*
X64968380Y-83216571D01*
X64968380Y-83502285D01*
X64920761Y-83597523D01*
X64873142Y-83645142D01*
X69540380Y-85875619D02*
X69540380Y-86447047D01*
X69540380Y-86161333D02*
X68540380Y-86161333D01*
X68683238Y-86256571D01*
X68778476Y-86351809D01*
X68826095Y-86447047D01*
X68540380Y-85256571D02*
X68540380Y-85161333D01*
X68588000Y-85066095D01*
X68635619Y-85018476D01*
X68730857Y-84970857D01*
X68921333Y-84923238D01*
X69159428Y-84923238D01*
X69349904Y-84970857D01*
X69445142Y-85018476D01*
X69492761Y-85066095D01*
X69540380Y-85161333D01*
X69540380Y-85256571D01*
X69492761Y-85351809D01*
X69445142Y-85399428D01*
X69349904Y-85447047D01*
X69159428Y-85494666D01*
X68921333Y-85494666D01*
X68730857Y-85447047D01*
X68635619Y-85399428D01*
X68588000Y-85351809D01*
X68540380Y-85256571D01*
X68540380Y-84304190D02*
X68540380Y-84208952D01*
X68588000Y-84113714D01*
X68635619Y-84066095D01*
X68730857Y-84018476D01*
X68921333Y-83970857D01*
X69159428Y-83970857D01*
X69349904Y-84018476D01*
X69445142Y-84066095D01*
X69492761Y-84113714D01*
X69540380Y-84208952D01*
X69540380Y-84304190D01*
X69492761Y-84399428D01*
X69445142Y-84447047D01*
X69349904Y-84494666D01*
X69159428Y-84542285D01*
X68921333Y-84542285D01*
X68730857Y-84494666D01*
X68635619Y-84447047D01*
X68588000Y-84399428D01*
X68540380Y-84304190D01*
X68873714Y-83542285D02*
X69540380Y-83542285D01*
X68968952Y-83542285D02*
X68921333Y-83494666D01*
X68873714Y-83399428D01*
X68873714Y-83256571D01*
X68921333Y-83161333D01*
X69016571Y-83113714D01*
X69540380Y-83113714D01*
X69016571Y-82304190D02*
X69016571Y-82637523D01*
X69540380Y-82637523D02*
X68540380Y-82637523D01*
X68540380Y-82161333D01*
%TO.C,C2*%
X130897333Y-53697142D02*
X130849714Y-53744761D01*
X130706857Y-53792380D01*
X130611619Y-53792380D01*
X130468761Y-53744761D01*
X130373523Y-53649523D01*
X130325904Y-53554285D01*
X130278285Y-53363809D01*
X130278285Y-53220952D01*
X130325904Y-53030476D01*
X130373523Y-52935238D01*
X130468761Y-52840000D01*
X130611619Y-52792380D01*
X130706857Y-52792380D01*
X130849714Y-52840000D01*
X130897333Y-52887619D01*
X131278285Y-52887619D02*
X131325904Y-52840000D01*
X131421142Y-52792380D01*
X131659238Y-52792380D01*
X131754476Y-52840000D01*
X131802095Y-52887619D01*
X131849714Y-52982857D01*
X131849714Y-53078095D01*
X131802095Y-53220952D01*
X131230666Y-53792380D01*
X131849714Y-53792380D01*
X132977142Y-52887619D02*
X133024761Y-52840000D01*
X133120000Y-52792380D01*
X133358095Y-52792380D01*
X133453333Y-52840000D01*
X133500952Y-52887619D01*
X133548571Y-52982857D01*
X133548571Y-53078095D01*
X133500952Y-53220952D01*
X132929523Y-53792380D01*
X133548571Y-53792380D01*
X133929523Y-52887619D02*
X133977142Y-52840000D01*
X134072380Y-52792380D01*
X134310476Y-52792380D01*
X134405714Y-52840000D01*
X134453333Y-52887619D01*
X134500952Y-52982857D01*
X134500952Y-53078095D01*
X134453333Y-53220952D01*
X133881904Y-53792380D01*
X134500952Y-53792380D01*
X135358095Y-53125714D02*
X135358095Y-53792380D01*
X134929523Y-53125714D02*
X134929523Y-53649523D01*
X134977142Y-53744761D01*
X135072380Y-53792380D01*
X135215238Y-53792380D01*
X135310476Y-53744761D01*
X135358095Y-53697142D01*
X136167619Y-53268571D02*
X135834285Y-53268571D01*
X135834285Y-53792380D02*
X135834285Y-52792380D01*
X136310476Y-52792380D01*
%TO.C,C4*%
X118197333Y-90273142D02*
X118149714Y-90320761D01*
X118006857Y-90368380D01*
X117911619Y-90368380D01*
X117768761Y-90320761D01*
X117673523Y-90225523D01*
X117625904Y-90130285D01*
X117578285Y-89939809D01*
X117578285Y-89796952D01*
X117625904Y-89606476D01*
X117673523Y-89511238D01*
X117768761Y-89416000D01*
X117911619Y-89368380D01*
X118006857Y-89368380D01*
X118149714Y-89416000D01*
X118197333Y-89463619D01*
X119054476Y-89701714D02*
X119054476Y-90368380D01*
X118816380Y-89320761D02*
X118578285Y-90035047D01*
X119197333Y-90035047D01*
X117832380Y-91892380D02*
X117260952Y-91892380D01*
X117546666Y-91892380D02*
X117546666Y-90892380D01*
X117451428Y-91035238D01*
X117356190Y-91130476D01*
X117260952Y-91178095D01*
X118451428Y-90892380D02*
X118546666Y-90892380D01*
X118641904Y-90940000D01*
X118689523Y-90987619D01*
X118737142Y-91082857D01*
X118784761Y-91273333D01*
X118784761Y-91511428D01*
X118737142Y-91701904D01*
X118689523Y-91797142D01*
X118641904Y-91844761D01*
X118546666Y-91892380D01*
X118451428Y-91892380D01*
X118356190Y-91844761D01*
X118308571Y-91797142D01*
X118260952Y-91701904D01*
X118213333Y-91511428D01*
X118213333Y-91273333D01*
X118260952Y-91082857D01*
X118308571Y-90987619D01*
X118356190Y-90940000D01*
X118451428Y-90892380D01*
X119403809Y-90892380D02*
X119499047Y-90892380D01*
X119594285Y-90940000D01*
X119641904Y-90987619D01*
X119689523Y-91082857D01*
X119737142Y-91273333D01*
X119737142Y-91511428D01*
X119689523Y-91701904D01*
X119641904Y-91797142D01*
X119594285Y-91844761D01*
X119499047Y-91892380D01*
X119403809Y-91892380D01*
X119308571Y-91844761D01*
X119260952Y-91797142D01*
X119213333Y-91701904D01*
X119165714Y-91511428D01*
X119165714Y-91273333D01*
X119213333Y-91082857D01*
X119260952Y-90987619D01*
X119308571Y-90940000D01*
X119403809Y-90892380D01*
X120165714Y-91225714D02*
X120165714Y-91892380D01*
X120165714Y-91320952D02*
X120213333Y-91273333D01*
X120308571Y-91225714D01*
X120451428Y-91225714D01*
X120546666Y-91273333D01*
X120594285Y-91368571D01*
X120594285Y-91892380D01*
X121403809Y-91368571D02*
X121070476Y-91368571D01*
X121070476Y-91892380D02*
X121070476Y-90892380D01*
X121546666Y-90892380D01*
%TO.C,C5*%
X133437333Y-71477142D02*
X133389714Y-71524761D01*
X133246857Y-71572380D01*
X133151619Y-71572380D01*
X133008761Y-71524761D01*
X132913523Y-71429523D01*
X132865904Y-71334285D01*
X132818285Y-71143809D01*
X132818285Y-71000952D01*
X132865904Y-70810476D01*
X132913523Y-70715238D01*
X133008761Y-70620000D01*
X133151619Y-70572380D01*
X133246857Y-70572380D01*
X133389714Y-70620000D01*
X133437333Y-70667619D01*
X134342095Y-70572380D02*
X133865904Y-70572380D01*
X133818285Y-71048571D01*
X133865904Y-71000952D01*
X133961142Y-70953333D01*
X134199238Y-70953333D01*
X134294476Y-71000952D01*
X134342095Y-71048571D01*
X134389714Y-71143809D01*
X134389714Y-71381904D01*
X134342095Y-71477142D01*
X134294476Y-71524761D01*
X134199238Y-71572380D01*
X133961142Y-71572380D01*
X133865904Y-71524761D01*
X133818285Y-71477142D01*
X133008952Y-72096380D02*
X133104190Y-72096380D01*
X133199428Y-72144000D01*
X133247047Y-72191619D01*
X133294666Y-72286857D01*
X133342285Y-72477333D01*
X133342285Y-72715428D01*
X133294666Y-72905904D01*
X133247047Y-73001142D01*
X133199428Y-73048761D01*
X133104190Y-73096380D01*
X133008952Y-73096380D01*
X132913714Y-73048761D01*
X132866095Y-73001142D01*
X132818476Y-72905904D01*
X132770857Y-72715428D01*
X132770857Y-72477333D01*
X132818476Y-72286857D01*
X132866095Y-72191619D01*
X132913714Y-72144000D01*
X133008952Y-72096380D01*
X133770857Y-73001142D02*
X133818476Y-73048761D01*
X133770857Y-73096380D01*
X133723238Y-73048761D01*
X133770857Y-73001142D01*
X133770857Y-73096380D01*
X134199428Y-72191619D02*
X134247047Y-72144000D01*
X134342285Y-72096380D01*
X134580380Y-72096380D01*
X134675619Y-72144000D01*
X134723238Y-72191619D01*
X134770857Y-72286857D01*
X134770857Y-72382095D01*
X134723238Y-72524952D01*
X134151809Y-73096380D01*
X134770857Y-73096380D01*
X135151809Y-72191619D02*
X135199428Y-72144000D01*
X135294666Y-72096380D01*
X135532761Y-72096380D01*
X135628000Y-72144000D01*
X135675619Y-72191619D01*
X135723238Y-72286857D01*
X135723238Y-72382095D01*
X135675619Y-72524952D01*
X135104190Y-73096380D01*
X135723238Y-73096380D01*
X136580380Y-72429714D02*
X136580380Y-73096380D01*
X136151809Y-72429714D02*
X136151809Y-72953523D01*
X136199428Y-73048761D01*
X136294666Y-73096380D01*
X136437523Y-73096380D01*
X136532761Y-73048761D01*
X136580380Y-73001142D01*
X137389904Y-72572571D02*
X137056571Y-72572571D01*
X137056571Y-73096380D02*
X137056571Y-72096380D01*
X137532761Y-72096380D01*
%TO.C,C7*%
X136501142Y-86399666D02*
X136548761Y-86447285D01*
X136596380Y-86590142D01*
X136596380Y-86685380D01*
X136548761Y-86828238D01*
X136453523Y-86923476D01*
X136358285Y-86971095D01*
X136167809Y-87018714D01*
X136024952Y-87018714D01*
X135834476Y-86971095D01*
X135739238Y-86923476D01*
X135644000Y-86828238D01*
X135596380Y-86685380D01*
X135596380Y-86590142D01*
X135644000Y-86447285D01*
X135691619Y-86399666D01*
X135596380Y-86066333D02*
X135596380Y-85399666D01*
X136596380Y-85828238D01*
X144835619Y-87844047D02*
X144788000Y-87796428D01*
X144740380Y-87701190D01*
X144740380Y-87463095D01*
X144788000Y-87367857D01*
X144835619Y-87320238D01*
X144930857Y-87272619D01*
X145026095Y-87272619D01*
X145168952Y-87320238D01*
X145740380Y-87891666D01*
X145740380Y-87272619D01*
X144835619Y-86891666D02*
X144788000Y-86844047D01*
X144740380Y-86748809D01*
X144740380Y-86510714D01*
X144788000Y-86415476D01*
X144835619Y-86367857D01*
X144930857Y-86320238D01*
X145026095Y-86320238D01*
X145168952Y-86367857D01*
X145740380Y-86939285D01*
X145740380Y-86320238D01*
X144740380Y-85701190D02*
X144740380Y-85605952D01*
X144788000Y-85510714D01*
X144835619Y-85463095D01*
X144930857Y-85415476D01*
X145121333Y-85367857D01*
X145359428Y-85367857D01*
X145549904Y-85415476D01*
X145645142Y-85463095D01*
X145692761Y-85510714D01*
X145740380Y-85605952D01*
X145740380Y-85701190D01*
X145692761Y-85796428D01*
X145645142Y-85844047D01*
X145549904Y-85891666D01*
X145359428Y-85939285D01*
X145121333Y-85939285D01*
X144930857Y-85891666D01*
X144835619Y-85844047D01*
X144788000Y-85796428D01*
X144740380Y-85701190D01*
X145073714Y-84939285D02*
X145740380Y-84939285D01*
X145168952Y-84939285D02*
X145121333Y-84891666D01*
X145073714Y-84796428D01*
X145073714Y-84653571D01*
X145121333Y-84558333D01*
X145216571Y-84510714D01*
X145740380Y-84510714D01*
X145216571Y-83701190D02*
X145216571Y-84034523D01*
X145740380Y-84034523D02*
X144740380Y-84034523D01*
X144740380Y-83558333D01*
%TO.C,C8*%
X122769333Y-90273142D02*
X122721714Y-90320761D01*
X122578857Y-90368380D01*
X122483619Y-90368380D01*
X122340761Y-90320761D01*
X122245523Y-90225523D01*
X122197904Y-90130285D01*
X122150285Y-89939809D01*
X122150285Y-89796952D01*
X122197904Y-89606476D01*
X122245523Y-89511238D01*
X122340761Y-89416000D01*
X122483619Y-89368380D01*
X122578857Y-89368380D01*
X122721714Y-89416000D01*
X122769333Y-89463619D01*
X123340761Y-89796952D02*
X123245523Y-89749333D01*
X123197904Y-89701714D01*
X123150285Y-89606476D01*
X123150285Y-89558857D01*
X123197904Y-89463619D01*
X123245523Y-89416000D01*
X123340761Y-89368380D01*
X123531238Y-89368380D01*
X123626476Y-89416000D01*
X123674095Y-89463619D01*
X123721714Y-89558857D01*
X123721714Y-89606476D01*
X123674095Y-89701714D01*
X123626476Y-89749333D01*
X123531238Y-89796952D01*
X123340761Y-89796952D01*
X123245523Y-89844571D01*
X123197904Y-89892190D01*
X123150285Y-89987428D01*
X123150285Y-90177904D01*
X123197904Y-90273142D01*
X123245523Y-90320761D01*
X123340761Y-90368380D01*
X123531238Y-90368380D01*
X123626476Y-90320761D01*
X123674095Y-90273142D01*
X123721714Y-90177904D01*
X123721714Y-89987428D01*
X123674095Y-89892190D01*
X123626476Y-89844571D01*
X123531238Y-89796952D01*
X122912380Y-91892380D02*
X122340952Y-91892380D01*
X122626666Y-91892380D02*
X122626666Y-90892380D01*
X122531428Y-91035238D01*
X122436190Y-91130476D01*
X122340952Y-91178095D01*
X123531428Y-90892380D02*
X123626666Y-90892380D01*
X123721904Y-90940000D01*
X123769523Y-90987619D01*
X123817142Y-91082857D01*
X123864761Y-91273333D01*
X123864761Y-91511428D01*
X123817142Y-91701904D01*
X123769523Y-91797142D01*
X123721904Y-91844761D01*
X123626666Y-91892380D01*
X123531428Y-91892380D01*
X123436190Y-91844761D01*
X123388571Y-91797142D01*
X123340952Y-91701904D01*
X123293333Y-91511428D01*
X123293333Y-91273333D01*
X123340952Y-91082857D01*
X123388571Y-90987619D01*
X123436190Y-90940000D01*
X123531428Y-90892380D01*
X124483809Y-90892380D02*
X124579047Y-90892380D01*
X124674285Y-90940000D01*
X124721904Y-90987619D01*
X124769523Y-91082857D01*
X124817142Y-91273333D01*
X124817142Y-91511428D01*
X124769523Y-91701904D01*
X124721904Y-91797142D01*
X124674285Y-91844761D01*
X124579047Y-91892380D01*
X124483809Y-91892380D01*
X124388571Y-91844761D01*
X124340952Y-91797142D01*
X124293333Y-91701904D01*
X124245714Y-91511428D01*
X124245714Y-91273333D01*
X124293333Y-91082857D01*
X124340952Y-90987619D01*
X124388571Y-90940000D01*
X124483809Y-90892380D01*
X125245714Y-91225714D02*
X125245714Y-91892380D01*
X125245714Y-91320952D02*
X125293333Y-91273333D01*
X125388571Y-91225714D01*
X125531428Y-91225714D01*
X125626666Y-91273333D01*
X125674285Y-91368571D01*
X125674285Y-91892380D01*
X126483809Y-91368571D02*
X126150476Y-91368571D01*
X126150476Y-91892380D02*
X126150476Y-90892380D01*
X126626666Y-90892380D01*
%TO.C,C9*%
X151598333Y-98020142D02*
X151550714Y-98067761D01*
X151407857Y-98115380D01*
X151312619Y-98115380D01*
X151169761Y-98067761D01*
X151074523Y-97972523D01*
X151026904Y-97877285D01*
X150979285Y-97686809D01*
X150979285Y-97543952D01*
X151026904Y-97353476D01*
X151074523Y-97258238D01*
X151169761Y-97163000D01*
X151312619Y-97115380D01*
X151407857Y-97115380D01*
X151550714Y-97163000D01*
X151598333Y-97210619D01*
X152074523Y-98115380D02*
X152265000Y-98115380D01*
X152360238Y-98067761D01*
X152407857Y-98020142D01*
X152503095Y-97877285D01*
X152550714Y-97686809D01*
X152550714Y-97305857D01*
X152503095Y-97210619D01*
X152455476Y-97163000D01*
X152360238Y-97115380D01*
X152169761Y-97115380D01*
X152074523Y-97163000D01*
X152026904Y-97210619D01*
X151979285Y-97305857D01*
X151979285Y-97543952D01*
X152026904Y-97639190D01*
X152074523Y-97686809D01*
X152169761Y-97734428D01*
X152360238Y-97734428D01*
X152455476Y-97686809D01*
X152503095Y-97639190D01*
X152550714Y-97543952D01*
X151011142Y-98734619D02*
X151058761Y-98687000D01*
X151154000Y-98639380D01*
X151392095Y-98639380D01*
X151487333Y-98687000D01*
X151534952Y-98734619D01*
X151582571Y-98829857D01*
X151582571Y-98925095D01*
X151534952Y-99067952D01*
X150963523Y-99639380D01*
X151582571Y-99639380D01*
X151963523Y-98734619D02*
X152011142Y-98687000D01*
X152106380Y-98639380D01*
X152344476Y-98639380D01*
X152439714Y-98687000D01*
X152487333Y-98734619D01*
X152534952Y-98829857D01*
X152534952Y-98925095D01*
X152487333Y-99067952D01*
X151915904Y-99639380D01*
X152534952Y-99639380D01*
X153392095Y-98972714D02*
X153392095Y-99639380D01*
X152963523Y-98972714D02*
X152963523Y-99496523D01*
X153011142Y-99591761D01*
X153106380Y-99639380D01*
X153249238Y-99639380D01*
X153344476Y-99591761D01*
X153392095Y-99544142D01*
X154201619Y-99115571D02*
X153868285Y-99115571D01*
X153868285Y-99639380D02*
X153868285Y-98639380D01*
X154344476Y-98639380D01*
%TO.C,C10*%
X71009142Y-70786857D02*
X71056761Y-70834476D01*
X71104380Y-70977333D01*
X71104380Y-71072571D01*
X71056761Y-71215428D01*
X70961523Y-71310666D01*
X70866285Y-71358285D01*
X70675809Y-71405904D01*
X70532952Y-71405904D01*
X70342476Y-71358285D01*
X70247238Y-71310666D01*
X70152000Y-71215428D01*
X70104380Y-71072571D01*
X70104380Y-70977333D01*
X70152000Y-70834476D01*
X70199619Y-70786857D01*
X71104380Y-69834476D02*
X71104380Y-70405904D01*
X71104380Y-70120190D02*
X70104380Y-70120190D01*
X70247238Y-70215428D01*
X70342476Y-70310666D01*
X70390095Y-70405904D01*
X70104380Y-69215428D02*
X70104380Y-69120190D01*
X70152000Y-69024952D01*
X70199619Y-68977333D01*
X70294857Y-68929714D01*
X70485333Y-68882095D01*
X70723428Y-68882095D01*
X70913904Y-68929714D01*
X71009142Y-68977333D01*
X71056761Y-69024952D01*
X71104380Y-69120190D01*
X71104380Y-69215428D01*
X71056761Y-69310666D01*
X71009142Y-69358285D01*
X70913904Y-69405904D01*
X70723428Y-69453523D01*
X70485333Y-69453523D01*
X70294857Y-69405904D01*
X70199619Y-69358285D01*
X70152000Y-69310666D01*
X70104380Y-69215428D01*
%TO.C,C11*%
X70501142Y-93138857D02*
X70548761Y-93186476D01*
X70596380Y-93329333D01*
X70596380Y-93424571D01*
X70548761Y-93567428D01*
X70453523Y-93662666D01*
X70358285Y-93710285D01*
X70167809Y-93757904D01*
X70024952Y-93757904D01*
X69834476Y-93710285D01*
X69739238Y-93662666D01*
X69644000Y-93567428D01*
X69596380Y-93424571D01*
X69596380Y-93329333D01*
X69644000Y-93186476D01*
X69691619Y-93138857D01*
X70596380Y-92186476D02*
X70596380Y-92757904D01*
X70596380Y-92472190D02*
X69596380Y-92472190D01*
X69739238Y-92567428D01*
X69834476Y-92662666D01*
X69882095Y-92757904D01*
X70596380Y-91234095D02*
X70596380Y-91805523D01*
X70596380Y-91519809D02*
X69596380Y-91519809D01*
X69739238Y-91615047D01*
X69834476Y-91710285D01*
X69882095Y-91805523D01*
X75596380Y-94043619D02*
X75596380Y-94615047D01*
X75596380Y-94329333D02*
X74596380Y-94329333D01*
X74739238Y-94424571D01*
X74834476Y-94519809D01*
X74882095Y-94615047D01*
X74596380Y-93424571D02*
X74596380Y-93329333D01*
X74644000Y-93234095D01*
X74691619Y-93186476D01*
X74786857Y-93138857D01*
X74977333Y-93091238D01*
X75215428Y-93091238D01*
X75405904Y-93138857D01*
X75501142Y-93186476D01*
X75548761Y-93234095D01*
X75596380Y-93329333D01*
X75596380Y-93424571D01*
X75548761Y-93519809D01*
X75501142Y-93567428D01*
X75405904Y-93615047D01*
X75215428Y-93662666D01*
X74977333Y-93662666D01*
X74786857Y-93615047D01*
X74691619Y-93567428D01*
X74644000Y-93519809D01*
X74596380Y-93424571D01*
X74596380Y-92472190D02*
X74596380Y-92376952D01*
X74644000Y-92281714D01*
X74691619Y-92234095D01*
X74786857Y-92186476D01*
X74977333Y-92138857D01*
X75215428Y-92138857D01*
X75405904Y-92186476D01*
X75501142Y-92234095D01*
X75548761Y-92281714D01*
X75596380Y-92376952D01*
X75596380Y-92472190D01*
X75548761Y-92567428D01*
X75501142Y-92615047D01*
X75405904Y-92662666D01*
X75215428Y-92710285D01*
X74977333Y-92710285D01*
X74786857Y-92662666D01*
X74691619Y-92615047D01*
X74644000Y-92567428D01*
X74596380Y-92472190D01*
X74929714Y-91710285D02*
X75596380Y-91710285D01*
X75024952Y-91710285D02*
X74977333Y-91662666D01*
X74929714Y-91567428D01*
X74929714Y-91424571D01*
X74977333Y-91329333D01*
X75072571Y-91281714D01*
X75596380Y-91281714D01*
X75072571Y-90472190D02*
X75072571Y-90805523D01*
X75596380Y-90805523D02*
X74596380Y-90805523D01*
X74596380Y-90329333D01*
%TO.C,C12*%
X87773142Y-66722857D02*
X87820761Y-66770476D01*
X87868380Y-66913333D01*
X87868380Y-67008571D01*
X87820761Y-67151428D01*
X87725523Y-67246666D01*
X87630285Y-67294285D01*
X87439809Y-67341904D01*
X87296952Y-67341904D01*
X87106476Y-67294285D01*
X87011238Y-67246666D01*
X86916000Y-67151428D01*
X86868380Y-67008571D01*
X86868380Y-66913333D01*
X86916000Y-66770476D01*
X86963619Y-66722857D01*
X87868380Y-65770476D02*
X87868380Y-66341904D01*
X87868380Y-66056190D02*
X86868380Y-66056190D01*
X87011238Y-66151428D01*
X87106476Y-66246666D01*
X87154095Y-66341904D01*
X86963619Y-65389523D02*
X86916000Y-65341904D01*
X86868380Y-65246666D01*
X86868380Y-65008571D01*
X86916000Y-64913333D01*
X86963619Y-64865714D01*
X87058857Y-64818095D01*
X87154095Y-64818095D01*
X87296952Y-64865714D01*
X87868380Y-65437142D01*
X87868380Y-64818095D01*
%TO.C,D1*%
X130325904Y-78176380D02*
X130325904Y-77176380D01*
X130564000Y-77176380D01*
X130706857Y-77224000D01*
X130802095Y-77319238D01*
X130849714Y-77414476D01*
X130897333Y-77604952D01*
X130897333Y-77747809D01*
X130849714Y-77938285D01*
X130802095Y-78033523D01*
X130706857Y-78128761D01*
X130564000Y-78176380D01*
X130325904Y-78176380D01*
X131849714Y-78176380D02*
X131278285Y-78176380D01*
X131564000Y-78176380D02*
X131564000Y-77176380D01*
X131468761Y-77319238D01*
X131373523Y-77414476D01*
X131278285Y-77462095D01*
X118102095Y-76076380D02*
X118102095Y-75076380D01*
X118673523Y-76076380D02*
X118244952Y-75504952D01*
X118673523Y-75076380D02*
X118102095Y-75647809D01*
%TO.C,D3*%
X131078380Y-103820594D02*
X130078380Y-103820594D01*
X130078380Y-103582499D01*
X130126000Y-103439641D01*
X130221238Y-103344403D01*
X130316476Y-103296784D01*
X130506952Y-103249165D01*
X130649809Y-103249165D01*
X130840285Y-103296784D01*
X130935523Y-103344403D01*
X131030761Y-103439641D01*
X131078380Y-103582499D01*
X131078380Y-103820594D01*
X130078380Y-102915832D02*
X130078380Y-102296784D01*
X130459333Y-102630118D01*
X130459333Y-102487260D01*
X130506952Y-102392022D01*
X130554571Y-102344403D01*
X130649809Y-102296784D01*
X130887904Y-102296784D01*
X130983142Y-102344403D01*
X131030761Y-102392022D01*
X131078380Y-102487260D01*
X131078380Y-102772975D01*
X131030761Y-102868213D01*
X130983142Y-102915832D01*
X131448380Y-108424403D02*
X130448380Y-108424403D01*
X131448380Y-107852975D02*
X130876952Y-108281546D01*
X130448380Y-107852975D02*
X131019809Y-108424403D01*
%TO.C,D4*%
X140082380Y-103862095D02*
X139082380Y-103862095D01*
X139082380Y-103624000D01*
X139130000Y-103481142D01*
X139225238Y-103385904D01*
X139320476Y-103338285D01*
X139510952Y-103290666D01*
X139653809Y-103290666D01*
X139844285Y-103338285D01*
X139939523Y-103385904D01*
X140034761Y-103481142D01*
X140082380Y-103624000D01*
X140082380Y-103862095D01*
X139415714Y-102433523D02*
X140082380Y-102433523D01*
X139034761Y-102671619D02*
X139749047Y-102909714D01*
X139749047Y-102290666D01*
X139712380Y-98305904D02*
X138712380Y-98305904D01*
X139712380Y-97734476D02*
X139140952Y-98163047D01*
X138712380Y-97734476D02*
X139283809Y-98305904D01*
%TO.C,J2*%
X46696380Y-92281333D02*
X47410666Y-92281333D01*
X47553523Y-92328952D01*
X47648761Y-92424190D01*
X47696380Y-92567047D01*
X47696380Y-92662285D01*
X46791619Y-91852761D02*
X46744000Y-91805142D01*
X46696380Y-91709904D01*
X46696380Y-91471809D01*
X46744000Y-91376571D01*
X46791619Y-91328952D01*
X46886857Y-91281333D01*
X46982095Y-91281333D01*
X47124952Y-91328952D01*
X47696380Y-91900380D01*
X47696380Y-91281333D01*
%TO.C,R2*%
X141819333Y-54978380D02*
X141486000Y-54502190D01*
X141247904Y-54978380D02*
X141247904Y-53978380D01*
X141628857Y-53978380D01*
X141724095Y-54026000D01*
X141771714Y-54073619D01*
X141819333Y-54168857D01*
X141819333Y-54311714D01*
X141771714Y-54406952D01*
X141724095Y-54454571D01*
X141628857Y-54502190D01*
X141247904Y-54502190D01*
X142200285Y-54073619D02*
X142247904Y-54026000D01*
X142343142Y-53978380D01*
X142581238Y-53978380D01*
X142676476Y-54026000D01*
X142724095Y-54073619D01*
X142771714Y-54168857D01*
X142771714Y-54264095D01*
X142724095Y-54406952D01*
X142152666Y-54978380D01*
X142771714Y-54978380D01*
X140724095Y-58718380D02*
X140533619Y-58718380D01*
X140438380Y-58766000D01*
X140390761Y-58813619D01*
X140295523Y-58956476D01*
X140247904Y-59146952D01*
X140247904Y-59527904D01*
X140295523Y-59623142D01*
X140343142Y-59670761D01*
X140438380Y-59718380D01*
X140628857Y-59718380D01*
X140724095Y-59670761D01*
X140771714Y-59623142D01*
X140819333Y-59527904D01*
X140819333Y-59289809D01*
X140771714Y-59194571D01*
X140724095Y-59146952D01*
X140628857Y-59099333D01*
X140438380Y-59099333D01*
X140343142Y-59146952D01*
X140295523Y-59194571D01*
X140247904Y-59289809D01*
X141390761Y-59146952D02*
X141295523Y-59099333D01*
X141247904Y-59051714D01*
X141200285Y-58956476D01*
X141200285Y-58908857D01*
X141247904Y-58813619D01*
X141295523Y-58766000D01*
X141390761Y-58718380D01*
X141581238Y-58718380D01*
X141676476Y-58766000D01*
X141724095Y-58813619D01*
X141771714Y-58908857D01*
X141771714Y-58956476D01*
X141724095Y-59051714D01*
X141676476Y-59099333D01*
X141581238Y-59146952D01*
X141390761Y-59146952D01*
X141295523Y-59194571D01*
X141247904Y-59242190D01*
X141200285Y-59337428D01*
X141200285Y-59527904D01*
X141247904Y-59623142D01*
X141295523Y-59670761D01*
X141390761Y-59718380D01*
X141581238Y-59718380D01*
X141676476Y-59670761D01*
X141724095Y-59623142D01*
X141771714Y-59527904D01*
X141771714Y-59337428D01*
X141724095Y-59242190D01*
X141676476Y-59194571D01*
X141581238Y-59146952D01*
X142390761Y-58718380D02*
X142486000Y-58718380D01*
X142581238Y-58766000D01*
X142628857Y-58813619D01*
X142676476Y-58908857D01*
X142724095Y-59099333D01*
X142724095Y-59337428D01*
X142676476Y-59527904D01*
X142628857Y-59623142D01*
X142581238Y-59670761D01*
X142486000Y-59718380D01*
X142390761Y-59718380D01*
X142295523Y-59670761D01*
X142247904Y-59623142D01*
X142200285Y-59527904D01*
X142152666Y-59337428D01*
X142152666Y-59099333D01*
X142200285Y-58908857D01*
X142247904Y-58813619D01*
X142295523Y-58766000D01*
X142390761Y-58718380D01*
X143724095Y-59718380D02*
X143390761Y-59242190D01*
X143152666Y-59718380D02*
X143152666Y-58718380D01*
X143533619Y-58718380D01*
X143628857Y-58766000D01*
X143676476Y-58813619D01*
X143724095Y-58908857D01*
X143724095Y-59051714D01*
X143676476Y-59146952D01*
X143628857Y-59194571D01*
X143533619Y-59242190D01*
X143152666Y-59242190D01*
%TO.C,R3*%
X136993333Y-60650380D02*
X136660000Y-60174190D01*
X136421904Y-60650380D02*
X136421904Y-59650380D01*
X136802857Y-59650380D01*
X136898095Y-59698000D01*
X136945714Y-59745619D01*
X136993333Y-59840857D01*
X136993333Y-59983714D01*
X136945714Y-60078952D01*
X136898095Y-60126571D01*
X136802857Y-60174190D01*
X136421904Y-60174190D01*
X137326666Y-59650380D02*
X137945714Y-59650380D01*
X137612380Y-60031333D01*
X137755238Y-60031333D01*
X137850476Y-60078952D01*
X137898095Y-60126571D01*
X137945714Y-60221809D01*
X137945714Y-60459904D01*
X137898095Y-60555142D01*
X137850476Y-60602761D01*
X137755238Y-60650380D01*
X137469523Y-60650380D01*
X137374285Y-60602761D01*
X137326666Y-60555142D01*
X135898095Y-64063619D02*
X135945714Y-64016000D01*
X136040952Y-63968380D01*
X136279047Y-63968380D01*
X136374285Y-64016000D01*
X136421904Y-64063619D01*
X136469523Y-64158857D01*
X136469523Y-64254095D01*
X136421904Y-64396952D01*
X135850476Y-64968380D01*
X136469523Y-64968380D01*
X136850476Y-64063619D02*
X136898095Y-64016000D01*
X136993333Y-63968380D01*
X137231428Y-63968380D01*
X137326666Y-64016000D01*
X137374285Y-64063619D01*
X137421904Y-64158857D01*
X137421904Y-64254095D01*
X137374285Y-64396952D01*
X136802857Y-64968380D01*
X137421904Y-64968380D01*
X137850476Y-64968380D02*
X137850476Y-63968380D01*
X138421904Y-64968380D02*
X137993333Y-64396952D01*
X138421904Y-63968380D02*
X137850476Y-64539809D01*
%TO.C,R7*%
X148677333Y-72334380D02*
X148344000Y-71858190D01*
X148105904Y-72334380D02*
X148105904Y-71334380D01*
X148486857Y-71334380D01*
X148582095Y-71382000D01*
X148629714Y-71429619D01*
X148677333Y-71524857D01*
X148677333Y-71667714D01*
X148629714Y-71762952D01*
X148582095Y-71810571D01*
X148486857Y-71858190D01*
X148105904Y-71858190D01*
X149010666Y-71334380D02*
X149677333Y-71334380D01*
X149248761Y-72334380D01*
X148217095Y-72826619D02*
X148264714Y-72779000D01*
X148359952Y-72731380D01*
X148598047Y-72731380D01*
X148693285Y-72779000D01*
X148740904Y-72826619D01*
X148788523Y-72921857D01*
X148788523Y-73017095D01*
X148740904Y-73159952D01*
X148169476Y-73731380D01*
X148788523Y-73731380D01*
X149169476Y-72826619D02*
X149217095Y-72779000D01*
X149312333Y-72731380D01*
X149550428Y-72731380D01*
X149645666Y-72779000D01*
X149693285Y-72826619D01*
X149740904Y-72921857D01*
X149740904Y-73017095D01*
X149693285Y-73159952D01*
X149121857Y-73731380D01*
X149740904Y-73731380D01*
X150169476Y-73731380D02*
X150169476Y-72731380D01*
X150740904Y-73731380D02*
X150312333Y-73159952D01*
X150740904Y-72731380D02*
X150169476Y-73302809D01*
%TO.C,R8*%
X148677333Y-78938380D02*
X148344000Y-78462190D01*
X148105904Y-78938380D02*
X148105904Y-77938380D01*
X148486857Y-77938380D01*
X148582095Y-77986000D01*
X148629714Y-78033619D01*
X148677333Y-78128857D01*
X148677333Y-78271714D01*
X148629714Y-78366952D01*
X148582095Y-78414571D01*
X148486857Y-78462190D01*
X148105904Y-78462190D01*
X149248761Y-78366952D02*
X149153523Y-78319333D01*
X149105904Y-78271714D01*
X149058285Y-78176476D01*
X149058285Y-78128857D01*
X149105904Y-78033619D01*
X149153523Y-77986000D01*
X149248761Y-77938380D01*
X149439238Y-77938380D01*
X149534476Y-77986000D01*
X149582095Y-78033619D01*
X149629714Y-78128857D01*
X149629714Y-78176476D01*
X149582095Y-78271714D01*
X149534476Y-78319333D01*
X149439238Y-78366952D01*
X149248761Y-78366952D01*
X149153523Y-78414571D01*
X149105904Y-78462190D01*
X149058285Y-78557428D01*
X149058285Y-78747904D01*
X149105904Y-78843142D01*
X149153523Y-78890761D01*
X149248761Y-78938380D01*
X149439238Y-78938380D01*
X149534476Y-78890761D01*
X149582095Y-78843142D01*
X149629714Y-78747904D01*
X149629714Y-78557428D01*
X149582095Y-78462190D01*
X149534476Y-78414571D01*
X149439238Y-78366952D01*
X148344095Y-79462380D02*
X148153619Y-79462380D01*
X148058380Y-79510000D01*
X148010761Y-79557619D01*
X147915523Y-79700476D01*
X147867904Y-79890952D01*
X147867904Y-80271904D01*
X147915523Y-80367142D01*
X147963142Y-80414761D01*
X148058380Y-80462380D01*
X148248857Y-80462380D01*
X148344095Y-80414761D01*
X148391714Y-80367142D01*
X148439333Y-80271904D01*
X148439333Y-80033809D01*
X148391714Y-79938571D01*
X148344095Y-79890952D01*
X148248857Y-79843333D01*
X148058380Y-79843333D01*
X147963142Y-79890952D01*
X147915523Y-79938571D01*
X147867904Y-80033809D01*
X149010761Y-79890952D02*
X148915523Y-79843333D01*
X148867904Y-79795714D01*
X148820285Y-79700476D01*
X148820285Y-79652857D01*
X148867904Y-79557619D01*
X148915523Y-79510000D01*
X149010761Y-79462380D01*
X149201238Y-79462380D01*
X149296476Y-79510000D01*
X149344095Y-79557619D01*
X149391714Y-79652857D01*
X149391714Y-79700476D01*
X149344095Y-79795714D01*
X149296476Y-79843333D01*
X149201238Y-79890952D01*
X149010761Y-79890952D01*
X148915523Y-79938571D01*
X148867904Y-79986190D01*
X148820285Y-80081428D01*
X148820285Y-80271904D01*
X148867904Y-80367142D01*
X148915523Y-80414761D01*
X149010761Y-80462380D01*
X149201238Y-80462380D01*
X149296476Y-80414761D01*
X149344095Y-80367142D01*
X149391714Y-80271904D01*
X149391714Y-80081428D01*
X149344095Y-79986190D01*
X149296476Y-79938571D01*
X149201238Y-79890952D01*
X150010761Y-79462380D02*
X150106000Y-79462380D01*
X150201238Y-79510000D01*
X150248857Y-79557619D01*
X150296476Y-79652857D01*
X150344095Y-79843333D01*
X150344095Y-80081428D01*
X150296476Y-80271904D01*
X150248857Y-80367142D01*
X150201238Y-80414761D01*
X150106000Y-80462380D01*
X150010761Y-80462380D01*
X149915523Y-80414761D01*
X149867904Y-80367142D01*
X149820285Y-80271904D01*
X149772666Y-80081428D01*
X149772666Y-79843333D01*
X149820285Y-79652857D01*
X149867904Y-79557619D01*
X149915523Y-79510000D01*
X150010761Y-79462380D01*
X151344095Y-80462380D02*
X151010761Y-79986190D01*
X150772666Y-80462380D02*
X150772666Y-79462380D01*
X151153619Y-79462380D01*
X151248857Y-79510000D01*
X151296476Y-79557619D01*
X151344095Y-79652857D01*
X151344095Y-79795714D01*
X151296476Y-79890952D01*
X151248857Y-79938571D01*
X151153619Y-79986190D01*
X150772666Y-79986190D01*
%TO.C,R9*%
X130119380Y-92876666D02*
X129643190Y-93210000D01*
X130119380Y-93448095D02*
X129119380Y-93448095D01*
X129119380Y-93067142D01*
X129167000Y-92971904D01*
X129214619Y-92924285D01*
X129309857Y-92876666D01*
X129452714Y-92876666D01*
X129547952Y-92924285D01*
X129595571Y-92971904D01*
X129643190Y-93067142D01*
X129643190Y-93448095D01*
X130119380Y-92400476D02*
X130119380Y-92210000D01*
X130071761Y-92114761D01*
X130024142Y-92067142D01*
X129881285Y-91971904D01*
X129690809Y-91924285D01*
X129309857Y-91924285D01*
X129214619Y-91971904D01*
X129167000Y-92019523D01*
X129119380Y-92114761D01*
X129119380Y-92305238D01*
X129167000Y-92400476D01*
X129214619Y-92448095D01*
X129309857Y-92495714D01*
X129547952Y-92495714D01*
X129643190Y-92448095D01*
X129690809Y-92400476D01*
X129738428Y-92305238D01*
X129738428Y-92114761D01*
X129690809Y-92019523D01*
X129643190Y-91971904D01*
X129547952Y-91924285D01*
X140644619Y-93717904D02*
X140597000Y-93670285D01*
X140549380Y-93575047D01*
X140549380Y-93336952D01*
X140597000Y-93241714D01*
X140644619Y-93194095D01*
X140739857Y-93146476D01*
X140835095Y-93146476D01*
X140977952Y-93194095D01*
X141549380Y-93765523D01*
X141549380Y-93146476D01*
X140644619Y-92765523D02*
X140597000Y-92717904D01*
X140549380Y-92622666D01*
X140549380Y-92384571D01*
X140597000Y-92289333D01*
X140644619Y-92241714D01*
X140739857Y-92194095D01*
X140835095Y-92194095D01*
X140977952Y-92241714D01*
X141549380Y-92813142D01*
X141549380Y-92194095D01*
X141549380Y-91765523D02*
X140549380Y-91765523D01*
X141549380Y-91194095D02*
X140977952Y-91622666D01*
X140549380Y-91194095D02*
X141120809Y-91765523D01*
%TO.C,R10*%
X64127142Y-75806380D02*
X63793809Y-75330190D01*
X63555714Y-75806380D02*
X63555714Y-74806380D01*
X63936666Y-74806380D01*
X64031904Y-74854000D01*
X64079523Y-74901619D01*
X64127142Y-74996857D01*
X64127142Y-75139714D01*
X64079523Y-75234952D01*
X64031904Y-75282571D01*
X63936666Y-75330190D01*
X63555714Y-75330190D01*
X65079523Y-75806380D02*
X64508095Y-75806380D01*
X64793809Y-75806380D02*
X64793809Y-74806380D01*
X64698571Y-74949238D01*
X64603333Y-75044476D01*
X64508095Y-75092095D01*
X65698571Y-74806380D02*
X65793809Y-74806380D01*
X65889047Y-74854000D01*
X65936666Y-74901619D01*
X65984285Y-74996857D01*
X66031904Y-75187333D01*
X66031904Y-75425428D01*
X65984285Y-75615904D01*
X65936666Y-75711142D01*
X65889047Y-75758761D01*
X65793809Y-75806380D01*
X65698571Y-75806380D01*
X65603333Y-75758761D01*
X65555714Y-75711142D01*
X65508095Y-75615904D01*
X65460476Y-75425428D01*
X65460476Y-75187333D01*
X65508095Y-74996857D01*
X65555714Y-74901619D01*
X65603333Y-74854000D01*
X65698571Y-74806380D01*
X63222380Y-79546380D02*
X63841428Y-79546380D01*
X63508095Y-79927333D01*
X63650952Y-79927333D01*
X63746190Y-79974952D01*
X63793809Y-80022571D01*
X63841428Y-80117809D01*
X63841428Y-80355904D01*
X63793809Y-80451142D01*
X63746190Y-80498761D01*
X63650952Y-80546380D01*
X63365238Y-80546380D01*
X63270000Y-80498761D01*
X63222380Y-80451142D01*
X64270000Y-80451142D02*
X64317619Y-80498761D01*
X64270000Y-80546380D01*
X64222380Y-80498761D01*
X64270000Y-80451142D01*
X64270000Y-80546380D01*
X64793809Y-80546380D02*
X64984285Y-80546380D01*
X65079523Y-80498761D01*
X65127142Y-80451142D01*
X65222380Y-80308285D01*
X65270000Y-80117809D01*
X65270000Y-79736857D01*
X65222380Y-79641619D01*
X65174761Y-79594000D01*
X65079523Y-79546380D01*
X64889047Y-79546380D01*
X64793809Y-79594000D01*
X64746190Y-79641619D01*
X64698571Y-79736857D01*
X64698571Y-79974952D01*
X64746190Y-80070190D01*
X64793809Y-80117809D01*
X64889047Y-80165428D01*
X65079523Y-80165428D01*
X65174761Y-80117809D01*
X65222380Y-80070190D01*
X65270000Y-79974952D01*
X65698571Y-80546380D02*
X65698571Y-79546380D01*
X66270000Y-80546380D02*
X65841428Y-79974952D01*
X66270000Y-79546380D02*
X65698571Y-80117809D01*
%TO.C,R11*%
X60825142Y-87320380D02*
X60491809Y-86844190D01*
X60253714Y-87320380D02*
X60253714Y-86320380D01*
X60634666Y-86320380D01*
X60729904Y-86368000D01*
X60777523Y-86415619D01*
X60825142Y-86510857D01*
X60825142Y-86653714D01*
X60777523Y-86748952D01*
X60729904Y-86796571D01*
X60634666Y-86844190D01*
X60253714Y-86844190D01*
X61777523Y-87320380D02*
X61206095Y-87320380D01*
X61491809Y-87320380D02*
X61491809Y-86320380D01*
X61396571Y-86463238D01*
X61301333Y-86558476D01*
X61206095Y-86606095D01*
X62729904Y-87320380D02*
X62158476Y-87320380D01*
X62444190Y-87320380D02*
X62444190Y-86320380D01*
X62348952Y-86463238D01*
X62253714Y-86558476D01*
X62158476Y-86606095D01*
X61047428Y-88844380D02*
X60476000Y-88844380D01*
X60761714Y-88844380D02*
X60761714Y-87844380D01*
X60666476Y-87987238D01*
X60571238Y-88082476D01*
X60476000Y-88130095D01*
X61476000Y-88749142D02*
X61523619Y-88796761D01*
X61476000Y-88844380D01*
X61428380Y-88796761D01*
X61476000Y-88749142D01*
X61476000Y-88844380D01*
X62428380Y-87844380D02*
X61952190Y-87844380D01*
X61904571Y-88320571D01*
X61952190Y-88272952D01*
X62047428Y-88225333D01*
X62285523Y-88225333D01*
X62380761Y-88272952D01*
X62428380Y-88320571D01*
X62476000Y-88415809D01*
X62476000Y-88653904D01*
X62428380Y-88749142D01*
X62380761Y-88796761D01*
X62285523Y-88844380D01*
X62047428Y-88844380D01*
X61952190Y-88796761D01*
X61904571Y-88749142D01*
X62904571Y-88844380D02*
X62904571Y-87844380D01*
X63476000Y-88844380D02*
X63047428Y-88272952D01*
X63476000Y-87844380D02*
X62904571Y-88415809D01*
%TO.C,R15*%
X93337142Y-93416380D02*
X93003809Y-92940190D01*
X92765714Y-93416380D02*
X92765714Y-92416380D01*
X93146666Y-92416380D01*
X93241904Y-92464000D01*
X93289523Y-92511619D01*
X93337142Y-92606857D01*
X93337142Y-92749714D01*
X93289523Y-92844952D01*
X93241904Y-92892571D01*
X93146666Y-92940190D01*
X92765714Y-92940190D01*
X94289523Y-93416380D02*
X93718095Y-93416380D01*
X94003809Y-93416380D02*
X94003809Y-92416380D01*
X93908571Y-92559238D01*
X93813333Y-92654476D01*
X93718095Y-92702095D01*
X95194285Y-92416380D02*
X94718095Y-92416380D01*
X94670476Y-92892571D01*
X94718095Y-92844952D01*
X94813333Y-92797333D01*
X95051428Y-92797333D01*
X95146666Y-92844952D01*
X95194285Y-92892571D01*
X95241904Y-92987809D01*
X95241904Y-93225904D01*
X95194285Y-93321142D01*
X95146666Y-93368761D01*
X95051428Y-93416380D01*
X94813333Y-93416380D01*
X94718095Y-93368761D01*
X94670476Y-93321142D01*
X100877714Y-93246380D02*
X100306285Y-93246380D01*
X100592000Y-93246380D02*
X100592000Y-92246380D01*
X100496761Y-92389238D01*
X100401523Y-92484476D01*
X100306285Y-92532095D01*
X101306285Y-93246380D02*
X101306285Y-92246380D01*
X101877714Y-93246380D02*
X101449142Y-92674952D01*
X101877714Y-92246380D02*
X101306285Y-92817809D01*
%TO.C,R16*%
X81145142Y-61920380D02*
X80811809Y-61444190D01*
X80573714Y-61920380D02*
X80573714Y-60920380D01*
X80954666Y-60920380D01*
X81049904Y-60968000D01*
X81097523Y-61015619D01*
X81145142Y-61110857D01*
X81145142Y-61253714D01*
X81097523Y-61348952D01*
X81049904Y-61396571D01*
X80954666Y-61444190D01*
X80573714Y-61444190D01*
X82097523Y-61920380D02*
X81526095Y-61920380D01*
X81811809Y-61920380D02*
X81811809Y-60920380D01*
X81716571Y-61063238D01*
X81621333Y-61158476D01*
X81526095Y-61206095D01*
X82954666Y-60920380D02*
X82764190Y-60920380D01*
X82668952Y-60968000D01*
X82621333Y-61015619D01*
X82526095Y-61158476D01*
X82478476Y-61348952D01*
X82478476Y-61729904D01*
X82526095Y-61825142D01*
X82573714Y-61872761D01*
X82668952Y-61920380D01*
X82859428Y-61920380D01*
X82954666Y-61872761D01*
X83002285Y-61825142D01*
X83049904Y-61729904D01*
X83049904Y-61491809D01*
X83002285Y-61396571D01*
X82954666Y-61348952D01*
X82859428Y-61301333D01*
X82668952Y-61301333D01*
X82573714Y-61348952D01*
X82526095Y-61396571D01*
X82478476Y-61491809D01*
%TO.C,R17*%
X93083142Y-74874380D02*
X92749809Y-74398190D01*
X92511714Y-74874380D02*
X92511714Y-73874380D01*
X92892666Y-73874380D01*
X92987904Y-73922000D01*
X93035523Y-73969619D01*
X93083142Y-74064857D01*
X93083142Y-74207714D01*
X93035523Y-74302952D01*
X92987904Y-74350571D01*
X92892666Y-74398190D01*
X92511714Y-74398190D01*
X94035523Y-74874380D02*
X93464095Y-74874380D01*
X93749809Y-74874380D02*
X93749809Y-73874380D01*
X93654571Y-74017238D01*
X93559333Y-74112476D01*
X93464095Y-74160095D01*
X94368857Y-73874380D02*
X95035523Y-73874380D01*
X94606952Y-74874380D01*
X92432380Y-75398380D02*
X93051428Y-75398380D01*
X92718095Y-75779333D01*
X92860952Y-75779333D01*
X92956190Y-75826952D01*
X93003809Y-75874571D01*
X93051428Y-75969809D01*
X93051428Y-76207904D01*
X93003809Y-76303142D01*
X92956190Y-76350761D01*
X92860952Y-76398380D01*
X92575238Y-76398380D01*
X92480000Y-76350761D01*
X92432380Y-76303142D01*
X93480000Y-76303142D02*
X93527619Y-76350761D01*
X93480000Y-76398380D01*
X93432380Y-76350761D01*
X93480000Y-76303142D01*
X93480000Y-76398380D01*
X93860952Y-75398380D02*
X94480000Y-75398380D01*
X94146666Y-75779333D01*
X94289523Y-75779333D01*
X94384761Y-75826952D01*
X94432380Y-75874571D01*
X94480000Y-75969809D01*
X94480000Y-76207904D01*
X94432380Y-76303142D01*
X94384761Y-76350761D01*
X94289523Y-76398380D01*
X94003809Y-76398380D01*
X93908571Y-76350761D01*
X93860952Y-76303142D01*
X94908571Y-76398380D02*
X94908571Y-75398380D01*
X95480000Y-76398380D02*
X95051428Y-75826952D01*
X95480000Y-75398380D02*
X94908571Y-75969809D01*
%TO.C,U2*%
X122526095Y-110372380D02*
X122526095Y-111181904D01*
X122573714Y-111277142D01*
X122621333Y-111324761D01*
X122716571Y-111372380D01*
X122907047Y-111372380D01*
X123002285Y-111324761D01*
X123049904Y-111277142D01*
X123097523Y-111181904D01*
X123097523Y-110372380D01*
X123526095Y-110467619D02*
X123573714Y-110420000D01*
X123668952Y-110372380D01*
X123907047Y-110372380D01*
X124002285Y-110420000D01*
X124049904Y-110467619D01*
X124097523Y-110562857D01*
X124097523Y-110658095D01*
X124049904Y-110800952D01*
X123478476Y-111372380D01*
X124097523Y-111372380D01*
%TO.C,U3*%
X80962595Y-72496880D02*
X80962595Y-73306404D01*
X81010214Y-73401642D01*
X81057833Y-73449261D01*
X81153071Y-73496880D01*
X81343547Y-73496880D01*
X81438785Y-73449261D01*
X81486404Y-73401642D01*
X81534023Y-73306404D01*
X81534023Y-72496880D01*
X81914976Y-72496880D02*
X82534023Y-72496880D01*
X82200690Y-72877833D01*
X82343547Y-72877833D01*
X82438785Y-72925452D01*
X82486404Y-72973071D01*
X82534023Y-73068309D01*
X82534023Y-73306404D01*
X82486404Y-73401642D01*
X82438785Y-73449261D01*
X82343547Y-73496880D01*
X82057833Y-73496880D01*
X81962595Y-73449261D01*
X81914976Y-73401642D01*
%TD*%
M02*
